<?xml version="1.0" encoding="utf-8"?>
<!-- Generator: Adobe Illustrator 16.0.3, SVG Export Plug-In . SVG Version: 6.00 Build 0)  -->
<!DOCTYPE svg PUBLIC "-//W3C//DTD SVG 1.1//EN" "http://www.w3.org/Graphics/SVG/1.1/DTD/svg11.dtd">
<svg version="1.1" id="Warstwa_1" xmlns="http://www.w3.org/2000/svg" xmlns:xlink="http://www.w3.org/1999/xlink" x="0px" y="0px"
	 width="30px" height="30px" viewBox="0 0 30 30" enable-background="new 0 0 30 30" xml:space="preserve">
<g id="DO_NOT_EDIT_-_BOUNDING_BOX">
	<rect id="BOUNDING_BOX" fill="none" width="30" height="30"/>
</g>
<g id="PLACE_YOUR_GRAPHIC_HERE">
	<g>
		
			<linearGradient id="SVGID_1_" gradientUnits="userSpaceOnUse" x1="115.4766" y1="-189.8491" x2="115.4766" y2="-165.8511" gradientTransform="matrix(1 0 0 -1 -100.96 -161.5996)">
			<stop  offset="0" style="stop-color:#FFFFFF"/>
			<stop  offset="1" style="stop-color:#424242;stop-opacity:0.25"/>
		</linearGradient>
		<path fill="url(#SVGID_1_)" d="M26.09,6.145L23.635,4.43c-0.451-0.316-1.072-0.201-1.383,0.254L10.986,20.805l-4.252-5.908
			c-0.32-0.449-0.943-0.551-1.389-0.225l-2.42,1.768c-0.443,0.324-0.543,0.953-0.221,1.402l6.529,9.193
			c0.476,0.764,1.035,1.215,1.765,1.215c0.693,0,1.191-0.409,1.645-1.102L26.338,7.542C26.65,7.087,26.539,6.461,26.09,6.145z"/>
		<path opacity="0.15" enable-background="new    " d="M26.09,4.895L23.635,3.18c-0.451-0.316-1.072-0.201-1.383,0.254
			L10.986,19.555l-4.252-5.908c-0.32-0.449-0.943-0.551-1.389-0.225l-2.42,1.768c-0.443,0.324-0.543,0.953-0.221,1.402l6.529,9.193
			C9.709,26.549,10.268,27,10.998,27c0.693,0,1.191-0.409,1.645-1.102L26.338,6.292C26.65,5.837,26.539,5.211,26.09,4.895z"/>
		
			<linearGradient id="SVGID_2_" gradientUnits="userSpaceOnUse" x1="115.4766" y1="-188.5991" x2="115.4766" y2="-164.6011" gradientTransform="matrix(1 0 0 -1 -100.96 -161.5996)">
			<stop  offset="0" style="stop-color:#5C5C5C"/>
			<stop  offset="1" style="stop-color:#000000"/>
		</linearGradient>
		<path fill="url(#SVGID_2_)" d="M26.09,4.895L23.635,3.18c-0.451-0.316-1.072-0.201-1.383,0.254L10.986,19.555l-4.252-5.908
			c-0.32-0.449-0.943-0.551-1.389-0.225l-2.42,1.768c-0.443,0.324-0.543,0.953-0.221,1.402l6.529,9.193
			C9.709,26.549,10.268,27,10.998,27c0.693,0,1.191-0.409,1.645-1.102L26.338,6.292C26.65,5.837,26.539,5.211,26.09,4.895z"/>
		<rect fill="none" width="30" height="30"/>
	</g>
</g>
</svg>
