<?xml version="1.0" encoding="utf-8"?>
<!-- Generator: Adobe Illustrator 16.0.3, SVG Export Plug-In . SVG Version: 6.00 Build 0)  -->
<!DOCTYPE svg PUBLIC "-//W3C//DTD SVG 1.1//EN" "http://www.w3.org/Graphics/SVG/1.1/DTD/svg11.dtd">
<svg version="1.1" id="Ebene_1" xmlns="http://www.w3.org/2000/svg" xmlns:xlink="http://www.w3.org/1999/xlink" x="0px" y="0px"
	 width="30px" height="30px" viewBox="0 0 30 30" enable-background="new 0 0 30 30" xml:space="preserve">
<g id="DO_NOT_EDIT_-_BOUNDING_BOX">
	<rect id="BOUNDING_BOX" fill="none" width="30" height="30"/>
</g>
<g id="PLACE_YOUR_GRAPHIC_HERE">
	<g>
		
			<linearGradient id="SVGID_1_" gradientUnits="userSpaceOnUse" x1="115.9609" y1="-190.8481" x2="115.9609" y2="-164.8491" gradientTransform="matrix(1 0 0 -1 -100.96 -161.5996)">
			<stop  offset="0" style="stop-color:#FFFFFF"/>
			<stop  offset="1" style="stop-color:#FFFFFF;stop-opacity:0.25"/>
		</linearGradient>
		<path fill="url(#SVGID_1_)" d="M5.438,19.863c-0.408,0.41-0.893,1.193-1.076,1.74l-2.309,6.928
			c-0.182,0.547,0.117,0.848,0.666,0.664l6.926-2.307c0.549-0.187,1.33-0.668,1.742-1.076l13.111-13.104l-5.947-5.947L5.438,19.863z
			 M8.811,25.412l-3.154,1.104L4.74,25.592l1.102-3.154l0.619-0.623l2.971,2.979L8.811,25.412z M27.387,6.838l-2.975-2.976
			c-0.818-0.816-2.154-0.816-2.973,0L19.96,5.345l5.949,5.947l1.478-1.482C28.205,8.994,28.205,7.655,27.387,6.838z"/>
		<path opacity="0.15" enable-background="new    " d="M5.438,18.613c-0.408,0.41-0.893,1.193-1.076,1.74l-2.309,6.928
			c-0.182,0.547,0.117,0.848,0.666,0.664l6.926-2.307c0.549-0.187,1.33-0.668,1.742-1.076l13.111-13.104l-5.947-5.947L5.438,18.613z
			 M8.811,24.162l-3.154,1.104L4.74,24.342l1.102-3.154l0.619-0.623l2.971,2.979L8.811,24.162z M27.387,5.588l-2.975-2.976
			c-0.818-0.816-2.154-0.816-2.973,0L19.96,4.095l5.949,5.947l1.478-1.482C28.205,7.744,28.205,6.405,27.387,5.588z"/>
		
			<linearGradient id="SVGID_2_" gradientUnits="userSpaceOnUse" x1="115.9609" y1="-189.5981" x2="115.9609" y2="-163.5991" gradientTransform="matrix(1 0 0 -1 -100.96 -161.5996)">
			<stop  offset="0" style="stop-color:#5C5C5C"/>
			<stop  offset="1" style="stop-color:#000000"/>
		</linearGradient>
		<path fill="url(#SVGID_2_)" d="M5.438,18.613c-0.408,0.41-0.893,1.193-1.076,1.74l-2.309,6.928
			c-0.182,0.547,0.117,0.848,0.666,0.664l6.926-2.307c0.549-0.187,1.33-0.668,1.742-1.076l13.111-13.104l-5.947-5.947L5.438,18.613z
			 M8.811,24.162l-3.154,1.104L4.74,24.342l1.102-3.154l0.619-0.623l2.971,2.979L8.811,24.162z M27.387,5.588l-2.975-2.976
			c-0.818-0.816-2.154-0.816-2.973,0L19.96,4.095l5.949,5.947l1.478-1.482C28.205,7.744,28.205,6.405,27.387,5.588z"/>
	</g>
</g>
</svg>
