<?xml version="1.0" encoding="utf-8"?>
<!-- Generator: Adobe Illustrator 16.0.3, SVG Export Plug-In . SVG Version: 6.00 Build 0)  -->
<!DOCTYPE svg PUBLIC "-//W3C//DTD SVG 1.1//EN" "http://www.w3.org/Graphics/SVG/1.1/DTD/svg11.dtd">
<svg version="1.1" id="Warstwa_1" xmlns="http://www.w3.org/2000/svg" xmlns:xlink="http://www.w3.org/1999/xlink" x="0px" y="0px"
	 width="30px" height="30px" viewBox="0 0 30 30" enable-background="new 0 0 30 30" xml:space="preserve">
<g id="PLACE_YOUR_GRAPHIC_HERE">
	<g>
		<path opacity="0.3" enable-background="new    " d="M23.567,1.298H6.46c-2.94,0-5.346,2.681-5.346,5.958v9.532
			c0,3.276,2.406,5.957,5.346,5.957h19.246l3.207,3.575V7.255C28.913,3.979,26.508,1.298,23.567,1.298z M19.29,17.979H7.529
			c-0.591,0-1.069-0.532-1.069-1.191c0-0.658,0.478-1.191,1.069-1.191H19.29c0.592,0,1.069,0.533,1.069,1.191
			C20.359,17.446,19.882,17.979,19.29,17.979z M22.498,13.212H7.529c-0.591,0-1.069-0.532-1.069-1.191s0.478-1.191,1.069-1.191
			h14.969c0.591,0,1.069,0.532,1.069,1.191S23.089,13.212,22.498,13.212z M22.498,8.447H7.529c-0.591,0-1.069-0.532-1.069-1.191
			s0.478-1.191,1.069-1.191h14.969c0.591,0,1.069,0.532,1.069,1.191S23.089,8.447,22.498,8.447z"/>
		<path opacity="0.15" enable-background="new    " d="M28.913,28.702c-0.277,0-0.551-0.121-0.756-0.35l-2.895-3.226H6.46
			c-3.538,0-6.415-3.207-6.415-7.148V8.447c0-3.943,2.877-7.149,6.415-7.149h17.107c3.537,0,6.415,3.206,6.415,7.149v19.064
			c0,0.481-0.26,0.916-0.66,1.1C29.189,28.674,29.051,28.702,28.913,28.702z"/>
		<path opacity="0.15" enable-background="new    " d="M23.567,2.489H6.46c-2.94,0-5.346,2.681-5.346,5.958v9.532
			c0,3.276,2.406,5.957,5.346,5.957h19.246l3.207,3.575V8.447C28.913,5.17,26.508,2.489,23.567,2.489z M19.29,19.17H7.529
			c-0.591,0-1.069-0.533-1.069-1.191s0.478-1.191,1.069-1.191H19.29c0.592,0,1.069,0.533,1.069,1.191S19.882,19.17,19.29,19.17z
			 M22.498,14.404H7.529c-0.591,0-1.069-0.533-1.069-1.192s0.478-1.191,1.069-1.191h14.969c0.591,0,1.069,0.533,1.069,1.191
			S23.089,14.404,22.498,14.404z M22.498,9.638H7.529c-0.591,0-1.069-0.532-1.069-1.191s0.478-1.191,1.069-1.191h14.969
			c0.591,0,1.069,0.532,1.069,1.191S23.089,9.638,22.498,9.638z"/>
		<path fill="#FFFFFF" d="M23.567,2.489H6.46c-2.94,0-5.346,2.681-5.346,5.958v9.532c0,3.276,2.406,5.957,5.346,5.957h19.246
			l3.207,3.575V8.447C28.913,5.17,26.508,2.489,23.567,2.489z M19.29,19.17H7.529c-0.591,0-1.069-0.533-1.069-1.191
			s0.478-1.191,1.069-1.191H19.29c0.592,0,1.069,0.533,1.069,1.191S19.882,19.17,19.29,19.17z M22.498,14.404H7.529
			c-0.591,0-1.069-0.533-1.069-1.192s0.478-1.191,1.069-1.191h14.969c0.591,0,1.069,0.533,1.069,1.191S23.089,14.404,22.498,14.404z
			 M22.498,9.638H7.529c-0.591,0-1.069-0.532-1.069-1.191s0.478-1.191,1.069-1.191h14.969c0.591,0,1.069,0.532,1.069,1.191
			S23.089,9.638,22.498,9.638z"/>
	</g>
</g>
<g>
	<rect x="6.46" y="2.489" fill="#FFFFFF" width="17.196" height="21.446"/>
</g>
</svg>
