<?xml version="1.0" encoding="utf-8"?>
<!-- Generator: Adobe Illustrator 16.0.0, SVG Export Plug-In . SVG Version: 6.00 Build 0)  -->
<!DOCTYPE svg PUBLIC "-//W3C//DTD SVG 1.1//EN" "http://www.w3.org/Graphics/SVG/1.1/DTD/svg11.dtd">
<svg version="1.1" xmlns="http://www.w3.org/2000/svg" xmlns:xlink="http://www.w3.org/1999/xlink" x="0px" y="0px" width="30px"
	 height="30px" viewBox="0 0 30 30" enable-background="new 0 0 30 30" xml:space="preserve">
<g id="Warstwa_2">
	<g>
		<g id="DO_NOT_EDIT_-_BOUNDING_BOX_1_">
			<rect id="BOUNDING_BOX_1_" x="-0.549" y="0.438" fill="none" width="30" height="30"/>
		</g>
		<g>
			<path opacity="0.3" enable-background="new    " d="M7.215,10.563v-4H2.951c-1.1,0-2,0.899-2,2c0,1.1,0.9,2,2,2H7.215z"/>
			<path opacity="0.3" enable-background="new    " d="M7.215,16.563H6.951c-1.1,0-2,0.9-2,2s0.9,2,2,2h0.264V16.563z"/>
			<path opacity="0.3" enable-background="new    " d="M7.215,15.563v-4H4.951c-1.1,0-2,0.899-2,2c0,1.1,0.9,2,2,2H7.215z"/>
		</g>
		<g>
			<path opacity="0.15" enable-background="new    " d="M7.215,11.563v-4H2.951c-1.1,0-2,0.899-2,2c0,1.1,0.9,2,2,2H7.215z"/>
			<path opacity="0.15" enable-background="new    " d="M7.215,16.563v-4H4.951c-1.1,0-2,0.899-2,2c0,1.1,0.9,2,2,2H7.215z"/>
			<path opacity="0.15" enable-background="new    " d="M7.215,17.563H6.951c-1.1,0-2,0.9-2,2s0.9,2,2,2h0.264V17.563z"/>
		</g>
		<path opacity="0.15" enable-background="new    " d="M7.215,6.563H2.951c-1.654,0-3,1.346-3,3c0,1.584,1.239,2.873,2.797,2.979
			c-0.49,0.534-0.797,1.24-0.797,2.021c0,1.616,1.287,2.928,2.888,2.988c-0.486,0.533-0.79,1.235-0.79,2.012c0,1.654,1.346,3,3,3
			h0.166V6.563z"/>
		<g>
			<path fill="#FFFFFF" d="M7.215,11.563v-4H2.951c-1.1,0-2,0.899-2,2c0,1.1,0.9,2,2,2H7.215z"/>
			<path fill="#FFFFFF" d="M7.215,16.563v-4H4.951c-1.1,0-2,0.899-2,2c0,1.1,0.9,2,2,2H7.215z"/>
			<path fill="#FFFFFF" d="M7.215,17.563H6.951c-1.1,0-2,0.9-2,2s0.9,2,2,2h0.264V17.563z"/>
		</g>
		<rect x="-2.049" y="1.563" fill="none" width="30" height="30"/>
	</g>
</g>
<g id="Warstwa_1">
	<g id="DO_NOT_EDIT_-_BOUNDING_BOX">
		<rect id="BOUNDING_BOX" x="6.438" y="1.875" fill="none" width="23.938" height="23.938"/>
	</g>
	<g id="PLACE_YOUR_GRAPHIC_HERE">
		<g>
			<path opacity="0.3" enable-background="new    " d="M28.779,6.663H8.034l10.373,7.98L28.779,6.663z M8.034,8.173v12.056
				c0,0.438,0.359,0.797,0.797,0.797h19.15c0.439,0,0.798-0.358,0.798-0.797V8.173l-10.373,7.98L8.034,8.173z"/>
			<rect x="6.438" y="1.875" fill="none" width="23.938" height="23.938"/>
			<rect x="6.438" y="1.875" fill="none" width="23.938" height="23.938"/>
			<path opacity="0.15" enable-background="new    " d="M8.831,22.622c-0.88,0-1.596-0.716-1.596-1.597V8.971
				c0-0.304-0.067-1.444,0.042-1.768c0.11-0.324,0.414-0.541,0.756-0.541h20.746c0.341,0,0.646,0.217,0.754,0.541
				c0.112,0.323,0.044,1.463,0.044,1.768v12.054c0,0.881-0.715,1.597-1.596,1.597H8.831z"/>
			<path opacity="0.15" enable-background="new    " d="M28.779,7.46H8.034l10.373,7.98L28.779,7.46z M8.034,8.971v12.054
				c0,0.439,0.359,0.798,0.797,0.798h19.15c0.439,0,0.798-0.358,0.798-0.798V8.971l-10.373,7.98L8.034,8.971z"/>
			<path fill="#FFFFFF" d="M28.779,7.46H8.034l10.373,7.98L28.779,7.46z M8.034,8.971v12.054c0,0.439,0.359,0.798,0.797,0.798h19.15
				c0.439,0,0.798-0.358,0.798-0.798V8.971l-10.373,7.98L8.034,8.971z"/>
		</g>
	</g>
</g>
</svg>
