<?xml version="1.0" encoding="utf-8"?>
<!-- Generator: Adobe Illustrator 16.0.3, SVG Export Plug-In . SVG Version: 6.00 Build 0)  -->
<!DOCTYPE svg PUBLIC "-//W3C//DTD SVG 1.1//EN" "http://www.w3.org/Graphics/SVG/1.1/DTD/svg11.dtd">
<svg version="1.1" id="Warstwa_1" xmlns="http://www.w3.org/2000/svg" xmlns:xlink="http://www.w3.org/1999/xlink" x="0px" y="0px"
	 width="30px" height="30px" viewBox="0 0 30 30" enable-background="new 0 0 30 30" xml:space="preserve">
<g id="DO_NOT_EDIT_-_BOUNDING_BOX">
	<rect id="BOUNDING_BOX" fill="none" width="30" height="30"/>
</g>
<g id="PLACE_YOUR_GRAPHIC_HERE">
	<g>
		<path fill="#FFFFFF" d="M18.654,16.25l8.043-8.042c0.404-0.403,0.404-1.06,0-1.462l-2.193-2.193c-0.404-0.404-1.059-0.404-1.461,0
			L15,12.594L6.959,4.553c-0.404-0.404-1.059-0.404-1.463,0L3.303,6.746c-0.404,0.402-0.404,1.059,0,1.462l8.043,8.042l-8.043,8.041
			c-0.404,0.404-0.404,1.059,0,1.463l2.193,2.193c0.404,0.404,1.059,0.404,1.463,0L15,19.904l8.043,8.043
			c0.402,0.404,1.057,0.404,1.461,0l2.193-2.193c0.404-0.404,0.404-1.059,0-1.463L18.654,16.25z"/>
		<path opacity="0.15" enable-background="new    " d="M18.654,15l8.043-8.042c0.404-0.403,0.404-1.06,0-1.462l-2.193-2.193
			c-0.404-0.404-1.059-0.404-1.461,0L15,11.344L6.959,3.303c-0.404-0.404-1.059-0.404-1.463,0L3.303,5.496
			c-0.404,0.402-0.404,1.059,0,1.462L11.346,15l-8.043,8.041c-0.404,0.404-0.404,1.059,0,1.463l2.193,2.193
			c0.404,0.404,1.059,0.404,1.463,0L15,18.654l8.043,8.043c0.402,0.404,1.057,0.404,1.461,0l2.193-2.193
			c0.404-0.404,0.404-1.059,0-1.463L18.654,15z"/>
		
			<linearGradient id="SVGID_1_" gradientUnits="userSpaceOnUse" x1="115.9609" y1="-188.5996" x2="115.9609" y2="-164.5991" gradientTransform="matrix(1 0 0 -1 -100.96 -161.5996)">
			<stop  offset="0" style="stop-color:#5C5C5C"/>
			<stop  offset="1" style="stop-color:#000000"/>
		</linearGradient>
		<path fill="url(#SVGID_1_)" d="M18.654,15l8.043-8.042c0.404-0.403,0.404-1.06,0-1.462l-2.193-2.193
			c-0.404-0.404-1.059-0.404-1.461,0L15,11.344L6.959,3.303c-0.404-0.404-1.059-0.404-1.463,0L3.303,5.496
			c-0.404,0.402-0.404,1.059,0,1.462L11.346,15l-8.043,8.041c-0.404,0.404-0.404,1.059,0,1.463l2.193,2.193
			c0.404,0.404,1.059,0.404,1.463,0L15,18.654l8.043,8.043c0.402,0.404,1.057,0.404,1.461,0l2.193-2.193
			c0.404-0.404,0.404-1.059,0-1.463L18.654,15z"/>
		<rect fill="none" width="30" height="30"/>
	</g>
</g>
</svg>
