<?xml version="1.0" encoding="UTF-8" standalone="no"?>
<!-- Generator: Adobe Illustrator 16.0.3, SVG Export Plug-In . SVG Version: 6.00 Build 0)  -->
<svg id="svg3116" xmlns:rdf="http://www.w3.org/1999/02/22-rdf-syntax-ns#" xmlns="http://www.w3.org/2000/svg" xmlns:osb="http://www.openswatchbook.org/uri/2009/osb" xml:space="preserve" height="96px" width="96px" version="1.1" enable-background="new 0 0 96 96" y="0px" x="0px" xmlns:cc="http://creativecommons.org/ns#" viewBox="0 0 96 96" xmlns:dc="http://purl.org/dc/elements/1.1/"><metadata id="metadata3207"><rdf:RDF><cc:Work rdf:about=""><dc:format>image/svg+xml</dc:format><dc:type rdf:resource="http://purl.org/dc/dcmitype/StillImage"/><dc:title/></cc:Work></rdf:RDF></metadata><defs id="defs3205"/><g id="DO_NOT_EDIT_-_BOUNDING_BOX"><rect id="BOUNDING_BOX" width="96" fill="none" height="96"/></g><g id="DO_NOT_EDIT_-_SHADOW"><path id="SHADOW" opacity="0.4" d="M88.023,49c0,29.633-10.364,40-40,40-29.635,0-40-10.367-40-40,0-29.634,10.366-40,40-40,29.636,0,40,10.365,40,40z"/></g><g id="ORANGE_2"><linearGradient id="RED_x2F_ORANGE_2_1_" y2="87.99" gradientUnits="userSpaceOnUse" x2="48" y1="8.0107" x1="48"><stop id="stop3124" stop-color="#24bdfa" offset="0.0364"/><stop id="stop3126" stop-color="#20afea" offset="0.3742"/><stop id="stop3128" stop-color="#1793c7" offset="1"/></linearGradient><path id="RED_x2F_ORANGE_2_2_" fill="url(#RED_x2F_ORANGE_2_1_)" d="M8,47.988c0,29.634,10.365,40.001,40,40.001,29.637,0,40-10.367,40-40.001,0-28.984-9.926-39.529-38.091-39.978h-3.817c-28.164,0.449-38.092,10.994-38.092,39.978z"/><linearGradient id="HIGHLIGHTS_RO2_1_" y2="87.504" gradientUnits="userSpaceOnUse" x2="48" y1="8.2559" x1="48"><stop id="stop3132" stop-color="#FFF" offset="0.0364"/><stop id="stop3134" stop-color="#F8E8E1" offset="0.185"/><stop id="stop3136" stop-color="#E5AC95" offset="0.5097"/><stop id="stop3138" stop-color="#C84D1B" offset="0.9833"/><stop id="stop3140" stop-color="#C74A17" offset="1"/></linearGradient><path id="HIGHLIGHTS_RO2_2_" opacity="0.25" fill="url(#HIGHLIGHTS_RO2_1_)" d="M48,8c-29.635,0-40,10.365-40,40,0,29.633,10.365,40,40,40,29.637,0,40-10.367,40-40,0-29.635-10.363-40-40-40zm0,79.023c-29.158,0-39-9.847-39-39.023s9.842-39.023,39-39.023,39,9.847,39,39.023-9.842,39.023-39,39.023z"/><path id="path3989" stroke-linejoin="miter" style="marker-end:none;marker-start:none;marker-mid:none;" d="m91.335,80.748a10.946,10.946,0,1,1,-21.892,0,10.946,10.946,0,1,1,21.892,0z" transform="matrix(1.431126,0,0,1.431126,-38.156762,-39.029241)" stroke="#d60000" stroke-miterlimit="4" stroke-dasharray="none" stroke-width="1" fill="#F00"/><text id="text4725" style="letter-spacing:0px;word-spacing:0px;" font-weight="normal" xml:space="preserve" font-size="57.24504089px" font-style="normal" y="83.464455" x="69.9561" font-family="Sans" line-height="125%" fill="#000000"><tspan id="tspan4729" font-size="22px" y="83.464455" x="69.9561" fill="#ffffff">β</tspan></text>
</g><g id="PLACE_YOUR_GRAPHIC_HERE"><g id="Warstwa_2_1_"><g id="g4191_1_"><g id="g4193_1_"><g id="g4195_1_"><g id="g4197_1_"><g id="g4199_1_"><path id="path4206_1_" d="M47.366,74.074c-0.553-0.283-0.649-1.033-1.139-1.287-2.016-1.051-2.25-2.936-2.43-4.869-0.033-0.352-0.027-0.705-0.029-1.057-0.003-1.021,0-1.041,0.988-0.971,2.266,0.154,4.527,0.109,6.791-0.021,0.398-0.023,0.546,0.047,0.527,0.479-0.057,1.475-0.096,2.947-0.598,4.359-0.232,0.654-0.574,1.207-1.226,1.568-0.472,0.262-0.942,0.561-1.146,1.135-0.107,0.324-0.457,0.445-0.688,0.662-0.343,0.002-0.696,0.002-1.05,0.002z"/><path id="path4213_1_" d="M43.151,39.445c1.25,0.682,2.371,1.519,3.188,2.71,0.632,0.923,1.085,1.923,1.172,3.046,0.066,0.857,0.706,0.435,1.092,0.516,0.502,0.104,0.332-0.332,0.354-0.574,0.371-4.333,3.063-6.975,7.646-7.496,1.229-0.141,1.979,0.392,2.137,1.293,0.197,1.133-0.33,2.022-1.459,2.416-0.455,0.159-0.928,0.275-1.396,0.414-2.196,0.658-2.729,2.602-2.849,4.45-0.021,0.286,0.18,0.302,0.365,0.36,0.816,0.256,1.635,0.521,2.451,0.772,0.607,0.188,0.92,0.521,0.953,1.229,0.096,2.024,0.297,4.048,0.215,6.077-0.121,3.01-0.912,5.771-3.09,8-0.472,0.482-1.182,0.781-1.203,1.625-0.006,0.24-0.311,0.254-0.541,0.264-2.467,0.105-4.936,0.164-7.4,0.053-0.264-0.014-0.528-0.045-0.791-0.033-0.592,0.023-1.072-0.063-1.027-0.822,0.012-0.215-0.177-0.291-0.311-0.395-2.35-1.883-3.396-4.436-3.767-7.322-0.331-2.58,0.027-5.148,0.134-7.724,0.02-0.492,0.334-0.734,0.771-0.869,1.09-0.345,2.173-0.709,3.271-1.026,0.41-0.121,0.608-0.217,0.519-0.742-0.201-1.174-0.75-1.952-1.912-2.366-1.187-0.422-2.257-1.074-3.165-1.985-1.059-1.064-1.389-3.505,0.436-4.671,1.638-1.045,3.441-1.661,5.278-2.207,3.295-0.977,6.609-1.88,10.062-2.122,0.945-0.066,1.896-0.054,2.824,0.187,0.433,0.111,0.832,0.289,1.151,0.609,0.838,0.833,0.658,2.118-0.396,2.619-1.375,0.653-2.873,0.823-4.356,0.998-3.385,0.398-6.679,1.158-9.851,2.413-0.171,0.063-0.392,0.082-0.505,0.303z"/><path id="path4220_1_" d="M58.472,28.633c0.006,1.245-0.598,1.872-1.871,2.01-4.668,0.505-9.304,1.177-13.75,2.776-1.431,0.516-2.816,1.135-4.059,2.027-0.326,0.232-0.421,0.12-0.546-0.172-0.864-2.009-0.312-3.757,1.61-4.843,2.164-1.223,4.537-1.892,6.933-2.48,2.827-0.693,5.675-1.257,8.602-1.262,0.751-0.002,1.493,0.104,2.179,0.457,0.603,0.312,0.909,0.804,0.902,1.487z"/><path id="path3153" opacity="0.05" d="M47.369,77.574c-0.396,0-0.79-0.095-1.14-0.273-0.858-0.44-1.306-1.116-1.557-1.524-2.908-1.733-3.193-4.791-3.363-6.627-0.034-0.368-0.039-0.74-0.04-1.107v-0.174c-0.001-0.267-0.001-0.536,0.025-0.813-0.308-0.332-0.532-0.718-0.669-1.149-2.365-2.093-3.744-4.895-4.214-8.561-0.272-2.128-0.135-4.163-0.003-6.131,0.047-0.68,0.091-1.347,0.12-2.014,0.022-0.563,0.271-2.457,2.531-3.154l0.229-0.074c-0.943-0.504-1.798-1.138-2.549-1.893-1.132-1.138-1.744-2.958-1.56-4.64,0.087-0.795,0.347-1.557,0.754-2.22-0.794-1.87-0.775-3.749,0.048-5.328-0.001-0.002-0.003-0.005-0.004-0.007-1.463-2.498-0.973-5.213,1.278-7.085,1.716-1.427,3.717-2.506,6.488-3.498,2.285-0.819,4.559-1.294,6.759-1.412l0.55-0.002c3.864,0.159,4.42,2.952,4.499,3.805,0.045,0.517,0.021,1.018-0.069,1.497,1.24,0.012,2.299,0.252,3.235,0.735,1.451,0.75,2.273,2.112,2.256,3.736,0.005,1.083-0.288,2.036-0.851,2.781,0.924,0.973,1.328,2.263,1.108,3.558-0.111,0.646-0.374,1.247-0.767,1.761,0.371,0.501,0.624,1.098,0.737,1.749,0.414,2.361-0.801,4.406-3.095,5.208-0.343,0.12-0.694,0.219-1.048,0.318l-0.483,0.138c-0.256,0.077-0.505,0.185-0.7,0.566l0.719,0.226c1.643,0.507,2.631,1.783,2.708,3.502,0.026,0.531,0.06,1.066,0.094,1.605,0.094,1.512,0.19,3.074,0.126,4.688-0.166,4.044-1.409,7.198-3.803,9.646-0.175,0.178-0.367,0.345-0.563,0.506-0.099,0.432-0.298,0.821-0.584,1.147,0.01,0.157,0.006,0.283,0.004,0.363l-0.007,0.188c-0.062,1.585-0.125,3.215-0.737,4.935-0.174,0.492-0.703,1.993-2.368,2.917-0.042,0.023-0.078,0.044-0.108,0.062-0.356,0.786-0.962,1.205-1.263,1.412-0.439,0.398-1.027,0.631-1.654,0.636l-1.069,0.001z"/><path id="path3155" opacity="0.07" d="M47.368,77.074c-0.316,0-0.631-0.075-0.912-0.219-0.79-0.405-1.175-1.039-1.405-1.417l-0.019-0.03c-2.789-1.593-3.062-4.537-3.227-6.306-0.033-0.353-0.037-0.709-0.037-1.062v-0.174c-0.001-0.326-0.002-0.661,0.052-0.995-0.05-0.045-0.098-0.092-0.145-0.141-0.295-0.313-0.5-0.684-0.612-1.106-2.335-2.019-3.696-4.75-4.157-8.344-0.266-2.079-0.131-4.09,0-6.034,0.047-0.683,0.092-1.354,0.12-2.025,0.019-0.481,0.233-2.098,2.179-2.698,0,0,1.291-0.414,1.456-0.467-1.362-0.535-2.562-1.317-3.57-2.33-1.029-1.035-1.585-2.696-1.417-4.232,0.09-0.816,0.374-1.582,0.827-2.233-0.033-0.065-0.064-0.132-0.094-0.202-0.798-1.853-0.74-3.679,0.154-5.184-0.071-0.102-0.122-0.188-0.154-0.243-1.331-2.273-0.884-4.744,1.166-6.449,1.67-1.389,3.624-2.44,6.337-3.412,2.24-0.803,4.466-1.269,6.617-1.383l0.524-0.001c3.348,0.138,3.911,2.389,4,3.351,0.061,0.688-0.015,1.352-0.221,1.958,0.188-0.004,0.373-0.007,0.556-0.007,1.199,0,2.212,0.222,3.1,0.68,1.277,0.66,2.001,1.858,1.985,3.287,0.005,1.161-0.352,2.124-1.04,2.82,0.084,0.071,0.164,0.146,0.242,0.224,0.874,0.869,1.262,2.042,1.063,3.216-0.12,0.698-0.443,1.334-0.928,1.841,0.466,0.493,0.773,1.119,0.899,1.838,0.369,2.108-0.718,3.933-2.768,4.65-0.333,0.116-0.675,0.213-1.018,0.309l-0.485,0.138c-0.546,0.164-0.971,0.473-1.213,1.367l1.218,0.383c1.452,0.448,2.291,1.53,2.359,3.047,0.026,0.536,0.06,1.073,0.094,1.614,0.093,1.5,0.188,3.051,0.125,4.637-0.16,3.913-1.357,6.961-3.66,9.316-0.171,0.174-0.36,0.336-0.552,0.493-0.043,0.035-0.079,0.064-0.109,0.09-0.076,0.486-0.3,0.913-0.648,1.239,0.034,0.242,0.027,0.437,0.024,0.537l-0.007,0.176c-0.06,1.54-0.12,3.135-0.708,4.786-0.158,0.448-0.642,1.816-2.14,2.647-0.14,0.077-0.222,0.129-0.267,0.16-0.287,0.748-0.865,1.146-1.149,1.342-0.386,0.346-0.862,0.541-1.371,0.545l-1.064,0.003zm-0.167-36.043c0.287,0.313,0.547,0.642,0.788,0.993,0.003,0.004,0.006,0.008,0.009,0.013,0.252-0.519,0.546-1.006,0.882-1.459-0.569,0.138-1.127,0.289-1.679,0.453z"/><path id="path3157" opacity="0.07" d="M47.368,77.074c-0.316,0-0.631-0.075-0.912-0.219-0.79-0.405-1.175-1.039-1.405-1.417l-0.019-0.03c-2.789-1.593-3.062-4.537-3.227-6.306-0.033-0.353-0.037-0.709-0.037-1.062v-0.174c-0.001-0.326-0.002-0.661,0.052-0.995-0.05-0.045-0.098-0.092-0.145-0.141-0.295-0.313-0.5-0.684-0.612-1.106-2.335-2.019-3.696-4.75-4.157-8.344-0.266-2.079-0.131-4.09,0-6.034,0.047-0.683,0.092-1.354,0.12-2.025,0.019-0.481,0.233-2.098,2.179-2.698,0,0,1.291-0.414,1.456-0.467-1.362-0.535-2.562-1.317-3.57-2.33-1.029-1.035-1.585-2.696-1.417-4.232,0.09-0.816,0.374-1.582,0.827-2.233-0.033-0.065-0.064-0.132-0.094-0.202-0.798-1.853-0.74-3.679,0.154-5.184-0.071-0.102-0.122-0.188-0.154-0.243-1.331-2.273-0.884-4.744,1.166-6.449,1.67-1.389,3.624-2.44,6.337-3.412,2.24-0.803,4.466-1.269,6.617-1.383l0.524-0.001c3.348,0.138,3.911,2.389,4,3.351,0.061,0.688-0.015,1.352-0.221,1.958,0.188-0.004,0.373-0.007,0.556-0.007,1.199,0,2.212,0.222,3.1,0.68,1.277,0.66,2.001,1.858,1.985,3.287,0.005,1.161-0.352,2.124-1.04,2.82,0.084,0.071,0.164,0.146,0.242,0.224,0.874,0.869,1.262,2.042,1.063,3.216-0.12,0.698-0.443,1.334-0.928,1.841,0.466,0.493,0.773,1.119,0.899,1.838,0.369,2.108-0.718,3.933-2.768,4.65-0.333,0.116-0.675,0.213-1.018,0.309l-0.485,0.138c-0.546,0.164-0.971,0.473-1.213,1.367l1.218,0.383c1.452,0.448,2.291,1.53,2.359,3.047,0.026,0.536,0.06,1.073,0.094,1.614,0.093,1.5,0.188,3.051,0.125,4.637-0.16,3.913-1.357,6.961-3.66,9.316-0.171,0.174-0.36,0.336-0.552,0.493-0.043,0.035-0.079,0.064-0.109,0.09-0.076,0.486-0.3,0.913-0.648,1.239,0.034,0.242,0.027,0.437,0.024,0.537l-0.007,0.176c-0.06,1.54-0.12,3.135-0.708,4.786-0.158,0.448-0.642,1.816-2.14,2.647-0.14,0.077-0.222,0.129-0.267,0.16-0.287,0.748-0.865,1.146-1.149,1.342-0.386,0.346-0.862,0.541-1.371,0.545l-1.064,0.003zm-0.167-36.043c0.287,0.313,0.547,0.642,0.788,0.993,0.003,0.004,0.006,0.008,0.009,0.013,0.252-0.519,0.546-1.006,0.882-1.459-0.569,0.138-1.127,0.289-1.679,0.453z"/><path id="path3159" opacity="0.1" d="M47.367,76.574c-0.236,0-0.473-0.057-0.683-0.164-0.664-0.341-0.99-0.878-1.207-1.233-0.026-0.044-0.058-0.098-0.086-0.142-2.666-1.448-2.919-4.17-3.087-5.979-0.032-0.338-0.035-0.679-0.035-1.017v-0.174c-0.001-0.416-0.003-0.816,0.107-1.192-0.123-0.083-0.235-0.179-0.337-0.286-0.27-0.286-0.446-0.634-0.526-1.036-2.313-1.944-3.658-4.607-4.111-8.134-0.26-2.031-0.126-4.017,0.003-5.938,0.047-0.687,0.092-1.362,0.121-2.038,0.021-0.51,0.239-1.751,1.827-2.241l0.952-0.305c0.516-0.167,1.033-0.333,1.553-0.493-0.147-0.228-0.359-0.373-0.688-0.49-1.433-0.51-2.686-1.297-3.724-2.339-0.927-0.932-1.426-2.433-1.273-3.824,0.093-0.848,0.412-1.618,0.929-2.252-0.087-0.129-0.166-0.274-0.234-0.434-0.791-1.836-0.677-3.6,0.309-5.02-0.176-0.188-0.284-0.373-0.338-0.465-1.198-2.047-0.794-4.273,1.055-5.811,1.622-1.349,3.53-2.375,6.186-3.325,2.195-0.787,4.373-1.243,6.475-1.354l0.499-0.001c2.828,0.117,3.406,1.865,3.501,2.896,0.08,0.902-0.102,1.746-0.512,2.444,0.459-0.025,0.909-0.038,1.346-0.039,1.117,0,2.055,0.204,2.869,0.624,1.104,0.57,1.729,1.604,1.715,2.837,0.006,1.275-0.468,2.257-1.358,2.856,0.264,0.155,0.497,0.336,0.707,0.546,0.758,0.754,1.095,1.768,0.923,2.779-0.134,0.78-0.557,1.456-1.188,1.924,0.61,0.45,1.019,1.116,1.16,1.925,0.324,1.854-0.634,3.459-2.44,4.091-0.323,0.113-0.655,0.207-0.987,0.3l-0.487,0.139c-0.941,0.282-1.44,0.928-1.662,2.188,0.604,0.19,1.376,0.435,1.656,0.521,1.254,0.386,1.948,1.283,2.008,2.592,0.026,0.54,0.06,1.08,0.094,1.623,0.092,1.488,0.187,3.027,0.124,4.585-0.154,3.783-1.305,6.724-3.518,8.987-0.158,0.161-0.335,0.311-0.513,0.457-0.151,0.123-0.228,0.191-0.267,0.229-0.035,0.543-0.295,0.996-0.724,1.287,0.091,0.325,0.079,0.607,0.075,0.728l-0.007,0.162c-0.058,1.509-0.117,3.062-0.679,4.64-0.144,0.406-0.582,1.641-1.911,2.378-0.354,0.196-0.443,0.283-0.457,0.321-0.222,0.671-0.729,1.02-1.002,1.207-0.349,0.309-0.71,0.453-1.09,0.456l-1.063,0.004zm-1.105-35.775c0.506,0.464,0.94,0.962,1.315,1.508,0.187,0.274,0.355,0.544,0.504,0.814,0.483-1.317,1.223-2.451,2.196-3.365-1.393,0.28-2.723,0.625-4.015,1.043z"/><path id="path3161" opacity="0.1" d="M47.367,76.574c-0.236,0-0.473-0.057-0.683-0.164-0.664-0.341-0.99-0.878-1.207-1.233-0.026-0.044-0.058-0.098-0.086-0.142-2.666-1.448-2.919-4.17-3.087-5.979-0.032-0.338-0.035-0.679-0.035-1.017v-0.174c-0.001-0.416-0.003-0.816,0.107-1.192-0.123-0.083-0.235-0.179-0.337-0.286-0.27-0.286-0.446-0.634-0.526-1.036-2.313-1.944-3.658-4.607-4.111-8.134-0.26-2.031-0.126-4.017,0.003-5.938,0.047-0.687,0.092-1.362,0.121-2.038,0.021-0.51,0.239-1.751,1.827-2.241l0.952-0.305c0.516-0.167,1.033-0.333,1.553-0.493-0.147-0.228-0.359-0.373-0.688-0.49-1.433-0.51-2.686-1.297-3.724-2.339-0.927-0.932-1.426-2.433-1.273-3.824,0.093-0.848,0.412-1.618,0.929-2.252-0.087-0.129-0.166-0.274-0.234-0.434-0.791-1.836-0.677-3.6,0.309-5.02-0.176-0.188-0.284-0.373-0.338-0.465-1.198-2.047-0.794-4.273,1.055-5.811,1.622-1.349,3.53-2.375,6.186-3.325,2.195-0.787,4.373-1.243,6.475-1.354l0.499-0.001c2.828,0.117,3.406,1.865,3.501,2.896,0.08,0.902-0.102,1.746-0.512,2.444,0.459-0.025,0.909-0.038,1.346-0.039,1.117,0,2.055,0.204,2.869,0.624,1.104,0.57,1.729,1.604,1.715,2.837,0.006,1.275-0.468,2.257-1.358,2.856,0.264,0.155,0.497,0.336,0.707,0.546,0.758,0.754,1.095,1.768,0.923,2.779-0.134,0.78-0.557,1.456-1.188,1.924,0.61,0.45,1.019,1.116,1.16,1.925,0.324,1.854-0.634,3.459-2.44,4.091-0.323,0.113-0.655,0.207-0.987,0.3l-0.487,0.139c-0.941,0.282-1.44,0.928-1.662,2.188,0.604,0.19,1.376,0.435,1.656,0.521,1.254,0.386,1.948,1.283,2.008,2.592,0.026,0.54,0.06,1.08,0.094,1.623,0.092,1.488,0.187,3.027,0.124,4.585-0.154,3.783-1.305,6.724-3.518,8.987-0.158,0.161-0.335,0.311-0.513,0.457-0.151,0.123-0.228,0.191-0.267,0.229-0.035,0.543-0.295,0.996-0.724,1.287,0.091,0.325,0.079,0.607,0.075,0.728l-0.007,0.162c-0.058,1.509-0.117,3.062-0.679,4.64-0.144,0.406-0.582,1.641-1.911,2.378-0.354,0.196-0.443,0.283-0.457,0.321-0.222,0.671-0.729,1.02-1.002,1.207-0.349,0.309-0.71,0.453-1.09,0.456l-1.063,0.004zm-1.105-35.775c0.506,0.464,0.94,0.962,1.315,1.508,0.187,0.274,0.355,0.544,0.504,0.814,0.483-1.317,1.223-2.451,2.196-3.365-1.393,0.28-2.723,0.625-4.015,1.043z"/><path id="path3163" opacity="0.15" d="M47.366,76.074c-0.158,0-0.315-0.038-0.456-0.109-0.536-0.275-0.808-0.722-1.006-1.048-0.059-0.097-0.142-0.233-0.18-0.271-2.521-1.308-2.753-3.81-2.923-5.637-0.03-0.322-0.032-0.647-0.033-0.971v-0.174c-0.002-0.567-0.003-1.033,0.26-1.419-0.214-0.076-0.436-0.2-0.625-0.401-0.24-0.255-0.382-0.576-0.425-0.958-2.3-1.87-3.635-4.466-4.08-7.933-0.254-1.982-0.122-3.944,0.006-5.841,0.047-0.69,0.093-1.37,0.121-2.051,0.02-0.502,0.238-1.402,1.475-1.783l0.957-0.307c0.688-0.222,1.376-0.444,2.071-0.649-0.187-0.687-0.54-1.049-1.191-1.281-1.361-0.484-2.551-1.231-3.538-2.221-0.824-0.829-1.268-2.169-1.13-3.417,0.099-0.898,0.482-1.692,1.101-2.299-0.177-0.15-0.325-0.363-0.442-0.639-0.797-1.853-0.583-3.588,0.542-4.903-0.338-0.191-0.522-0.507-0.6-0.639-1.065-1.82-0.704-3.802,0.944-5.172,1.576-1.31,3.437-2.309,6.034-3.239,2.15-0.771,4.281-1.217,6.333-1.326h0.474c2.308,0.096,2.904,1.381,3.002,2.442,0.11,1.239-0.344,2.323-1.173,2.988,0.823-0.081,1.661-0.128,2.506-0.129,1.034,0,1.897,0.186,2.639,0.568,0.943,0.487,1.456,1.335,1.444,2.387,0.007,1.521-0.748,2.527-2.143,2.882,0.01,0.002,0.019,0.005,0.027,0.007,0.671,0.172,1.197,0.457,1.61,0.871,0.642,0.639,0.928,1.493,0.783,2.342-0.142,0.825-0.673,1.512-1.458,1.886-0.102,0.048-0.204,0.094-0.307,0.138,0.927,0.292,1.564,1.002,1.738,1.996,0.284,1.625-0.526,2.979-2.113,3.533-0.313,0.109-0.635,0.2-0.957,0.291l-0.489,0.139c-1.237,0.371-1.874,1.283-2.081,3.017,0.598,0.189,1.715,0.542,2.064,0.65,1.049,0.323,1.606,1.042,1.656,2.137,0.026,0.544,0.06,1.087,0.094,1.632,0.091,1.477,0.185,3.002,0.123,4.533-0.148,3.654-1.252,6.486-3.375,8.658-0.146,0.148-0.309,0.285-0.473,0.42-0.39,0.317-0.442,0.395-0.445,0.531-0.008,0.288-0.117,0.891-0.875,1.135,0.245,0.376,0.229,0.794,0.223,0.946l-0.007,0.159c-0.056,1.466-0.112,2.984-0.649,4.493-0.128,0.36-0.518,1.462-1.683,2.108-0.449,0.25-0.616,0.394-0.687,0.593-0.172,0.52-0.573,0.796-0.813,0.961-0.064,0.045-0.101,0.067-0.131,0.096-0.185,0.174-0.426,0.271-0.68,0.272l-1.059,0.006zm-2.109-35.464c0.775,0.592,1.403,1.245,1.907,1.979,0.455,0.664,0.792,1.319,1.018,1.976,0.56-2.567,1.976-4.494,4.139-5.672-2.526,0.374-4.855,0.94-7.064,1.717z"/><path id="path3165" opacity="0.15" d="M47.366,76.074c-0.158,0-0.315-0.038-0.456-0.109-0.536-0.275-0.808-0.722-1.006-1.048-0.059-0.097-0.142-0.233-0.18-0.271-2.521-1.308-2.753-3.81-2.923-5.637-0.03-0.322-0.032-0.647-0.033-0.971v-0.174c-0.002-0.567-0.003-1.033,0.26-1.419-0.214-0.076-0.436-0.2-0.625-0.401-0.24-0.255-0.382-0.576-0.425-0.958-2.3-1.87-3.635-4.466-4.08-7.933-0.254-1.982-0.122-3.944,0.006-5.841,0.047-0.69,0.093-1.37,0.121-2.051,0.02-0.502,0.238-1.402,1.475-1.783l0.957-0.307c0.688-0.222,1.376-0.444,2.071-0.649-0.187-0.687-0.54-1.049-1.191-1.281-1.361-0.484-2.551-1.231-3.538-2.221-0.824-0.829-1.268-2.169-1.13-3.417,0.099-0.898,0.482-1.692,1.101-2.299-0.177-0.15-0.325-0.363-0.442-0.639-0.797-1.853-0.583-3.588,0.542-4.903-0.338-0.191-0.522-0.507-0.6-0.639-1.065-1.82-0.704-3.802,0.944-5.172,1.576-1.31,3.437-2.309,6.034-3.239,2.15-0.771,4.281-1.217,6.333-1.326h0.474c2.308,0.096,2.904,1.381,3.002,2.442,0.11,1.239-0.344,2.323-1.173,2.988,0.823-0.081,1.661-0.128,2.506-0.129,1.034,0,1.897,0.186,2.639,0.568,0.943,0.487,1.456,1.335,1.444,2.387,0.007,1.521-0.748,2.527-2.143,2.882,0.01,0.002,0.019,0.005,0.027,0.007,0.671,0.172,1.197,0.457,1.61,0.871,0.642,0.639,0.928,1.493,0.783,2.342-0.142,0.825-0.673,1.512-1.458,1.886-0.102,0.048-0.204,0.094-0.307,0.138,0.927,0.292,1.564,1.002,1.738,1.996,0.284,1.625-0.526,2.979-2.113,3.533-0.313,0.109-0.635,0.2-0.957,0.291l-0.489,0.139c-1.237,0.371-1.874,1.283-2.081,3.017,0.598,0.189,1.715,0.542,2.064,0.65,1.049,0.323,1.606,1.042,1.656,2.137,0.026,0.544,0.06,1.087,0.094,1.632,0.091,1.477,0.185,3.002,0.123,4.533-0.148,3.654-1.252,6.486-3.375,8.658-0.146,0.148-0.309,0.285-0.473,0.42-0.39,0.317-0.442,0.395-0.445,0.531-0.008,0.288-0.117,0.891-0.875,1.135,0.245,0.376,0.229,0.794,0.223,0.946l-0.007,0.159c-0.056,1.466-0.112,2.984-0.649,4.493-0.128,0.36-0.518,1.462-1.683,2.108-0.449,0.25-0.616,0.394-0.687,0.593-0.172,0.52-0.573,0.796-0.813,0.961-0.064,0.045-0.101,0.067-0.131,0.096-0.185,0.174-0.426,0.271-0.68,0.272l-1.059,0.006zm-2.109-35.464c0.775,0.592,1.403,1.245,1.907,1.979,0.455,0.664,0.792,1.319,1.018,1.976,0.56-2.567,1.976-4.494,4.139-5.672-2.526,0.374-4.855,0.94-7.064,1.717z"/><path id="path3167" opacity="0.15" d="M51.669,66.365l-0.15,0.005c-1.376,0.079-2.604,0.118-3.752,0.118-1.049,0-2.022-0.031-2.974-0.097-0.208-0.015-0.376-0.025-0.511-0.025-0.232,0-0.526,0.028-0.745,0.248-0.271,0.271-0.27,0.639-0.268,1.25v0.174c0,0.309,0.002,0.618,0.031,0.926,0.168,1.808,0.377,4.058,2.697,5.267,0.112,0.059,0.22,0.236,0.333,0.424,0.177,0.291,0.396,0.654,0.808,0.865,0.071,0.036,0.149,0.055,0.228,0.055l1.056-0.002c0.126-0.001,0.248-0.049,0.34-0.136,0.057-0.054,0.125-0.098,0.191-0.144,0.212-0.146,0.503-0.348,0.625-0.716,0.131-0.372,0.424-0.591,0.916-0.864,0.895-0.496,1.259-1.287,1.454-1.839,0.51-1.433,0.566-2.914,0.62-4.347l0.007-0.158c0.009-0.215-0.005-0.527-0.226-0.758-0.21-0.22-0.489-0.246-0.68-0.246zm4.358-23.116l0.469-0.133c0.319-0.09,0.639-0.179,0.949-0.288,1.36-0.475,2.028-1.586,1.786-2.975-0.189-1.083-1.031-1.729-2.25-1.729-0.139,0-0.284,0.008-0.436,0.026-4.823,0.548-7.696,3.372-8.088,7.949-0.003,0.033-0.004,0.069-0.003,0.107-0.091,0.002-0.187,0.014-0.284,0.026-0.047,0.006-0.094,0.014-0.151,0.016-0.004-0.021-0.008-0.05-0.011-0.086-0.085-1.102-0.497-2.178-1.258-3.29-0.63-0.919-1.458-1.695-2.568-2.4,2.896-1.11,5.971-1.847,9.435-2.254,1.488-0.175,3.026-0.356,4.459-1.037,0.637-0.303,1.066-0.856,1.18-1.518,0.117-0.687-0.118-1.382-0.645-1.905-0.348-0.349-0.8-0.591-1.381-0.74-0.616-0.16-1.281-0.237-2.035-0.237-0.316,0-0.633,0.013-0.949,0.036-3.562,0.25-6.977,1.195-10.169,2.141-2.084,0.62-3.801,1.242-5.405,2.265-0.86,0.55-1.396,1.415-1.508,2.437-0.122,1.103,0.266,2.284,0.987,3.009,0.934,0.937,2.061,1.644,3.351,2.103,0.932,0.332,1.406,0.924,1.587,1.979,0.01,0.058,0.013,0.098,0.019,0.116-0.039,0.016-0.1,0.037-0.183,0.061-0.777,0.225-1.547,0.473-2.317,0.721l-0.962,0.308c-0.896,0.276-1.104,0.874-1.123,1.326-0.028,0.686-0.075,1.37-0.121,2.055-0.126,1.876-0.258,3.815-0.009,5.753,0.431,3.362,1.723,5.864,3.957,7.654,0.005,0.004,0.066,0.047,0.114,0.082-0.002,0.366,0.1,0.66,0.302,0.875,0.311,0.329,0.763,0.367,1.076,0.367,0,0,0.272-0.006,0.273-0.006,0.135,0,0.27,0.011,0.405,0.02l0.243,0.016c0.944,0.043,1.888,0.062,2.833,0.062,1.339-0.001,2.804-0.036,4.612-0.113,0.665-0.028,1.008-0.281,1.02-0.751,0.01-0.381,0.233-0.583,0.629-0.906,0.149-0.122,0.299-0.246,0.432-0.382,2.033-2.08,3.09-4.805,3.232-8.329,0.061-1.505-0.032-3.018-0.122-4.481-0.034-0.547-0.067-1.093-0.094-1.64-0.041-0.886-0.456-1.421-1.305-1.683-0.485-0.15-2.452-0.773-2.454-0.773,0.172-2.201,0.941-3.392,2.481-3.854zm-16.417-12.253c-2.137,1.208-2.801,3.204-1.824,5.475,0.077,0.18,0.257,0.6,0.726,0.6,0.237,0,0.438-0.124,0.571-0.218,1.037-0.745,2.288-1.368,3.936-1.963,4.456-1.603,9.187-2.269,13.635-2.75,1.545-0.167,2.324-1.012,2.317-2.501,0.01-0.865-0.396-1.535-1.174-1.937-0.669-0.345-1.45-0.513-2.408-0.513-3.118,0.005-6.157,0.648-8.72,1.277-2.208,0.542-4.757,1.229-7.059,2.53zm-1.141,0.423c0.26,0,0.481-0.137,0.645-0.257,2.18-1.59,4.708-2.711,7.729-3.428,0.922-0.218,1.881-0.36,2.808-0.498,0.574-0.085,1.148-0.17,1.723-0.273,1.426-0.258,2.323-1.526,2.185-3.087-0.117-1.272-0.936-1.923-2.504-1.988h-0.447c-2.002,0.106-4.085,0.542-6.191,1.297-2.541,0.91-4.354,1.882-5.883,3.152-1.469,1.222-1.78,2.917-0.833,4.535,0.095,0.164,0.32,0.547,0.768,0.547z"/><path id="path3169" opacity="0.15" d="M51.669,66.365l-0.15,0.005c-1.376,0.079-2.604,0.118-3.752,0.118-1.049,0-2.022-0.031-2.974-0.097-0.208-0.015-0.376-0.025-0.511-0.025-0.232,0-0.526,0.028-0.745,0.248-0.271,0.271-0.27,0.639-0.268,1.25v0.174c0,0.309,0.002,0.618,0.031,0.926,0.168,1.808,0.377,4.058,2.697,5.267,0.112,0.059,0.22,0.236,0.333,0.424,0.177,0.291,0.396,0.654,0.808,0.865,0.071,0.036,0.149,0.055,0.228,0.055l1.056-0.002c0.126-0.001,0.248-0.049,0.34-0.136,0.057-0.054,0.125-0.098,0.191-0.144,0.212-0.146,0.503-0.348,0.625-0.716,0.131-0.372,0.424-0.591,0.916-0.864,0.895-0.496,1.259-1.287,1.454-1.839,0.51-1.433,0.566-2.914,0.62-4.347l0.007-0.158c0.009-0.215-0.005-0.527-0.226-0.758-0.21-0.22-0.489-0.246-0.68-0.246zm4.358-23.116l0.469-0.133c0.319-0.09,0.639-0.179,0.949-0.288,1.36-0.475,2.028-1.586,1.786-2.975-0.189-1.083-1.031-1.729-2.25-1.729-0.139,0-0.284,0.008-0.436,0.026-4.823,0.548-7.696,3.372-8.088,7.949-0.003,0.033-0.004,0.069-0.003,0.107-0.091,0.002-0.187,0.014-0.284,0.026-0.047,0.006-0.094,0.014-0.151,0.016-0.004-0.021-0.008-0.05-0.011-0.086-0.085-1.102-0.497-2.178-1.258-3.29-0.63-0.919-1.458-1.695-2.568-2.4,2.896-1.11,5.971-1.847,9.435-2.254,1.488-0.175,3.026-0.356,4.459-1.037,0.637-0.303,1.066-0.856,1.18-1.518,0.117-0.687-0.118-1.382-0.645-1.905-0.348-0.349-0.8-0.591-1.381-0.74-0.616-0.16-1.281-0.237-2.035-0.237-0.316,0-0.633,0.013-0.949,0.036-3.562,0.25-6.977,1.195-10.169,2.141-2.084,0.62-3.801,1.242-5.405,2.265-0.86,0.55-1.396,1.415-1.508,2.437-0.122,1.103,0.266,2.284,0.987,3.009,0.934,0.937,2.061,1.644,3.351,2.103,0.932,0.332,1.406,0.924,1.587,1.979,0.01,0.058,0.013,0.098,0.019,0.116-0.039,0.016-0.1,0.037-0.183,0.061-0.777,0.225-1.547,0.473-2.317,0.721l-0.962,0.308c-0.896,0.276-1.104,0.874-1.123,1.326-0.028,0.686-0.075,1.37-0.121,2.055-0.126,1.876-0.258,3.815-0.009,5.753,0.431,3.362,1.723,5.864,3.957,7.654,0.005,0.004,0.066,0.047,0.114,0.082-0.002,0.366,0.1,0.66,0.302,0.875,0.311,0.329,0.763,0.367,1.076,0.367,0,0,0.272-0.006,0.273-0.006,0.135,0,0.27,0.011,0.405,0.02l0.243,0.016c0.944,0.043,1.888,0.062,2.833,0.062,1.339-0.001,2.804-0.036,4.612-0.113,0.665-0.028,1.008-0.281,1.02-0.751,0.01-0.381,0.233-0.583,0.629-0.906,0.149-0.122,0.299-0.246,0.432-0.382,2.033-2.08,3.09-4.805,3.232-8.329,0.061-1.505-0.032-3.018-0.122-4.481-0.034-0.547-0.067-1.093-0.094-1.64-0.041-0.886-0.456-1.421-1.305-1.683-0.485-0.15-2.452-0.773-2.454-0.773,0.172-2.201,0.941-3.392,2.481-3.854zm-16.417-12.253c-2.137,1.208-2.801,3.204-1.824,5.475,0.077,0.18,0.257,0.6,0.726,0.6,0.237,0,0.438-0.124,0.571-0.218,1.037-0.745,2.288-1.368,3.936-1.963,4.456-1.603,9.187-2.269,13.635-2.75,1.545-0.167,2.324-1.012,2.317-2.501,0.01-0.865-0.396-1.535-1.174-1.937-0.669-0.345-1.45-0.513-2.408-0.513-3.118,0.005-6.157,0.648-8.72,1.277-2.208,0.542-4.757,1.229-7.059,2.53zm-1.141,0.423c0.26,0,0.481-0.137,0.645-0.257,2.18-1.59,4.708-2.711,7.729-3.428,0.922-0.218,1.881-0.36,2.808-0.498,0.574-0.085,1.148-0.17,1.723-0.273,1.426-0.258,2.323-1.526,2.185-3.087-0.117-1.272-0.936-1.923-2.504-1.988h-0.447c-2.002,0.106-4.085,0.542-6.191,1.297-2.541,0.91-4.354,1.882-5.883,3.152-1.469,1.222-1.78,2.917-0.833,4.535,0.095,0.164,0.32,0.547,0.768,0.547z"/><path id="path4227_1_" d="M50.633,21.387c0.226,0,0.313-0.003,0.401,0,1.309,0.055,1.933,0.528,2.025,1.535,0.115,1.291-0.578,2.333-1.775,2.549-1.521,0.273-3.051,0.421-4.557,0.777-2.857,0.678-5.527,1.774-7.908,3.511-0.356,0.26-0.49,0.198-0.688-0.14-0.808-1.38-0.569-2.824,0.722-3.898,1.698-1.412,3.668-2.327,5.731-3.066,2.004-0.718,4.06-1.163,6.049-1.268z"/></g></g></g></g></g></g><g id="Warstwa_2"><g id="g4191"><g id="g4193"><g id="g4195"><g id="g4197"><g id="g4199"><linearGradient id="path4206_2_" y2="-1786.4" gradientUnits="userSpaceOnUse" x2="635.86" gradientTransform="matrix(1 0 0 -1 -587.9395 -1716.6807)" y1="-1741.1" x1="635.86"><stop id="stop3179" stop-color="#F9FAEE" offset="0.3232"/><stop id="stop3181" stop-color="#CFCAC4" offset="1"/></linearGradient><path id="path4206" fill="url(#path4206_2_)" d="M47.366,74.074c-0.553-0.283-0.649-1.033-1.139-1.287-2.016-1.051-2.25-2.936-2.43-4.869-0.033-0.352-0.027-0.705-0.029-1.057-0.003-1.021,0-1.041,0.988-0.971,2.266,0.154,4.527,0.109,6.791-0.021,0.398-0.023,0.546,0.047,0.527,0.479-0.057,1.475-0.096,2.947-0.598,4.359-0.232,0.654-0.574,1.207-1.226,1.568-0.472,0.262-0.942,0.561-1.146,1.135-0.107,0.324-0.457,0.445-0.688,0.662-0.343,0.002-0.696,0.002-1.05,0.002z"/><linearGradient id="path4213_2_" y2="-1786.4" gradientUnits="userSpaceOnUse" x2="636.15" gradientTransform="matrix(1 0 0 -1 -587.9395 -1716.6807)" y1="-1741.1" x1="636.15"><stop id="stop3185" stop-color="#F9FAEE" offset="0.3232"/><stop id="stop3187" stop-color="#CFCAC4" offset="1"/></linearGradient><path id="path4213" fill="url(#path4213_2_)" d="M43.151,39.445c1.25,0.682,2.371,1.519,3.188,2.71,0.632,0.923,1.085,1.923,1.172,3.046,0.066,0.857,0.706,0.435,1.092,0.516,0.502,0.104,0.332-0.332,0.354-0.574,0.371-4.333,3.063-6.975,7.646-7.496,1.229-0.141,1.979,0.392,2.137,1.293,0.197,1.133-0.33,2.022-1.459,2.416-0.455,0.159-0.928,0.275-1.396,0.414-2.196,0.658-2.729,2.602-2.849,4.45-0.021,0.286,0.18,0.302,0.365,0.36,0.816,0.256,1.635,0.521,2.451,0.772,0.607,0.188,0.92,0.521,0.953,1.229,0.096,2.024,0.297,4.048,0.215,6.077-0.121,3.01-0.912,5.771-3.09,8-0.472,0.482-1.182,0.781-1.203,1.625-0.006,0.24-0.311,0.254-0.541,0.264-2.467,0.105-4.936,0.164-7.4,0.053-0.264-0.014-0.528-0.045-0.791-0.033-0.592,0.023-1.072-0.063-1.027-0.822,0.012-0.215-0.177-0.291-0.311-0.395-2.35-1.883-3.396-4.436-3.767-7.322-0.331-2.58,0.027-5.148,0.134-7.724,0.02-0.492,0.334-0.734,0.771-0.869,1.09-0.345,2.173-0.709,3.271-1.026,0.41-0.121,0.608-0.217,0.519-0.742-0.201-1.174-0.75-1.952-1.912-2.366-1.187-0.422-2.257-1.074-3.165-1.985-1.059-1.064-1.389-3.505,0.436-4.671,1.638-1.045,3.441-1.661,5.278-2.207,3.295-0.977,6.609-1.88,10.062-2.122,0.945-0.066,1.896-0.054,2.824,0.187,0.433,0.111,0.832,0.289,1.151,0.609,0.838,0.833,0.658,2.118-0.396,2.619-1.375,0.653-2.873,0.823-4.356,0.998-3.385,0.398-6.679,1.158-9.851,2.413-0.171,0.063-0.392,0.082-0.505,0.303z"/><linearGradient id="path4220_2_" y2="-1786.4" gradientUnits="userSpaceOnUse" x2="636.1" gradientTransform="matrix(1 0 0 -1 -587.9395 -1716.6807)" y1="-1741.1" x1="636.1"><stop id="stop3191" stop-color="#F9FAEE" offset="0.3232"/><stop id="stop3193" stop-color="#CFCAC4" offset="1"/></linearGradient><path id="path4220" fill="url(#path4220_2_)" d="M58.472,28.633c0.006,1.245-0.598,1.872-1.871,2.01-4.668,0.505-9.304,1.177-13.75,2.776-1.431,0.516-2.816,1.135-4.059,2.027-0.326,0.232-0.421,0.12-0.546-0.172-0.864-2.009-0.312-3.757,1.61-4.843,2.164-1.223,4.537-1.892,6.933-2.48,2.827-0.693,5.675-1.257,8.602-1.262,0.751-0.002,1.493,0.104,2.179,0.457,0.603,0.312,0.909,0.804,0.902,1.487z"/><linearGradient id="path4227_2_" y2="-1786.4" gradientUnits="userSpaceOnUse" x2="633.31" gradientTransform="matrix(1 0 0 -1 -587.9395 -1716.6807)" y1="-1741.1" x1="633.31"><stop id="stop3197" stop-color="#F9FAEE" offset="0.3232"/><stop id="stop3199" stop-color="#CFCAC4" offset="1"/></linearGradient><path id="path4227" fill="url(#path4227_2_)" d="M50.633,21.387c0.226,0,0.313-0.003,0.401,0,1.309,0.055,1.933,0.528,2.025,1.535,0.115,1.291-0.578,2.333-1.775,2.549-1.521,0.273-3.051,0.421-4.557,0.777-2.857,0.678-5.527,1.774-7.908,3.511-0.356,0.26-0.49,0.198-0.688-0.14-0.808-1.38-0.569-2.824,0.722-3.898,1.698-1.412,3.668-2.327,5.731-3.066,2.004-0.718,4.06-1.163,6.049-1.268z"/></g></g></g></g></g></g></g></svg>
