<?xml version="1.0" encoding="utf-8"?>
<!-- Generator: Adobe Illustrator 18.0.0, SVG Export Plug-In . SVG Version: 6.00 Build 0)  -->
<!DOCTYPE svg PUBLIC "-//W3C//DTD SVG 1.1//EN" "http://www.w3.org/Graphics/SVG/1.1/DTD/svg11.dtd">
<svg version="1.1"
	 id="svg3116" xmlns:rdf="http://www.w3.org/1999/02/22-rdf-syntax-ns#" xmlns:osb="http://www.openswatchbook.org/uri/2009/osb" xmlns:cc="http://creativecommons.org/ns#" xmlns:dc="http://purl.org/dc/elements/1.1/"
	 xmlns="http://www.w3.org/2000/svg" xmlns:xlink="http://www.w3.org/1999/xlink" x="0px" y="0px" viewBox="0 0 96 96"
	 enable-background="new 0 0 96 96" xml:space="preserve">
<g id="DO_NOT_EDIT_-_BOUNDING_BOX">
	<rect id="BOUNDING_BOX" fill="none" width="96" height="96"/>
</g>
<g id="DO_NOT_EDIT_-_SHADOW">
	<path id="SHADOW" opacity="0.4" enable-background="new    " d="M88,49c0,29.6-10.4,40-40,40C18.4,89,8,78.6,8,49
		C8,19.4,18.4,9,48,9C77.7,9,88,19.4,88,49z"/>
</g>
<g id="ORANGE_2">
	
		<linearGradient id="RED_x2F_ORANGE_2_1_" gradientUnits="userSpaceOnUse" x1="48" y1="89.99" x2="48" y2="10.011" gradientTransform="matrix(1 0 0 -1 0 98)">
		<stop  offset="3.640000e-002" style="stop-color:#24BDFA"/>
		<stop  offset="0.3742" style="stop-color:#20AFEA"/>
		<stop  offset="1" style="stop-color:#1793C7"/>
	</linearGradient>
	<path id="RED_x2F_ORANGE_2_2_" fill="url(#RED_x2F_ORANGE_2_1_)" d="M8,48c0,29.6,10.4,40,40,40c29.6,0,40-10.4,40-40
		c0-29-9.9-39.5-38.1-40h-3.8C17.9,8.5,8,19,8,48z"/>
	
		<linearGradient id="HIGHLIGHTS_RO2_1_" gradientUnits="userSpaceOnUse" x1="48" y1="89.7441" x2="48" y2="10.496" gradientTransform="matrix(1 0 0 -1 0 98)">
		<stop  offset="3.640000e-002" style="stop-color:#FFFFFF"/>
		<stop  offset="0.185" style="stop-color:#F8E8E1"/>
		<stop  offset="0.5097" style="stop-color:#E5AC95"/>
		<stop  offset="0.9833" style="stop-color:#C84D1B"/>
		<stop  offset="1" style="stop-color:#C74A17"/>
	</linearGradient>
	<path id="HIGHLIGHTS_RO2_2_" opacity="0.25" fill="url(#HIGHLIGHTS_RO2_1_)" enable-background="new    " d="M48,8
		C18.4,8,8,18.4,8,48c0,29.6,10.4,40,40,40c29.6,0,40-10.4,40-40C88,18.4,77.6,8,48,8z M48,87C18.8,87,9,77.2,9,48S18.8,9,48,9
		s39,9.8,39,39S77.2,87,48,87z"/>
	<path id="path3989" fill="#FF0000" stroke="#D60000" d="M92.6,76.5c0,8.7-7,15.7-15.7,15.7c-8.7,0-15.7-7-15.7-15.7c0,0,0,0,0,0
		c0-8.7,7-15.7,15.7-15.7C85.5,60.9,92.6,67.9,92.6,76.5C92.6,76.5,92.6,76.5,92.6,76.5z"/>
	<text transform="matrix(1 0 0 1 70.9561 83.4645)" fill="#FFFFFF" font-family="'MyriadPro-Regular'" font-size="22">β</text>
</g>
<g id="PLACE_YOUR_GRAPHIC_HERE">
	<g id="Warstwa_2_1_">
		<g id="g4191_1_">
			<g id="g4193_1_">
				<g id="g4195_1_">
					<g id="g4197_1_">
						<g id="g4199_1_">
							<path id="path4206_1_" d="M47.4,74.1c-0.6-0.3-0.6-1-1.1-1.3c-2-1.1-2.3-2.9-2.4-4.9c0-0.4,0-0.7,0-1.1c0-1,0-1,1-1
								c2.3,0.2,4.5,0.1,6.8,0c0.4,0,0.5,0,0.5,0.5c-0.1,1.5-0.1,2.9-0.6,4.4c-0.2,0.7-0.6,1.2-1.2,1.6c-0.5,0.3-0.9,0.6-1.1,1.1
								c-0.1,0.3-0.5,0.4-0.7,0.7C48.1,74.1,47.7,74.1,47.4,74.1z"/>
							<path id="path4213_1_" d="M43.2,39.4c1.3,0.7,2.4,1.5,3.2,2.7c0.6,0.9,1.1,1.9,1.2,3c0.1,0.9,0.7,0.4,1.1,0.5
								c0.5,0.1,0.3-0.3,0.4-0.6c0.4-4.3,3.1-7,7.6-7.5c1.2-0.1,2,0.4,2.1,1.3c0.2,1.1-0.3,2-1.5,2.4c-0.5,0.2-0.9,0.3-1.4,0.4
								c-2.2,0.7-2.7,2.6-2.8,4.5c0,0.3,0.2,0.3,0.4,0.4c0.8,0.3,1.6,0.5,2.5,0.8c0.6,0.2,0.9,0.5,1,1.2c0.1,2,0.3,4,0.2,6.1
								c-0.1,3-0.9,5.8-3.1,8c-0.5,0.5-1.2,0.8-1.2,1.6c0,0.2-0.3,0.3-0.5,0.3c-2.5,0.1-4.9,0.2-7.4,0.1c-0.3,0-0.5,0-0.8,0
								c-0.6,0-1.1-0.1-1-0.8c0-0.2-0.2-0.3-0.3-0.4c-2.3-1.9-3.4-4.4-3.8-7.3c-0.3-2.6,0-5.1,0.1-7.7c0-0.5,0.3-0.7,0.8-0.9
								c1.1-0.3,2.2-0.7,3.3-1c0.4-0.1,0.6-0.2,0.5-0.7c-0.2-1.2-0.8-2-1.9-2.4c-1.2-0.4-2.3-1.1-3.2-2c-1.1-1.1-1.4-3.5,0.4-4.7
								c1.6-1,3.4-1.7,5.3-2.2c3.3-1,6.6-1.9,10.1-2.1c0.9-0.1,1.9-0.1,2.8,0.2c0.4,0.1,0.8,0.3,1.2,0.6c0.8,0.8,0.7,2.1-0.4,2.6
								c-1.4,0.7-2.9,0.8-4.4,1c-3.4,0.4-6.7,1.2-9.9,2.4C43.5,39.2,43.3,39.2,43.2,39.4z"/>
							<path id="path4220_1_" d="M58.5,28.6c0,1.2-0.6,1.9-1.9,2c-4.7,0.5-9.3,1.2-13.8,2.8c-1.4,0.5-2.8,1.1-4.1,2
								c-0.3,0.2-0.4,0.1-0.5-0.2c-0.9-2-0.3-3.8,1.6-4.8c2.2-1.2,4.5-1.9,6.9-2.5c2.8-0.7,5.7-1.3,8.6-1.3c0.8,0,1.5,0.1,2.2,0.5
								C58.2,27.5,58.5,28,58.5,28.6z"/>
							<path id="path3153" opacity="5.000000e-002" enable-background="new    " d="M47.4,77.6c-0.4,0-0.8-0.1-1.1-0.3
								c-0.9-0.4-1.3-1.1-1.6-1.5c-2.9-1.7-3.2-4.8-3.4-6.6c0-0.4,0-0.7,0-1.1v-0.2c0-0.3,0-0.5,0-0.8c-0.3-0.3-0.5-0.7-0.7-1.1
								c-2.4-2.1-3.7-4.9-4.2-8.6c-0.3-2.1-0.1-4.2,0-6.1c0-0.7,0.1-1.3,0.1-2c0-0.6,0.3-2.5,2.5-3.2l0.2-0.1
								c-0.9-0.5-1.8-1.1-2.5-1.9c-1.1-1.1-1.7-3-1.6-4.6c0.1-0.8,0.3-1.6,0.8-2.2c-0.8-1.9-0.8-3.7,0-5.3c0,0,0,0,0,0
								c-1.5-2.5-1-5.2,1.3-7.1c1.7-1.4,3.7-2.5,6.5-3.5c2.3-0.8,4.6-1.3,6.8-1.4l0.5,0c3.9,0.2,4.4,3,4.5,3.8c0,0.5,0,1-0.1,1.5
								c1.2,0,2.3,0.3,3.2,0.7c1.5,0.8,2.3,2.1,2.3,3.7c0,1.1-0.3,2-0.9,2.8c0.9,1,1.3,2.3,1.1,3.6c-0.1,0.6-0.4,1.2-0.8,1.8
								c0.4,0.5,0.6,1.1,0.7,1.7c0.4,2.4-0.8,4.4-3.1,5.2c-0.3,0.1-0.7,0.2-1,0.3l-0.5,0.1c-0.3,0.1-0.5,0.2-0.7,0.6l0.7,0.2
								c1.6,0.5,2.6,1.8,2.7,3.5c0,0.5,0.1,1.1,0.1,1.6c0.1,1.5,0.2,3.1,0.1,4.7c-0.2,4-1.4,7.2-3.8,9.6c-0.2,0.2-0.4,0.3-0.6,0.5
								c-0.1,0.4-0.3,0.8-0.6,1.1c0,0.2,0,0.3,0,0.4l0,0.2c-0.1,1.6-0.1,3.2-0.7,4.9c-0.2,0.5-0.7,2-2.4,2.9c0,0-0.1,0-0.1,0.1
								c-0.4,0.8-1,1.2-1.3,1.4c-0.4,0.4-1,0.6-1.7,0.6L47.4,77.6L47.4,77.6z"/>
							<path id="path3155" opacity="7.000000e-002" enable-background="new    " d="M47.4,77.1c-0.3,0-0.6-0.1-0.9-0.2
								c-0.8-0.4-1.2-1-1.4-1.4l0,0c-2.8-1.6-3.1-4.5-3.2-6.3c0-0.4,0-0.7,0-1.1v-0.2c0-0.3,0-0.7,0.1-1c0,0-0.1-0.1-0.1-0.1
								c-0.3-0.3-0.5-0.7-0.6-1.1c-2.3-2-3.7-4.8-4.2-8.3c-0.3-2.1-0.1-4.1,0-6c0-0.7,0.1-1.4,0.1-2c0-0.5,0.2-2.1,2.2-2.7
								c0,0,1.3-0.4,1.5-0.5c-1.4-0.5-2.6-1.3-3.6-2.3c-1-1-1.6-2.7-1.4-4.2c0.1-0.8,0.4-1.6,0.8-2.2c0-0.1-0.1-0.1-0.1-0.2
								c-0.8-1.9-0.7-3.7,0.2-5.2c-0.1-0.1-0.1-0.2-0.2-0.2c-1.3-2.3-0.9-4.7,1.2-6.4c1.7-1.4,3.6-2.4,6.3-3.4
								c2.2-0.8,4.5-1.3,6.6-1.4l0.5,0c3.3,0.1,3.9,2.4,4,3.4c0.1,0.7,0,1.4-0.2,2c0.2,0,0.4,0,0.6,0c1.2,0,2.2,0.2,3.1,0.7
								c1.3,0.7,2,1.9,2,3.3c0,1.2-0.4,2.1-1,2.8c0.1,0.1,0.2,0.1,0.2,0.2c0.9,0.9,1.3,2,1.1,3.2c-0.1,0.7-0.4,1.3-0.9,1.8
								c0.5,0.5,0.8,1.1,0.9,1.8c0.4,2.1-0.7,3.9-2.8,4.7c-0.3,0.1-0.7,0.2-1,0.3l-0.5,0.1c-0.5,0.2-1,0.5-1.2,1.4l1.2,0.4
								c1.5,0.4,2.3,1.5,2.4,3c0,0.5,0.1,1.1,0.1,1.6c0.1,1.5,0.2,3.1,0.1,4.6c-0.2,3.9-1.4,7-3.7,9.3c-0.2,0.2-0.4,0.3-0.6,0.5
								c0,0-0.1,0.1-0.1,0.1c-0.1,0.5-0.3,0.9-0.6,1.2c0,0.2,0,0.4,0,0.5l0,0.2c-0.1,1.5-0.1,3.1-0.7,4.8c-0.2,0.4-0.6,1.8-2.1,2.6
								c-0.1,0.1-0.2,0.1-0.3,0.2c-0.3,0.7-0.9,1.1-1.1,1.3c-0.4,0.3-0.9,0.5-1.4,0.5C48.4,77.1,47.4,77.1,47.4,77.1z M47.2,41
								c0.3,0.3,0.5,0.6,0.8,1c0,0,0,0,0,0c0.3-0.5,0.5-1,0.9-1.5C48.3,40.7,47.8,40.9,47.2,41z"/>
							<path id="path3157" opacity="7.000000e-002" enable-background="new    " d="M47.4,77.1c-0.3,0-0.6-0.1-0.9-0.2
								c-0.8-0.4-1.2-1-1.4-1.4l0,0c-2.8-1.6-3.1-4.5-3.2-6.3c0-0.4,0-0.7,0-1.1v-0.2c0-0.3,0-0.7,0.1-1c0,0-0.1-0.1-0.1-0.1
								c-0.3-0.3-0.5-0.7-0.6-1.1c-2.3-2-3.7-4.8-4.2-8.3c-0.3-2.1-0.1-4.1,0-6c0-0.7,0.1-1.4,0.1-2c0-0.5,0.2-2.1,2.2-2.7
								c0,0,1.3-0.4,1.5-0.5c-1.4-0.5-2.6-1.3-3.6-2.3c-1-1-1.6-2.7-1.4-4.2c0.1-0.8,0.4-1.6,0.8-2.2c0-0.1-0.1-0.1-0.1-0.2
								c-0.8-1.9-0.7-3.7,0.2-5.2c-0.1-0.1-0.1-0.2-0.2-0.2c-1.3-2.3-0.9-4.7,1.2-6.4c1.7-1.4,3.6-2.4,6.3-3.4
								c2.2-0.8,4.5-1.3,6.6-1.4l0.5,0c3.3,0.1,3.9,2.4,4,3.4c0.1,0.7,0,1.4-0.2,2c0.2,0,0.4,0,0.6,0c1.2,0,2.2,0.2,3.1,0.7
								c1.3,0.7,2,1.9,2,3.3c0,1.2-0.4,2.1-1,2.8c0.1,0.1,0.2,0.1,0.2,0.2c0.9,0.9,1.3,2,1.1,3.2c-0.1,0.7-0.4,1.3-0.9,1.8
								c0.5,0.5,0.8,1.1,0.9,1.8c0.4,2.1-0.7,3.9-2.8,4.7c-0.3,0.1-0.7,0.2-1,0.3l-0.5,0.1c-0.5,0.2-1,0.5-1.2,1.4l1.2,0.4
								c1.5,0.4,2.3,1.5,2.4,3c0,0.5,0.1,1.1,0.1,1.6c0.1,1.5,0.2,3.1,0.1,4.6c-0.2,3.9-1.4,7-3.7,9.3c-0.2,0.2-0.4,0.3-0.6,0.5
								c0,0-0.1,0.1-0.1,0.1c-0.1,0.5-0.3,0.9-0.6,1.2c0,0.2,0,0.4,0,0.5l0,0.2c-0.1,1.5-0.1,3.1-0.7,4.8c-0.2,0.4-0.6,1.8-2.1,2.6
								c-0.1,0.1-0.2,0.1-0.3,0.2c-0.3,0.7-0.9,1.1-1.1,1.3c-0.4,0.3-0.9,0.5-1.4,0.5C48.4,77.1,47.4,77.1,47.4,77.1z M47.2,41
								c0.3,0.3,0.5,0.6,0.8,1c0,0,0,0,0,0c0.3-0.5,0.5-1,0.9-1.5C48.3,40.7,47.8,40.9,47.2,41z"/>
							<path id="path3159" opacity="0.1" enable-background="new    " d="M47.4,76.6c-0.2,0-0.5-0.1-0.7-0.2c-0.7-0.3-1-0.9-1.2-1.2
								c0,0-0.1-0.1-0.1-0.1c-2.7-1.4-2.9-4.2-3.1-6c0-0.3,0-0.7,0-1v-0.2c0-0.4,0-0.8,0.1-1.2c-0.1-0.1-0.2-0.2-0.3-0.3
								c-0.3-0.3-0.4-0.6-0.5-1c-2.3-1.9-3.7-4.6-4.1-8.1c-0.3-2-0.1-4,0-5.9c0-0.7,0.1-1.4,0.1-2c0-0.5,0.2-1.8,1.8-2.2l1-0.3
								c0.5-0.2,1-0.3,1.6-0.5c-0.1-0.2-0.4-0.4-0.7-0.5c-1.4-0.5-2.7-1.3-3.7-2.3c-0.9-0.9-1.4-2.4-1.3-3.8
								c0.1-0.8,0.4-1.6,0.9-2.3c-0.1-0.1-0.2-0.3-0.2-0.4c-0.8-1.8-0.7-3.6,0.3-5c-0.2-0.2-0.3-0.4-0.3-0.5c-1.2-2-0.8-4.3,1.1-5.8
								c1.6-1.3,3.5-2.4,6.2-3.3c2.2-0.8,4.4-1.2,6.5-1.4l0.5,0c2.8,0.1,3.4,1.9,3.5,2.9c0.1,0.9-0.1,1.7-0.5,2.4c0.5,0,0.9,0,1.3,0
								c1.1,0,2.1,0.2,2.9,0.6c1.1,0.6,1.7,1.6,1.7,2.8c0,1.3-0.5,2.3-1.4,2.9c0.3,0.2,0.5,0.3,0.7,0.5c0.8,0.8,1.1,1.8,0.9,2.8
								c-0.1,0.8-0.6,1.5-1.2,1.9c0.6,0.5,1,1.1,1.2,1.9c0.3,1.9-0.6,3.5-2.4,4.1c-0.3,0.1-0.7,0.2-1,0.3l-0.5,0.1
								c-0.9,0.3-1.4,0.9-1.7,2.2c0.6,0.2,1.4,0.4,1.7,0.5c1.3,0.4,1.9,1.3,2,2.6c0,0.5,0.1,1.1,0.1,1.6c0.1,1.5,0.2,3,0.1,4.6
								c-0.2,3.8-1.3,6.7-3.5,9c-0.2,0.2-0.3,0.3-0.5,0.5c-0.2,0.1-0.2,0.2-0.3,0.2c0,0.5-0.3,1-0.7,1.3c0.1,0.3,0.1,0.6,0.1,0.7
								l0,0.2c-0.1,1.5-0.1,3.1-0.7,4.6c-0.1,0.4-0.6,1.6-1.9,2.4c-0.4,0.2-0.4,0.3-0.5,0.3c-0.2,0.7-0.7,1-1,1.2
								c-0.3,0.3-0.7,0.5-1.1,0.5L47.4,76.6L47.4,76.6z M46.3,40.8c0.5,0.5,0.9,1,1.3,1.5c0.2,0.3,0.4,0.5,0.5,0.8
								c0.5-1.3,1.2-2.5,2.2-3.4C48.9,40,47.6,40.4,46.3,40.8z"/>
							<path id="path3161" opacity="0.1" enable-background="new    " d="M47.4,76.6c-0.2,0-0.5-0.1-0.7-0.2c-0.7-0.3-1-0.9-1.2-1.2
								c0,0-0.1-0.1-0.1-0.1c-2.7-1.4-2.9-4.2-3.1-6c0-0.3,0-0.7,0-1v-0.2c0-0.4,0-0.8,0.1-1.2c-0.1-0.1-0.2-0.2-0.3-0.3
								c-0.3-0.3-0.4-0.6-0.5-1c-2.3-1.9-3.7-4.6-4.1-8.1c-0.3-2-0.1-4,0-5.9c0-0.7,0.1-1.4,0.1-2c0-0.5,0.2-1.8,1.8-2.2l1-0.3
								c0.5-0.2,1-0.3,1.6-0.5c-0.1-0.2-0.4-0.4-0.7-0.5c-1.4-0.5-2.7-1.3-3.7-2.3c-0.9-0.9-1.4-2.4-1.3-3.8
								c0.1-0.8,0.4-1.6,0.9-2.3c-0.1-0.1-0.2-0.3-0.2-0.4c-0.8-1.8-0.7-3.6,0.3-5c-0.2-0.2-0.3-0.4-0.3-0.5c-1.2-2-0.8-4.3,1.1-5.8
								c1.6-1.3,3.5-2.4,6.2-3.3c2.2-0.8,4.4-1.2,6.5-1.4l0.5,0c2.8,0.1,3.4,1.9,3.5,2.9c0.1,0.9-0.1,1.7-0.5,2.4c0.5,0,0.9,0,1.3,0
								c1.1,0,2.1,0.2,2.9,0.6c1.1,0.6,1.7,1.6,1.7,2.8c0,1.3-0.5,2.3-1.4,2.9c0.3,0.2,0.5,0.3,0.7,0.5c0.8,0.8,1.1,1.8,0.9,2.8
								c-0.1,0.8-0.6,1.5-1.2,1.9c0.6,0.5,1,1.1,1.2,1.9c0.3,1.9-0.6,3.5-2.4,4.1c-0.3,0.1-0.7,0.2-1,0.3l-0.5,0.1
								c-0.9,0.3-1.4,0.9-1.7,2.2c0.6,0.2,1.4,0.4,1.7,0.5c1.3,0.4,1.9,1.3,2,2.6c0,0.5,0.1,1.1,0.1,1.6c0.1,1.5,0.2,3,0.1,4.6
								c-0.2,3.8-1.3,6.7-3.5,9c-0.2,0.2-0.3,0.3-0.5,0.5c-0.2,0.1-0.2,0.2-0.3,0.2c0,0.5-0.3,1-0.7,1.3c0.1,0.3,0.1,0.6,0.1,0.7
								l0,0.2c-0.1,1.5-0.1,3.1-0.7,4.6c-0.1,0.4-0.6,1.6-1.9,2.4c-0.4,0.2-0.4,0.3-0.5,0.3c-0.2,0.7-0.7,1-1,1.2
								c-0.3,0.3-0.7,0.5-1.1,0.5L47.4,76.6L47.4,76.6z M46.3,40.8c0.5,0.5,0.9,1,1.3,1.5c0.2,0.3,0.4,0.5,0.5,0.8
								c0.5-1.3,1.2-2.5,2.2-3.4C48.9,40,47.6,40.4,46.3,40.8z"/>
							<path id="path3163" opacity="0.15" enable-background="new    " d="M47.4,76.1c-0.2,0-0.3,0-0.5-0.1c-0.5-0.3-0.8-0.7-1-1
								c-0.1-0.1-0.1-0.2-0.2-0.3c-2.5-1.3-2.8-3.8-2.9-5.6c0-0.3,0-0.6,0-1v-0.2c0-0.6,0-1,0.3-1.4c-0.2-0.1-0.4-0.2-0.6-0.4
								c-0.2-0.3-0.4-0.6-0.4-1c-2.3-1.9-3.6-4.5-4.1-7.9c-0.3-2-0.1-3.9,0-5.8c0-0.7,0.1-1.4,0.1-2.1c0-0.5,0.2-1.4,1.5-1.8l1-0.3
								c0.7-0.2,1.4-0.4,2.1-0.6c-0.2-0.7-0.5-1-1.2-1.3C40,44.8,38.8,44,37.8,43c-0.8-0.8-1.3-2.2-1.1-3.4c0.1-0.9,0.5-1.7,1.1-2.3
								c-0.2-0.2-0.3-0.4-0.4-0.6c-0.8-1.9-0.6-3.6,0.5-4.9c-0.3-0.2-0.5-0.5-0.6-0.6c-1.1-1.8-0.7-3.8,0.9-5.2
								c1.6-1.3,3.4-2.3,6-3.2c2.2-0.8,4.3-1.2,6.3-1.3h0.5c2.3,0.1,2.9,1.4,3,2.4c0.1,1.2-0.3,2.3-1.2,3c0.8-0.1,1.7-0.1,2.5-0.1
								c1,0,1.9,0.2,2.6,0.6c0.9,0.5,1.5,1.3,1.4,2.4c0,1.5-0.7,2.5-2.1,2.9c0,0,0,0,0,0c0.7,0.2,1.2,0.5,1.6,0.9
								c0.6,0.6,0.9,1.5,0.8,2.3c-0.1,0.8-0.7,1.5-1.5,1.9c-0.1,0-0.2,0.1-0.3,0.1c0.9,0.3,1.6,1,1.7,2c0.3,1.6-0.5,3-2.1,3.5
								c-0.3,0.1-0.6,0.2-1,0.3l-0.5,0.1c-1.2,0.4-1.9,1.3-2.1,3c0.6,0.2,1.7,0.5,2.1,0.7c1,0.3,1.6,1,1.7,2.1
								c0,0.5,0.1,1.1,0.1,1.6c0.1,1.5,0.2,3,0.1,4.5c-0.1,3.7-1.3,6.5-3.4,8.7c-0.1,0.1-0.3,0.3-0.5,0.4c-0.4,0.3-0.4,0.4-0.4,0.5
								c0,0.3-0.1,0.9-0.9,1.1c0.2,0.4,0.2,0.8,0.2,0.9l0,0.2C53,69,53,70.5,52.4,72c-0.1,0.4-0.5,1.5-1.7,2.1
								c-0.4,0.3-0.6,0.4-0.7,0.6c-0.2,0.5-0.6,0.8-0.8,1c-0.1,0-0.1,0.1-0.1,0.1c-0.2,0.2-0.4,0.3-0.7,0.3L47.4,76.1L47.4,76.1z
								 M45.3,40.6c0.8,0.6,1.4,1.2,1.9,2c0.5,0.7,0.8,1.3,1,2c0.6-2.6,2-4.5,4.1-5.7C49.8,39.3,47.5,39.8,45.3,40.6z"/>
							<path id="path3165" opacity="0.15" enable-background="new    " d="M47.4,76.1c-0.2,0-0.3,0-0.5-0.1c-0.5-0.3-0.8-0.7-1-1
								c-0.1-0.1-0.1-0.2-0.2-0.3c-2.5-1.3-2.8-3.8-2.9-5.6c0-0.3,0-0.6,0-1v-0.2c0-0.6,0-1,0.3-1.4c-0.2-0.1-0.4-0.2-0.6-0.4
								c-0.2-0.3-0.4-0.6-0.4-1c-2.3-1.9-3.6-4.5-4.1-7.9c-0.3-2-0.1-3.9,0-5.8c0-0.7,0.1-1.4,0.1-2.1c0-0.5,0.2-1.4,1.5-1.8l1-0.3
								c0.7-0.2,1.4-0.4,2.1-0.6c-0.2-0.7-0.5-1-1.2-1.3C40,44.8,38.8,44,37.8,43c-0.8-0.8-1.3-2.2-1.1-3.4c0.1-0.9,0.5-1.7,1.1-2.3
								c-0.2-0.2-0.3-0.4-0.4-0.6c-0.8-1.9-0.6-3.6,0.5-4.9c-0.3-0.2-0.5-0.5-0.6-0.6c-1.1-1.8-0.7-3.8,0.9-5.2
								c1.6-1.3,3.4-2.3,6-3.2c2.2-0.8,4.3-1.2,6.3-1.3h0.5c2.3,0.1,2.9,1.4,3,2.4c0.1,1.2-0.3,2.3-1.2,3c0.8-0.1,1.7-0.1,2.5-0.1
								c1,0,1.9,0.2,2.6,0.6c0.9,0.5,1.5,1.3,1.4,2.4c0,1.5-0.7,2.5-2.1,2.9c0,0,0,0,0,0c0.7,0.2,1.2,0.5,1.6,0.9
								c0.6,0.6,0.9,1.5,0.8,2.3c-0.1,0.8-0.7,1.5-1.5,1.9c-0.1,0-0.2,0.1-0.3,0.1c0.9,0.3,1.6,1,1.7,2c0.3,1.6-0.5,3-2.1,3.5
								c-0.3,0.1-0.6,0.2-1,0.3l-0.5,0.1c-1.2,0.4-1.9,1.3-2.1,3c0.6,0.2,1.7,0.5,2.1,0.7c1,0.3,1.6,1,1.7,2.1
								c0,0.5,0.1,1.1,0.1,1.6c0.1,1.5,0.2,3,0.1,4.5c-0.1,3.7-1.3,6.5-3.4,8.7c-0.1,0.1-0.3,0.3-0.5,0.4c-0.4,0.3-0.4,0.4-0.4,0.5
								c0,0.3-0.1,0.9-0.9,1.1c0.2,0.4,0.2,0.8,0.2,0.9l0,0.2C53,69,53,70.5,52.4,72c-0.1,0.4-0.5,1.5-1.7,2.1
								c-0.4,0.3-0.6,0.4-0.7,0.6c-0.2,0.5-0.6,0.8-0.8,1c-0.1,0-0.1,0.1-0.1,0.1c-0.2,0.2-0.4,0.3-0.7,0.3L47.4,76.1L47.4,76.1z
								 M45.3,40.6c0.8,0.6,1.4,1.2,1.9,2c0.5,0.7,0.8,1.3,1,2c0.6-2.6,2-4.5,4.1-5.7C49.8,39.3,47.5,39.8,45.3,40.6z"/>
							<path id="path3167" opacity="0.15" enable-background="new    " d="M51.7,66.4l-0.2,0c-1.4,0.1-2.6,0.1-3.8,0.1
								c-1,0-2,0-3-0.1c-0.2,0-0.4,0-0.5,0c-0.2,0-0.5,0-0.7,0.2c-0.3,0.3-0.3,0.6-0.3,1.3V68c0,0.3,0,0.6,0,0.9
								c0.2,1.8,0.4,4.1,2.7,5.3c0.1,0.1,0.2,0.2,0.3,0.4c0.2,0.3,0.4,0.7,0.8,0.9c0.1,0,0.1,0.1,0.2,0.1l1.1,0c0.1,0,0.2,0,0.3-0.1
								c0.1-0.1,0.1-0.1,0.2-0.1c0.2-0.1,0.5-0.3,0.6-0.7c0.1-0.4,0.4-0.6,0.9-0.9c0.9-0.5,1.3-1.3,1.5-1.8c0.5-1.4,0.6-2.9,0.6-4.3
								l0-0.2c0-0.2,0-0.5-0.2-0.8C52.1,66.4,51.9,66.4,51.7,66.4z M56,43.2l0.5-0.1c0.3-0.1,0.6-0.2,0.9-0.3c1.4-0.5,2-1.6,1.8-3
								c-0.2-1.1-1-1.7-2.3-1.7c-0.1,0-0.3,0-0.4,0c-4.8,0.5-7.7,3.4-8.1,7.9c0,0,0,0.1,0,0.1c-0.1,0-0.2,0-0.3,0c0,0-0.1,0-0.2,0
								c0,0,0,0,0-0.1c-0.1-1.1-0.5-2.2-1.3-3.3c-0.6-0.9-1.5-1.7-2.6-2.4c2.9-1.1,6-1.8,9.4-2.3c1.5-0.2,3-0.4,4.5-1
								c0.6-0.3,1.1-0.9,1.2-1.5c0.1-0.7-0.1-1.4-0.6-1.9c-0.3-0.3-0.8-0.6-1.4-0.7c-0.6-0.2-1.3-0.2-2-0.2c-0.3,0-0.6,0-0.9,0
								c-3.6,0.3-7,1.2-10.2,2.1c-2.1,0.6-3.8,1.2-5.4,2.3c-0.9,0.5-1.4,1.4-1.5,2.4c-0.1,1.1,0.3,2.3,1,3c0.9,0.9,2.1,1.6,3.4,2.1
								c0.9,0.3,1.4,0.9,1.6,2c0,0.1,0,0.1,0,0.1c0,0-0.1,0-0.2,0.1c-0.8,0.2-1.5,0.5-2.3,0.7l-1,0.3c-0.9,0.3-1.1,0.9-1.1,1.3
								c0,0.7-0.1,1.4-0.1,2.1c-0.1,1.9-0.3,3.8,0,5.8c0.4,3.4,1.7,5.9,4,7.7c0,0,0.1,0,0.1,0.1c0,0.4,0.1,0.7,0.3,0.9
								c0.3,0.3,0.8,0.4,1.1,0.4c0,0,0.3,0,0.3,0c0.1,0,0.3,0,0.4,0l0.2,0c0.9,0,1.9,0.1,2.8,0.1c1.3,0,2.8,0,4.6-0.1
								c0.7,0,1-0.3,1-0.8c0-0.4,0.2-0.6,0.6-0.9c0.1-0.1,0.3-0.2,0.4-0.4c2-2.1,3.1-4.8,3.2-8.3c0.1-1.5,0-3-0.1-4.5
								c0-0.5-0.1-1.1-0.1-1.6c0-0.9-0.5-1.4-1.3-1.7c-0.5-0.2-2.5-0.8-2.5-0.8C53.7,44.9,54.5,43.7,56,43.2z M39.6,31
								c-2.1,1.2-2.8,3.2-1.8,5.5c0.1,0.2,0.3,0.6,0.7,0.6c0.2,0,0.4-0.1,0.6-0.2c1-0.7,2.3-1.4,3.9-2c4.5-1.6,9.2-2.3,13.6-2.8
								c1.5-0.2,2.3-1,2.3-2.5c0-0.9-0.4-1.5-1.2-1.9c-0.7-0.3-1.5-0.5-2.4-0.5c-3.1,0-6.2,0.6-8.7,1.3C44.5,29,41.9,29.7,39.6,31z
								 M38.5,31.4c0.3,0,0.5-0.1,0.6-0.3c2.2-1.6,4.7-2.7,7.7-3.4c0.9-0.2,1.9-0.4,2.8-0.5c0.6-0.1,1.1-0.2,1.7-0.3
								c1.4-0.3,2.3-1.5,2.2-3.1c-0.1-1.3-0.9-1.9-2.5-2h-0.4c-2,0.1-4.1,0.5-6.2,1.3c-2.5,0.9-4.4,1.9-5.9,3.2
								c-1.5,1.2-1.8,2.9-0.8,4.5C37.8,31,38,31.4,38.5,31.4z"/>
							<path id="path3169" opacity="0.15" enable-background="new    " d="M51.7,66.4l-0.2,0c-1.4,0.1-2.6,0.1-3.8,0.1
								c-1,0-2,0-3-0.1c-0.2,0-0.4,0-0.5,0c-0.2,0-0.5,0-0.7,0.2c-0.3,0.3-0.3,0.6-0.3,1.3V68c0,0.3,0,0.6,0,0.9
								c0.2,1.8,0.4,4.1,2.7,5.3c0.1,0.1,0.2,0.2,0.3,0.4c0.2,0.3,0.4,0.7,0.8,0.9c0.1,0,0.1,0.1,0.2,0.1l1.1,0c0.1,0,0.2,0,0.3-0.1
								c0.1-0.1,0.1-0.1,0.2-0.1c0.2-0.1,0.5-0.3,0.6-0.7c0.1-0.4,0.4-0.6,0.9-0.9c0.9-0.5,1.3-1.3,1.5-1.8c0.5-1.4,0.6-2.9,0.6-4.3
								l0-0.2c0-0.2,0-0.5-0.2-0.8C52.1,66.4,51.9,66.4,51.7,66.4z M56,43.2l0.5-0.1c0.3-0.1,0.6-0.2,0.9-0.3c1.4-0.5,2-1.6,1.8-3
								c-0.2-1.1-1-1.7-2.3-1.7c-0.1,0-0.3,0-0.4,0c-4.8,0.5-7.7,3.4-8.1,7.9c0,0,0,0.1,0,0.1c-0.1,0-0.2,0-0.3,0c0,0-0.1,0-0.2,0
								c0,0,0,0,0-0.1c-0.1-1.1-0.5-2.2-1.3-3.3c-0.6-0.9-1.5-1.7-2.6-2.4c2.9-1.1,6-1.8,9.4-2.3c1.5-0.2,3-0.4,4.5-1
								c0.6-0.3,1.1-0.9,1.2-1.5c0.1-0.7-0.1-1.4-0.6-1.9c-0.3-0.3-0.8-0.6-1.4-0.7c-0.6-0.2-1.3-0.2-2-0.2c-0.3,0-0.6,0-0.9,0
								c-3.6,0.3-7,1.2-10.2,2.1c-2.1,0.6-3.8,1.2-5.4,2.3c-0.9,0.5-1.4,1.4-1.5,2.4c-0.1,1.1,0.3,2.3,1,3c0.9,0.9,2.1,1.6,3.4,2.1
								c0.9,0.3,1.4,0.9,1.6,2c0,0.1,0,0.1,0,0.1c0,0-0.1,0-0.2,0.1c-0.8,0.2-1.5,0.5-2.3,0.7l-1,0.3c-0.9,0.3-1.1,0.9-1.1,1.3
								c0,0.7-0.1,1.4-0.1,2.1c-0.1,1.9-0.3,3.8,0,5.8c0.4,3.4,1.7,5.9,4,7.7c0,0,0.1,0,0.1,0.1c0,0.4,0.1,0.7,0.3,0.9
								c0.3,0.3,0.8,0.4,1.1,0.4c0,0,0.3,0,0.3,0c0.1,0,0.3,0,0.4,0l0.2,0c0.9,0,1.9,0.1,2.8,0.1c1.3,0,2.8,0,4.6-0.1
								c0.7,0,1-0.3,1-0.8c0-0.4,0.2-0.6,0.6-0.9c0.1-0.1,0.3-0.2,0.4-0.4c2-2.1,3.1-4.8,3.2-8.3c0.1-1.5,0-3-0.1-4.5
								c0-0.5-0.1-1.1-0.1-1.6c0-0.9-0.5-1.4-1.3-1.7c-0.5-0.2-2.5-0.8-2.5-0.8C53.7,44.9,54.5,43.7,56,43.2z M39.6,31
								c-2.1,1.2-2.8,3.2-1.8,5.5c0.1,0.2,0.3,0.6,0.7,0.6c0.2,0,0.4-0.1,0.6-0.2c1-0.7,2.3-1.4,3.9-2c4.5-1.6,9.2-2.3,13.6-2.8
								c1.5-0.2,2.3-1,2.3-2.5c0-0.9-0.4-1.5-1.2-1.9c-0.7-0.3-1.5-0.5-2.4-0.5c-3.1,0-6.2,0.6-8.7,1.3C44.5,29,41.9,29.7,39.6,31z
								 M38.5,31.4c0.3,0,0.5-0.1,0.6-0.3c2.2-1.6,4.7-2.7,7.7-3.4c0.9-0.2,1.9-0.4,2.8-0.5c0.6-0.1,1.1-0.2,1.7-0.3
								c1.4-0.3,2.3-1.5,2.2-3.1c-0.1-1.3-0.9-1.9-2.5-2h-0.4c-2,0.1-4.1,0.5-6.2,1.3c-2.5,0.9-4.4,1.9-5.9,3.2
								c-1.5,1.2-1.8,2.9-0.8,4.5C37.8,31,38,31.4,38.5,31.4z"/>
							<path id="path4227_1_" d="M50.6,21.4c0.2,0,0.3,0,0.4,0c1.3,0.1,1.9,0.5,2,1.5c0.1,1.3-0.6,2.3-1.8,2.5
								c-1.5,0.3-3.1,0.4-4.6,0.8c-2.9,0.7-5.5,1.8-7.9,3.5c-0.4,0.3-0.5,0.2-0.7-0.1c-0.8-1.4-0.6-2.8,0.7-3.9
								c1.7-1.4,3.7-2.3,5.7-3.1C46.6,21.9,48.6,21.5,50.6,21.4z"/>
						</g>
					</g>
				</g>
			</g>
		</g>
	</g>
	<g id="Warstwa_2">
		<g id="g4191">
			<g id="g4193">
				<g id="g4195">
					<g id="g4197">
						<g id="g4199">
							
								<linearGradient id="path4206_2_" gradientUnits="userSpaceOnUse" x1="635.8612" y1="2533.0999" x2="635.8612" y2="2578.3999" gradientTransform="matrix(1 0 0 1 -587.9395 -2508.6807)">
								<stop  offset="0.3232" style="stop-color:#F9FAEE"/>
								<stop  offset="1" style="stop-color:#CFCAC4"/>
							</linearGradient>
							<path id="path4206" fill="url(#path4206_2_)" d="M47.4,74.1c-0.6-0.3-0.6-1-1.1-1.3c-2-1.1-2.3-2.9-2.4-4.9
								c0-0.4,0-0.7,0-1.1c0-1,0-1,1-1c2.3,0.2,4.5,0.1,6.8,0c0.4,0,0.5,0,0.5,0.5c-0.1,1.5-0.1,2.9-0.6,4.4
								c-0.2,0.7-0.6,1.2-1.2,1.6c-0.5,0.3-0.9,0.6-1.1,1.1c-0.1,0.3-0.5,0.4-0.7,0.7C48.1,74.1,47.7,74.1,47.4,74.1z"/>
							
								<linearGradient id="path4213_2_" gradientUnits="userSpaceOnUse" x1="636.155" y1="2533.0999" x2="636.155" y2="2578.3999" gradientTransform="matrix(1 0 0 1 -587.9395 -2508.6807)">
								<stop  offset="0.3232" style="stop-color:#F9FAEE"/>
								<stop  offset="1" style="stop-color:#CFCAC4"/>
							</linearGradient>
							<path id="path4213" fill="url(#path4213_2_)" d="M43.2,39.4c1.3,0.7,2.4,1.5,3.2,2.7c0.6,0.9,1.1,1.9,1.2,3
								c0.1,0.9,0.7,0.4,1.1,0.5c0.5,0.1,0.3-0.3,0.4-0.6c0.4-4.3,3.1-7,7.6-7.5c1.2-0.1,2,0.4,2.1,1.3c0.2,1.1-0.3,2-1.5,2.4
								c-0.5,0.2-0.9,0.3-1.4,0.4c-2.2,0.7-2.7,2.6-2.8,4.5c0,0.3,0.2,0.3,0.4,0.4c0.8,0.3,1.6,0.5,2.5,0.8c0.6,0.2,0.9,0.5,1,1.2
								c0.1,2,0.3,4,0.2,6.1c-0.1,3-0.9,5.8-3.1,8c-0.5,0.5-1.2,0.8-1.2,1.6c0,0.2-0.3,0.3-0.5,0.3c-2.5,0.1-4.9,0.2-7.4,0.1
								c-0.3,0-0.5,0-0.8,0c-0.6,0-1.1-0.1-1-0.8c0-0.2-0.2-0.3-0.3-0.4c-2.3-1.9-3.4-4.4-3.8-7.3c-0.3-2.6,0-5.1,0.1-7.7
								c0-0.5,0.3-0.7,0.8-0.9c1.1-0.3,2.2-0.7,3.3-1c0.4-0.1,0.6-0.2,0.5-0.7c-0.2-1.2-0.8-2-1.9-2.4c-1.2-0.4-2.3-1.1-3.2-2
								c-1.1-1.1-1.4-3.5,0.4-4.7c1.6-1,3.4-1.7,5.3-2.2c3.3-1,6.6-1.9,10.1-2.1c0.9-0.1,1.9-0.1,2.8,0.2c0.4,0.1,0.8,0.3,1.2,0.6
								c0.8,0.8,0.7,2.1-0.4,2.6c-1.4,0.7-2.9,0.8-4.4,1c-3.4,0.4-6.7,1.2-9.9,2.4C43.5,39.2,43.3,39.2,43.2,39.4z"/>
							
								<linearGradient id="path4220_2_" gradientUnits="userSpaceOnUse" x1="636.1002" y1="2533.1001" x2="636.1002" y2="2578.3999" gradientTransform="matrix(1 0 0 1 -587.9395 -2508.6807)">
								<stop  offset="0.3232" style="stop-color:#F9FAEE"/>
								<stop  offset="1" style="stop-color:#CFCAC4"/>
							</linearGradient>
							<path id="path4220" fill="url(#path4220_2_)" d="M58.5,28.6c0,1.2-0.6,1.9-1.9,2c-4.7,0.5-9.3,1.2-13.8,2.8
								c-1.4,0.5-2.8,1.1-4.1,2c-0.3,0.2-0.4,0.1-0.5-0.2c-0.9-2-0.3-3.8,1.6-4.8c2.2-1.2,4.5-1.9,6.9-2.5c2.8-0.7,5.7-1.3,8.6-1.3
								c0.8,0,1.5,0.1,2.2,0.5C58.2,27.5,58.5,28,58.5,28.6z"/>
							
								<linearGradient id="path4227_2_" gradientUnits="userSpaceOnUse" x1="633.307" y1="2533.1001" x2="633.307" y2="2578.4001" gradientTransform="matrix(1 0 0 1 -587.9395 -2508.6807)">
								<stop  offset="0.3232" style="stop-color:#F9FAEE"/>
								<stop  offset="1" style="stop-color:#CFCAC4"/>
							</linearGradient>
							<path id="path4227" fill="url(#path4227_2_)" d="M50.6,21.4c0.2,0,0.3,0,0.4,0c1.3,0.1,1.9,0.5,2,1.5
								c0.1,1.3-0.6,2.3-1.8,2.5c-1.5,0.3-3.1,0.4-4.6,0.8c-2.9,0.7-5.5,1.8-7.9,3.5c-0.4,0.3-0.5,0.2-0.7-0.1
								c-0.8-1.4-0.6-2.8,0.7-3.9c1.7-1.4,3.7-2.3,5.7-3.1C46.6,21.9,48.6,21.5,50.6,21.4z"/>
						</g>
					</g>
				</g>
			</g>
		</g>
	</g>
</g>
</svg>
