<?xml version="1.0" encoding="utf-8"?>
<!-- Generator: Adobe Illustrator 16.0.3, SVG Export Plug-In . SVG Version: 6.00 Build 0)  -->
<!DOCTYPE svg PUBLIC "-//W3C//DTD SVG 1.1//EN" "http://www.w3.org/Graphics/SVG/1.1/DTD/svg11.dtd">
<svg version="1.1" xmlns="http://www.w3.org/2000/svg" xmlns:xlink="http://www.w3.org/1999/xlink" x="0px" y="0px" width="96px"
	 height="96px" viewBox="0 0 96 96" enable-background="new 0 0 96 96" xml:space="preserve">
<g id="DO_NOT_EDIT_-_BOUNDING_BOX">
	<rect id="BOUNDING_BOX" fill="none" width="96" height="96"/>
</g>
<g id="DO_NOT_EDIT_-_SHADOW">
	<path id="SHADOW" opacity="0.4" d="M88.023,49c0,29.633-10.364,40-40,40c-29.635,0-40-10.367-40-40c0-29.634,10.366-40,40-40
		C77.659,9,88.023,19.365,88.023,49z"/>
</g>
<g id="ORANGE_2">
	<linearGradient id="RED_x2F_ORANGE_2_1_" gradientUnits="userSpaceOnUse" x1="47.9995" y1="8.0107" x2="47.9995" y2="87.9897">
		<stop  offset="0.0364" style="stop-color:#FAA824"/>
		<stop  offset="0.3742" style="stop-color:#EA8A20"/>
		<stop  offset="1" style="stop-color:#C74A17"/>
	</linearGradient>
	<path id="RED_x2F_ORANGE_2_2_" fill="url(#RED_x2F_ORANGE_2_1_)" d="M8,47.988c0,29.634,10.365,40.001,40,40.001
		c29.637,0,40-10.367,40-40.001c0-28.984-9.926-39.529-38.091-39.978h-3.817C17.928,8.459,8,19.004,8,47.988z"/>
	<linearGradient id="HIGHLIGHTS_RO2_1_" gradientUnits="userSpaceOnUse" x1="47.9995" y1="8.2559" x2="47.9995" y2="87.5043">
		<stop  offset="0.0364" style="stop-color:#FFFFFF"/>
		<stop  offset="0.185" style="stop-color:#F8E8E1"/>
		<stop  offset="0.5097" style="stop-color:#E5AC95"/>
		<stop  offset="0.9833" style="stop-color:#C84D1B"/>
		<stop  offset="1" style="stop-color:#C74A17"/>
	</linearGradient>
	<path id="HIGHLIGHTS_RO2_2_" opacity="0.25" fill="url(#HIGHLIGHTS_RO2_1_)" d="M48,8C18.365,8,8,18.365,8,48
		c0,29.633,10.365,40,40,40c29.637,0,40-10.367,40-40C88,18.365,77.637,8,48,8z M48,87.023C18.842,87.023,9,77.176,9,48
		S18.842,8.977,48,8.977S87,18.824,87,48S77.158,87.023,48,87.023z"/>
</g>
<g id="PLACE_YOUR_GRAPHIC_HERE">
	<g id="Warstwa_2_1_">
		<g id="g4191_1_">
			<g id="g4193_1_">
				<g id="g4195_1_">
					<g id="g4197_1_">
						<g id="g4199_1_">
							<path id="path4206_1_" d="M47.366,74.074c-0.553-0.283-0.649-1.033-1.139-1.287c-2.016-1.051-2.25-2.936-2.43-4.869
								c-0.033-0.352-0.027-0.705-0.029-1.057c-0.003-1.021,0-1.041,0.988-0.971c2.266,0.154,4.527,0.109,6.791-0.021
								c0.398-0.023,0.546,0.047,0.527,0.479c-0.057,1.475-0.096,2.947-0.598,4.359c-0.232,0.654-0.574,1.207-1.226,1.568
								c-0.472,0.262-0.942,0.561-1.146,1.135c-0.107,0.324-0.457,0.445-0.688,0.662C48.073,74.074,47.72,74.074,47.366,74.074z"/>
							<path id="path4213_1_" d="M43.151,39.445c1.25,0.682,2.371,1.519,3.188,2.71c0.632,0.923,1.085,1.923,1.172,3.046
								c0.066,0.857,0.706,0.435,1.092,0.516c0.502,0.104,0.332-0.332,0.354-0.574c0.371-4.333,3.063-6.975,7.646-7.496
								c1.229-0.141,1.979,0.392,2.137,1.293c0.197,1.133-0.33,2.022-1.459,2.416c-0.455,0.159-0.928,0.275-1.396,0.414
								c-2.196,0.658-2.729,2.602-2.849,4.45c-0.021,0.286,0.18,0.302,0.365,0.36c0.816,0.256,1.635,0.521,2.451,0.772
								c0.607,0.188,0.92,0.521,0.953,1.229c0.096,2.024,0.297,4.048,0.215,6.077c-0.121,3.01-0.912,5.771-3.09,8
								c-0.472,0.482-1.182,0.781-1.203,1.625c-0.006,0.24-0.311,0.254-0.541,0.264c-2.467,0.105-4.936,0.164-7.4,0.053
								c-0.264-0.014-0.528-0.045-0.791-0.033c-0.592,0.023-1.072-0.063-1.027-0.822c0.012-0.215-0.177-0.291-0.311-0.395
								c-2.35-1.883-3.396-4.436-3.767-7.322c-0.331-2.58,0.027-5.148,0.134-7.724c0.02-0.492,0.334-0.734,0.771-0.869
								c1.09-0.345,2.173-0.709,3.271-1.026c0.41-0.121,0.608-0.217,0.519-0.742c-0.201-1.174-0.75-1.952-1.912-2.366
								c-1.187-0.422-2.257-1.074-3.165-1.985c-1.059-1.064-1.389-3.505,0.436-4.671c1.638-1.045,3.441-1.661,5.278-2.207
								c3.295-0.977,6.609-1.88,10.062-2.122c0.945-0.066,1.896-0.054,2.824,0.187c0.433,0.111,0.832,0.289,1.151,0.609
								c0.838,0.833,0.658,2.118-0.396,2.619c-1.375,0.653-2.873,0.823-4.356,0.998c-3.385,0.398-6.679,1.158-9.851,2.413
								C43.485,39.205,43.264,39.224,43.151,39.445z"/>
							<path id="path4220_1_" d="M58.472,28.633c0.006,1.245-0.598,1.872-1.871,2.01c-4.668,0.505-9.304,1.177-13.75,2.776
								c-1.431,0.516-2.816,1.135-4.059,2.027c-0.326,0.232-0.421,0.12-0.546-0.172c-0.864-2.009-0.312-3.757,1.61-4.843
								c2.164-1.223,4.537-1.892,6.933-2.48c2.827-0.693,5.675-1.257,8.602-1.262c0.751-0.002,1.493,0.104,2.179,0.457
								C58.173,27.458,58.479,27.95,58.472,28.633z"/>
							<path opacity="0.05" d="M47.369,77.574c-0.396,0-0.79-0.095-1.14-0.273c-0.858-0.44-1.306-1.116-1.557-1.524
								c-2.908-1.733-3.193-4.791-3.363-6.627c-0.034-0.368-0.039-0.74-0.04-1.107l0-0.174c-0.001-0.267-0.001-0.536,0.025-0.813
								c-0.308-0.332-0.532-0.718-0.669-1.149c-2.365-2.093-3.744-4.895-4.214-8.561c-0.272-2.128-0.135-4.163-0.003-6.131
								c0.047-0.68,0.091-1.347,0.12-2.014c0.022-0.563,0.271-2.457,2.531-3.154l0.229-0.074c-0.943-0.504-1.798-1.138-2.549-1.893
								c-1.132-1.138-1.744-2.958-1.56-4.64c0.087-0.795,0.347-1.557,0.754-2.22c-0.794-1.87-0.775-3.749,0.048-5.328
								c-0.001-0.002-0.003-0.005-0.004-0.007c-1.463-2.498-0.973-5.213,1.278-7.085c1.716-1.427,3.717-2.506,6.488-3.498
								c2.285-0.819,4.559-1.294,6.759-1.412l0.55-0.002c3.864,0.159,4.42,2.952,4.499,3.805c0.045,0.517,0.021,1.018-0.069,1.497
								c1.24,0.012,2.299,0.252,3.235,0.735c1.451,0.75,2.273,2.112,2.256,3.736c0.005,1.083-0.288,2.036-0.851,2.781
								c0.924,0.973,1.328,2.263,1.108,3.558c-0.111,0.646-0.374,1.247-0.767,1.761c0.371,0.501,0.624,1.098,0.737,1.749
								c0.414,2.361-0.801,4.406-3.095,5.208c-0.343,0.12-0.694,0.219-1.048,0.318l-0.483,0.138c-0.256,0.077-0.505,0.185-0.7,0.566
								l0.719,0.226c1.643,0.507,2.631,1.783,2.708,3.502c0.026,0.531,0.06,1.066,0.094,1.605c0.094,1.512,0.19,3.074,0.126,4.688
								c-0.166,4.044-1.409,7.198-3.803,9.646c-0.175,0.178-0.367,0.345-0.563,0.506c-0.099,0.432-0.298,0.821-0.584,1.147
								c0.01,0.157,0.006,0.283,0.004,0.363l-0.007,0.188c-0.062,1.585-0.125,3.215-0.737,4.935
								c-0.174,0.492-0.703,1.993-2.368,2.917c-0.042,0.023-0.078,0.044-0.108,0.062c-0.356,0.786-0.962,1.205-1.263,1.412
								c-0.439,0.398-1.027,0.631-1.654,0.636L47.369,77.574C47.37,77.574,47.37,77.574,47.369,77.574z"/>
							<path opacity="0.07" d="M47.368,77.074c-0.316,0-0.631-0.075-0.912-0.219c-0.79-0.405-1.175-1.039-1.405-1.417l-0.019-0.03
								c-2.789-1.593-3.062-4.537-3.227-6.306c-0.033-0.353-0.037-0.709-0.037-1.062l0-0.174c-0.001-0.326-0.002-0.661,0.052-0.995
								c-0.05-0.045-0.098-0.092-0.145-0.141c-0.295-0.313-0.5-0.684-0.612-1.106c-2.335-2.019-3.696-4.75-4.157-8.344
								c-0.266-2.079-0.131-4.09,0-6.034c0.047-0.683,0.092-1.354,0.12-2.025c0.019-0.481,0.233-2.098,2.179-2.698
								c0,0,1.291-0.414,1.456-0.467c-1.362-0.535-2.562-1.317-3.57-2.33c-1.029-1.035-1.585-2.696-1.417-4.232
								c0.09-0.816,0.374-1.582,0.827-2.233c-0.033-0.065-0.064-0.132-0.094-0.202c-0.798-1.853-0.74-3.679,0.154-5.184
								c-0.071-0.102-0.122-0.188-0.154-0.243c-1.331-2.273-0.884-4.744,1.166-6.449c1.67-1.389,3.624-2.44,6.337-3.412
								c2.24-0.803,4.466-1.269,6.617-1.383l0.524-0.001c3.348,0.138,3.911,2.389,4,3.351c0.061,0.688-0.015,1.352-0.221,1.958
								c0.188-0.004,0.373-0.007,0.556-0.007c1.199,0,2.212,0.222,3.1,0.68c1.277,0.66,2.001,1.858,1.985,3.287
								c0.005,1.161-0.352,2.124-1.04,2.82c0.084,0.071,0.164,0.146,0.242,0.224c0.874,0.869,1.262,2.042,1.063,3.216
								c-0.12,0.698-0.443,1.334-0.928,1.841c0.466,0.493,0.773,1.119,0.899,1.838c0.369,2.108-0.718,3.933-2.768,4.65
								c-0.333,0.116-0.675,0.213-1.018,0.309l-0.485,0.138c-0.546,0.164-0.971,0.473-1.213,1.367l1.218,0.383
								c1.452,0.448,2.291,1.53,2.359,3.047c0.026,0.536,0.06,1.073,0.094,1.614c0.093,1.5,0.188,3.051,0.125,4.637
								c-0.16,3.913-1.357,6.961-3.66,9.316c-0.171,0.174-0.36,0.336-0.552,0.493c-0.043,0.035-0.079,0.064-0.109,0.09
								c-0.076,0.486-0.3,0.913-0.648,1.239c0.034,0.242,0.027,0.437,0.024,0.537l-0.007,0.176c-0.06,1.54-0.12,3.135-0.708,4.786
								c-0.158,0.448-0.642,1.816-2.14,2.647c-0.14,0.077-0.222,0.129-0.267,0.16c-0.287,0.748-0.865,1.146-1.149,1.342
								c-0.386,0.346-0.862,0.541-1.371,0.545L47.368,77.074C47.369,77.074,47.369,77.074,47.368,77.074z M47.201,41.031
								c0.287,0.313,0.547,0.642,0.788,0.993c0.003,0.004,0.006,0.008,0.009,0.013c0.252-0.519,0.546-1.006,0.882-1.459
								C48.311,40.716,47.753,40.867,47.201,41.031z"/>
							<path opacity="0.07" d="M47.368,77.074c-0.316,0-0.631-0.075-0.912-0.219c-0.79-0.405-1.175-1.039-1.405-1.417l-0.019-0.03
								c-2.789-1.593-3.062-4.537-3.227-6.306c-0.033-0.353-0.037-0.709-0.037-1.062l0-0.174c-0.001-0.326-0.002-0.661,0.052-0.995
								c-0.05-0.045-0.098-0.092-0.145-0.141c-0.295-0.313-0.5-0.684-0.612-1.106c-2.335-2.019-3.696-4.75-4.157-8.344
								c-0.266-2.079-0.131-4.09,0-6.034c0.047-0.683,0.092-1.354,0.12-2.025c0.019-0.481,0.233-2.098,2.179-2.698
								c0,0,1.291-0.414,1.456-0.467c-1.362-0.535-2.562-1.317-3.57-2.33c-1.029-1.035-1.585-2.696-1.417-4.232
								c0.09-0.816,0.374-1.582,0.827-2.233c-0.033-0.065-0.064-0.132-0.094-0.202c-0.798-1.853-0.74-3.679,0.154-5.184
								c-0.071-0.102-0.122-0.188-0.154-0.243c-1.331-2.273-0.884-4.744,1.166-6.449c1.67-1.389,3.624-2.44,6.337-3.412
								c2.24-0.803,4.466-1.269,6.617-1.383l0.524-0.001c3.348,0.138,3.911,2.389,4,3.351c0.061,0.688-0.015,1.352-0.221,1.958
								c0.188-0.004,0.373-0.007,0.556-0.007c1.199,0,2.212,0.222,3.1,0.68c1.277,0.66,2.001,1.858,1.985,3.287
								c0.005,1.161-0.352,2.124-1.04,2.82c0.084,0.071,0.164,0.146,0.242,0.224c0.874,0.869,1.262,2.042,1.063,3.216
								c-0.12,0.698-0.443,1.334-0.928,1.841c0.466,0.493,0.773,1.119,0.899,1.838c0.369,2.108-0.718,3.933-2.768,4.65
								c-0.333,0.116-0.675,0.213-1.018,0.309l-0.485,0.138c-0.546,0.164-0.971,0.473-1.213,1.367l1.218,0.383
								c1.452,0.448,2.291,1.53,2.359,3.047c0.026,0.536,0.06,1.073,0.094,1.614c0.093,1.5,0.188,3.051,0.125,4.637
								c-0.16,3.913-1.357,6.961-3.66,9.316c-0.171,0.174-0.36,0.336-0.552,0.493c-0.043,0.035-0.079,0.064-0.109,0.09
								c-0.076,0.486-0.3,0.913-0.648,1.239c0.034,0.242,0.027,0.437,0.024,0.537l-0.007,0.176c-0.06,1.54-0.12,3.135-0.708,4.786
								c-0.158,0.448-0.642,1.816-2.14,2.647c-0.14,0.077-0.222,0.129-0.267,0.16c-0.287,0.748-0.865,1.146-1.149,1.342
								c-0.386,0.346-0.862,0.541-1.371,0.545L47.368,77.074C47.369,77.074,47.369,77.074,47.368,77.074z M47.201,41.031
								c0.287,0.313,0.547,0.642,0.788,0.993c0.003,0.004,0.006,0.008,0.009,0.013c0.252-0.519,0.546-1.006,0.882-1.459
								C48.311,40.716,47.753,40.867,47.201,41.031z"/>
							<path opacity="0.1" d="M47.367,76.574c-0.236,0-0.473-0.057-0.683-0.164c-0.664-0.341-0.99-0.878-1.207-1.233
								c-0.026-0.044-0.058-0.098-0.086-0.142c-2.666-1.448-2.919-4.17-3.087-5.979c-0.032-0.338-0.035-0.679-0.035-1.017l0-0.174
								c-0.001-0.416-0.003-0.816,0.107-1.192c-0.123-0.083-0.235-0.179-0.337-0.286c-0.27-0.286-0.446-0.634-0.526-1.036
								c-2.313-1.944-3.658-4.607-4.111-8.134c-0.26-2.031-0.126-4.017,0.003-5.938c0.047-0.687,0.092-1.362,0.121-2.038
								c0.021-0.51,0.239-1.751,1.827-2.241l0.952-0.305c0.516-0.167,1.033-0.333,1.553-0.493c-0.147-0.228-0.359-0.373-0.688-0.49
								c-1.433-0.51-2.686-1.297-3.724-2.339c-0.927-0.932-1.426-2.433-1.273-3.824c0.093-0.848,0.412-1.618,0.929-2.252
								c-0.087-0.129-0.166-0.274-0.234-0.434c-0.791-1.836-0.677-3.6,0.309-5.02c-0.176-0.188-0.284-0.373-0.338-0.465
								c-1.198-2.047-0.794-4.273,1.055-5.811c1.622-1.349,3.53-2.375,6.186-3.325c2.195-0.787,4.373-1.243,6.475-1.354l0.499-0.001
								c2.828,0.117,3.406,1.865,3.501,2.896c0.08,0.902-0.102,1.746-0.512,2.444c0.459-0.025,0.909-0.038,1.346-0.039
								c1.117,0,2.055,0.204,2.869,0.624c1.104,0.57,1.729,1.604,1.715,2.837c0.006,1.275-0.468,2.257-1.358,2.856
								c0.264,0.155,0.497,0.336,0.707,0.546c0.758,0.754,1.095,1.768,0.923,2.779c-0.134,0.78-0.557,1.456-1.188,1.924
								c0.61,0.45,1.019,1.116,1.16,1.925c0.324,1.854-0.634,3.459-2.44,4.091c-0.323,0.113-0.655,0.207-0.987,0.3l-0.487,0.139
								c-0.941,0.282-1.44,0.928-1.662,2.188c0.604,0.19,1.376,0.435,1.656,0.521c1.254,0.386,1.948,1.283,2.008,2.592
								c0.026,0.54,0.06,1.08,0.094,1.623c0.092,1.488,0.187,3.027,0.124,4.585c-0.154,3.783-1.305,6.724-3.518,8.987
								c-0.158,0.161-0.335,0.311-0.513,0.457c-0.151,0.123-0.228,0.191-0.267,0.229c-0.035,0.543-0.295,0.996-0.724,1.287
								c0.091,0.325,0.079,0.607,0.075,0.728l-0.007,0.162c-0.058,1.509-0.117,3.062-0.679,4.64
								c-0.144,0.406-0.582,1.641-1.911,2.378c-0.354,0.196-0.443,0.283-0.457,0.321c-0.222,0.671-0.729,1.02-1.002,1.207
								c-0.349,0.309-0.71,0.453-1.09,0.456L47.367,76.574C47.368,76.574,47.368,76.574,47.367,76.574z M46.262,40.799
								c0.506,0.464,0.94,0.962,1.315,1.508c0.187,0.274,0.355,0.544,0.504,0.814c0.483-1.317,1.223-2.451,2.196-3.365
								C48.884,40.036,47.554,40.381,46.262,40.799z"/>
							<path opacity="0.1" d="M47.367,76.574c-0.236,0-0.473-0.057-0.683-0.164c-0.664-0.341-0.99-0.878-1.207-1.233
								c-0.026-0.044-0.058-0.098-0.086-0.142c-2.666-1.448-2.919-4.17-3.087-5.979c-0.032-0.338-0.035-0.679-0.035-1.017l0-0.174
								c-0.001-0.416-0.003-0.816,0.107-1.192c-0.123-0.083-0.235-0.179-0.337-0.286c-0.27-0.286-0.446-0.634-0.526-1.036
								c-2.313-1.944-3.658-4.607-4.111-8.134c-0.26-2.031-0.126-4.017,0.003-5.938c0.047-0.687,0.092-1.362,0.121-2.038
								c0.021-0.51,0.239-1.751,1.827-2.241l0.952-0.305c0.516-0.167,1.033-0.333,1.553-0.493c-0.147-0.228-0.359-0.373-0.688-0.49
								c-1.433-0.51-2.686-1.297-3.724-2.339c-0.927-0.932-1.426-2.433-1.273-3.824c0.093-0.848,0.412-1.618,0.929-2.252
								c-0.087-0.129-0.166-0.274-0.234-0.434c-0.791-1.836-0.677-3.6,0.309-5.02c-0.176-0.188-0.284-0.373-0.338-0.465
								c-1.198-2.047-0.794-4.273,1.055-5.811c1.622-1.349,3.53-2.375,6.186-3.325c2.195-0.787,4.373-1.243,6.475-1.354l0.499-0.001
								c2.828,0.117,3.406,1.865,3.501,2.896c0.08,0.902-0.102,1.746-0.512,2.444c0.459-0.025,0.909-0.038,1.346-0.039
								c1.117,0,2.055,0.204,2.869,0.624c1.104,0.57,1.729,1.604,1.715,2.837c0.006,1.275-0.468,2.257-1.358,2.856
								c0.264,0.155,0.497,0.336,0.707,0.546c0.758,0.754,1.095,1.768,0.923,2.779c-0.134,0.78-0.557,1.456-1.188,1.924
								c0.61,0.45,1.019,1.116,1.16,1.925c0.324,1.854-0.634,3.459-2.44,4.091c-0.323,0.113-0.655,0.207-0.987,0.3l-0.487,0.139
								c-0.941,0.282-1.44,0.928-1.662,2.188c0.604,0.19,1.376,0.435,1.656,0.521c1.254,0.386,1.948,1.283,2.008,2.592
								c0.026,0.54,0.06,1.08,0.094,1.623c0.092,1.488,0.187,3.027,0.124,4.585c-0.154,3.783-1.305,6.724-3.518,8.987
								c-0.158,0.161-0.335,0.311-0.513,0.457c-0.151,0.123-0.228,0.191-0.267,0.229c-0.035,0.543-0.295,0.996-0.724,1.287
								c0.091,0.325,0.079,0.607,0.075,0.728l-0.007,0.162c-0.058,1.509-0.117,3.062-0.679,4.64
								c-0.144,0.406-0.582,1.641-1.911,2.378c-0.354,0.196-0.443,0.283-0.457,0.321c-0.222,0.671-0.729,1.02-1.002,1.207
								c-0.349,0.309-0.71,0.453-1.09,0.456L47.367,76.574C47.368,76.574,47.368,76.574,47.367,76.574z M46.262,40.799
								c0.506,0.464,0.94,0.962,1.315,1.508c0.187,0.274,0.355,0.544,0.504,0.814c0.483-1.317,1.223-2.451,2.196-3.365
								C48.884,40.036,47.554,40.381,46.262,40.799z"/>
							<path opacity="0.15" d="M47.366,76.074c-0.158,0-0.315-0.038-0.456-0.109c-0.536-0.275-0.808-0.722-1.006-1.048
								c-0.059-0.097-0.142-0.233-0.18-0.271c-2.521-1.308-2.753-3.81-2.923-5.637c-0.03-0.322-0.032-0.647-0.033-0.971l0-0.174
								c-0.002-0.567-0.003-1.033,0.26-1.419c-0.214-0.076-0.436-0.2-0.625-0.401c-0.24-0.255-0.382-0.576-0.425-0.958
								c-2.3-1.87-3.635-4.466-4.08-7.933c-0.254-1.982-0.122-3.944,0.006-5.841c0.047-0.69,0.093-1.37,0.121-2.051
								c0.02-0.502,0.238-1.402,1.475-1.783l0.957-0.307c0.688-0.222,1.376-0.444,2.071-0.649c-0.187-0.687-0.54-1.049-1.191-1.281
								c-1.361-0.484-2.551-1.231-3.538-2.221c-0.824-0.829-1.268-2.169-1.13-3.417c0.099-0.898,0.482-1.692,1.101-2.299
								c-0.177-0.15-0.325-0.363-0.442-0.639c-0.797-1.853-0.583-3.588,0.542-4.903c-0.338-0.191-0.522-0.507-0.6-0.639
								c-1.065-1.82-0.704-3.802,0.944-5.172c1.576-1.31,3.437-2.309,6.034-3.239c2.15-0.771,4.281-1.217,6.333-1.326l0.474,0
								c2.308,0.096,2.904,1.381,3.002,2.442c0.11,1.239-0.344,2.323-1.173,2.988c0.823-0.081,1.661-0.128,2.506-0.129
								c1.034,0,1.897,0.186,2.639,0.568c0.943,0.487,1.456,1.335,1.444,2.387c0.007,1.521-0.748,2.527-2.143,2.882
								c0.01,0.002,0.019,0.005,0.027,0.007c0.671,0.172,1.197,0.457,1.61,0.871c0.642,0.639,0.928,1.493,0.783,2.342
								c-0.142,0.825-0.673,1.512-1.458,1.886c-0.102,0.048-0.204,0.094-0.307,0.138c0.927,0.292,1.564,1.002,1.738,1.996
								c0.284,1.625-0.526,2.979-2.113,3.533c-0.313,0.109-0.635,0.2-0.957,0.291l-0.489,0.139
								c-1.237,0.371-1.874,1.283-2.081,3.017c0.598,0.189,1.715,0.542,2.064,0.65c1.049,0.323,1.606,1.042,1.656,2.137
								c0.026,0.544,0.06,1.087,0.094,1.632c0.091,1.477,0.185,3.002,0.123,4.533c-0.148,3.654-1.252,6.486-3.375,8.658
								c-0.146,0.148-0.309,0.285-0.473,0.42c-0.39,0.317-0.442,0.395-0.445,0.531c-0.008,0.288-0.117,0.891-0.875,1.135
								c0.245,0.376,0.229,0.794,0.223,0.946l-0.007,0.159c-0.056,1.466-0.112,2.984-0.649,4.493
								c-0.128,0.36-0.518,1.462-1.683,2.108c-0.449,0.25-0.616,0.394-0.687,0.593c-0.172,0.52-0.573,0.796-0.813,0.961
								c-0.064,0.045-0.101,0.067-0.131,0.096c-0.185,0.174-0.426,0.271-0.68,0.272L47.366,76.074
								C47.367,76.074,47.367,76.074,47.366,76.074z M45.257,40.61c0.775,0.592,1.403,1.245,1.907,1.979
								c0.455,0.664,0.792,1.319,1.018,1.976c0.56-2.567,1.976-4.494,4.139-5.672C49.795,39.267,47.466,39.833,45.257,40.61z"/>
							<path opacity="0.15" d="M47.366,76.074c-0.158,0-0.315-0.038-0.456-0.109c-0.536-0.275-0.808-0.722-1.006-1.048
								c-0.059-0.097-0.142-0.233-0.18-0.271c-2.521-1.308-2.753-3.81-2.923-5.637c-0.03-0.322-0.032-0.647-0.033-0.971l0-0.174
								c-0.002-0.567-0.003-1.033,0.26-1.419c-0.214-0.076-0.436-0.2-0.625-0.401c-0.24-0.255-0.382-0.576-0.425-0.958
								c-2.3-1.87-3.635-4.466-4.08-7.933c-0.254-1.982-0.122-3.944,0.006-5.841c0.047-0.69,0.093-1.37,0.121-2.051
								c0.02-0.502,0.238-1.402,1.475-1.783l0.957-0.307c0.688-0.222,1.376-0.444,2.071-0.649c-0.187-0.687-0.54-1.049-1.191-1.281
								c-1.361-0.484-2.551-1.231-3.538-2.221c-0.824-0.829-1.268-2.169-1.13-3.417c0.099-0.898,0.482-1.692,1.101-2.299
								c-0.177-0.15-0.325-0.363-0.442-0.639c-0.797-1.853-0.583-3.588,0.542-4.903c-0.338-0.191-0.522-0.507-0.6-0.639
								c-1.065-1.82-0.704-3.802,0.944-5.172c1.576-1.31,3.437-2.309,6.034-3.239c2.15-0.771,4.281-1.217,6.333-1.326l0.474,0
								c2.308,0.096,2.904,1.381,3.002,2.442c0.11,1.239-0.344,2.323-1.173,2.988c0.823-0.081,1.661-0.128,2.506-0.129
								c1.034,0,1.897,0.186,2.639,0.568c0.943,0.487,1.456,1.335,1.444,2.387c0.007,1.521-0.748,2.527-2.143,2.882
								c0.01,0.002,0.019,0.005,0.027,0.007c0.671,0.172,1.197,0.457,1.61,0.871c0.642,0.639,0.928,1.493,0.783,2.342
								c-0.142,0.825-0.673,1.512-1.458,1.886c-0.102,0.048-0.204,0.094-0.307,0.138c0.927,0.292,1.564,1.002,1.738,1.996
								c0.284,1.625-0.526,2.979-2.113,3.533c-0.313,0.109-0.635,0.2-0.957,0.291l-0.489,0.139
								c-1.237,0.371-1.874,1.283-2.081,3.017c0.598,0.189,1.715,0.542,2.064,0.65c1.049,0.323,1.606,1.042,1.656,2.137
								c0.026,0.544,0.06,1.087,0.094,1.632c0.091,1.477,0.185,3.002,0.123,4.533c-0.148,3.654-1.252,6.486-3.375,8.658
								c-0.146,0.148-0.309,0.285-0.473,0.42c-0.39,0.317-0.442,0.395-0.445,0.531c-0.008,0.288-0.117,0.891-0.875,1.135
								c0.245,0.376,0.229,0.794,0.223,0.946l-0.007,0.159c-0.056,1.466-0.112,2.984-0.649,4.493
								c-0.128,0.36-0.518,1.462-1.683,2.108c-0.449,0.25-0.616,0.394-0.687,0.593c-0.172,0.52-0.573,0.796-0.813,0.961
								c-0.064,0.045-0.101,0.067-0.131,0.096c-0.185,0.174-0.426,0.271-0.68,0.272L47.366,76.074
								C47.367,76.074,47.367,76.074,47.366,76.074z M45.257,40.61c0.775,0.592,1.403,1.245,1.907,1.979
								c0.455,0.664,0.792,1.319,1.018,1.976c0.56-2.567,1.976-4.494,4.139-5.672C49.795,39.267,47.466,39.833,45.257,40.61z"/>
							<path opacity="0.15" d="M51.669,66.365l-0.15,0.005c-1.376,0.079-2.604,0.118-3.752,0.118c-1.049,0-2.022-0.031-2.974-0.097
								c-0.208-0.015-0.376-0.025-0.511-0.025c-0.232,0-0.526,0.028-0.745,0.248c-0.271,0.271-0.27,0.639-0.268,1.25l0,0.174
								c0,0.309,0.002,0.618,0.031,0.926c0.168,1.808,0.377,4.058,2.697,5.267c0.112,0.059,0.22,0.236,0.333,0.424
								c0.177,0.291,0.396,0.654,0.808,0.865c0.071,0.036,0.149,0.055,0.228,0.055l1.056-0.002c0.126-0.001,0.248-0.049,0.34-0.136
								c0.057-0.054,0.125-0.098,0.191-0.144c0.212-0.146,0.503-0.348,0.625-0.716c0.131-0.372,0.424-0.591,0.916-0.864
								c0.895-0.496,1.259-1.287,1.454-1.839c0.51-1.433,0.566-2.914,0.62-4.347l0.007-0.158c0.009-0.215-0.005-0.527-0.226-0.758
								C52.139,66.391,51.86,66.365,51.669,66.365z M56.027,43.249l0.469-0.133c0.319-0.09,0.639-0.179,0.949-0.288
								c1.36-0.475,2.028-1.586,1.786-2.975c-0.189-1.083-1.031-1.729-2.25-1.729c-0.139,0-0.284,0.008-0.436,0.026
								c-4.823,0.548-7.696,3.372-8.088,7.949c-0.003,0.033-0.004,0.069-0.003,0.107c-0.091,0.002-0.187,0.014-0.284,0.026
								c-0.047,0.006-0.094,0.014-0.151,0.016c-0.004-0.021-0.008-0.05-0.011-0.086c-0.085-1.102-0.497-2.178-1.258-3.29
								c-0.63-0.919-1.458-1.695-2.568-2.4c2.896-1.11,5.971-1.847,9.435-2.254c1.488-0.175,3.026-0.356,4.459-1.037
								c0.637-0.303,1.066-0.856,1.18-1.518c0.117-0.687-0.118-1.382-0.645-1.905c-0.348-0.349-0.8-0.591-1.381-0.74
								c-0.616-0.16-1.281-0.237-2.035-0.237c-0.316,0-0.633,0.013-0.949,0.036c-3.562,0.25-6.977,1.195-10.169,2.141
								c-2.084,0.62-3.801,1.242-5.405,2.265c-0.86,0.55-1.396,1.415-1.508,2.437c-0.122,1.103,0.266,2.284,0.987,3.009
								c0.934,0.937,2.061,1.644,3.351,2.103c0.932,0.332,1.406,0.924,1.587,1.979c0.01,0.058,0.013,0.098,0.019,0.116
								c-0.039,0.016-0.1,0.037-0.183,0.061c-0.777,0.225-1.547,0.473-2.317,0.721l-0.962,0.308
								c-0.896,0.276-1.104,0.874-1.123,1.326c-0.028,0.686-0.075,1.37-0.121,2.055c-0.126,1.876-0.258,3.815-0.009,5.753
								c0.431,3.362,1.723,5.864,3.957,7.654c0.005,0.004,0.066,0.047,0.114,0.082c-0.002,0.366,0.1,0.66,0.302,0.875
								c0.311,0.329,0.763,0.367,1.076,0.367c0,0,0.272-0.006,0.273-0.006c0.135,0,0.27,0.011,0.405,0.02l0.243,0.016
								c0.944,0.043,1.888,0.062,2.833,0.062c1.339-0.001,2.804-0.036,4.612-0.113c0.665-0.028,1.008-0.281,1.02-0.751
								c0.01-0.381,0.233-0.583,0.629-0.906c0.149-0.122,0.299-0.246,0.432-0.382c2.033-2.08,3.09-4.805,3.232-8.329
								c0.061-1.505-0.032-3.018-0.122-4.481c-0.034-0.547-0.067-1.093-0.094-1.64c-0.041-0.886-0.456-1.421-1.305-1.683
								c-0.485-0.15-2.452-0.773-2.454-0.773C53.718,44.902,54.487,43.711,56.027,43.249z M39.61,30.996
								c-2.137,1.208-2.801,3.204-1.824,5.475c0.077,0.18,0.257,0.6,0.726,0.6c0.237,0,0.438-0.124,0.571-0.218
								c1.037-0.745,2.288-1.368,3.936-1.963c4.456-1.603,9.187-2.269,13.635-2.75c1.545-0.167,2.324-1.012,2.317-2.501
								c0.01-0.865-0.396-1.535-1.174-1.937c-0.669-0.345-1.45-0.513-2.408-0.513c-3.118,0.005-6.157,0.648-8.72,1.277
								C44.461,29.008,41.912,29.695,39.61,30.996z M38.469,31.419c0.26,0,0.481-0.137,0.645-0.257
								c2.18-1.59,4.708-2.711,7.729-3.428c0.922-0.218,1.881-0.36,2.808-0.498c0.574-0.085,1.148-0.17,1.723-0.273
								c1.426-0.258,2.323-1.526,2.185-3.087c-0.117-1.272-0.936-1.923-2.504-1.988h-0.447c-2.002,0.106-4.085,0.542-6.191,1.297
								c-2.541,0.91-4.354,1.882-5.883,3.152c-1.469,1.222-1.78,2.917-0.833,4.535C37.796,31.036,38.021,31.419,38.469,31.419z"/>
							<path opacity="0.15" d="M51.669,66.365l-0.15,0.005c-1.376,0.079-2.604,0.118-3.752,0.118c-1.049,0-2.022-0.031-2.974-0.097
								c-0.208-0.015-0.376-0.025-0.511-0.025c-0.232,0-0.526,0.028-0.745,0.248c-0.271,0.271-0.27,0.639-0.268,1.25l0,0.174
								c0,0.309,0.002,0.618,0.031,0.926c0.168,1.808,0.377,4.058,2.697,5.267c0.112,0.059,0.22,0.236,0.333,0.424
								c0.177,0.291,0.396,0.654,0.808,0.865c0.071,0.036,0.149,0.055,0.228,0.055l1.056-0.002c0.126-0.001,0.248-0.049,0.34-0.136
								c0.057-0.054,0.125-0.098,0.191-0.144c0.212-0.146,0.503-0.348,0.625-0.716c0.131-0.372,0.424-0.591,0.916-0.864
								c0.895-0.496,1.259-1.287,1.454-1.839c0.51-1.433,0.566-2.914,0.62-4.347l0.007-0.158c0.009-0.215-0.005-0.527-0.226-0.758
								C52.139,66.391,51.86,66.365,51.669,66.365z M56.027,43.249l0.469-0.133c0.319-0.09,0.639-0.179,0.949-0.288
								c1.36-0.475,2.028-1.586,1.786-2.975c-0.189-1.083-1.031-1.729-2.25-1.729c-0.139,0-0.284,0.008-0.436,0.026
								c-4.823,0.548-7.696,3.372-8.088,7.949c-0.003,0.033-0.004,0.069-0.003,0.107c-0.091,0.002-0.187,0.014-0.284,0.026
								c-0.047,0.006-0.094,0.014-0.151,0.016c-0.004-0.021-0.008-0.05-0.011-0.086c-0.085-1.102-0.497-2.178-1.258-3.29
								c-0.63-0.919-1.458-1.695-2.568-2.4c2.896-1.11,5.971-1.847,9.435-2.254c1.488-0.175,3.026-0.356,4.459-1.037
								c0.637-0.303,1.066-0.856,1.18-1.518c0.117-0.687-0.118-1.382-0.645-1.905c-0.348-0.349-0.8-0.591-1.381-0.74
								c-0.616-0.16-1.281-0.237-2.035-0.237c-0.316,0-0.633,0.013-0.949,0.036c-3.562,0.25-6.977,1.195-10.169,2.141
								c-2.084,0.62-3.801,1.242-5.405,2.265c-0.86,0.55-1.396,1.415-1.508,2.437c-0.122,1.103,0.266,2.284,0.987,3.009
								c0.934,0.937,2.061,1.644,3.351,2.103c0.932,0.332,1.406,0.924,1.587,1.979c0.01,0.058,0.013,0.098,0.019,0.116
								c-0.039,0.016-0.1,0.037-0.183,0.061c-0.777,0.225-1.547,0.473-2.317,0.721l-0.962,0.308
								c-0.896,0.276-1.104,0.874-1.123,1.326c-0.028,0.686-0.075,1.37-0.121,2.055c-0.126,1.876-0.258,3.815-0.009,5.753
								c0.431,3.362,1.723,5.864,3.957,7.654c0.005,0.004,0.066,0.047,0.114,0.082c-0.002,0.366,0.1,0.66,0.302,0.875
								c0.311,0.329,0.763,0.367,1.076,0.367c0,0,0.272-0.006,0.273-0.006c0.135,0,0.27,0.011,0.405,0.02l0.243,0.016
								c0.944,0.043,1.888,0.062,2.833,0.062c1.339-0.001,2.804-0.036,4.612-0.113c0.665-0.028,1.008-0.281,1.02-0.751
								c0.01-0.381,0.233-0.583,0.629-0.906c0.149-0.122,0.299-0.246,0.432-0.382c2.033-2.08,3.09-4.805,3.232-8.329
								c0.061-1.505-0.032-3.018-0.122-4.481c-0.034-0.547-0.067-1.093-0.094-1.64c-0.041-0.886-0.456-1.421-1.305-1.683
								c-0.485-0.15-2.452-0.773-2.454-0.773C53.718,44.902,54.487,43.711,56.027,43.249z M39.61,30.996
								c-2.137,1.208-2.801,3.204-1.824,5.475c0.077,0.18,0.257,0.6,0.726,0.6c0.237,0,0.438-0.124,0.571-0.218
								c1.037-0.745,2.288-1.368,3.936-1.963c4.456-1.603,9.187-2.269,13.635-2.75c1.545-0.167,2.324-1.012,2.317-2.501
								c0.01-0.865-0.396-1.535-1.174-1.937c-0.669-0.345-1.45-0.513-2.408-0.513c-3.118,0.005-6.157,0.648-8.72,1.277
								C44.461,29.008,41.912,29.695,39.61,30.996z M38.469,31.419c0.26,0,0.481-0.137,0.645-0.257
								c2.18-1.59,4.708-2.711,7.729-3.428c0.922-0.218,1.881-0.36,2.808-0.498c0.574-0.085,1.148-0.17,1.723-0.273
								c1.426-0.258,2.323-1.526,2.185-3.087c-0.117-1.272-0.936-1.923-2.504-1.988h-0.447c-2.002,0.106-4.085,0.542-6.191,1.297
								c-2.541,0.91-4.354,1.882-5.883,3.152c-1.469,1.222-1.78,2.917-0.833,4.535C37.796,31.036,38.021,31.419,38.469,31.419z"/>
							<path id="path4227_1_" d="M50.633,21.387c0.226,0,0.313-0.003,0.401,0c1.309,0.055,1.933,0.528,2.025,1.535
								c0.115,1.291-0.578,2.333-1.775,2.549c-1.521,0.273-3.051,0.421-4.557,0.777c-2.857,0.678-5.527,1.774-7.908,3.511
								c-0.356,0.26-0.49,0.198-0.688-0.14c-0.808-1.38-0.569-2.824,0.722-3.898c1.698-1.412,3.668-2.327,5.731-3.066
								C46.588,21.937,48.644,21.492,50.633,21.387z"/>
						</g>
					</g>
				</g>
			</g>
		</g>
	</g>
	<g id="Warstwa_2">
		<g id="g4191">
			<g id="g4193">
				<g id="g4195">
					<g id="g4197">
						<g id="g4199">
							
								<linearGradient id="path4206_2_" gradientUnits="userSpaceOnUse" x1="635.8613" y1="-1741.1313" x2="635.8613" y2="-1786.3929" gradientTransform="matrix(1 0 0 -1 -587.9395 -1716.6807)">
								<stop  offset="0.3232" style="stop-color:#F9FAEE"/>
								<stop  offset="1" style="stop-color:#CFCAC4"/>
							</linearGradient>
							<path id="path4206" fill="url(#path4206_2_)" d="M47.366,74.074c-0.553-0.283-0.649-1.033-1.139-1.287
								c-2.016-1.051-2.25-2.936-2.43-4.869c-0.033-0.352-0.027-0.705-0.029-1.057c-0.003-1.021,0-1.041,0.988-0.971
								c2.266,0.154,4.527,0.109,6.791-0.021c0.398-0.023,0.546,0.047,0.527,0.479c-0.057,1.475-0.096,2.947-0.598,4.359
								c-0.232,0.654-0.574,1.207-1.226,1.568c-0.472,0.262-0.942,0.561-1.146,1.135c-0.107,0.324-0.457,0.445-0.688,0.662
								C48.073,74.074,47.72,74.074,47.366,74.074z"/>
							
								<linearGradient id="path4213_2_" gradientUnits="userSpaceOnUse" x1="636.1533" y1="-1741.1343" x2="636.1533" y2="-1786.3945" gradientTransform="matrix(1 0 0 -1 -587.9395 -1716.6807)">
								<stop  offset="0.3232" style="stop-color:#F9FAEE"/>
								<stop  offset="1" style="stop-color:#CFCAC4"/>
							</linearGradient>
							<path id="path4213" fill="url(#path4213_2_)" d="M43.151,39.445c1.25,0.682,2.371,1.519,3.188,2.71
								c0.632,0.923,1.085,1.923,1.172,3.046c0.066,0.857,0.706,0.435,1.092,0.516c0.502,0.104,0.332-0.332,0.354-0.574
								c0.371-4.333,3.063-6.975,7.646-7.496c1.229-0.141,1.979,0.392,2.137,1.293c0.197,1.133-0.33,2.022-1.459,2.416
								c-0.455,0.159-0.928,0.275-1.396,0.414c-2.196,0.658-2.729,2.602-2.849,4.45c-0.021,0.286,0.18,0.302,0.365,0.36
								c0.816,0.256,1.635,0.521,2.451,0.772c0.607,0.188,0.92,0.521,0.953,1.229c0.096,2.024,0.297,4.048,0.215,6.077
								c-0.121,3.01-0.912,5.771-3.09,8c-0.472,0.482-1.182,0.781-1.203,1.625c-0.006,0.24-0.311,0.254-0.541,0.264
								c-2.467,0.105-4.936,0.164-7.4,0.053c-0.264-0.014-0.528-0.045-0.791-0.033c-0.592,0.023-1.072-0.063-1.027-0.822
								c0.012-0.215-0.177-0.291-0.311-0.395c-2.35-1.883-3.396-4.436-3.767-7.322c-0.331-2.58,0.027-5.148,0.134-7.724
								c0.02-0.492,0.334-0.734,0.771-0.869c1.09-0.345,2.173-0.709,3.271-1.026c0.41-0.121,0.608-0.217,0.519-0.742
								c-0.201-1.174-0.75-1.952-1.912-2.366c-1.187-0.422-2.257-1.074-3.165-1.985c-1.059-1.064-1.389-3.505,0.436-4.671
								c1.638-1.045,3.441-1.661,5.278-2.207c3.295-0.977,6.609-1.88,10.062-2.122c0.945-0.066,1.896-0.054,2.824,0.187
								c0.433,0.111,0.832,0.289,1.151,0.609c0.838,0.833,0.658,2.118-0.396,2.619c-1.375,0.653-2.873,0.823-4.356,0.998
								c-3.385,0.398-6.679,1.158-9.851,2.413C43.485,39.205,43.264,39.224,43.151,39.445z"/>
							
								<linearGradient id="path4220_2_" gradientUnits="userSpaceOnUse" x1="636.0996" y1="-1741.1367" x2="636.0996" y2="-1786.3955" gradientTransform="matrix(1 0 0 -1 -587.9395 -1716.6807)">
								<stop  offset="0.3232" style="stop-color:#F9FAEE"/>
								<stop  offset="1" style="stop-color:#CFCAC4"/>
							</linearGradient>
							<path id="path4220" fill="url(#path4220_2_)" d="M58.472,28.633c0.006,1.245-0.598,1.872-1.871,2.01
								c-4.668,0.505-9.304,1.177-13.75,2.776c-1.431,0.516-2.816,1.135-4.059,2.027c-0.326,0.232-0.421,0.12-0.546-0.172
								c-0.864-2.009-0.312-3.757,1.61-4.843c2.164-1.223,4.537-1.892,6.933-2.48c2.827-0.693,5.675-1.257,8.602-1.262
								c0.751-0.002,1.493,0.104,2.179,0.457C58.173,27.458,58.479,27.95,58.472,28.633z"/>
							
								<linearGradient id="path4227_2_" gradientUnits="userSpaceOnUse" x1="633.3066" y1="-1741.1367" x2="633.3066" y2="-1786.3979" gradientTransform="matrix(1 0 0 -1 -587.9395 -1716.6807)">
								<stop  offset="0.3232" style="stop-color:#F9FAEE"/>
								<stop  offset="1" style="stop-color:#CFCAC4"/>
							</linearGradient>
							<path id="path4227" fill="url(#path4227_2_)" d="M50.633,21.387c0.226,0,0.313-0.003,0.401,0
								c1.309,0.055,1.933,0.528,2.025,1.535c0.115,1.291-0.578,2.333-1.775,2.549c-1.521,0.273-3.051,0.421-4.557,0.777
								c-2.857,0.678-5.527,1.774-7.908,3.511c-0.356,0.26-0.49,0.198-0.688-0.14c-0.808-1.38-0.569-2.824,0.722-3.898
								c1.698-1.412,3.668-2.327,5.731-3.066C46.588,21.937,48.644,21.492,50.633,21.387z"/>
						</g>
					</g>
				</g>
			</g>
		</g>
	</g>
</g>
<g id="DO_NOT_EDIT_-_FOCAL_ZONE_GUIDES_ONLY">
</g>
</svg>
