<?xml version="1.0" encoding="utf-8"?>
<!-- Generator: Adobe Illustrator 16.0.3, SVG Export Plug-In . SVG Version: 6.00 Build 0)  -->
<!DOCTYPE svg PUBLIC "-//W3C//DTD SVG 1.1//EN" "http://www.w3.org/Graphics/SVG/1.1/DTD/svg11.dtd">
<svg version="1.1" id="Layer_1" xmlns="http://www.w3.org/2000/svg" xmlns:xlink="http://www.w3.org/1999/xlink" x="0px" y="0px"
	 width="30px" height="30px" viewBox="0 0 30 30" enable-background="new 0 0 30 30" xml:space="preserve">
<g id="DO_NOT_EDIT_-_BOUNDING_BOX">
	<rect id="BOUNDING_BOX" fill="none" width="30" height="30"/>
</g>
<g>
	<path opacity="0.15" d="M15.26,23.158c-6.399,0-13.305-7.216-13.639-7.523c-0.158-0.146-0.251-0.349-0.258-0.563
		c-0.006-0.215,0.073-0.424,0.222-0.578c0.291-0.305,6.209-7.452,13.361-7.452c7.146,0,13.165,7.039,13.459,7.339
		c0.309,0.313,0.308,0.816-0.004,1.127C28.09,15.82,21.679,23.158,15.26,23.158z M5.658,14.967c2.424,1.895,6.046,5.092,9.603,5.092
		c3.51,0,6.857-3.205,9.129-5.109c-2.206-1.804-5.477-4.808-9.443-4.808C11.022,10.142,7.833,13.147,5.658,14.967z"/>
	<path opacity="0.3" d="M14.947,6.842c-6.892,0-12.783,7.205-12.783,7.205S9.1,21.357,15.26,21.357s12.577-7.415,12.577-7.415
		S21.84,6.842,14.947,6.842z M4.406,13.99c2.144-1.909,5.931-5.648,10.541-5.648c4.643,0,8.518,3.727,10.677,5.602
		c-2.219,1.953-6.228,5.914-10.364,5.914C11.092,19.857,6.77,15.924,4.406,13.99z"/>
	<path fill="#FFFFFF" d="M14.947,7.842c-6.892,0-12.783,7.205-12.783,7.205S9.1,22.357,15.26,22.357s12.577-7.415,12.577-7.415
		S21.84,7.842,14.947,7.842z M4.406,14.99c2.144-1.909,5.931-5.648,10.541-5.648c4.643,0,8.518,3.727,10.677,5.602
		c-2.219,1.953-6.228,5.914-10.364,5.914C11.092,20.857,6.77,16.924,4.406,14.99z"/>
	<path opacity="0.15" d="M15.445,19.611c-2.525,0-4.579-2.053-4.579-4.578c0-2.524,2.054-4.578,4.579-4.578
		c2.524,0,4.578,2.054,4.578,4.578C20.023,17.559,17.97,19.611,15.445,19.611z"/>
	<circle opacity="0.3" cx="15.445" cy="14.033" r="3.779"/>
	<circle fill="#FFFFFF" cx="15.445" cy="15.033" r="3.779"/>
</g>
</svg>
