<?xml version="1.0" encoding="utf-8"?>
<!-- Generator: Adobe Illustrator 15.0.0, SVG Export Plug-In . SVG Version: 6.00 Build 0)  -->
<!DOCTYPE svg PUBLIC "-//W3C//DTD SVG 1.1//EN" "http://www.w3.org/Graphics/SVG/1.1/DTD/svg11.dtd">
<svg version="1.1" xmlns="http://www.w3.org/2000/svg" xmlns:xlink="http://www.w3.org/1999/xlink" x="0px" y="0px" width="67px"
	 height="57px" viewBox="0 0 67 57" enable-background="new 0 0 67 57" xml:space="preserve">
<g id="DO_NOT_EDIT_-_BOUNDING_BOX">
	<rect id="BOUNDING_BOX" fill="none" width="67" height="57"/>
</g>
<g id="PLACE_YOUR_GRAPHIC_HERE">
	<path opacity="0.3" d="M44.115,6.5H15.808c-0.973,0-1.769,0.796-1.769,1.769V50.73c0,0.973,0.796,1.77,1.769,1.77h35.384
		c0.974,0,1.769-0.797,1.769-1.77V15.346L44.115,6.5z M46.054,41.833H20.945c-0.978,0-1.769-0.792-1.769-1.77s0.791-1.77,1.769-1.77
		h25.109c0.978,0,1.77,0.792,1.77,1.77S47.031,41.833,46.054,41.833z M46.054,34.756H20.945c-0.978,0-1.769-0.791-1.769-1.77
		c0-0.978,0.791-1.769,1.769-1.769h25.109c0.978,0,1.77,0.791,1.77,1.769C47.823,33.965,47.031,34.756,46.054,34.756z
		 M46.054,27.679H20.945c-0.978,0-1.769-0.791-1.769-1.769c0-0.979,0.791-1.77,1.769-1.77h25.109c0.978,0,1.77,0.791,1.77,1.77
		C47.823,26.888,47.031,27.679,46.054,27.679z M46.054,20.602H20.945c-0.978,0-1.769-0.791-1.769-1.769
		c0-0.978,0.791-1.77,1.769-1.77h25.109c0.978,0,1.77,0.792,1.77,1.77C47.823,19.811,47.031,20.602,46.054,20.602z"/>
	<rect x="16.381" y="16.446" fill="none" width="30" height="30"/>
	<path opacity="0.15" d="M15.808,52.5c-1.527,0-2.769-1.242-2.769-2.77V7.269c0-1.527,1.242-2.769,2.769-2.769h28.307
		c0.266,0,0.52,0.105,0.707,0.293l8.846,8.846c0.188,0.188,0.293,0.442,0.293,0.707V49.73c0,1.527-1.242,2.77-2.769,2.77H15.808z
		 M20.945,38.294c-0.424,0-0.769,0.345-0.769,0.77s0.345,0.77,0.769,0.77h25.109c0.425,0,0.77-0.345,0.77-0.77
		s-0.345-0.77-0.77-0.77H20.945z M20.945,31.218c-0.424,0-0.769,0.345-0.769,0.769c0,0.425,0.345,0.77,0.769,0.77h25.109
		c0.425,0,0.77-0.345,0.77-0.77c0-0.424-0.345-0.769-0.77-0.769H20.945z M20.945,24.141c-0.424,0-0.769,0.345-0.769,0.77
		c0,0.424,0.345,0.769,0.769,0.769h25.109c0.425,0,0.77-0.345,0.77-0.769c0-0.424-0.345-0.77-0.77-0.77H20.945z M20.945,17.063
		c-0.424,0-0.769,0.345-0.769,0.77c0,0.424,0.345,0.769,0.769,0.769h25.109c0.425,0,0.77-0.345,0.77-0.769
		c0-0.424-0.345-0.77-0.77-0.77H20.945z"/>
	<path opacity="0.15" d="M44.115,5.5H15.808c-0.973,0-1.769,0.796-1.769,1.769V49.73c0,0.973,0.796,1.77,1.769,1.77h35.384
		c0.974,0,1.769-0.797,1.769-1.77V14.346L44.115,5.5z M46.054,40.833H20.945c-0.978,0-1.769-0.792-1.769-1.77s0.791-1.77,1.769-1.77
		h25.109c0.978,0,1.77,0.792,1.77,1.77S47.031,40.833,46.054,40.833z M46.054,33.756H20.945c-0.978,0-1.769-0.791-1.769-1.77
		c0-0.978,0.791-1.769,1.769-1.769h25.109c0.978,0,1.77,0.791,1.77,1.769C47.823,32.965,47.031,33.756,46.054,33.756z
		 M46.054,26.679H20.945c-0.978,0-1.769-0.791-1.769-1.769c0-0.979,0.791-1.77,1.769-1.77h25.109c0.978,0,1.77,0.791,1.77,1.77
		C47.823,25.888,47.031,26.679,46.054,26.679z M46.054,19.602H20.945c-0.978,0-1.769-0.791-1.769-1.769
		c0-0.978,0.791-1.77,1.769-1.77h25.109c0.978,0,1.77,0.792,1.77,1.77C47.823,18.811,47.031,19.602,46.054,19.602z"/>
	<linearGradient id="SVGID_1_" gradientUnits="userSpaceOnUse" x1="33.5005" y1="51.5" x2="33.5005" y2="5.5005">
		<stop  offset="0" style="stop-color:#D0CBC5"/>
		<stop  offset="0.5031" style="stop-color:#FAFCEF"/>
		<stop  offset="0.9693" style="stop-color:#FFFFFF"/>
	</linearGradient>
	<path fill="url(#SVGID_1_)" d="M44.115,5.5H15.808c-0.973,0-1.769,0.796-1.769,1.769V49.73c0,0.973,0.796,1.77,1.769,1.77h35.384
		c0.974,0,1.769-0.797,1.769-1.77V14.346L44.115,5.5z M46.054,40.833H20.945c-0.978,0-1.769-0.792-1.769-1.77s0.791-1.77,1.769-1.77
		h25.109c0.978,0,1.77,0.792,1.77,1.77S47.031,40.833,46.054,40.833z M46.054,33.756H20.945c-0.978,0-1.769-0.791-1.769-1.77
		c0-0.978,0.791-1.769,1.769-1.769h25.109c0.978,0,1.77,0.791,1.77,1.769C47.823,32.965,47.031,33.756,46.054,33.756z
		 M46.054,26.679H20.945c-0.978,0-1.769-0.791-1.769-1.769c0-0.979,0.791-1.77,1.769-1.77h25.109c0.978,0,1.77,0.791,1.77,1.77
		C47.823,25.888,47.031,26.679,46.054,26.679z M46.054,19.602H20.945c-0.978,0-1.769-0.791-1.769-1.769
		c0-0.978,0.791-1.77,1.769-1.77h25.109c0.978,0,1.77,0.792,1.77,1.77C47.823,18.811,47.031,19.602,46.054,19.602z"/>
	<path fill="#FFFFFF" d="M19.176,25.91c0-0.175,0.033-0.341,0.08-0.5c0.217,0.732,0.886,1.269,1.689,1.269h25.109
		c0.803,0,1.473-0.537,1.689-1.269c0.047,0.159,0.08,0.325,0.08,0.5c0,0.978-0.792,1.769-1.77,1.769H20.945
		C19.967,27.679,19.176,26.888,19.176,25.91z M20.945,20.602h25.109c0.978,0,1.77-0.791,1.77-1.769c0-0.175-0.033-0.341-0.08-0.5
		c-0.217,0.732-0.887,1.269-1.689,1.269H20.945c-0.803,0-1.472-0.537-1.689-1.269c-0.047,0.159-0.08,0.325-0.08,0.5
		C19.176,19.811,19.967,20.602,20.945,20.602z M20.945,41.833h25.109c0.978,0,1.77-0.792,1.77-1.77c0-0.175-0.033-0.341-0.08-0.5
		c-0.217,0.732-0.887,1.27-1.689,1.27H20.945c-0.803,0-1.472-0.537-1.689-1.27c-0.047,0.159-0.08,0.325-0.08,0.5
		C19.176,41.041,19.967,41.833,20.945,41.833z M20.945,34.756h25.109c0.978,0,1.77-0.791,1.77-1.77c0-0.175-0.033-0.34-0.08-0.5
		c-0.217,0.732-0.887,1.27-1.689,1.27H20.945c-0.803,0-1.472-0.537-1.689-1.27c-0.047,0.16-0.08,0.325-0.08,0.5
		C19.176,33.965,19.967,34.756,20.945,34.756z M44.115,5.5H15.808c-0.973,0-1.769,0.796-1.769,1.769v1
		c0-0.973,0.796-1.769,1.769-1.769h28.307l8.846,8.846v-1L44.115,5.5z"/>
</g>
<g id="DO_NOT_EDIT_-_FOCAL_ZONE_GUIDES">
</g>
</svg>
