<?xml version="1.0" encoding="utf-8"?>
<!-- Generator: Adobe Illustrator 15.0.0, SVG Export Plug-In . SVG Version: 6.00 Build 0)  -->
<!DOCTYPE svg PUBLIC "-//W3C//DTD SVG 1.1//EN" "http://www.w3.org/Graphics/SVG/1.1/DTD/svg11.dtd">
<svg version="1.1" id="Ebene_1" xmlns="http://www.w3.org/2000/svg" xmlns:xlink="http://www.w3.org/1999/xlink" x="0px" y="0px"
	 width="67px" height="57px" viewBox="0 0 67 57" enable-background="new 0 0 67 57" xml:space="preserve">
<rect fill="none" width="67" height="57"/>
<path opacity="0.3" enable-background="new    " d="M53.625,15.143H27.598l-3.584-3.768C23.01,10.032,21.178,10,21.178,10h-8.05
	c-2.234,0-2.155,1.576-2.115,2.006C11.016,12.049,11,46.762,11,46.762c0,0.756,0.619,1.375,1.375,1.375h41.25
	c0.757,0,1.375-0.619,1.375-1.375V16.518C55,15.762,54.382,15.143,53.625,15.143z"/>
<path opacity="0.15" enable-background="new    " d="M12.375,48.13c-1.31,0-2.375-1.065-2.375-2.375
	c0-0.344,0.016-34.348,0.013-34.744c-0.099-1.024,0.299-1.717,0.649-2.103c0.553-0.606,1.383-0.914,2.466-0.914h8.05
	c0.111,0.002,2.31,0.06,3.599,1.726l3.25,3.417h25.599c1.31,0,2.375,1.065,2.375,2.375v30.243c0,1.31-1.065,2.375-2.375,2.375
	H12.375z"/>
<linearGradient id="SVGID_1_" gradientUnits="userSpaceOnUse" x1="170.4805" y1="-250.1494" x2="170.4805" y2="-212.0137" gradientTransform="matrix(1 0 0 -1 -137.48 -203.0195)">
	<stop  offset="0" style="stop-color:#D0CBC5"/>
	<stop  offset="0.5031" style="stop-color:#FAFCEF"/>
	<stop  offset="0.9693" style="stop-color:#FFFFFF"/>
</linearGradient>
<path fill="url(#SVGID_1_)" d="M53.625,14.137H27.598l-3.584-3.768c-1.004-1.343-2.836-1.375-2.836-1.375h-8.05
	c-2.234,0-2.155,1.576-2.115,2.006C11.016,11.043,11,45.755,11,45.755c0,0.757,0.619,1.375,1.375,1.375h41.25
	c0.757,0,1.375-0.618,1.375-1.375V15.512C55,14.756,54.382,14.137,53.625,14.137z"/>
<path fill="#FFFFFF" d="M53.625,14.137H27.598l-3.584-3.768c-1.004-1.343-2.836-1.375-2.836-1.375h-8.05
	c-2.234,0-2.155,1.576-2.115,2.006v0.5c0.067-0.624,0.444-1.506,2.115-1.506h8.05c0,0,1.832,0.032,2.836,1.375l3.584,3.768h26.027
	c0.757,0,1.375,0.619,1.375,1.375v-1C55,14.756,54.382,14.137,53.625,14.137z"/>
</svg>
