<?xml version="1.0" encoding="utf-8"?>
<!-- Generator: Adobe Illustrator 16.0.3, SVG Export Plug-In . SVG Version: 6.00 Build 0)  -->
<!DOCTYPE svg PUBLIC "-//W3C//DTD SVG 1.1//EN" "http://www.w3.org/Graphics/SVG/1.1/DTD/svg11.dtd">
<svg version="1.1" xmlns="http://www.w3.org/2000/svg" xmlns:xlink="http://www.w3.org/1999/xlink" x="0px" y="0px" width="96px"
	 height="96px" viewBox="0 0 96 96" enable-background="new 0 0 96 96" xml:space="preserve">
<g id="DO_NOT_EDIT_-_BOUNDING_BOX">
	<rect id="BOUNDING_BOX" fill="none" width="96" height="96"/>
</g>
<g id="ORANGE_BACKGROUNDS">
	<linearGradient id="RED_x2F_ORANGE_5_2_" gradientUnits="userSpaceOnUse" x1="47.9995" y1="8.0107" x2="47.9995" y2="87.9897">
		<stop  offset="0.0049" style="stop-color:#C7C7C7"/>
		<stop  offset="0.3454" style="stop-color:#BDBDBD"/>
		<stop  offset="0.4848" style="stop-color:#B8B8B8"/>
		<stop  offset="1" style="stop-color:#B6B6B6"/>
	</linearGradient>
	<path id="RED_x2F_ORANGE_5_1_" fill="url(#RED_x2F_ORANGE_5_2_)" d="M8,47.988c0,29.634,10.365,40.001,40,40.001
		c29.637,0,40-10.367,40-40.001c0-28.984-9.926-39.529-38.091-39.978h-3.817C17.928,8.459,8,19.004,8,47.988z"/>
</g>
<g id="Warstwa_5">
</g>
<g id="PLACE_YOUR_GRAPHIC_HERE">
	<path fill-rule="evenodd" clip-rule="evenodd" fill="#FFFFFF" d="M66.686,40.036c-0.069,0.3-0.119,0.516-0.166,0.734
		c-0.624,2.847-18.063,15.099-21.059,14.783c-1.941-0.206-3.451-1.271-4.274-2.926c-3.794-7.623-7.501-15.289-11.166-22.977
		c-0.792-1.658-1.267-3.627,0.517-4.91c2.224-1.598,3.906,0.045,5.107,1.652c2.82,3.767,5.682,7.548,8.046,11.603
		c2.467,4.235,5.134,5.729,9.744,3.004c2.664-1.575,5.744-2.542,8.742-3.43C64.247,36.957,66.255,37.364,66.686,40.036z"/>
	<path fill-rule="evenodd" clip-rule="evenodd" fill="#FFFFFF" d="M66.686,40.036c-0.069,0.3-0.119,0.516-0.166,0.734
		c-0.624,2.847-18.063,15.099-21.059,14.783c-1.941-0.206-3.451-1.271-4.274-2.926c-3.794-7.623-7.501-15.289-11.166-22.977
		c-0.792-1.658-1.267-3.627,0.517-4.91c2.224-1.598,3.906,0.045,5.107,1.652c2.82,3.767,5.682,7.548,8.046,11.603
		c2.467,4.235,5.134,5.729,9.744,3.004c2.664-1.575,5.744-2.542,8.742-3.43C64.247,36.957,66.255,37.364,66.686,40.036z"/>
</g>
<g id="DO_NOT_EDIT_-_FOCAL_ZONE_GUIDES_ONLY">
</g>
</svg>
