<?xml version="1.0" encoding="utf-8"?>
<!-- Generator: Adobe Illustrator 16.0.3, SVG Export Plug-In . SVG Version: 6.00 Build 0)  -->
<!DOCTYPE svg PUBLIC "-//W3C//DTD SVG 1.1//EN" "http://www.w3.org/Graphics/SVG/1.1/DTD/svg11.dtd">
<svg version="1.1" xmlns="http://www.w3.org/2000/svg" xmlns:xlink="http://www.w3.org/1999/xlink" x="0px" y="0px" width="96px"
	 height="96px" viewBox="0 0 96 96" enable-background="new 0 0 96 96" xml:space="preserve">
<g id="DO_NOT_EDIT_-_BOUNDING_BOX">
	<rect id="BOUNDING_BOX" fill="none" width="96" height="96"/>
</g>
<g id="GRAY_BACKGROUNDS">
	<g id="GRAY5">
		<linearGradient id="GRAY_5_1_" gradientUnits="userSpaceOnUse" x1="47.9995" y1="8.0107" x2="47.9995" y2="87.9897">
			<stop  offset="0.0364" style="stop-color:#949494"/>
			<stop  offset="0.594" style="stop-color:#767676"/>
			<stop  offset="1" style="stop-color:#5E5E5E"/>
		</linearGradient>
		<path id="GRAY_5" fill-rule="evenodd" clip-rule="evenodd" fill="url(#GRAY_5_1_)" d="M8,47.989c0,29.633,10.365,40,40,40
			c29.637,0,40-10.367,40-40c0-28.985-9.926-39.53-38.091-39.979h-3.817C17.928,8.459,8,19.004,8,47.989z"/>
	</g>
</g>
<g id="PLACE_YOUR_GRAPHIC_HERE">
	<path fill-rule="evenodd" clip-rule="evenodd" fill="#FFFFFF" d="M28.126,64.775c-2.518,0.056-4.473-0.565-5.182-3.007
		c-1.018-3.502,0.638-5.916,3.535-7.597c10.341-6.003,20.706-11.966,31.075-17.921c2.64-1.515,5.229-3.184,8.021-4.347
		c2.459-1.025,5.28-1.178,6.873,1.565c1.629,2.806,1.063,5.841-1.662,7.447c-13.523,7.969-27.188,15.7-40.824,23.479
		C29.386,64.724,28.602,64.685,28.126,64.775z"/>
</g>
<g id="DO_NOT_EDIT_-_FOCAL_ZONE_GUIDES_ONLY">
</g>
</svg>
