<?xml version="1.0" encoding="utf-8"?>
<!-- Generator: Adobe Illustrator 16.0.3, SVG Export Plug-In . SVG Version: 6.00 Build 0)  -->
<!DOCTYPE svg PUBLIC "-//W3C//DTD SVG 1.1//EN" "http://www.w3.org/Graphics/SVG/1.1/DTD/svg11.dtd">
<svg version="1.1" xmlns="http://www.w3.org/2000/svg" xmlns:xlink="http://www.w3.org/1999/xlink" x="0px" y="0px" width="30px"
	 height="30px" viewBox="0 0 30 30" enable-background="new 0 0 30 30" xml:space="preserve">
<g id="Warstwa_1">
	<g>
		<linearGradient id="SVGID_1_" gradientUnits="userSpaceOnUse" x1="24.7813" y1="29.5" x2="24.7813" y2="20.0625">
			<stop  offset="0" style="stop-color:#BF0000"/>
			<stop  offset="1" style="stop-color:#FF0000"/>
		</linearGradient>
		<path fill="url(#SVGID_1_)" d="M29.5,27.5c0,1.1-0.9,2-2,2h-5.438c-1.1,0-2-0.9-2-2v-5.438c0-1.1,0.9-2,2-2H27.5c1.1,0,2,0.9,2,2
			V27.5z"/>
		<linearGradient id="SVGID_2_" gradientUnits="userSpaceOnUse" x1="24.7813" y1="29.75" x2="24.7813" y2="19.8125">
			<stop  offset="0" style="stop-color:#620000"/>
			<stop  offset="1" style="stop-color:#FF0000"/>
		</linearGradient>
		<path fill="none" stroke="url(#SVGID_2_)" stroke-width="0.5" stroke-miterlimit="10" d="M29.5,27.5c0,1.1-0.9,2-2,2h-5.438
			c-1.1,0-2-0.9-2-2v-5.438c0-1.1,0.9-2,2-2H27.5c1.1,0,2,0.9,2,2V27.5z"/>
	</g>
</g>
<g id="Warstwa_2_1_">
</g>
</svg>
