<?xml version="1.0" encoding="utf-8"?>
<!-- Generator: Adobe Illustrator 16.0.3, SVG Export Plug-In . SVG Version: 6.00 Build 0)  -->
<!DOCTYPE svg PUBLIC "-//W3C//DTD SVG 1.1//EN" "http://www.w3.org/Graphics/SVG/1.1/DTD/svg11.dtd">
<svg version="1.1" id="Layer_1" xmlns="http://www.w3.org/2000/svg" xmlns:xlink="http://www.w3.org/1999/xlink" x="0px" y="0px"
	 width="80px" height="80px" viewBox="0 0 80 80" enable-background="new 0 0 80 80" xml:space="preserve">
<g>
	<path opacity="0.3" enable-background="new    " d="M40,78C12.299,78,2,67.698,2,39.991C2,12.718,11.825,2.422,38.25,2h3.467
		C68.171,2.422,78,12.718,78,39.991C78,67.698,67.701,78,40,78z"/>
	<path opacity="0.4" enable-background="new    " d="M40,77C12.682,77,3,67.314,3,39.991C3,13.436,12.558,3.41,38.268,3h3.45
		C67.441,3.41,77,13.436,77,39.991C77,67.314,67.316,77,40,77z"/>
	
		<linearGradient id="GREEN_1_1_" gradientUnits="userSpaceOnUse" x1="1936" y1="-2409" x2="1936" y2="-2481.0005" gradientTransform="matrix(1 0 0 -1 -1896 -2405)">
		<stop  offset="0.0049" style="stop-color:#C7C7C7"/>
		<stop  offset="0.3454" style="stop-color:#BDBDBD"/>
		<stop  offset="0.4848" style="stop-color:#B8B8B8"/>
		<stop  offset="1" style="stop-color:#B6B6B6"/>
	</linearGradient>
	<path id="GREEN_1_2_" fill="url(#GREEN_1_1_)" d="M4,39.991C4,66.665,13.329,76,40,76c26.673,0,36-9.335,36-36.009
		C76,13.897,67.066,4.404,41.718,4h-3.435C12.936,4.404,4,13.897,4,39.991z"/>
	<g id="PLACE_YOUR_GRAPHIC_HERE">
	</g>
	<g id="DO_NOT_EDIT_-_FOCAL_ZONE_GUIDES_ONLY">
	</g>
	<path opacity="0.4" fill="#FFFFFF" enable-background="new    " d="M38.283,6h3.435c25.015,0.399,34.038,9.661,34.271,34.979
		C75.992,40.648,76,40.327,76,39.991C76,13.897,67.066,4.404,41.718,4h-3.435C12.936,4.404,4,13.897,4,39.991
		c0,0.336,0.008,0.657,0.011,0.989C4.245,15.661,13.27,6.399,38.283,6z"/>
	<path opacity="0.3" enable-background="new    " d="M59.686,35.213c-0.063,0.301-0.119,0.516-0.166,0.732
		c-0.623,2.849-18.062,15.101-21.058,14.784c-1.94-0.205-3.45-1.271-4.274-2.928c-3.793-7.622-7.5-15.289-11.166-22.977
		c-0.792-1.658-1.267-3.627,0.517-4.91c2.224-1.598,3.906,0.045,5.107,1.652c2.82,3.767,5.682,7.548,8.045,11.603
		c2.468,4.234,5.136,5.729,9.745,3.004c2.664-1.574,5.744-2.542,8.741-3.43C57.248,32.134,59.256,32.541,59.686,35.213z"/>
	<g id="PLACE_YOUR_GRAPHIC_HERE_1_">
		<path fill="#FFFFFF" d="M59.686,33.213c-0.063,0.301-0.119,0.516-0.166,0.732c-0.623,2.849-18.062,15.101-21.058,14.784
			c-1.94-0.205-3.45-1.271-4.274-2.928c-3.793-7.622-7.5-15.289-11.166-22.977c-0.792-1.658-1.267-3.627,0.517-4.91
			c2.224-1.598,3.906,0.045,5.107,1.652c2.82,3.767,5.682,7.548,8.045,11.603c2.468,4.234,5.136,5.729,9.745,3.004
			c2.664-1.575,5.744-2.542,8.741-3.43C57.248,30.134,59.256,30.541,59.686,33.213z"/>
		<path fill="#FFFFFF" d="M59.686,33.213c-0.063,0.301-0.119,0.516-0.166,0.732c-0.623,2.849-18.062,15.101-21.058,14.784
			c-1.94-0.205-3.45-1.271-4.274-2.928c-3.793-7.622-7.5-15.289-11.166-22.977c-0.792-1.658-1.267-3.627,0.517-4.91
			c2.224-1.598,3.906,0.045,5.107,1.652c2.82,3.767,5.682,7.548,8.045,11.603c2.468,4.234,5.136,5.729,9.745,3.004
			c2.664-1.575,5.744-2.542,8.741-3.43C57.248,30.134,59.256,30.541,59.686,33.213z"/>
	</g>
</g>
</svg>
