<?xml version="1.0" encoding="utf-8"?>
<!-- Generator: Adobe Illustrator 16.0.3, SVG Export Plug-In . SVG Version: 6.00 Build 0)  -->
<!DOCTYPE svg PUBLIC "-//W3C//DTD SVG 1.1//EN" "http://www.w3.org/Graphics/SVG/1.1/DTD/svg11.dtd">
<svg version="1.1" id="Layer_1" xmlns="http://www.w3.org/2000/svg" xmlns:xlink="http://www.w3.org/1999/xlink" x="0px" y="0px"
	 width="80px" height="80px" viewBox="0 0 80 80" enable-background="new 0 0 80 80" xml:space="preserve">
<g id="PLACE_YOUR_GRAPHIC_HERE">
</g>
<g id="DO_NOT_EDIT_-_FOCAL_ZONE_GUIDES_ONLY">
</g>
<g>
	<path opacity="0.3" enable-background="new    " d="M40,78C12.299,78,2,67.698,2,39.991C2,12.718,11.825,2.422,38.25,2h3.467
		C68.171,2.422,78,12.718,78,39.991C78,67.698,67.701,78,40,78z"/>
	<path opacity="0.4" enable-background="new    " d="M40,77C12.682,77,3,67.314,3,39.991C3,13.436,12.558,3.41,38.268,3h3.45
		C67.441,3.41,77,13.436,77,39.991C77,67.314,67.316,77,40,77z"/>
	
		<linearGradient id="GREEN_1_1_" gradientUnits="userSpaceOnUse" x1="1666" y1="2113.5" x2="1666" y2="2185.5" gradientTransform="matrix(1 0 0 1 -1626 -2109.5)">
		<stop  offset="0" style="stop-color:#FF3333"/>
		<stop  offset="1" style="stop-color:#991010"/>
	</linearGradient>
	<path id="GREEN_1_2_" fill="url(#GREEN_1_1_)" d="M4,39.991C4,66.665,13.329,76,40,76c26.673,0,36-9.335,36-36.009
		C76,13.897,67.066,4.404,41.718,4h-3.435C12.936,4.404,4,13.897,4,39.991z"/>
	<path opacity="0.4" fill="#FFFFFF" enable-background="new    " d="M38.283,6h3.435c25.015,0.399,34.038,9.661,34.271,34.979
		C75.992,40.648,76,40.327,76,39.991C76,13.897,67.066,4.404,41.718,4h-3.435C12.936,4.404,4,13.897,4,39.991
		c0,0.336,0.008,0.657,0.011,0.989C4.245,15.661,13.27,6.399,38.283,6z"/>
	<path opacity="0.3" enable-background="new    " d="M39.957,46.936c-6.301,0-12.602,0.01-18.902-0.002
		c-3.291-0.01-6.465-0.75-6.621-4.648c-0.177-4.347,3.15-5.205,6.708-5.209c12.6-0.021,25.202-0.013,37.799,0
		c3.293,0.002,6.466,0.757,6.623,4.65c0.179,4.353-3.147,5.188-6.709,5.203C52.555,46.951,46.256,46.936,39.957,46.936z"/>
	<g id="PLACE_YOUR_GRAPHIC_HERE_1_">
		<path fill="#FFFFFF" d="M39.957,44.936c-6.301,0-12.602,0.01-18.902-0.002c-3.291-0.01-6.465-0.75-6.621-4.648
			c-0.177-4.349,3.15-5.206,6.708-5.21c12.6-0.021,25.202-0.012,37.799,0c3.293,0.002,6.466,0.757,6.623,4.652
			c0.179,4.35-3.147,5.189-6.709,5.205C52.555,44.951,46.256,44.936,39.957,44.936z"/>
	</g>
</g>
</svg>
