<?xml version="1.0" encoding="utf-8"?>
<!-- Generator: Adobe Illustrator 18.0.0, SVG Export Plug-In . SVG Version: 6.00 Build 0)  -->
<!DOCTYPE svg PUBLIC "-//W3C//DTD SVG 1.1//EN" "http://www.w3.org/Graphics/SVG/1.1/DTD/svg11.dtd">
<svg version="1.1" xmlns="http://www.w3.org/2000/svg" xmlns:xlink="http://www.w3.org/1999/xlink" x="0px" y="0px"
	 viewBox="0 0 16 16" enable-background="new 0 0 16 16" xml:space="preserve">
<g id="DO_NOT_EDIT_-_BOUNDING_BOX">
	<rect id="BOUNDING_BOX" fill="none" width="16" height="16"/>
</g>
<g id="DO_NOT_EDIT_-_SHADOW">
	<path id="SHADOW" opacity="0.4" d="M14.7,8.2c0,4.9-1.7,6.7-6.7,6.7c-4.9,0-6.7-1.7-6.7-6.7c0-4.9,1.7-6.7,6.7-6.7
		C12.9,1.5,14.7,3.2,14.7,8.2z"/>
</g>
<g id="BLUE_BACKGROUNDS">
	<g id="BLUE_4_2_">
		<linearGradient id="BLUE_4_3_" gradientUnits="userSpaceOnUse" x1="8" y1="1.3351" x2="8" y2="14.6649">
			<stop  offset="3.636400e-002" style="stop-color:#4791D9"/>
			<stop  offset="0.2496" style="stop-color:#4288CF"/>
			<stop  offset="0.6102" style="stop-color:#366EB5"/>
			<stop  offset="1" style="stop-color:#264C91"/>
		</linearGradient>
		<path id="BLUE_4_1_" fill="url(#BLUE_4_3_)" d="M1.3,8c0,4.9,1.7,6.7,6.7,6.7c4.9,0,6.7-1.7,6.7-6.7c0-4.8-1.7-6.6-6.3-6.7H7.7
			C3,1.4,1.3,3.2,1.3,8z"/>
		<linearGradient id="HIGHLIGHT_BLU4_1_" gradientUnits="userSpaceOnUse" x1="8" y1="1.376" x2="8" y2="14.584">
			<stop  offset="3.636400e-002" style="stop-color:#FFFFFF"/>
			<stop  offset="0.129" style="stop-color:#F5F7FA"/>
			<stop  offset="0.2858" style="stop-color:#DBE1ED"/>
			<stop  offset="0.4876" style="stop-color:#AFBDD7"/>
			<stop  offset="0.7265" style="stop-color:#738CB8"/>
			<stop  offset="0.9942" style="stop-color:#284D92"/>
			<stop  offset="1" style="stop-color:#264C91"/>
		</linearGradient>
		<path id="HIGHLIGHT_BLU4" opacity="0.25" fill="url(#HIGHLIGHT_BLU4_1_)" d="M8,1.3C3.1,1.3,1.3,3.1,1.3,8c0,4.9,1.7,6.7,6.7,6.7
			c4.9,0,6.7-1.7,6.7-6.7C14.7,3.1,12.9,1.3,8,1.3z M8,14.5c-4.9,0-6.5-1.6-6.5-6.5S3.1,1.5,8,1.5s6.5,1.6,6.5,6.5S12.9,14.5,8,14.5
			z"/>
	</g>
</g>
<g id="PLACE_YOUR_GRAPHIC_HERE">
	<g id="New_Symbol_25">
		<path opacity="2.000000e-002" d="M7.6,13c-0.2,0-1.1,0-1.6-0.7c-0.3-0.5-0.4-1.1-0.1-1.8l1-2.9C6.9,7.5,6.7,7.6,6.6,7.6
			c0,0-0.1,0-0.1,0L6.2,7.5C6,7.5,5.9,7.4,5.8,7.2C5.7,7,5.6,6.9,5.7,6.7c0-0.1,0.3-1.2,1.8-1.3C7.3,5.1,7.3,4.8,7.3,4.5
			c0-0.9,0.7-1.6,1.6-1.6c0.9,0,1.6,0.7,1.6,1.6c0,0.7-0.4,1.3-1.1,1.5c0,0,0.1,0.1,0.1,0.1c0.3,0.5,0.4,1.1,0.1,1.8l-1,2.9
			c0.1-0.1,0.2-0.1,0.3-0.1c0,0,0.1,0,0.1,0l0.3,0.1c0.2,0,0.3,0.1,0.4,0.3c0.1,0.2,0.1,0.3,0.1,0.5C9.7,11.7,9.4,13,7.6,13L7.6,13z
			"/>
		<path opacity="5.000000e-002" d="M7.6,12.9c-0.2,0-1,0-1.5-0.7c-0.3-0.4-0.3-1-0.1-1.7l1-3C7.2,7.3,7.2,7.1,7.2,7c0,0,0,0,0,0
			c0,0-0.1,0-0.2,0.2C7,7.3,6.8,7.4,6.6,7.4c0,0-0.1,0-0.1,0L6.2,7.3C6.1,7.3,6,7.2,5.9,7.1C5.8,7,5.8,6.9,5.9,6.7
			c0,0,0.3-1.2,1.9-1.2c0,0,0.1,0,0.1,0c-0.3-0.3-0.5-0.6-0.5-1c0-0.8,0.6-1.4,1.4-1.4c0.8,0,1.4,0.6,1.4,1.4c0,0.7-0.6,1.3-1.3,1.4
			C9.1,6,9.2,6.1,9.3,6.2c0.3,0.4,0.3,1,0.1,1.7l-1,3c-0.1,0.2-0.1,0.4-0.1,0.5c0,0,0,0,0,0c0,0,0.1,0,0.2-0.2C8.5,11,8.6,11,8.8,11
			c0,0,0.1,0,0.1,0L9.2,11c0.1,0,0.3,0.1,0.3,0.2c0.1,0.1,0.1,0.3,0.1,0.4C9.6,11.7,9.2,12.9,7.6,12.9L7.6,12.9z"/>
		<path opacity="5.000000e-002" d="M7.6,12.7c-0.2,0-0.9,0-1.3-0.6c-0.3-0.4-0.3-0.9,0-1.5l1-3.1c0.1-0.3,0.1-0.6,0.1-0.7
			c0,0-0.1,0-0.1,0c0,0,0,0-0.1,0c0,0-0.2,0-0.3,0.3C6.9,7.2,6.8,7.2,6.6,7.2c0,0,0,0-0.1,0L6.3,7.2C6.2,7.2,6.1,7.1,6.1,7
			C6,6.9,6,6.9,6,6.8c0,0,0.3-1.1,1.8-1.1c0.2,0,1,0,1.3,0.6c0.3,0.4,0.3,0.9,0,1.5l-1,3.1C8,11.1,8,11.4,8.1,11.5c0,0,0.1,0,0.1,0
			c0,0,0,0,0.1,0c0,0,0.2,0,0.3-0.3c0.1-0.1,0.2-0.2,0.3-0.2c0,0,0,0,0.1,0l0.3,0.1c0.1,0,0.2,0.1,0.2,0.2c0,0.1,0.1,0.2,0,0.3
			C9.4,11.6,9.1,12.7,7.6,12.7L7.6,12.7z M8.8,5.7c-0.7,0-1.2-0.6-1.2-1.2c0-0.7,0.6-1.2,1.2-1.2c0.7,0,1.2,0.6,1.2,1.2
			C10.1,5.2,9.5,5.7,8.8,5.7L8.8,5.7z"/>
		<path opacity="0.1" d="M7.6,12.5c-0.1,0-0.8,0-1.2-0.5c-0.2-0.3-0.2-0.8,0-1.4l1-3.1c0.1-0.2,0.2-0.6,0-0.8c0,0-0.1-0.1-0.2-0.1
			c0,0-0.1,0-0.1,0c0,0-0.2,0-0.4,0.3c0,0.1-0.1,0.1-0.1,0.1c0,0,0,0,0,0L6.3,7c0,0-0.1,0-0.1-0.1c0,0,0-0.1,0-0.1c0,0,0.3-1,1.6-1
			c0,0,0,0,0,0c0.2,0,0.9,0,1.2,0.5c0.2,0.3,0.2,0.8,0,1.4l-1,3.1c-0.1,0.2-0.2,0.6,0,0.8c0,0,0.1,0.1,0.2,0.1c0,0,0.1,0,0.1,0
			c0,0,0.2,0,0.4-0.3c0-0.1,0.1-0.1,0.1-0.1c0,0,0,0,0,0l0.3,0.1c0,0,0.1,0,0.1,0.1c0,0,0,0.1,0,0.1C9.2,11.6,9,12.5,7.6,12.5
			L7.6,12.5z M8.8,5.5c-0.6,0-1.1-0.5-1.1-1.1c0-0.6,0.5-1.1,1.1-1.1c0.6,0,1.1,0.5,1.1,1.1C9.9,5.1,9.4,5.5,8.8,5.5L8.8,5.5z"/>
		<path opacity="0.1" d="M8.3,11.9c-0.9,0.1-0.4-1.1-0.4-1.1l1-3.1C9.5,6,7.8,6,7.8,6C6.6,6,6.3,6.9,6.3,6.9l0.3,0.1
			c0.2-0.4,0.5-0.4,0.5-0.4c0.9-0.1,0.4,1.1,0.4,1.1l-1,3.1c-0.7,1.7,1.1,1.7,1.1,1.7c1.2,0,1.5-0.8,1.5-0.8l-0.3-0.1
			C8.6,11.9,8.3,11.9,8.3,11.9z M8.8,3.6C8.3,3.6,7.9,4,7.9,4.5c0,0.5,0.4,0.9,0.9,0.9c0.5,0,0.9-0.4,0.9-0.9C9.7,4,9.3,3.6,8.8,3.6
			z"/>
		<linearGradient id="SVGID_1_" gradientUnits="userSpaceOnUse" x1="8.0357" y1="11.7004" x2="8.0357" y2="61.1082">
			<stop  offset="0.3232" style="stop-color:#F8FBEE"/>
			<stop  offset="1" style="stop-color:#D2CBC5"/>
		</linearGradient>
		<path fill="url(#SVGID_1_)" d="M8.3,11.4c-0.9,0.1-0.4-1.1-0.4-1.1l1-3.1c0.7-1.7-1.1-1.7-1.1-1.7c-1.2,0-1.5,0.8-1.5,0.8l0.3,0.1
			C6.9,6,7.2,6,7.2,6c0.9-0.1,0.4,1.1,0.4,1.1l-1,3.1c-0.7,1.7,1.1,1.7,1.1,1.7c1.2,0,1.5-0.8,1.5-0.8L8.8,11
			C8.6,11.4,8.3,11.4,8.3,11.4z M8.8,3.1C8.3,3.1,7.9,3.5,7.9,4c0,0.5,0.4,0.9,0.9,0.9c0.5,0,0.9-0.4,0.9-0.9
			C9.7,3.5,9.3,3.1,8.8,3.1z"/>
		<path fill="#FFFFFF" d="M8.8,11c-0.2,0.4-0.5,0.4-0.5,0.4c-0.4,0.1-0.5-0.2-0.6-0.4c0,0.3,0.1,0.7,0.6,0.6c0,0,0.3,0,0.5-0.4
			l0.2,0c0-0.1,0.1-0.2,0.1-0.2L8.8,11z"/>
		<path fill="#FFFFFF" d="M7.8,5.5c-1.2,0-1.5,0.8-1.5,0.8l0.1,0c0.1-0.2,0.5-0.7,1.4-0.7c0,0,1.1,0,1.2,0.9
			C9.1,5.5,7.8,5.5,7.8,5.5z M8.8,3.1C8.3,3.1,7.9,3.5,7.9,4c0,0,0,0.1,0,0.1c0-0.5,0.4-0.8,0.9-0.8c0.5,0,0.9,0.4,0.9,0.8
			c0,0,0-0.1,0-0.1C9.7,3.5,9.3,3.1,8.8,3.1z"/>
	</g>
</g>
<g id="DO_NOT_EDIT_-_FOCAL_ZONE_GUIDES_ONLY">
</g>
</svg>
