<?xml version="1.0" encoding="utf-8"?>
<!-- Generator: Adobe Illustrator 18.1.0, SVG Export Plug-In . SVG Version: 6.00 Build 0)  -->
<svg version="1.1" id="Warstwa_1" xmlns="http://www.w3.org/2000/svg" xmlns:xlink="http://www.w3.org/1999/xlink" x="0px" y="0px"
	 viewBox="-8 232 16 16" enable-background="new -8 232 16 16" xml:space="preserve">
<g id="DO_NOT_EDIT_-_BOUNDING_BOX">
	<rect id="BOUNDING_BOX" x="-8" y="232" fill="none" width="16" height="16"/>
</g>
<g id="DO_NOT_EDIT_-_SHADOW">
	<path id="SHADOW" opacity="0.4" enable-background="new    " d="M6.7,240.2c0,4.9-1.7,6.7-6.7,6.7c-4.9,0-6.7-1.7-6.7-6.7
		c0-4.9,1.7-6.7,6.7-6.7C4.9,233.5,6.7,235.2,6.7,240.2z"/>
</g>
<g id="BLUE_BACKGROUNDS">
	<g id="BLUE_4_2_">
		
			<linearGradient id="BLUE_4_3_" gradientUnits="userSpaceOnUse" x1="-8" y1="224.4443" x2="-8" y2="223.5557" gradientTransform="matrix(15 0 0 -15 120 3600)">
			<stop  offset="4.129011e-002" style="stop-color:#608633"/>
			<stop  offset="0.2496" style="stop-color:#597F34"/>
			<stop  offset="0.6102" style="stop-color:#496A36"/>
			<stop  offset="1" style="stop-color:#334D34"/>
		</linearGradient>
		<path id="BLUE_4_1_" fill="url(#BLUE_4_3_)" d="M-6.7,240c0,4.9,1.7,6.7,6.7,6.7c4.9,0,6.7-1.7,6.7-6.7c0-4.8-1.7-6.6-6.3-6.7
			h-0.7C-5,233.4-6.7,235.2-6.7,240z"/>
		
			<linearGradient id="HIGHLIGHT_BLU4_1_" gradientUnits="userSpaceOnUse" x1="-8" y1="224.4416" x2="-8" y2="223.5611" gradientTransform="matrix(15 0 0 -15 120 3600)">
			<stop  offset="3.636400e-002" style="stop-color:#FFFFFF"/>
			<stop  offset="0.129" style="stop-color:#F5F7FA"/>
			<stop  offset="0.2858" style="stop-color:#DBE1ED"/>
			<stop  offset="0.4876" style="stop-color:#AFBDD7"/>
			<stop  offset="0.7265" style="stop-color:#738CB8"/>
			<stop  offset="0.9942" style="stop-color:#284D92"/>
			<stop  offset="1" style="stop-color:#264C91"/>
		</linearGradient>
		<path id="HIGHLIGHT_BLU4" opacity="0.25" fill="url(#HIGHLIGHT_BLU4_1_)" enable-background="new    " d="M0,233.3
			c-4.9,0-6.7,1.8-6.7,6.7s1.7,6.7,6.7,6.7c4.9,0,6.7-1.7,6.7-6.7C6.7,235.1,4.9,233.3,0,233.3z M0,246.5c-4.9,0-6.5-1.6-6.5-6.5
			s1.6-6.5,6.5-6.5s6.5,1.6,6.5,6.5S4.9,246.5,0,246.5z"/>
	</g>
</g>
<g id="PLACE_YOUR_GRAPHIC_HERE">
	<g id="New_Symbol_25" display="none">
		<path display="inline" opacity="2.000000e-002" enable-background="new    " d="M-0.4,245c-0.2,0-1.1,0-1.6-0.7
			c-0.3-0.5-0.4-1.1-0.1-1.8l1-2.9c0-0.1-0.2,0-0.3,0h-0.1l-0.3-0.1c-0.2,0-0.3-0.1-0.4-0.3c-0.1-0.2-0.2-0.3-0.1-0.5
			c0-0.1,0.3-1.2,1.8-1.3c-0.2-0.3-0.2-0.6-0.2-0.9c0-0.9,0.7-1.6,1.6-1.6c0.9,0,1.6,0.7,1.6,1.6c0,0.7-0.4,1.3-1.1,1.5l0.1,0.1
			c0.3,0.5,0.4,1.1,0.1,1.8l-1,2.9c0.1-0.1,0.2-0.1,0.3-0.1H1l0.3,0.1c0.2,0,0.3,0.1,0.4,0.3c0.1,0.2,0.1,0.3,0.1,0.5
			C1.7,243.7,1.4,245-0.4,245L-0.4,245z"/>
		<path display="inline" opacity="5.000000e-002" enable-background="new    " d="M-0.4,244.9c-0.2,0-1,0-1.5-0.7
			c-0.3-0.4-0.3-1-0.1-1.7l1-3c0.2-0.2,0.2-0.4,0.2-0.5l0,0c0,0-0.1,0-0.2,0.2c0,0.1-0.2,0.2-0.4,0.2h-0.1l-0.3-0.1
			c-0.1,0-0.2-0.1-0.3-0.2c-0.1-0.1-0.1-0.2,0-0.4c0,0,0.3-1.2,1.9-1.2h0.1c-0.3-0.3-0.5-0.6-0.5-1c0-0.8,0.6-1.4,1.4-1.4
			s1.4,0.6,1.4,1.4c0,0.7-0.6,1.3-1.3,1.4c0.2,0.1,0.3,0.2,0.4,0.3c0.3,0.4,0.3,1,0.1,1.7l-1,3c-0.1,0.2-0.1,0.4-0.1,0.5l0,0
			c0,0,0.1,0,0.2-0.2c0-0.2,0.1-0.2,0.3-0.2h0.1h0.3c0.1,0,0.3,0.1,0.3,0.2c0.1,0.1,0.1,0.3,0.1,0.4C1.6,243.7,1.2,244.9-0.4,244.9
			L-0.4,244.9z"/>
		<path display="inline" opacity="5.000000e-002" enable-background="new    " d="M-0.4,244.7c-0.2,0-0.9,0-1.3-0.6
			c-0.3-0.4-0.3-0.9,0-1.5l1-3.1c0.1-0.3,0.1-0.6,0.1-0.7h-0.1c0,0,0,0-0.1,0c0,0-0.2,0-0.3,0.3c0,0.1-0.1,0.1-0.3,0.1
			c0,0,0,0-0.1,0h-0.2c-0.1,0-0.2-0.1-0.2-0.2c-0.1-0.1-0.1-0.1-0.1-0.2c0,0,0.3-1.1,1.8-1.1c0.2,0,1,0,1.3,0.6
			c0.3,0.4,0.3,0.9,0,1.5l-1,3.1c-0.1,0.2-0.1,0.5,0,0.6h0.1c0,0,0,0,0.1,0c0,0,0.2,0,0.3-0.3c0.1-0.1,0.2-0.2,0.3-0.2
			c0,0,0,0,0.1,0l0.3,0.1c0.1,0,0.2,0.1,0.2,0.2c0,0.1,0.1,0.2,0,0.3C1.4,243.6,1.1,244.7-0.4,244.7L-0.4,244.7z M0.8,237.7
			c-0.7,0-1.2-0.6-1.2-1.2c0-0.7,0.6-1.2,1.2-1.2c0.7,0,1.2,0.6,1.2,1.2C2.1,237.2,1.5,237.7,0.8,237.7L0.8,237.7z"/>
		<path display="inline" opacity="0.1" enable-background="new    " d="M-0.4,244.5c-0.1,0-0.8,0-1.2-0.5c-0.2-0.3-0.2-0.8,0-1.4
			l1-3.1c0.1-0.2,0.2-0.6,0-0.8c0,0-0.1-0.1-0.2-0.1h-0.1c0,0-0.2,0-0.4,0.3c0,0.1-0.1,0.1-0.1,0.1l0,0h-0.3c0,0-0.1,0-0.1-0.1v-0.1
			c0,0,0.3-1,1.6-1l0,0c0.2,0,0.9,0,1.2,0.5c0.2,0.3,0.2,0.8,0,1.4l-1,3.1c-0.1,0.2-0.2,0.6,0,0.8c0,0,0.1,0.1,0.2,0.1h0.1
			c0,0,0.2,0,0.4-0.3c0-0.1,0.1-0.1,0.1-0.1l0,0l0.3,0.1c0,0,0.1,0,0.1,0.1v0.1C1.2,243.6,1,244.5-0.4,244.5L-0.4,244.5z M0.8,237.5
			c-0.6,0-1.1-0.5-1.1-1.1c0-0.6,0.5-1.1,1.1-1.1c0.6,0,1.1,0.5,1.1,1.1C1.9,237.1,1.4,237.5,0.8,237.5L0.8,237.5z"/>
		<path display="inline" opacity="0.1" enable-background="new    " d="M0.3,243.9c-0.9,0.1-0.4-1.1-0.4-1.1l1-3.1
			c0.6-1.7-1.1-1.7-1.1-1.7c-1.2,0-1.5,0.9-1.5,0.9l0.3,0.1c0.2-0.4,0.5-0.4,0.5-0.4c0.9-0.1,0.4,1.1,0.4,1.1l-1,3.1
			c-0.7,1.7,1.1,1.7,1.1,1.7c1.2,0,1.5-0.8,1.5-0.8l-0.3-0.1C0.6,243.9,0.3,243.9,0.3,243.9z M0.8,235.6c-0.5,0-0.9,0.4-0.9,0.9
			s0.4,0.9,0.9,0.9s0.9-0.4,0.9-0.9S1.3,235.6,0.8,235.6z"/>
		
			<linearGradient id="SVGID_1_" gradientUnits="userSpaceOnUse" x1="-8" y1="223.7533" x2="-8" y2="220.4595" gradientTransform="matrix(15 0 0 -15 120 3600)">
			<stop  offset="0.3232" style="stop-color:#F8FBEE"/>
			<stop  offset="1" style="stop-color:#D2CBC5"/>
		</linearGradient>
		<path display="inline" fill="url(#SVGID_1_)" d="M0.3,243.4c-0.9,0.1-0.4-1.1-0.4-1.1l1-3.1c0.7-1.7-1.1-1.7-1.1-1.7
			c-1.2,0-1.5,0.8-1.5,0.8l0.3,0.1c0.3-0.4,0.6-0.4,0.6-0.4c0.9-0.1,0.4,1.1,0.4,1.1l-1,3.1c-0.7,1.7,1.1,1.7,1.1,1.7
			c1.2,0,1.5-0.8,1.5-0.8L0.8,243C0.6,243.4,0.3,243.4,0.3,243.4z M0.8,235.1c-0.5,0-0.9,0.4-0.9,0.9s0.4,0.9,0.9,0.9
			s0.9-0.4,0.9-0.9S1.3,235.1,0.8,235.1z"/>
		<path display="inline" fill="#FFFFFF" d="M0.8,243c-0.2,0.4-0.5,0.4-0.5,0.4c-0.4,0.1-0.5-0.2-0.6-0.4c0,0.3,0.1,0.7,0.6,0.6
			c0,0,0.3,0,0.5-0.4H1c0-0.1,0.1-0.2,0.1-0.2H0.8z"/>
		<path display="inline" fill="#FFFFFF" d="M-0.2,237.5c-1.2,0-1.5,0.8-1.5,0.8h0.1c0.1-0.2,0.5-0.7,1.4-0.7c0,0,1.1,0,1.2,0.9
			C1.1,237.5-0.2,237.5-0.2,237.5z M0.8,235.1c-0.5,0-0.9,0.4-0.9,0.9v0.1c0-0.5,0.4-0.8,0.9-0.8s0.9,0.4,0.9,0.8V236
			C1.7,235.5,1.3,235.1,0.8,235.1z"/>
	</g>
	<g>
		<path opacity="0.15" d="M-0.3,244.9c-1,0-3.2-4.7-3.2-6.8c0-1.8,1.4-3.2,3.2-3.2s3.2,1.4,3.2,3.2C2.9,240.2,0.7,244.9-0.3,244.9
			L-0.3,244.9z M-0.3,237.1c-0.6,0-1.1,0.5-1.1,1.1c0,0.6,0.5,1.1,1.1,1.1s1.1-0.5,1.1-1.1C0.8,237.6,0.3,237.1-0.3,237.1
			L-0.3,237.1z"/>
		<path opacity="0.3" d="M-0.3,235c-1.6,0-2.8,1.3-2.8,2.8c0,2.1,2.3,6.4,2.8,6.4c0.6,0,2.8-4.3,2.8-6.4C2.5,236.3,1.3,235-0.3,235z
			 M-0.3,239.2c-0.8,0-1.4-0.6-1.4-1.4c0-0.8,0.6-1.4,1.4-1.4s1.4,0.6,1.4,1.4C1.1,238.6,0.5,239.2-0.3,239.2z"/>
		<path fill="#FFFFFF" d="M-0.3,235.3c-1.6,0-2.8,1.3-2.8,2.8c0,2.1,2.3,6.4,2.8,6.4c0.6,0,2.8-4.3,2.8-6.4
			C2.5,236.6,1.3,235.3-0.3,235.3z M-0.3,239.6c-0.8,0-1.4-0.6-1.4-1.4c0-0.8,0.6-1.4,1.4-1.4s1.4,0.6,1.4,1.4
			C1.1,239,0.5,239.6-0.3,239.6z"/>
		<rect x="-5.6" y="234.6" fill="none" width="10.7" height="10.7"/>
		<g>
			<rect x="-5.6" y="234.6" fill="none" width="10.7" height="10.7"/>
		</g>
	</g>
</g>
<g id="DO_NOT_EDIT_-_FOCAL_ZONE_GUIDES_ONLY">
</g>
</svg>
