<?xml version="1.0" encoding="utf-8"?>
<!-- Generator: Adobe Illustrator 18.0.0, SVG Export Plug-In . SVG Version: 6.00 Build 0)  -->
<!DOCTYPE svg PUBLIC "-//W3C//DTD SVG 1.1//EN" "http://www.w3.org/Graphics/SVG/1.1/DTD/svg11.dtd">
<svg version="1.1" id="Warstwa_1" xmlns="http://www.w3.org/2000/svg" xmlns:xlink="http://www.w3.org/1999/xlink" x="0px" y="0px"
	 viewBox="0 90 612 612" enable-background="new 0 90 612 612" xml:space="preserve">
<g id="DO_NOT_EDIT_-_BOUNDING_BOX">
	<rect id="BOUNDING_BOX" x="-0.9" y="83.2" fill="none" width="612.9" height="612.9"/>
</g>
<g id="PLACE_YOUR_GRAPHIC_HERE">
	<g>
		<path opacity="0.3" enable-background="new    " d="M290.5,632.1c-0.9,0-2.7,0-3.7-0.9c-3.7-1.8-5.5-4.6-5.5-8.2V463.2l-62.1,62.1
			c-1.8,1.8-4.6,2.7-6.4,2.7s-4.6-0.9-6.4-2.7l-25.6-25.6c-1.8-1.8-2.7-3.7-2.7-6.4c0-2.7,0.9-4.6,2.7-6.4l88.6-88.6l-86.8-86.8
			c-3.7-3.7-3.7-9.1,0-12.8l25.6-25.6c1.8-1.8,4.6-2.7,6.4-2.7s4.6,0.9,6.4,2.7l60.3,60.3V173.6c0-3.7,1.8-7.3,5.5-8.2
			c0.9-0.9,2.7-0.9,3.7-0.9c2.7,0,4.6,0.9,6.4,2.7l134.3,133.4c1.8,1.8,2.7,3.7,2.7,6.4c0,2.7-0.9,4.6-2.7,6.4l-84.9,84l84.9,84
			c1.8,1.8,2.7,3.7,2.7,6.4s-0.9,4.6-2.7,6.4L296.9,629.4C295,631.2,293.2,632.1,290.5,632.1z M336.1,515.2l25.6-24.7L336.1,465
			V515.2z M336.1,330.7l23.7-23.7l-23.7-23.7V330.7z"/>
		<path opacity="0.3" fill="#FFFFFF" enable-background="new    " d="M290.5,632.1c-0.9,0-2.7,0-3.7-0.9c-3.7-1.8-5.5-4.6-5.5-8.2
			V463.2l-62.1,62.1c-1.8,1.8-4.6,2.7-6.4,2.7s-4.6-0.9-6.4-2.7l-25.6-25.6c-1.8-1.8-2.7-3.7-2.7-6.4c0-2.7,0.9-4.6,2.7-6.4
			l88.6-88.6l-86.8-86.8c-3.7-3.7-3.7-9.1,0-12.8l25.6-25.6c1.8-1.8,4.6-2.7,6.4-2.7s4.6,0.9,6.4,2.7l60.3,60.3V173.6
			c0-3.7,1.8-7.3,5.5-8.2c0.9-0.9,2.7-0.9,3.7-0.9c2.7,0,4.6,0.9,6.4,2.7l134.3,133.4c1.8,1.8,2.7,3.7,2.7,6.4
			c0,2.7-0.9,4.6-2.7,6.4l-84.9,84l84.9,84c1.8,1.8,2.7,3.7,2.7,6.4s-0.9,4.6-2.7,6.4L296.9,629.4
			C295,631.2,293.2,632.1,290.5,632.1z M336.1,515.2l25.6-24.7L336.1,465V515.2z M336.1,330.7l23.7-23.7l-23.7-23.7V330.7z"/>
		<path opacity="0.3" fill="#FFFFFF" enable-background="new    " d="M290.5,641.3c-0.9,0-2.7,0-3.7-0.9c-3.7-1.8-5.5-4.6-5.5-8.2
			V472.3l-62.1,62.1c-1.8,1.8-4.6,2.7-6.4,2.7s-4.6-0.9-6.4-2.7l-25.6-25.6c-1.8-1.8-2.7-3.7-2.7-6.4s0.9-4.6,2.7-6.4l88.6-88.6
			l-86.8-86.8c-3.7-3.7-3.7-9.1,0-12.8l25.6-25.6c1.8-1.8,4.6-2.7,6.4-2.7s4.6,0.9,6.4,2.7l60.3,60.3V182.7c0-3.7,1.8-7.3,5.5-8.2
			c0.9-0.9,2.7-0.9,3.7-0.9c2.7,0,4.6,0.9,6.4,2.7l134.3,133.4c1.8,1.8,2.7,3.7,2.7,6.4c0,2.7-0.9,4.6-2.7,6.4l-84.9,84l84.9,84
			c1.8,1.8,2.7,3.7,2.7,6.4s-0.9,4.6-2.7,6.4L296.9,638.5C295,640.4,293.2,641.3,290.5,641.3z M336.1,524.4l25.6-24.7l-25.6-25.6
			V524.4z M336.1,339.8l23.7-23.7l-23.7-23.7V339.8z"/>
		<rect x="-0.9" y="83.2" fill="none" width="612.9" height="612.9"/>
		<path opacity="0.15" enable-background="new    " d="M424.7,298.7L290.5,164.5v180.9l-75.8-75.8l-25.6,25.6l93.2,93.2l-95.9,95.9
			l25.6,25.6l77.6-77.6v181.8l134.3-134.3l-91.3-90.4L424.7,298.7z M327,252.2l45.7,45.7L327,343.5V252.2z M374.5,481.4L327,528.9
			v-95L374.5,481.4z"/>
		<path opacity="0.15" enable-background="new    " d="M290.5,623c-0.9,0-2.7,0-3.7-0.9c-3.7-1.8-5.5-4.6-5.5-8.2V454l-62.1,62.1
			c-1.8,1.8-4.6,2.7-6.4,2.7s-4.6-0.9-6.4-2.7l-25.6-25.6c-1.8-1.8-2.7-3.7-2.7-6.4s0.9-4.6,2.7-6.4l88.6-88.6l-86.8-86.8
			c-3.7-3.7-3.7-9.1,0-12.8l25.6-25.6c1.8-1.8,4.6-2.7,6.4-2.7s4.6,0.9,6.4,2.7l60.3,60.3V164.5c0-3.7,1.8-7.3,5.5-8.2
			c0.9-0.9,2.7-0.9,3.7-0.9c2.7,0,4.6,0.9,6.4,2.7l134.3,133.4c1.8,1.8,2.7,3.7,2.7,6.4s-0.9,4.6-2.7,6.4l-84.9,84l84.9,84
			c1.8,1.8,2.7,3.7,2.7,6.4s-0.9,4.6-2.7,6.4L296.9,620.3C295,622.1,293.2,623,290.5,623z M336.1,506.1l25.6-24.7l-25.6-25.6V506.1z
			 M336.1,321.6l23.7-23.7l-23.7-23.7V321.6z"/>
		<path fill="#FFFFFF" d="M424.7,298.7L290.5,164.5v180.9l-75.8-75.8l-25.6,25.6l93.2,93.2l-95.9,95.9l25.6,25.6l77.6-77.6v181.8
			l134.3-134.3l-91.3-90.4L424.7,298.7z M327,252.2l45.7,45.7L327,343.5V252.2z M374.5,481.4L327,528.9v-95L374.5,481.4z"/>
		
			<linearGradient id="SVGID_1_" gradientUnits="userSpaceOnUse" x1="33.45" y1="739.1" x2="33.45" y2="788.3" gradientTransform="matrix(9.1343 0 0 -9.1343 3.051758e-005 7365.0596)">
			<stop  offset="0" style="stop-color:#5C5C5C"/>
			<stop  offset="1" style="stop-color:#000000"/>
		</linearGradient>
		<path fill="url(#SVGID_1_)" d="M424.7,298.7L290.5,164.5v180.9l-75.8-75.8l-25.6,25.6l93.2,93.2l-95.9,95.9l25.6,25.6l77.6-77.6
			v181.8l134.3-134.3l-91.3-90.4L424.7,298.7z M327,252.2l45.7,45.7L327,343.5V252.2z M374.5,481.4L327,528.9v-95L374.5,481.4z"/>
	</g>
</g>
</svg>
