<?xml version="1.0" encoding="utf-8"?>
<!-- Generator: Adobe Illustrator 18.0.0, SVG Export Plug-In . SVG Version: 6.00 Build 0)  -->
<!DOCTYPE svg PUBLIC "-//W3C//DTD SVG 1.1//EN" "http://www.w3.org/Graphics/SVG/1.1/DTD/svg11.dtd">
<svg version="1.1" id="Warstwa_1" xmlns="http://www.w3.org/2000/svg" xmlns:xlink="http://www.w3.org/1999/xlink" x="0px" y="0px"
	 viewBox="0 -5 67 67" enable-background="new 0 -5 67 67" xml:space="preserve">
<g id="DO_NOT_EDIT_-_BOUNDING_BOX">
	<rect id="BOUNDING_BOX" x="-0.1" y="-5.2" fill="none" width="67.1" height="67.1"/>
</g>
<g id="PLACE_YOUR_GRAPHIC_HERE">
	<g>
		<path opacity="0.3" d="M31.8,54.9c-0.1,0-0.3,0-0.4-0.1c-0.4-0.2-0.6-0.5-0.6-0.9V36.4L24,43.2c-0.2,0.2-0.5,0.3-0.7,0.3
			s-0.5-0.1-0.7-0.3l-2.8-2.8c-0.2-0.2-0.3-0.4-0.3-0.7c0-0.3,0.1-0.5,0.3-0.7l9.7-9.7L20,19.8c-0.4-0.4-0.4-1,0-1.4l2.8-2.8
			c0.2-0.2,0.5-0.3,0.7-0.3s0.5,0.1,0.7,0.3l6.6,6.6V4.7c0-0.4,0.2-0.8,0.6-0.9c0.1-0.1,0.3-0.1,0.4-0.1c0.3,0,0.5,0.1,0.7,0.3
			l14.7,14.6c0.2,0.2,0.3,0.4,0.3,0.7c0,0.3-0.1,0.5-0.3,0.7l-9.3,9.2l9.3,9.2c0.2,0.2,0.3,0.4,0.3,0.7s-0.1,0.5-0.3,0.7L32.5,54.6
			C32.3,54.8,32.1,54.9,31.8,54.9z M36.8,42.1l2.8-2.7l-2.8-2.8V42.1z M36.8,21.9l2.6-2.6l-2.6-2.6V21.9z"/>
		<path opacity="0.3" fill="#FFFFFF" d="M31.8,54.9c-0.1,0-0.3,0-0.4-0.1c-0.4-0.2-0.6-0.5-0.6-0.9V36.4L24,43.2
			c-0.2,0.2-0.5,0.3-0.7,0.3s-0.5-0.1-0.7-0.3l-2.8-2.8c-0.2-0.2-0.3-0.4-0.3-0.7c0-0.3,0.1-0.5,0.3-0.7l9.7-9.7L20,19.8
			c-0.4-0.4-0.4-1,0-1.4l2.8-2.8c0.2-0.2,0.5-0.3,0.7-0.3s0.5,0.1,0.7,0.3l6.6,6.6V4.7c0-0.4,0.2-0.8,0.6-0.9
			c0.1-0.1,0.3-0.1,0.4-0.1c0.3,0,0.5,0.1,0.7,0.3l14.7,14.6c0.2,0.2,0.3,0.4,0.3,0.7c0,0.3-0.1,0.5-0.3,0.7l-9.3,9.2l9.3,9.2
			c0.2,0.2,0.3,0.4,0.3,0.7s-0.1,0.5-0.3,0.7L32.5,54.6C32.3,54.8,32.1,54.9,31.8,54.9z M36.8,42.1l2.8-2.7l-2.8-2.8V42.1z
			 M36.8,21.9l2.6-2.6l-2.6-2.6V21.9z"/>
		<path opacity="0.3" fill="#FFFFFF" d="M31.8,55.9c-0.1,0-0.3,0-0.4-0.1c-0.4-0.2-0.6-0.5-0.6-0.9V37.4L24,44.2
			c-0.2,0.2-0.5,0.3-0.7,0.3s-0.5-0.1-0.7-0.3l-2.8-2.8c-0.2-0.2-0.3-0.4-0.3-0.7c0-0.3,0.1-0.5,0.3-0.7l9.7-9.7L20,20.8
			c-0.4-0.4-0.4-1,0-1.4l2.8-2.8c0.2-0.2,0.5-0.3,0.7-0.3s0.5,0.1,0.7,0.3l6.6,6.6V5.7c0-0.4,0.2-0.8,0.6-0.9
			c0.1-0.1,0.3-0.1,0.4-0.1c0.3,0,0.5,0.1,0.7,0.3l14.7,14.6c0.2,0.2,0.3,0.4,0.3,0.7c0,0.3-0.1,0.5-0.3,0.7l-9.3,9.2l9.3,9.2
			c0.2,0.2,0.3,0.4,0.3,0.7s-0.1,0.5-0.3,0.7L32.5,55.6C32.3,55.8,32.1,55.9,31.8,55.9z M36.8,43.1l2.8-2.7l-2.8-2.8V43.1z
			 M36.8,22.9l2.6-2.6l-2.6-2.6V22.9z"/>
		<rect x="-0.1" y="-5.2" fill="none" width="67.1" height="67.1"/>
		<path opacity="0.15" enable-background="new    " d="M46.5,18.4L31.8,3.7v19.8l-8.3-8.3l-2.8,2.8l10.2,10.2L20.4,38.7l2.8,2.8
			l8.5-8.5v19.9l14.7-14.7l-10-9.9L46.5,18.4z M35.8,13.3l5,5l-5,5V13.3z M41,38.4l-5.2,5.2V33.2L41,38.4z"/>
		<path opacity="0.15" d="M31.8,53.9c-0.1,0-0.3,0-0.4-0.1c-0.4-0.2-0.6-0.5-0.6-0.9V35.4L24,42.2c-0.2,0.2-0.5,0.3-0.7,0.3
			s-0.5-0.1-0.7-0.3l-2.8-2.8c-0.2-0.2-0.3-0.4-0.3-0.7c0-0.3,0.1-0.5,0.3-0.7l9.7-9.7L20,18.8c-0.4-0.4-0.4-1,0-1.4l2.8-2.8
			c0.2-0.2,0.5-0.3,0.7-0.3s0.5,0.1,0.7,0.3l6.6,6.6V3.7c0-0.4,0.2-0.8,0.6-0.9c0.1-0.1,0.3-0.1,0.4-0.1c0.3,0,0.5,0.1,0.7,0.3
			l14.7,14.6c0.2,0.2,0.3,0.4,0.3,0.7c0,0.3-0.1,0.5-0.3,0.7l-9.3,9.2l9.3,9.2c0.2,0.2,0.3,0.4,0.3,0.7s-0.1,0.5-0.3,0.7L32.5,53.6
			C32.3,53.8,32.1,53.9,31.8,53.9z M36.8,41.1l2.8-2.7l-2.8-2.8V41.1z M36.8,20.9l2.6-2.6l-2.6-2.6V20.9z"/>
		<path fill="#FFFFFF" d="M46.5,18.4L31.8,3.7v19.8l-8.3-8.3l-2.8,2.8l10.2,10.2L20.4,38.7l2.8,2.8l8.5-8.5v19.9l14.7-14.7l-10-9.9
			L46.5,18.4z M35.8,13.3l5,5l-5,5V13.3z M41,38.4l-5.2,5.2V33.2L41,38.4z"/>
		<linearGradient id="SVGID_1_" gradientUnits="userSpaceOnUse" x1="33.4746" y1="52.8939" x2="33.4746" y2="3.7233">
			<stop  offset="0" style="stop-color:#D0CBC5"/>
			<stop  offset="0.5031" style="stop-color:#FAFCEF"/>
			<stop  offset="0.9693" style="stop-color:#FFFFFF"/>
		</linearGradient>
		<path fill="url(#SVGID_1_)" d="M46.5,18.4L31.8,3.7v19.8l-8.3-8.3l-2.8,2.8l10.2,10.2L20.4,38.7l2.8,2.8l8.5-8.5v19.9l14.7-14.7
			l-10-9.9L46.5,18.4z M35.8,13.3l5,5l-5,5V13.3z M41,38.4l-5.2,5.2V33.2L41,38.4z"/>
	</g>
</g>
</svg>
