<?xml version="1.0" encoding="utf-8"?>
<!-- Generator: Adobe Illustrator 18.0.0, SVG Export Plug-In . SVG Version: 6.00 Build 0)  -->
<!DOCTYPE svg PUBLIC "-//W3C//DTD SVG 1.1//EN" "http://www.w3.org/Graphics/SVG/1.1/DTD/svg11.dtd">
<svg version="1.1" id="Warstwa_1" xmlns="http://www.w3.org/2000/svg" xmlns:xlink="http://www.w3.org/1999/xlink" x="0px" y="0px"
	 viewBox="0 90 612 612" enable-background="new 0 90 612 612" xml:space="preserve">
<rect x="0" y="130.7" fill="none" width="612" height="520.7"/>
<path opacity="0.15" enable-background="new    " d="M306.9,570.9c-26.5,0-48.4-21.9-48.4-48.4c0-26.5,21.9-48.4,48.4-48.4
	c26.5,0,48.4,21.9,48.4,48.4C355.3,549,334.3,570.9,306.9,570.9L306.9,570.9z M389.1,482.3c-8.2,0-15.5-3.7-20.1-10
	c-16.4-17.4-39.3-27.4-63-27.4c-22.8,0-44.8,9.1-61.2,25.6c-4.6,5.5-11.9,9.1-19.2,9.1c-13.7,0-25.6-11-25.6-25.6
	c0-10,5.5-15.5,6.4-17.4c26.5-27.4,61.2-42.9,99.6-42.9s74,15.5,100.5,43.8c3.7,3.7,8.2,11,8.2,18.3
	C413.8,470.5,402.8,482.3,389.1,482.3L389.1,482.3z M444.8,423c-9.1,0-15.5-4.6-17.4-6.4c-32.9-33.8-75.8-53-121.5-53
	c-44.8,0-87.7,18.3-119.7,51.2c-4.6,4.6-11,8.2-18.3,8.2c-13.7,0-25.6-11-25.6-25.6c0-11,6.4-17.4,8.2-19.2
	c41.1-42,95.9-64.9,154.4-64.9c57.5,0,111.4,22.8,152.5,63.9c2.7,2.7,11,9.1,11,20.1C469.5,411.1,458.5,423,444.8,423L444.8,423z
	 M499.6,362.7c-7.3,0-12.8-3.7-14.6-4.6c-0.9,0-0.9-0.9-1.8-0.9c-47.5-49.3-110.5-75.8-177.2-75.8s-128.8,26.5-175.4,74
	c-2.7,3.7-9.1,8.2-18.3,8.2c-13.7,0-25.6-11-25.6-25.6c0-7.3,2.7-13.7,8.2-19.2c55.7-56.6,130.6-88.6,211-88.6
	c78.6,0,152.5,31.1,209.2,86.8c1.8,0,2.7,0.9,3.7,2.7c1.8,1.8,1.8,2.7,2.7,5.5c2.7,3.7,3.7,8.2,3.7,12.8
	C525.2,351.7,514.3,362.7,499.6,362.7L499.6,362.7z"/>
<path opacity="0.3" enable-background="new    " d="M306.9,492.4c-21.9,0-39.3,17.4-39.3,39.3c0,21.9,17.4,39.3,39.3,39.3
	c21.9,0,39.3-17.4,39.3-39.3C347.1,509.7,328.8,492.4,306.9,492.4z M306,412.9c-35.6,0-68.5,13.7-92.3,39.3c0,0-3.7,4.6-3.7,11
	c0,9.1,7.3,16.4,16.4,16.4c4.6,0,9.1-2.7,11.9-5.5c18.3-18.3,42.9-29.2,68.5-29.2c26.5,0,52.1,11,70.3,30.1
	c2.7,4.6,8.2,7.3,12.8,7.3c9.1,0,16.4-7.3,16.4-16.4c0-4.6-3.7-10-5.5-11.9C375.4,427.5,341.6,412.9,306,412.9z M453.1,393.7
	c-39.3-39.3-91.3-61.2-147.1-61.2c-56.6,0-108.7,21.9-148,62.1c-0.9,0.9-5.5,4.6-5.5,11.9c0,9.1,7.3,16.4,16.4,16.4
	c4.6,0,9.1-1.8,11.9-5.5c33.8-34.7,78.6-53.9,126.1-53.9c48.4,0,93.2,19.2,127,54.8c0.9,0,4.6,3.7,11,3.7c9.1,0,16.4-7.3,16.4-16.4
	C460.4,399.2,454.9,395.6,453.1,393.7z M512.4,337.1v-1.8h-1.8l0,0c-54.8-55.7-127-85.9-204.6-85.9s-149.8,30.1-204.6,85.9
	c-3.7,3.7-5.5,7.3-5.5,11.9c0,9.1,7.3,16.4,16.4,16.4c7.3,0,11.9-4.6,11.9-5.5c48.4-49.3,113.3-76.7,181.8-76.7
	c69.4,0,134.3,28.3,183.6,78.6c0.9,0,4.6,3.7,10,3.7c9.1,0,16.4-7.3,16.4-16.4C516.1,343.5,515.2,339.8,512.4,337.1z"/>
<linearGradient id="SVGID_1_" gradientUnits="userSpaceOnUse" x1="33.5" y1="781.2" x2="33.5" y2="745.923" gradientTransform="matrix(9.1343 0 0 9.1343 3.051758e-005 -6573.9248)">
	<stop  offset="0" style="stop-color:#5C5C5C"/>
	<stop  offset="1" style="stop-color:#000000"/>
</linearGradient>
<path fill="url(#SVGID_1_)" d="M306.9,483.3c-21.9,0-39.3,17.4-39.3,39.3s17.4,39.3,39.3,39.3c21.9,0,39.3-17.4,39.3-39.3
	S328.8,483.3,306.9,483.3z M306,403.8c-35.6,0-68.5,13.7-92.3,39.3c0,0-3.7,4.6-3.7,11c0,9.1,7.3,16.4,16.4,16.4
	c4.6,0,9.1-2.7,11.9-5.5c18.3-18.3,42.9-29.2,68.5-29.2c26.5,0,52.1,11,70.3,30.1c2.7,4.6,8.2,7.3,12.8,7.3
	c9.1,0,16.4-7.3,16.4-16.4c0-4.6-3.7-10-5.5-11.9C375.4,418.4,341.6,403.8,306,403.8z M453.1,383.7c-39.3-39.3-91.3-61.2-147.1-61.2
	c-56.6,0-108.7,21.9-148,62.1c-0.9,0.9-5.5,4.6-5.5,11.9c0,9.1,7.3,16.4,16.4,16.4c4.6,0,9.1-1.8,11.9-5.5
	c33.8-34.7,78.6-53.9,126.1-53.9c48.4,0,93.2,19.2,127,54.8c0.9,0,4.6,3.7,11,3.7c9.1,0,16.4-7.3,16.4-16.4
	C460.4,390.1,454.9,385.5,453.1,383.7z M512.4,328v-1.8h-1.8l0,0c-54.8-55.7-127-85.9-204.6-85.9s-149.8,30.1-204.6,85.9
	c-3.7,3.7-5.5,7.3-5.5,11.9c0,9.1,7.3,16.4,16.4,16.4c7.3,0,11.9-4.6,11.9-5.5c48.4-49.3,113.3-76.7,181.8-76.7
	c69.4,0,134.3,28.3,183.6,78.6c0.9,0,4.6,3.7,10,3.7c9.1,0,16.4-7.3,16.4-16.4C516.1,334.4,515.2,330.7,512.4,328z"/>
</svg>
