<?xml version="1.0" encoding="utf-8"?>
<!-- Generator: Adobe Illustrator 18.0.0, SVG Export Plug-In . SVG Version: 6.00 Build 0)  -->
<!DOCTYPE svg PUBLIC "-//W3C//DTD SVG 1.1//EN" "http://www.w3.org/Graphics/SVG/1.1/DTD/svg11.dtd">
<svg version="1.1" id="Warstwa_1" xmlns="http://www.w3.org/2000/svg" xmlns:xlink="http://www.w3.org/1999/xlink" x="0px" y="0px"
	 viewBox="0 -5 67 67" enable-background="new 0 -5 67 67" xml:space="preserve">
<rect fill="none" width="67" height="57"/>
<path opacity="0.15" enable-background="new    " d="M33.6,48.2c-2.9,0-5.3-2.4-5.3-5.3s2.4-5.3,5.3-5.3c2.9,0,5.3,2.4,5.3,5.3
	S36.6,48.2,33.6,48.2L33.6,48.2z M42.6,38.5c-0.9,0-1.7-0.4-2.2-1.1c-1.8-1.9-4.3-3-6.9-3c-2.5,0-4.9,1-6.7,2.8
	c-0.5,0.6-1.3,1-2.1,1c-1.5,0-2.8-1.2-2.8-2.8c0-1.1,0.6-1.7,0.7-1.9c2.9-3,6.7-4.7,10.9-4.7c4.2,0,8.1,1.7,11,4.8
	c0.4,0.4,0.9,1.2,0.9,2C45.3,37.2,44.1,38.5,42.6,38.5L42.6,38.5z M48.7,32c-1,0-1.7-0.5-1.9-0.7c-3.6-3.7-8.3-5.8-13.3-5.8
	c-4.9,0-9.6,2-13.1,5.6c-0.5,0.5-1.2,0.9-2,0.9c-1.5,0-2.8-1.2-2.8-2.8c0-1.2,0.7-1.9,0.9-2.1c4.5-4.6,10.5-7.1,16.9-7.1
	c6.3,0,12.2,2.5,16.7,7c0.3,0.3,1.2,1,1.2,2.2C51.4,30.7,50.2,32,48.7,32L48.7,32z M54.7,25.4c-0.8,0-1.4-0.4-1.6-0.5
	c-0.1,0-0.1-0.1-0.2-0.1c-5.2-5.4-12.1-8.3-19.4-8.3c-7.3,0-14.1,2.9-19.2,8.1c-0.3,0.4-1,0.9-2,0.9c-1.5,0-2.8-1.2-2.8-2.8
	c0-0.8,0.3-1.5,0.9-2.1c6.1-6.2,14.3-9.7,23.1-9.7c8.6,0,16.7,3.4,22.9,9.5c0.2,0,0.3,0.1,0.4,0.3c0.2,0.2,0.2,0.3,0.3,0.6
	c0.3,0.4,0.4,0.9,0.4,1.4C57.5,24.2,56.3,25.4,54.7,25.4L54.7,25.4z"/>
<path opacity="0.3" enable-background="new    " d="M33.6,39.6c-2.4,0-4.3,1.9-4.3,4.3c0,2.4,1.9,4.3,4.3,4.3c2.4,0,4.3-1.9,4.3-4.3
	C38,41.5,36,39.6,33.6,39.6z M33.5,30.9c-3.9,0-7.5,1.5-10.1,4.3c0,0-0.4,0.5-0.4,1.2c0,1,0.8,1.8,1.8,1.8c0.5,0,1-0.3,1.3-0.6
	c2-2,4.7-3.2,7.5-3.2c2.9,0,5.7,1.2,7.7,3.3c0.3,0.5,0.9,0.8,1.4,0.8c1,0,1.8-0.8,1.8-1.8c0-0.5-0.4-1.1-0.6-1.3
	C41.1,32.5,37.4,30.9,33.5,30.9z M49.6,28.8c-4.3-4.3-10-6.7-16.1-6.7c-6.2,0-11.9,2.4-16.2,6.8c-0.1,0.1-0.6,0.5-0.6,1.3
	c0,1,0.8,1.8,1.8,1.8c0.5,0,1-0.2,1.3-0.6c3.7-3.8,8.6-5.9,13.8-5.9c5.3,0,10.2,2.1,13.9,6c0.1,0,0.5,0.4,1.2,0.4
	c1,0,1.8-0.8,1.8-1.8C50.4,29.4,49.8,29,49.6,28.8z M56.1,22.6l0-0.2h-0.2c0,0,0,0,0,0C49.9,16.3,42,13,33.5,13
	c-8.5,0-16.4,3.3-22.4,9.4c-0.4,0.4-0.6,0.8-0.6,1.3c0,1,0.8,1.8,1.8,1.8c0.8,0,1.3-0.5,1.3-0.6c5.3-5.4,12.4-8.4,19.9-8.4
	c7.6,0,14.7,3.1,20.1,8.6c0.1,0,0.5,0.4,1.1,0.4c1,0,1.8-0.8,1.8-1.8C56.5,23.3,56.4,22.9,56.1,22.6z"/>
<linearGradient id="SVGID_1_" gradientUnits="userSpaceOnUse" x1="33.5" y1="10.766" x2="33.5" y2="46.043" gradientTransform="matrix(1 0 0 -1 0 58)">
	<stop  offset="0" style="stop-color:#D0CBC5"/>
	<stop  offset="0.5031" style="stop-color:#FAFCEF"/>
	<stop  offset="0.9693" style="stop-color:#FFFFFF"/>
</linearGradient>
<path fill="url(#SVGID_1_)" d="M33.6,38.6c-2.4,0-4.3,1.9-4.3,4.3s1.9,4.3,4.3,4.3c2.4,0,4.3-1.9,4.3-4.3S36,38.6,33.6,38.6z
	 M33.5,29.9c-3.9,0-7.5,1.5-10.1,4.3c0,0-0.4,0.5-0.4,1.2c0,1,0.8,1.8,1.8,1.8c0.5,0,1-0.3,1.3-0.6c2-2,4.7-3.2,7.5-3.2
	c2.9,0,5.7,1.2,7.7,3.3c0.3,0.5,0.9,0.8,1.4,0.8c1,0,1.8-0.8,1.8-1.8c0-0.5-0.4-1.1-0.6-1.3C41.1,31.5,37.4,29.9,33.5,29.9z
	 M49.6,27.7c-4.3-4.3-10-6.7-16.1-6.7c-6.2,0-11.9,2.4-16.2,6.8c-0.1,0.1-0.6,0.5-0.6,1.3c0,1,0.8,1.8,1.8,1.8c0.5,0,1-0.2,1.3-0.6
	c3.7-3.8,8.6-5.9,13.8-5.9c5.3,0,10.2,2.1,13.9,6c0.1,0,0.5,0.4,1.2,0.4c1,0,1.8-0.8,1.8-1.8C50.4,28.4,49.8,27.9,49.6,27.7z
	 M56.1,21.6l0-0.2h-0.2c0,0,0,0,0,0C49.9,15.3,42,12,33.5,12c-8.5,0-16.4,3.3-22.4,9.4c-0.4,0.4-0.6,0.8-0.6,1.3
	c0,1,0.8,1.8,1.8,1.8c0.8,0,1.3-0.5,1.3-0.6c5.3-5.4,12.4-8.4,19.9-8.4c7.6,0,14.7,3.1,20.1,8.6c0.1,0,0.5,0.4,1.1,0.4
	c1,0,1.8-0.8,1.8-1.8C56.5,22.3,56.4,21.9,56.1,21.6z"/>
<path fill="#FFFFFF" d="M33.6,38.6c-2.4,0-4.3,1.9-4.3,4.3c0,0.2,0,0.3,0.1,0.5c0.3-2.1,2.1-3.8,4.3-3.8c2.2,0,4,1.7,4.3,3.8
	c0-0.2,0.1-0.3,0.1-0.5C38,40.5,36,38.6,33.6,38.6z M33.5,29.9c-3.9,0-7.5,1.5-10.1,4.3c0,0-0.4,0.5-0.4,1.2c0,0.2,0,0.4,0.1,0.5
	c0.1-0.4,0.3-0.6,0.4-0.7c2.7-2.8,6.3-4.3,10.1-4.3c3.9,0,7.6,1.6,10.3,4.5c0.1,0.1,0.3,0.5,0.5,0.9c0.1-0.2,0.1-0.4,0.1-0.6
	c0-0.5-0.4-1.1-0.6-1.3C41.1,31.5,37.4,29.9,33.5,29.9z M56.1,21.6l0-0.2h-0.2c0,0,0,0,0,0C49.9,15.3,42,12,33.5,12
	c-8.5,0-16.4,3.3-22.4,9.4c-0.4,0.4-0.6,0.8-0.6,1.3c0,0.2,0,0.4,0.1,0.5c0.1-0.3,0.3-0.6,0.5-0.8c6-6.1,13.9-9.4,22.4-9.4
	c8.5,0,16.4,3.3,22.4,9.4c0,0,0,0,0,0h0.2l0,0.2c0.1,0.2,0.2,0.4,0.3,0.6c0.1-0.2,0.1-0.3,0.1-0.5C56.5,22.3,56.4,21.9,56.1,21.6z
	 M49.6,27.7c-4.3-4.3-10-6.7-16.1-6.7c-6.2,0-11.9,2.4-16.2,6.8c-0.1,0.1-0.6,0.5-0.6,1.3c0,0.2,0,0.4,0.1,0.5
	c0.2-0.5,0.5-0.8,0.5-0.8c4.3-4.4,10.1-6.8,16.2-6.8c6.1,0,11.8,2.4,16.1,6.7c0.2,0.2,0.6,0.5,0.8,1c0.1-0.2,0.1-0.3,0.1-0.5
	C50.4,28.4,49.8,27.9,49.6,27.7z"/>
</svg>
