<?xml version="1.0" encoding="utf-8"?>
<!-- Generator: Adobe Illustrator 18.0.0, SVG Export Plug-In . SVG Version: 6.00 Build 0)  -->
<!DOCTYPE svg PUBLIC "-//W3C//DTD SVG 1.1//EN" "http://www.w3.org/Graphics/SVG/1.1/DTD/svg11.dtd">
<svg version="1.1" id="Warstwa_1" xmlns="http://www.w3.org/2000/svg" xmlns:xlink="http://www.w3.org/1999/xlink" x="0px" y="0px"
	 width="30px" height="30px" viewBox="0 0 30 30" enable-background="new 0 0 30 30" xml:space="preserve">
<g id="DO_NOT_EDIT_-_BOUNDING_BOX">
	<rect id="BOUNDING_BOX" fill="none" width="30" height="30"/>
</g>
<g id="PLACE_YOUR_GRAPHIC_HERE">
	<g>
		<path fill="#FFFFFF" enable-background="new    " d="M25.4,6.2c-3.1-3.1-8.2-3.1-11.3,0L4,16.2c-2.2,2.2-2.2,5.9,0,8.1
			c2.2,2.2,5.9,2.2,8.1,0l9.7-9.7c1.4-1.4,1.4-3.6,0-5c-1.4-1.4-3.6-1.4-4.9,0l-9.5,9.5L9.1,21l9.5-9.5c0.4-0.4,1-0.4,1.4,0
			c0.4,0.4,0.4,1,0,1.4l-9.7,9.7c-1.3,1.3-3.3,1.3-4.6,0c-1.3-1.3-1.3-3.3,0-4.6L15.8,7.9c2.1-2.1,5.6-2.1,7.8,0
			c2.1,2.1,2.1,5.6,0,7.8l-9.9,9.9l1.8,1.8l9.9-9.9C28.5,14.4,28.5,9.3,25.4,6.2z"/>
		<rect fill="none" width="30" height="30"/>
		<path opacity="0.15" enable-background="new    " d="M24.9,5.1C21.8,2,16.7,2,13.6,5.1L3.5,15.2c-2.2,2.2-2.2,5.9,0,8.1
			c2.2,2.2,5.9,2.2,8.1,0l9.7-9.7c1.4-1.4,1.4-3.6,0-5c-1.4-1.4-3.6-1.4-4.9,0l-9.5,9.5L8.6,20l9.5-9.5c0.4-0.4,1-0.4,1.4,0
			c0.4,0.4,0.4,1,0,1.4l-9.7,9.7c-1.3,1.3-3.3,1.3-4.6,0c-1.3-1.3-1.3-3.3,0-4.6L15.4,6.9c2.1-2.1,5.6-2.1,7.8,0
			c2.1,2.1,2.1,5.6,0,7.8l-9.9,9.9l1.8,1.8l9.9-9.9C28,13.3,28,8.2,24.9,5.1z"/>
		<linearGradient id="SVGID_1_" gradientUnits="userSpaceOnUse" x1="1.833" y1="14.5402" x2="27.232" y2="14.5402">
			<stop  offset="0" style="stop-color:#5C5C5C"/>
			<stop  offset="1" style="stop-color:#000000"/>
		</linearGradient>
		<path fill="url(#SVGID_1_)" d="M24.9,5.1C21.8,2,16.7,2,13.6,5.1L3.5,15.2c-2.2,2.2-2.2,5.9,0,8.1c2.2,2.2,5.9,2.2,8.1,0l9.7-9.7
			c1.4-1.4,1.4-3.6,0-5c-1.4-1.4-3.6-1.4-4.9,0l-9.5,9.5L8.6,20l9.5-9.5c0.4-0.4,1-0.4,1.4,0c0.4,0.4,0.4,1,0,1.4l-9.7,9.7
			c-1.3,1.3-3.3,1.3-4.6,0c-1.3-1.3-1.3-3.3,0-4.6L15.4,6.9c2.1-2.1,5.6-2.1,7.8,0c2.1,2.1,2.1,5.6,0,7.8l-9.9,9.9l1.8,1.8l9.9-9.9
			C28,13.3,28,8.2,24.9,5.1z"/>
	</g>
</g>
</svg>
