<?xml version="1.0" encoding="utf-8"?>
<!-- Generator: Adobe Illustrator 16.0.3, SVG Export Plug-In . SVG Version: 6.00 Build 0)  -->
<!DOCTYPE svg PUBLIC "-//W3C//DTD SVG 1.1//EN" "http://www.w3.org/Graphics/SVG/1.1/DTD/svg11.dtd">
<svg version="1.1" xmlns="http://www.w3.org/2000/svg" xmlns:xlink="http://www.w3.org/1999/xlink" x="0px" y="0px" width="96px"
	 height="96px" viewBox="0 0 96 96" enable-background="new 0 0 96 96" xml:space="preserve">
<g id="Warstwa_1">
</g>
<g id="Warstwa_2">
	<g id="Warstwa_1_2_">
		<g>
			
				<linearGradient id="SVGID_1_" gradientUnits="userSpaceOnUse" x1="181.542" y1="-191.5991" x2="181.542" y2="-160.7612" gradientTransform="matrix(1 0 0 -1 -100.96 -95.5996)">
				<stop  offset="0" style="stop-color:#BF0000"/>
				<stop  offset="1" style="stop-color:#FF0000"/>
			</linearGradient>
			<path fill="url(#SVGID_1_)" d="M96,89.465C96,93.058,93.058,96,89.465,96H71.697c-3.596,0-6.535-2.942-6.535-6.535V71.697
				c0-3.596,2.939-6.535,6.535-6.535h17.768c3.593,0,6.535,2.939,6.535,6.535V89.465z"/>
			
				<linearGradient id="SVGID_2_" gradientUnits="userSpaceOnUse" x1="181.542" y1="-191.8491" x2="181.542" y2="-160.5112" gradientTransform="matrix(1 0 0 -1 -100.96 -95.5996)">
				<stop  offset="0" style="stop-color:#620000"/>
				<stop  offset="1" style="stop-color:#FF0000"/>
			</linearGradient>
			<path fill="none" stroke="url(#SVGID_2_)" stroke-width="0.5" stroke-miterlimit="10" d="M96,89.465
				C96,93.058,93.058,96,89.465,96H71.697c-3.596,0-6.535-2.942-6.535-6.535V71.697c0-3.596,2.939-6.535,6.535-6.535h17.768
				c3.593,0,6.535,2.939,6.535,6.535V89.465z"/>
		</g>
	</g>
	<g id="Warstwa_2_2_">
	</g>
</g>
</svg>
