<?xml version="1.0" encoding="utf-8"?>
<!-- Generator: Adobe Illustrator 17.1.0, SVG Export Plug-In . SVG Version: 6.00 Build 0)  -->
<!DOCTYPE svg PUBLIC "-//W3C//DTD SVG 1.1//EN" "http://www.w3.org/Graphics/SVG/1.1/DTD/svg11.dtd">
<svg version="1.1" id="Warstwa_1" xmlns="http://www.w3.org/2000/svg" xmlns:xlink="http://www.w3.org/1999/xlink" x="0px" y="0px"
	 viewBox="0 0 96 96" enable-background="new 0 0 96 96" xml:space="preserve">
<g id="DO_NOT_EDIT_-_BOUNDING_BOX">
	<rect id="BOUNDING_BOX" fill="none" width="96" height="96"/>
</g>
<g id="DO_NOT_EDIT_-_FOCAL_ZONE_GUIDES_ONLY">
</g>
<g>
	
		<linearGradient id="SVGID_1_" gradientUnits="userSpaceOnUse" x1="56.6579" y1="89.99" x2="56.6579" y2="10.011" gradientTransform="matrix(1 0 0 -1 0 98)">
		<stop  offset="3.640000e-002" style="stop-color:#949494"/>
		<stop  offset="0.594" style="stop-color:#767676"/>
		<stop  offset="1" style="stop-color:#5E5E5E"/>
	</linearGradient>
	<path fill="url(#SVGID_1_)" d="M48,88c25.2,0,36.5-7.5,39.3-28L26,84.8C31.7,87,39,88,48,88z"/>
	
		<linearGradient id="SVGID_2_" gradientUnits="userSpaceOnUse" x1="46.5977" y1="89.99" x2="46.5977" y2="10.011" gradientTransform="matrix(1 0 0 -1 0 98)">
		<stop  offset="3.640000e-002" style="stop-color:#949494"/>
		<stop  offset="0.594" style="stop-color:#767676"/>
		<stop  offset="1" style="stop-color:#5E5E5E"/>
	</linearGradient>
	<path fill="url(#SVGID_2_)" d="M80.7,18.7L8,48.2c0,3.6,0.2,6.9,0.5,9.9L85.2,27C84.1,23.8,82.6,21,80.7,18.7z"/>
	
		<linearGradient id="SVGID_3_" gradientUnits="userSpaceOnUse" x1="39.3486" y1="89.99" x2="39.3486" y2="10.011" gradientTransform="matrix(1 0 0 -1 0 98)">
		<stop  offset="3.640000e-002" style="stop-color:#949494"/>
		<stop  offset="0.594" style="stop-color:#767676"/>
		<stop  offset="1" style="stop-color:#5E5E5E"/>
	</linearGradient>
	<path fill="url(#SVGID_3_)" d="M49.9,8h-3.8C22.2,8.4,11.5,16,8.7,36L70,11.1C64.7,9.1,58.1,8.1,49.9,8z"/>
	
		<linearGradient id="SVGID_4_" gradientUnits="userSpaceOnUse" x1="49.4033" y1="89.99" x2="49.4033" y2="10.011" gradientTransform="matrix(1 0 0 -1 0 98)">
		<stop  offset="3.640000e-002" style="stop-color:#949494"/>
		<stop  offset="0.594" style="stop-color:#767676"/>
		<stop  offset="1" style="stop-color:#5E5E5E"/>
	</linearGradient>
	<path fill="url(#SVGID_4_)" d="M10.8,69c1.1,3.2,2.6,6,4.5,8.3L88,47.8c0-3.6-0.2-6.9-0.5-9.9L10.8,69z"/>
</g>
</svg>
