<?xml version="1.0" encoding="utf-8"?>
<!-- Generator: Adobe Illustrator 16.0.3, SVG Export Plug-In . SVG Version: 6.00 Build 0)  -->
<!DOCTYPE svg PUBLIC "-//W3C//DTD SVG 1.1//EN" "http://www.w3.org/Graphics/SVG/1.1/DTD/svg11.dtd">
<svg version="1.1" xmlns="http://www.w3.org/2000/svg" xmlns:xlink="http://www.w3.org/1999/xlink" x="0px" y="0px" width="96px"
	 height="96px" viewBox="0 0 96 96" enable-background="new 0 0 96 96" xml:space="preserve">
<g id="DO_NOT_EDIT_-_BOUNDING_BOX">
	<rect id="BOUNDING_BOX" fill="none" width="96" height="96"/>
</g>
<g id="DO_NOT_EDIT_-_SHADOW" display="none">
	<path id="SHADOW" display="inline" opacity="0.4" d="M88.023,49c0,29.633-10.364,40-40,40c-29.635,0-40-10.367-40-40
		c0-29.634,10.366-40,40-40C77.659,9,88.023,19.365,88.023,49z"/>
</g>
<g id="ORANGE_BACKGROUNDS">
	<linearGradient id="RED_x2F_ORANGE_1_2_" gradientUnits="userSpaceOnUse" x1="47.9995" y1="8.0107" x2="47.9995" y2="87.9897">
		<stop  offset="0.0364" style="stop-color:#FF6B00"/>
		<stop  offset="0.3522" style="stop-color:#FF5200"/>
		<stop  offset="1" style="stop-color:#FF1500"/>
	</linearGradient>
	<path id="RED_x2F_ORANGE_1_1_" fill="url(#RED_x2F_ORANGE_1_2_)" d="M8,47.988c0,29.634,10.365,40.001,40,40.001
		c29.637,0,40-10.367,40-40.001c0-28.984-9.926-39.529-38.091-39.978h-3.817C17.928,8.459,8,19.004,8,47.988z"/>
</g>
<g id="PLACE_YOUR_GRAPHIC_HERE">
	<path fill-rule="evenodd" clip-rule="evenodd" fill="#FFFFFF" d="M48.17,52.914c-6.62,0-13.239,0.011-19.858-0.002
		c-3.458-0.009-6.792-0.788-6.956-4.886c-0.186-4.568,3.31-5.469,7.048-5.474c13.237-0.021,26.477-0.013,39.713,0
		c3.458,0.003,6.792,0.796,6.958,4.888c0.186,4.57-3.307,5.452-7.05,5.466C61.406,52.931,54.788,52.914,48.17,52.914z"/>
</g>
<g id="DO_NOT_EDIT_-_FOCAL_ZONE_GUIDES_ONLY">
</g>
</svg>
