<?xml version="1.0" encoding="utf-8"?>
<!-- Generator: Adobe Illustrator 17.1.0, SVG Export Plug-In . SVG Version: 6.00 Build 0)  -->
<!DOCTYPE svg PUBLIC "-//W3C//DTD SVG 1.1//EN" "http://www.w3.org/Graphics/SVG/1.1/DTD/svg11.dtd">
<svg version="1.1" id="Warstwa_1" xmlns="http://www.w3.org/2000/svg" xmlns:xlink="http://www.w3.org/1999/xlink" x="0px" y="0px"
	 viewBox="0 0 110 110" enable-background="new 0 0 110 110" xml:space="preserve">
<g id="DO_NOT_EDIT_-_BOUNDING_BOX">
	<rect id="BOUNDING_BOX" fill="none" width="110" height="110"/>
</g>
<path fill="#EA2227" d="M7.3,106.3c-1.1,0-1.8-0.4-2.6-1.1c-1.5-1.5-1.5-3.7,0-5.1l95.3-95.3c1.5-1.5,3.7-1.5,5.1,0s1.5,3.7,0,5.1
	L9.9,105.2C9.2,106,8.4,106.3,7.3,106.3L7.3,106.3z"/>
<g>
	<path opacity="0.15" enable-background="new    " d="M110,37.8c-0.4-2.9-2.2-5.1-3.3-5.9c-2.9-2.9-8.4-3.7-10.3-3.7
		c-1.8-0.4-3.3-0.7-4.8-1.1l0,0c1.5,0.4,2.9,0.7,4.4,1.1c0,0,5.9,0.4,8.1,2.9c0,0,2.9,2.2,1.5,5.5c0.7,1.5,0.7,3.7-1.8,6.2
		L83.6,63.1c4,2.2,6.6,6.2,6.6,11c0,0.7,0,1.1,0,1.8c0,0.7,0,1.5,0,1.8c0,7-5.9,12.8-12.8,12.8c-5.9,0-10.6-4-12.1-9.2l-22.7,22.7
		c-4.8,4.8-8.1,0.4-8.1,0.4c-2.6-2.2-2.9-8.1-2.9-8.1c-0.4-2.6-1.1-5.1-1.8-7.3L26.8,92c0.4,1.5,1.1,2.9,1.1,4.8
		c0,1.5,0.7,7,3.7,10.3c0.7,1.1,2.9,3.3,6.6,3.3c2.6,0,4.8-1.1,7-3.3L64.2,88c2.9,4,7.7,6.6,13.2,6.6c9.2,0,16.5-7.3,16.5-16.5
		c0-5.5-2.6-10.3-6.6-13.2l19.1-19.1C109.6,42.2,110,39.6,110,37.8z"/>
	<path opacity="0.15" enable-background="new    " d="M11,61.2C5.1,52.1,3.3,44,3.7,37c-0.4-6.6,1.5-12.1,3.7-16.1
		c-1.8-1.8-3.3-4.4-3.3-7c0-0.7,0-1.5,0.4-1.8C4.4,11.7,4,11,4,10.3c0-4.8,3.3-8.4,7.7-9.5C5.5,1.5,0.4,7,0.4,13.9
		c0,3.3,1.1,6.6,3.7,8.8c-4.4,8.4-7.7,22.7,4,40.7l12.5,17.2l2.6-2.6L11,61.2z"/>
	<path opacity="0.15" enable-background="new    " d="M38.9,0L38.9,0c0,0,0.4,0,0.7,0C39.6,0,39.2,0,38.9,0z"/>
	<path opacity="0.15" enable-background="new    " d="M22,5.1c3.3-2.2,8.1-4,13.6-4.8C31.2,0.7,27.1,2.2,23.1,4
		c-2.6-2.2-5.5-3.7-8.8-3.7C17.2,0.4,20.2,2.2,22,5.1z"/>
	<path opacity="0.15" enable-background="new    " d="M79.9,20.9L79.9,20.9l0.7-0.4L63.4,8.1c-5.5-3.7-11.4-5.9-16.9-7.3
		c4.4,1.1,9.5,2.9,14.7,6.6L79.9,20.9z"/>
	<path opacity="0.3" enable-background="new    " d="M7.3,20.9c-2.2,4.4-4,9.9-3.7,16.5C4,30.8,6.2,25.7,8.8,22
		C8.1,21.6,7.7,21.3,7.3,20.9z"/>
	<path opacity="0.15" enable-background="new    " d="M7.3,20.9c-2.2,4.4-4,9.9-3.7,16.5C4,30.8,6.2,25.7,8.8,22
		C8.1,21.6,7.7,21.3,7.3,20.9z"/>
	<path opacity="0.3" enable-background="new    " d="M4,10.3c0,0.7,0,1.1,0.4,1.8C5.1,7.3,9.2,4,13.9,4c3.3,0,6.6,1.8,8.1,4.4
		c7.7-4.8,21.6-8.8,39.2,2.6l16.9,12.1l2.2-2.2l0,0L61.2,7.3C56.1,3.7,51,1.8,46.6,0.7c-1.1-0.4-2.2-0.4-3.3-0.7c0,0,0,0-0.4,0
		c-0.7,0-1.1,0-1.8,0c-0.4,0-1.1,0-1.5,0c-0.4,0-0.7,0-1.1,0c-1.1,0-2.2,0-3.3,0.4C29.7,0.7,25.3,2.9,22,5.1
		c-1.8-2.9-4.8-4.8-8.1-4.8c-0.7,0-1.5,0-1.8,0.4C7.3,1.5,4,5.5,4,10.3z"/>
	<path opacity="0.15" enable-background="new    " d="M4,10.3c0,0.7,0,1.1,0.4,1.8C5.1,7.3,9.2,4,13.9,4c3.3,0,6.6,1.8,8.1,4.4
		c7.7-4.8,21.6-8.8,39.2,2.6l16.9,12.1l2.2-2.2l0,0L61.2,7.3C56.1,3.7,51,1.8,46.6,0.7c-1.1-0.4-2.2-0.4-3.3-0.7c0,0,0,0-0.4,0
		c-0.7,0-1.1,0-1.8,0c-0.4,0-1.1,0-1.5,0c-0.4,0-0.7,0-1.1,0c-1.1,0-2.2,0-3.3,0.4C29.7,0.7,25.3,2.9,22,5.1
		c-1.8-2.9-4.8-4.8-8.1-4.8c-0.7,0-1.5,0-1.8,0.4C7.3,1.5,4,5.5,4,10.3z"/>
	<path opacity="0.3" enable-background="new    " d="M81.4,65.6c4.8,1.5,8.1,5.5,8.8,10.3c0-0.4,0-1.1,0-1.8c0-4.8-2.6-8.8-6.6-11
		L81.4,65.6L81.4,65.6z"/>
	<path opacity="0.15" enable-background="new    " d="M81.4,65.6c4.8,1.5,8.1,5.5,8.8,10.3c0-0.4,0-1.1,0-1.8c0-4.8-2.6-8.8-6.6-11
		L81.4,65.6L81.4,65.6z"/>
	<path opacity="0.3" enable-background="new    " d="M104.5,34.5c0,0,1.1,0.7,1.5,1.8c1.5-3.3-1.5-5.5-1.5-5.5
		c-2.2-2.6-8.1-2.9-8.1-2.9c-1.5-0.4-2.9-0.7-4.4-1.1l-2.6,2.6c2.2,0.7,4.8,1.5,7.3,1.8C96.4,31.9,101.9,31.9,104.5,34.5z"/>
	<path opacity="0.15" enable-background="new    " d="M104.5,34.5c0,0,1.1,0.7,1.5,1.8c1.5-3.3-1.5-5.5-1.5-5.5
		c-2.2-2.6-8.1-2.9-8.1-2.9c-1.5-0.4-2.9-0.7-4.4-1.1l-2.6,2.6c2.2,0.7,4.8,1.5,7.3,1.8C96.4,31.9,101.9,31.9,104.5,34.5z"/>
	<path fill="#FFFFFF" d="M81.8,61.6L81.8,61.6c0.7,0.7,1.5,1.1,2.2,1.5l20.2-20.2c2.6-2.6,2.6-4.8,1.8-6.2c-0.4,0.7-1.1,1.5-1.8,2.6
		L81.8,61.6z"/>
	<path fill="#FFFFFF" d="M4.4,11.7c0,0.7-0.4,1.5-0.4,1.8c0,2.9,1.1,5.1,3.3,7c0.4-0.7,0.7-1.5,1.5-2.2C6.6,16.9,4.8,14.3,4.4,11.7z
		"/>
	<path fill="#FFFFFF" d="M34.5,104.5c0,0,3.3,4.8,8.1-0.4l22.7-22.7c1.5,5.1,6.2,9.2,12.1,9.2c7,0,12.8-5.9,12.8-12.8
		c0-0.7,0-1.5,0-1.8c-0.7,6.2-6.2,11-12.5,11c-5.9,0-10.6-4-12.1-9.2l-22.7,22.7c-4.8,4.8-8.1,0.4-8.1,0.4c-2.6-2.2-2.9-8.1-2.9-8.1
		c-0.4-1.5-0.7-2.9-1.1-4.4l-1.1,1.1c0.7,2.2,1.5,4.8,1.8,7.3C31.9,96.4,31.9,101.9,34.5,104.5z"/>
	<path fill="#FFFFFF" d="M24.6,76.3L11,57.6C5.9,49.9,4,43.3,3.7,37c-0.4,7,1.5,15,7.3,24.2l12.1,16.9L24.6,76.3L24.6,76.3z"/>
	<path d="M34.5,100.8c0,0,3.3,4.8,8.1-0.4l22.7-22.7c1.5,5.1,6.2,9.2,12.1,9.2c6.6,0,11.7-4.8,12.5-11c-0.7-4.8-4.4-8.8-8.8-10.3
		l0.4-0.4l2.2-2.2c-0.7-0.4-1.5-0.7-2.6-1.1l0.4-0.4l22.4-22.4c0.7-0.7,1.5-1.8,1.8-2.6c-0.7-1.1-1.5-1.8-1.5-1.8
		c-2.2-2.6-8.1-2.9-8.1-2.9c-2.6-0.4-5.1-1.1-7.3-1.8L30.8,88c0.4,1.5,0.7,2.9,1.1,4.4C31.9,92.8,31.9,98.3,34.5,100.8z"/>
	<path d="M24.6,76.3L24.6,76.3l53.5-53.2L61.2,11C43.6-0.4,29.7,3.7,22,8.8C20.2,5.9,17.2,4,13.9,4c-4.8,0-8.8,3.3-9.5,7.7
		c0.4,2.6,2.2,5.1,4.4,6.6c-0.7,0.7-1.1,1.5-1.5,2.6c0.4,0.4,0.7,0.7,1.5,1.1C6.2,25.7,4,30.8,3.7,37.4C4,43.3,6.2,50.2,11,57.9
		L24.6,76.3z"/>
</g>
</svg>
