<?xml version="1.0" encoding="utf-8"?>
<!-- Generator: Adobe Illustrator 17.1.0, SVG Export Plug-In . SVG Version: 6.00 Build 0)  -->
<!DOCTYPE svg PUBLIC "-//W3C//DTD SVG 1.1//EN" "http://www.w3.org/Graphics/SVG/1.1/DTD/svg11.dtd">
<svg version="1.1" id="Warstwa_1" xmlns="http://www.w3.org/2000/svg" xmlns:xlink="http://www.w3.org/1999/xlink" x="0px" y="0px"
	 viewBox="0 0 30 30" enable-background="new 0 0 30 30" xml:space="preserve">
<g id="DO_NOT_EDIT_-_BOUNDING_BOX">
	<rect id="BOUNDING_BOX" fill="none" width="30" height="30"/>
</g>
<g id="PLACE_YOUR_GRAPHIC_HERE">
	<path opacity="0.3" enable-background="new    " d="M28.4,10.7c1.3-1.3,0.1-2.2,0.1-2.2c-0.6-0.7-2.2-0.8-2.2-0.8
		c-2.5-0.3-4.4-1.9-4.4-1.9L16.7,2C11.9-1.1,8.1,0,6,1.4C5.5,0.6,4.7,0.1,3.8,0.1c-1.4,0-2.6,1.2-2.6,2.6c0,0.9,0.5,1.8,1.2,2.2
		C1,7.1-0.1,10.9,3,15.7l3.7,5.1c0,0,1.6,1.9,1.9,4.4c0,0,0.1,1.6,0.8,2.2c0,0,0.9,1.3,2.2-0.1l6.2-6.2c0.4,1.4,1.7,2.5,3.3,2.5
		c1.9,0,3.5-1.6,3.5-3.5c0-1.6-1.1-2.9-2.5-3.3l0.1-0.1L28.4,10.7z"/>
	<path opacity="0.15" enable-background="new    " d="M10.5,30c-1,0-1.6-0.6-1.8-0.9c-0.8-0.8-1-2.4-1-2.8C7.4,24.2,6,22.5,6,22.5
		l-3.7-5.2C-1,12.4-0.1,8.5,1.1,6.2c-0.6-0.7-1-1.5-1-2.4c0-2,1.6-3.6,3.6-3.6c0.9,0,1.8,0.3,2.4,1C7.6,0.4,9.1,0,10.6,0
		c2.2,0,4.4,0.7,6.6,2.2l5.2,3.7c0.1,0,1.8,1.4,3.9,1.7c0.4,0,1.9,0.2,2.8,1c0.2,0.2,0.8,0.7,0.9,1.6c0,0.5-0.1,1.3-0.9,2.1
		l-5.2,5.2c1.1,0.8,1.8,2.1,1.8,3.6c0,2.5-2,4.5-4.5,4.5c-1.5,0-2.8-0.7-3.6-1.8l-5.2,5.2C11.8,29.7,11.1,30,10.5,30z"/>
	<path opacity="0.15" enable-background="new    " d="M28.4,11.7c1.3-1.3,0.1-2.2,0.1-2.2c-0.6-0.7-2.2-0.8-2.2-0.8
		c-2.5-0.3-4.4-1.9-4.4-1.9L16.7,3C11.9-0.1,8.1,1,6,2.4C5.5,1.6,4.7,1.1,3.8,1.1c-1.4,0-2.6,1.2-2.6,2.6c0,0.9,0.5,1.8,1.2,2.2
		C1,8.1-0.1,11.9,3,16.7l3.7,5.1c0,0,1.6,1.9,1.9,4.4c0,0,0.1,1.6,0.8,2.2c0,0,0.9,1.3,2.2-0.1l6.2-6.2c0.4,1.4,1.7,2.5,3.3,2.5
		c1.9,0,3.5-1.6,3.5-3.5c0-1.6-1.1-2.9-2.5-3.3l0.1-0.1L28.4,11.7z"/>
	<path d="M28.4,11.7c1.3-1.3,0.1-2.2,0.1-2.2c-0.6-0.7-2.2-0.8-2.2-0.8c-2.5-0.3-4.4-1.9-4.4-1.9L16.7,3C11.9-0.1,8.1,1,6,2.4
		C5.5,1.6,4.7,1.1,3.8,1.1c-1.4,0-2.6,1.2-2.6,2.6c0,0.9,0.5,1.8,1.2,2.2C1,8.1-0.1,11.9,3,16.7l3.7,5.1c0,0,1.6,1.9,1.9,4.4
		c0,0,0.1,1.6,0.8,2.2c0,0,0.9,1.3,2.2-0.1l6.2-6.2c0.4,1.4,1.7,2.5,3.3,2.5c1.9,0,3.5-1.6,3.5-3.5c0-1.6-1.1-2.9-2.5-3.3l0.1-0.1
		L28.4,11.7z"/>
</g>
</svg>
