<?xml version="1.0" encoding="utf-8"?>
<!-- Generator: Adobe Illustrator 17.1.0, SVG Export Plug-In . SVG Version: 6.00 Build 0)  -->
<!DOCTYPE svg PUBLIC "-//W3C//DTD SVG 1.1//EN" "http://www.w3.org/Graphics/SVG/1.1/DTD/svg11.dtd">
<svg version="1.1" id="Warstwa_2" xmlns="http://www.w3.org/2000/svg" xmlns:xlink="http://www.w3.org/1999/xlink" x="0px" y="0px"
	 viewBox="0 0 110 110" enable-background="new 0 0 110 110" xml:space="preserve">
<path fill="#EA2227" d="M6.6,107.1c-1.1,0-1.8-0.4-2.6-1.1c-1.5-1.5-1.5-3.7,0-5.1L100.8,4c1.5-1.5,3.7-1.5,5.1,0s1.5,3.7,0,5.1
	L9.2,106C8.4,106.7,7.7,107.1,6.6,107.1L6.6,107.1z"/>
<g>
	<path fill="none" d="M67.1,65.1c-1.1,0-1.9,0.6-2.2,1.5c0.3,0.9,1.1,1.5,2.1,1.5c1.1,0,1.9-0.6,2.2-1.5
		C68.9,65.6,68.1,65.1,67.1,65.1z"/>
	<path fill="none" d="M55.4,68.1c1.1,0,1.9-0.6,2.2-1.5c-0.3-0.9-1.1-1.5-2.1-1.5c-1.1,0-1.9,0.6-2.2,1.5
		C53.6,67.5,54.4,68.1,55.4,68.1z"/>
	<path opacity="0.3" fill="#FFFFFF" d="M8.8,89.3c-3.6,0-6.6-3-6.6-6.6v1c0,3.6,3,6.6,6.6,6.6h1.2l1-1H8.8z"/>
	<path opacity="0.3" fill="#FFFFFF" d="M101.8,89.3h-73l-1,1h74c3.6,0,6.6-3,6.6-6.6v-1C108.3,86.4,105.4,89.3,101.8,89.3z"/>
	<path opacity="0.3" fill="#FFFFFF" d="M55.5,64.1c-1.3,0-2.1,0.8-2.3,2c0,0.2,0.1,0.3,0.1,0.5c0.3-0.9,1.1-1.5,2.2-1.5
		c1.1,0,1.8,0.6,2.1,1.5c0.1-0.2,0.1-0.3,0.1-0.5C57.6,64.8,56.7,64.1,55.5,64.1z"/>
	<path opacity="0.3" fill="#FFFFFF" d="M67.1,65.1c1.1,0,1.8,0.6,2.2,1.5c0.1-0.2,0.1-0.3,0.1-0.5c-0.2-1.2-1-2-2.3-2
		c-1.3,0-2.1,0.8-2.3,2c0,0.2,0.1,0.3,0.1,0.5C65.2,65.6,66,65.1,67.1,65.1z"/>
	<path opacity="0.3" d="M8.8,89.3h2.2l1-1H8.8c-3.6,0-6.6-3-6.6-6.6v1C2.2,86.4,5.1,89.3,8.8,89.3z"/>
	<path opacity="0.3" fill="#FFFFFF" d="M8.8,89.3h2.2l1-1H8.8c-3.6,0-6.6-3-6.6-6.6v1C2.2,86.4,5.1,89.3,8.8,89.3z"/>
	<path opacity="0.3" fill="#FFFFFF" d="M8.8,89.3h2.2l1-1H8.8c-3.6,0-6.6-3-6.6-6.6v1C2.2,86.4,5.1,89.3,8.8,89.3z"/>
	<path opacity="0.3" d="M53.2,66.1c0.2-1.2,1.1-2,2.3-2c1.2,0,2.1,0.8,2.3,2c0-0.2,0-0.3,0-0.5c0-1.5-0.9-2.5-2.3-2.5
		c-0.2,0-0.4,0-0.5,0.1l-1.7,1.7c-0.1,0.2-0.1,0.5-0.1,0.7C53.1,65.8,53.1,65.9,53.2,66.1z"/>
	<path opacity="0.3" fill="#FFFFFF" d="M53.2,66.1c0.2-1.2,1.1-2,2.3-2c1.2,0,2.1,0.8,2.3,2c0-0.2,0-0.3,0-0.5
		c0-1.5-0.9-2.5-2.3-2.5c-0.2,0-0.4,0-0.5,0.1l-1.7,1.7c-0.1,0.2-0.1,0.5-0.1,0.7C53.1,65.8,53.1,65.9,53.2,66.1z"/>
	<path opacity="0.3" fill="#FFFFFF" d="M53.2,66.1c0.2-1.2,1.1-2,2.3-2c1.2,0,2.1,0.8,2.3,2c0-0.2,0-0.3,0-0.5
		c0-1.5-0.9-2.5-2.3-2.5c-0.2,0-0.4,0-0.5,0.1l-1.7,1.7c-0.1,0.2-0.1,0.5-0.1,0.7C53.1,65.8,53.1,65.9,53.2,66.1z"/>
	<path opacity="0.3" d="M101.8,88.3h-72l-1,1h73c3.6,0,6.6-3,6.6-6.6v-1C108.3,85.4,105.4,88.3,101.8,88.3z"/>
	<path opacity="0.3" fill="#FFFFFF" d="M101.8,88.3h-72l-1,1h73c3.6,0,6.6-3,6.6-6.6v-1C108.3,85.4,105.4,88.3,101.8,88.3z"/>
	<path opacity="0.3" fill="#FFFFFF" d="M101.8,88.3h-72l-1,1h73c3.6,0,6.6-3,6.6-6.6v-1C108.3,85.4,105.4,88.3,101.8,88.3z"/>
	<path opacity="0.3" d="M67.1,64.1c1.2,0,2.1,0.8,2.3,2c0-0.2,0-0.3,0-0.5c0-1.5-0.9-2.5-2.3-2.5c-1.4,0-2.4,1-2.4,2.5
		c0,0.2,0,0.3,0,0.5C64.9,64.9,65.8,64.1,67.1,64.1z"/>
	<path opacity="0.3" fill="#FFFFFF" d="M67.1,64.1c1.2,0,2.1,0.8,2.3,2c0-0.2,0-0.3,0-0.5c0-1.5-0.9-2.5-2.3-2.5
		c-1.4,0-2.4,1-2.4,2.5c0,0.2,0,0.3,0,0.5C64.9,64.9,65.8,64.1,67.1,64.1z"/>
	<path opacity="0.3" fill="#FFFFFF" d="M67.1,64.1c1.2,0,2.1,0.8,2.3,2c0-0.2,0-0.3,0-0.5c0-1.5-0.9-2.5-2.3-2.5
		c-1.4,0-2.4,1-2.4,2.5c0,0.2,0,0.3,0,0.5C64.9,64.9,65.8,64.1,67.1,64.1z"/>
	<path opacity="0.15" d="M55.4,68.1c-1,0-1.8-0.6-2.1-1.5c-0.1,0.2-0.1,0.3-0.1,0.5c0.2,1.1,0.8,1.8,1.8,2c0.2,0,0.3,0,0.5,0
		c0.2,0,0.4,0,0.5,0c1-0.2,1.6-0.9,1.8-2c0-0.2-0.1-0.3-0.1-0.5C57.3,67.5,56.5,68.1,55.4,68.1z"/>
	<path opacity="0.15" d="M8.2,16.5c0.2,0,0.4,0,0.6,0h75l1-1h-76c-3.6,0-6.6,3-6.6,6.6v1C2.2,19.6,4.8,16.8,8.2,16.5z"/>
	<path opacity="0.15" d="M66.5,69.1c0.2,0,0.3,0,0.5,0c0.2,0,0.4,0,0.5,0c1-0.2,1.6-0.9,1.8-2c0-0.2-0.1-0.3-0.1-0.5
		c-0.3,1-1.1,1.5-2.2,1.5c-1,0-1.8-0.6-2.1-1.5c-0.1,0.2-0.1,0.3-0.1,0.5C64.9,68.1,65.6,68.9,66.5,69.1z"/>
	<path opacity="0.15" d="M101.8,16.5c0.2,0,0.4,0,0.6,0c3.4,0.3,6,3.1,6,6.6v-1c0-3.4-2.5-6.2-5.8-6.5l-1,1H101.8z"/>
	<path opacity="0.3" d="M57.7,67.1c-0.2,1.1-0.8,1.8-1.8,2c0.7-0.1,1.3-0.4,1.8-0.8c0-0.2,0.1-0.4,0.1-0.7
		C57.8,67.4,57.8,67.2,57.7,67.1z"/>
	<path opacity="0.3" fill="#FFFFFF" d="M57.7,67.1c-0.2,1.1-0.8,1.8-1.8,2c0.7-0.1,1.3-0.4,1.8-0.8c0-0.2,0.1-0.4,0.1-0.7
		C57.8,67.4,57.8,67.2,57.7,67.1z"/>
	<path opacity="0.15" d="M57.7,67.1c-0.2,1.1-0.8,1.8-1.8,2c0.7-0.1,1.3-0.4,1.8-0.8c0-0.2,0.1-0.4,0.1-0.7
		C57.8,67.4,57.8,67.2,57.7,67.1z"/>
	<path opacity="0.3" d="M69.3,67.1c-0.2,1.1-0.8,1.8-1.8,2c0.7-0.1,1.3-0.4,1.8-0.8c0-0.2,0.1-0.4,0.1-0.7
		C69.4,67.4,69.4,67.2,69.3,67.1z"/>
	<path opacity="0.3" fill="#FFFFFF" d="M69.3,67.1c-0.2,1.1-0.8,1.8-1.8,2c0.7-0.1,1.3-0.4,1.8-0.8c0-0.2,0.1-0.4,0.1-0.7
		C69.4,67.4,69.4,67.2,69.3,67.1z"/>
	<path opacity="0.15" d="M69.3,67.1c-0.2,1.1-0.8,1.8-1.8,2c0.7-0.1,1.3-0.4,1.8-0.8c0-0.2,0.1-0.4,0.1-0.7
		C69.4,67.4,69.4,67.2,69.3,67.1z"/>
	<path opacity="0.3" d="M8.2,16.5c-3.4,0.3-6,3.1-6,6.6v1c0-1.5,0.5-2.9,1.4-4C4.3,18.1,6.1,16.7,8.2,16.5z"/>
	<path opacity="0.3" fill="#FFFFFF" d="M8.2,16.5c-3.4,0.3-6,3.1-6,6.6v1c0-1.5,0.5-2.9,1.4-4C4.3,18.1,6.1,16.7,8.2,16.5z"/>
	<path opacity="0.15" d="M8.2,16.5c-3.4,0.3-6,3.1-6,6.6v1c0-1.5,0.5-2.9,1.4-4C4.3,18.1,6.1,16.7,8.2,16.5z"/>
	<path opacity="0.3" d="M64.7,67.1c0,0.2,0,0.3,0,0.5c0,0.2,0,0.4,0.1,0.7c0.5,0.4,1,0.7,1.7,0.8C65.6,68.9,64.9,68.1,64.7,67.1z"/>
	<path opacity="0.3" fill="#FFFFFF" d="M64.7,67.1c0,0.2,0,0.3,0,0.5c0,0.2,0,0.4,0.1,0.7c0.5,0.4,1,0.7,1.7,0.8
		C65.6,68.9,64.9,68.1,64.7,67.1z"/>
	<path opacity="0.15" d="M64.7,67.1c0,0.2,0,0.3,0,0.5c0,0.2,0,0.4,0.1,0.7c0.5,0.4,1,0.7,1.7,0.8C65.6,68.9,64.9,68.1,64.7,67.1z"
		/>
	<path opacity="0.3" d="M102.3,16.5c2.1,0.2,3.9,1.6,4.6,3.5c0.9,1.1,1.4,2.5,1.4,4v-1C108.3,19.6,105.7,16.8,102.3,16.5z"/>
	<path opacity="0.3" fill="#FFFFFF" d="M102.3,16.5c2.1,0.2,3.9,1.6,4.6,3.5c0.9,1.1,1.4,2.5,1.4,4v-1
		C108.3,19.6,105.7,16.8,102.3,16.5z"/>
	<path opacity="0.15" d="M102.3,16.5c2.1,0.2,3.9,1.6,4.6,3.5c0.9,1.1,1.4,2.5,1.4,4v-1C108.3,19.6,105.7,16.8,102.3,16.5z"/>
	<path opacity="0.3" d="M53.2,67.1c0,0.2,0,0.3,0,0.5c0,0.2,0,0.4,0.1,0.7c0.5,0.4,1,0.7,1.7,0.8C54,68.9,53.3,68.1,53.2,67.1z"/>
	<path opacity="0.3" fill="#FFFFFF" d="M53.2,67.1c0,0.2,0,0.3,0,0.5c0,0.2,0,0.4,0.1,0.7c0.5,0.4,1,0.7,1.7,0.8
		C54,68.9,53.3,68.1,53.2,67.1z"/>
	<path opacity="0.15" d="M53.2,67.1c0,0.2,0,0.3,0,0.5c0,0.2,0,0.4,0.1,0.7c0.5,0.4,1,0.7,1.7,0.8C54,68.9,53.3,68.1,53.2,67.1z"/>
	<path opacity="0.3" fill="#FFFFFF" d="M69.3,67.1c0-0.2,0-0.3,0-0.5c0-0.2,0-0.3,0-0.5c0,0.2-0.1,0.3-0.1,0.5
		C69.3,66.7,69.3,66.9,69.3,67.1z"/>
	<path opacity="0.15" d="M69.3,67.1c0-0.2,0-0.3,0-0.5c0-0.2,0-0.3,0-0.5c0,0.2-0.1,0.3-0.1,0.5C69.3,66.7,69.3,66.9,69.3,67.1z"/>
	<path opacity="0.3" fill="#FFFFFF" d="M64.7,66.1c0,0.2,0,0.3,0,0.5c0,0.2,0,0.3,0,0.5c0-0.2,0.1-0.3,0.1-0.5
		C64.8,66.4,64.8,66.3,64.7,66.1z"/>
	<path opacity="0.15" d="M64.7,66.1c0,0.2,0,0.3,0,0.5c0,0.2,0,0.3,0,0.5c0-0.2,0.1-0.3,0.1-0.5C64.8,66.4,64.8,66.3,64.7,66.1z"/>
	<path opacity="0.3" fill="#FFFFFF" d="M57.7,67.1c0-0.2,0-0.3,0-0.5c0-0.2,0-0.3,0-0.5c0,0.2-0.1,0.3-0.1,0.5
		C57.7,66.7,57.7,66.9,57.7,67.1z"/>
	<path opacity="0.15" d="M57.7,67.1c0-0.2,0-0.3,0-0.5c0-0.2,0-0.3,0-0.5c0,0.2-0.1,0.3-0.1,0.5C57.7,66.7,57.7,66.9,57.7,67.1z"/>
	<path opacity="0.3" fill="#FFFFFF" d="M53.2,66.1c0,0.2,0,0.3,0,0.5c0,0.2,0,0.3,0,0.5c0-0.2,0.1-0.3,0.1-0.5
		C53.2,66.4,53.2,66.3,53.2,66.1z"/>
	<path opacity="0.15" d="M53.2,66.1c0,0.2,0,0.3,0,0.5c0,0.2,0,0.3,0,0.5c0-0.2,0.1-0.3,0.1-0.5C53.2,66.4,53.2,66.3,53.2,66.1z"/>
	<path opacity="0.3" d="M53.2,67.1c0-0.2,0-0.3,0-0.5c0-0.2,0-0.3,0-0.5c0-0.2,0-0.3,0-0.5c0-0.3,0-0.5,0.1-0.7l-1.1,1.1
		c0.1,0.9,0.4,1.8,1,2.3c0-0.2-0.1-0.4-0.1-0.7C53.1,67.4,53.1,67.3,53.2,67.1z"/>
	<path opacity="0.3" fill="#FFFFFF" d="M53.2,67.1c0-0.2,0-0.3,0-0.5c0-0.2,0-0.3,0-0.5c0-0.2,0-0.3,0-0.5c0-0.3,0-0.5,0.1-0.7
		l-1.1,1.1c0.1,0.9,0.4,1.8,1,2.3c0-0.2-0.1-0.4-0.1-0.7C53.1,67.4,53.1,67.3,53.2,67.1z"/>
	<path opacity="0.3" fill="#FFFFFF" d="M53.2,67.1c0-0.2,0-0.3,0-0.5c0-0.2,0-0.3,0-0.5c0-0.2,0-0.3,0-0.5c0-0.3,0-0.5,0.1-0.7
		l-1.1,1.1c0.1,0.9,0.4,1.8,1,2.3c0-0.2-0.1-0.4-0.1-0.7C53.1,67.4,53.1,67.3,53.2,67.1z"/>
	<path opacity="0.15" d="M53.2,67.1c0-0.2,0-0.3,0-0.5c0-0.2,0-0.3,0-0.5c0-0.2,0-0.3,0-0.5c0-0.3,0-0.5,0.1-0.7l-1.1,1.1
		c0.1,0.9,0.4,1.8,1,2.3c0-0.2-0.1-0.4-0.1-0.7C53.1,67.4,53.1,67.3,53.2,67.1z"/>
	<path opacity="0.3" d="M67.1,62.1c-2,0-3.4,1.5-3.4,3.5c0,1.1,0.4,2,1.1,2.7c0-0.2-0.1-0.4-0.1-0.7c0-0.2,0-0.3,0-0.5
		c0-0.2,0-0.3,0-0.5c0-0.2,0-0.3,0-0.5c0-0.2,0-0.3,0-0.5c0-1.5,0.9-2.5,2.4-2.5c1.4,0,2.3,1,2.3,2.5c0,0.2,0,0.3,0,0.5
		c0,0.2,0,0.3,0,0.5c0,0.2,0,0.3,0,0.5c0,0.2,0,0.3,0,0.5c0,0.2,0,0.5-0.1,0.7c0.7-0.6,1.1-1.6,1.1-2.7C70.4,63.5,69,62.1,67.1,62.1
		z"/>
	<path opacity="0.3" fill="#FFFFFF" d="M67.1,62.1c-2,0-3.4,1.5-3.4,3.5c0,1.1,0.4,2,1.1,2.7c0-0.2-0.1-0.4-0.1-0.7
		c0-0.2,0-0.3,0-0.5c0-0.2,0-0.3,0-0.5c0-0.2,0-0.3,0-0.5c0-0.2,0-0.3,0-0.5c0-1.5,0.9-2.5,2.4-2.5c1.4,0,2.3,1,2.3,2.5
		c0,0.2,0,0.3,0,0.5c0,0.2,0,0.3,0,0.5c0,0.2,0,0.3,0,0.5c0,0.2,0,0.3,0,0.5c0,0.2,0,0.5-0.1,0.7c0.7-0.6,1.1-1.6,1.1-2.7
		C70.4,63.5,69,62.1,67.1,62.1z"/>
	<path opacity="0.3" fill="#FFFFFF" d="M67.1,62.1c-2,0-3.4,1.5-3.4,3.5c0,1.1,0.4,2,1.1,2.7c0-0.2-0.1-0.4-0.1-0.7
		c0-0.2,0-0.3,0-0.5c0-0.2,0-0.3,0-0.5c0-0.2,0-0.3,0-0.5c0-0.2,0-0.3,0-0.5c0-1.5,0.9-2.5,2.4-2.5c1.4,0,2.3,1,2.3,2.5
		c0,0.2,0,0.3,0,0.5c0,0.2,0,0.3,0,0.5c0,0.2,0,0.3,0,0.5c0,0.2,0,0.3,0,0.5c0,0.2,0,0.5-0.1,0.7c0.7-0.6,1.1-1.6,1.1-2.7
		C70.4,63.5,69,62.1,67.1,62.1z"/>
	<path opacity="0.15" d="M67.1,62.1c-2,0-3.4,1.5-3.4,3.5c0,1.1,0.4,2,1.1,2.7c0-0.2-0.1-0.4-0.1-0.7c0-0.2,0-0.3,0-0.5
		c0-0.2,0-0.3,0-0.5c0-0.2,0-0.3,0-0.5c0-0.2,0-0.3,0-0.5c0-1.5,0.9-2.5,2.4-2.5c1.4,0,2.3,1,2.3,2.5c0,0.2,0,0.3,0,0.5
		c0,0.2,0,0.3,0,0.5c0,0.2,0,0.3,0,0.5c0,0.2,0,0.3,0,0.5c0,0.2,0,0.5-0.1,0.7c0.7-0.6,1.1-1.6,1.1-2.7C70.4,63.5,69,62.1,67.1,62.1
		z"/>
	<path opacity="0.3" d="M55.5,63.1c1.4,0,2.3,1,2.3,2.5c0,0.2,0,0.3,0,0.5c0,0.2,0,0.3,0,0.5c0,0.2,0,0.3,0,0.5c0,0.2,0,0.3,0,0.5
		c0,0.2,0,0.5-0.1,0.7c0.7-0.6,1.1-1.6,1.1-2.7c0-1.9-1.1-3.3-2.8-3.5l-1,1C55.1,63.1,55.3,63.1,55.5,63.1z"/>
	<path opacity="0.3" fill="#FFFFFF" d="M55.5,63.1c1.4,0,2.3,1,2.3,2.5c0,0.2,0,0.3,0,0.5c0,0.2,0,0.3,0,0.5c0,0.2,0,0.3,0,0.5
		c0,0.2,0,0.3,0,0.5c0,0.2,0,0.5-0.1,0.7c0.7-0.6,1.1-1.6,1.1-2.7c0-1.9-1.1-3.3-2.8-3.5l-1,1C55.1,63.1,55.3,63.1,55.5,63.1z"/>
	<path opacity="0.3" fill="#FFFFFF" d="M55.5,63.1c1.4,0,2.3,1,2.3,2.5c0,0.2,0,0.3,0,0.5c0,0.2,0,0.3,0,0.5c0,0.2,0,0.3,0,0.5
		c0,0.2,0,0.3,0,0.5c0,0.2,0,0.5-0.1,0.7c0.7-0.6,1.1-1.6,1.1-2.7c0-1.9-1.1-3.3-2.8-3.5l-1,1C55.1,63.1,55.3,63.1,55.5,63.1z"/>
	<path opacity="0.15" d="M55.5,63.1c1.4,0,2.3,1,2.3,2.5c0,0.2,0,0.3,0,0.5c0,0.2,0,0.3,0,0.5c0,0.2,0,0.3,0,0.5c0,0.2,0,0.3,0,0.5
		c0,0.2,0,0.5-0.1,0.7c0.7-0.6,1.1-1.6,1.1-2.7c0-1.9-1.1-3.3-2.8-3.5l-1,1C55.1,63.1,55.3,63.1,55.5,63.1z"/>
	<path opacity="0.3" d="M107.3,22.1v59.7c0,3.1-2.5,5.6-5.6,5.6h-71l-1,1h72c3.6,0,6.6-3,6.6-6.6V24.1c0-1.5-0.5-2.9-1.4-4
		C107.2,20.7,107.3,21.4,107.3,22.1z"/>
	<path opacity="0.3" fill="#FFFFFF" d="M107.3,22.1v59.7c0,3.1-2.5,5.6-5.6,5.6h-71l-1,1h72c3.6,0,6.6-3,6.6-6.6V24.1
		c0-1.5-0.5-2.9-1.4-4C107.2,20.7,107.3,21.4,107.3,22.1z"/>
	<path opacity="0.3" fill="#FFFFFF" d="M107.3,22.1v59.7c0,3.1-2.5,5.6-5.6,5.6h-71l-1,1h72c3.6,0,6.6-3,6.6-6.6V24.1
		c0-1.5-0.5-2.9-1.4-4C107.2,20.7,107.3,21.4,107.3,22.1z"/>
	<path opacity="0.15" d="M107.3,22.1v59.7c0,3.1-2.5,5.6-5.6,5.6h-71l-1,1h72c3.6,0,6.6-3,6.6-6.6V24.1c0-1.5-0.5-2.9-1.4-4
		C107.2,20.7,107.3,21.4,107.3,22.1z"/>
	<path opacity="0.3" d="M8.8,88.3h3.2l1-1H8.8c-3.1,0-5.6-2.5-5.6-5.6V22.1c0-0.7,0.1-1.4,0.4-2c-0.9,1.1-1.4,2.5-1.4,4v57.7
		C2.2,85.4,5.1,88.3,8.8,88.3z"/>
	<path opacity="0.3" fill="#FFFFFF" d="M8.8,88.3h3.2l1-1H8.8c-3.1,0-5.6-2.5-5.6-5.6V22.1c0-0.7,0.1-1.4,0.4-2
		c-0.9,1.1-1.4,2.5-1.4,4v57.7C2.2,85.4,5.1,88.3,8.8,88.3z"/>
	<path opacity="0.3" fill="#FFFFFF" d="M8.8,88.3h3.2l1-1H8.8c-3.1,0-5.6-2.5-5.6-5.6V22.1c0-0.7,0.1-1.4,0.4-2
		c-0.9,1.1-1.4,2.5-1.4,4v57.7C2.2,85.4,5.1,88.3,8.8,88.3z"/>
	<path opacity="0.15" d="M8.8,88.3h3.2l1-1H8.8c-3.1,0-5.6-2.5-5.6-5.6V22.1c0-0.7,0.1-1.4,0.4-2c-0.9,1.1-1.4,2.5-1.4,4v57.7
		C2.2,85.4,5.1,88.3,8.8,88.3z"/>
	<path fill="#FFFFFF" d="M55.9,69.1c-0.2,0-0.3,0-0.5,0C55.6,69.1,55.8,69.1,55.9,69.1z"/>
	<path fill="#FFFFFF" d="M101.8,16.5c0.2,0,0.4,0,0.6,0C102.1,16.5,101.9,16.5,101.8,16.5z"/>
	<path fill="#FFFFFF" d="M55.4,69.1c-0.2,0-0.3,0-0.5,0C55.1,69.1,55.2,69.1,55.4,69.1z"/>
	<path fill="#FFFFFF" d="M8.2,16.5c0.2,0,0.4,0,0.6,0C8.6,16.5,8.4,16.5,8.2,16.5z"/>
	<path fill="#FFFFFF" d="M67.5,69.1c-0.2,0-0.3,0-0.5,0C67.2,69.1,67.4,69.1,67.5,69.1z"/>
	<path fill="#FFFFFF" d="M67,69.1c-0.2,0-0.3,0-0.5,0C66.7,69.1,66.8,69.1,67,69.1z"/>
	<path fill="#FFFFFF" d="M55.4,69.1c-0.2,0-0.3,0-0.5,0c-0.7-0.1-1.3-0.4-1.7-0.8c0.2,1.1,1.1,1.9,2.2,1.9c1.2,0,2.1-0.7,2.3-1.9
		c-0.5,0.4-1.1,0.7-1.8,0.8C55.8,69.1,55.6,69.1,55.4,69.1z"/>
	<path fill="#FFFFFF" d="M67,69.1c-0.2,0-0.3,0-0.5,0c-0.7-0.1-1.3-0.4-1.7-0.8c0.2,1.1,1.1,1.9,2.2,1.9c1.2,0,2.1-0.7,2.3-1.9
		c-0.5,0.4-1.1,0.7-1.8,0.8C67.4,69.1,67.2,69.1,67,69.1z"/>
	<path fill="#FFFFFF" d="M101.8,17.5c2.1,0,4,1,5.2,2.6c-0.7-1.9-2.5-3.3-4.6-3.5c-0.2,0-0.4,0-0.6,0h-0.2l-1,1H101.8z"/>
	<path fill="#FFFFFF" d="M8.2,16.5c-2.1,0.2-3.9,1.6-4.6,3.5c1.2-1.6,3.1-2.6,5.2-2.6h74l1-1h-75C8.6,16.5,8.4,16.5,8.2,16.5z"/>
	<path fill="#FFFFFF" d="M101.8,17.5h-1.2L56,62.1c1.7,0.2,2.8,1.6,2.8,3.5c0,1.1-0.4,2-1.1,2.7c-0.2,1.1-1.1,1.9-2.3,1.9
		c-1.2,0-2-0.7-2.2-1.9c-0.6-0.6-1-1.4-1-2.3L30.7,87.3h71c3.1,0,5.6-2.5,5.6-5.6V22.1c0-0.7-0.1-1.4-0.4-2
		C105.7,18.5,103.9,17.5,101.8,17.5z M69.3,68.3c-0.2,1.1-1.1,1.9-2.3,1.9c-1.2,0-2-0.7-2.2-1.9c-0.7-0.6-1.1-1.6-1.1-2.7
		c0-2.1,1.4-3.5,3.4-3.5c2,0,3.3,1.5,3.3,3.5C70.4,66.7,70,67.6,69.3,68.3z"/>
	<path fill="#FFFFFF" d="M8.8,17.5c-2.1,0-4,1-5.2,2.6c-0.2,0.6-0.4,1.3-0.4,2v59.7c0,3.1,2.5,5.6,5.6,5.6h4.2l69.8-69.8H8.8z"/>
	<path fill="#EA2227" d="M43.8,69.1c-0.2,0-0.3,0-0.5,0C43.5,69.1,43.7,69.1,43.8,69.1z"/>
	<path fill="#EA2227" d="M44.4,69.1c-0.2,0-0.3,0-0.5,0C44,69.1,44.2,69.1,44.4,69.1z"/>
</g>
</svg>
