<?xml version="1.0" encoding="utf-8"?>
<!-- Generator: Adobe Illustrator 17.1.0, SVG Export Plug-In . SVG Version: 6.00 Build 0)  -->
<!DOCTYPE svg PUBLIC "-//W3C//DTD SVG 1.1//EN" "http://www.w3.org/Graphics/SVG/1.1/DTD/svg11.dtd">
<svg version="1.1" xmlns="http://www.w3.org/2000/svg" xmlns:xlink="http://www.w3.org/1999/xlink" x="0px" y="0px"
	 viewBox="0 0 110 110" enable-background="new 0 0 110 110" xml:space="preserve">
<g id="Warstwa_1">
	<path id="GRAY_2" fill="#FFFFFF" d="M9.2,54.7c0,34.2,12,46.2,46.2,46.2s46.2-12,46.2-46.2c0-33.5-11.4-45.6-44-46.2h-4.4
		C20.6,9.1,9.2,21.2,9.2,54.7z"/>
	<g id="DO_NOT_EDIT_-_BOUNDING_BOX">
		<rect id="BOUNDING_BOX" fill="none" width="110" height="110"/>
	</g>
	<g id="Warstwa_2">
	</g>
	<g id="DO_NOT_EDIT_-_FOCAL_ZONE_GUIDES_ONLY" display="none">
	</g>
</g>
<g id="Warstwa_3">
	<g>
		<g>
			<path fill="#4695C8" d="M34.7,14c-14.6,3.4-8.9,36.7,9.4,34.6C61.6,46.7,51.6,10.1,34.7,14z"/>
		</g>
		<g>
			
				<linearGradient id="SVGID_1_" gradientUnits="userSpaceOnUse" x1="8.0982" y1="102" x2="8.0982" y2="22" gradientTransform="matrix(1.1458 0 0 -1.1458 0 126.0417)">
				<stop  offset="3.636400e-002" style="stop-color:#EEEEEE"/>
				<stop  offset="0.3262" style="stop-color:#E4E4E4"/>
				<stop  offset="0.8148" style="stop-color:#CACACA"/>
				<stop  offset="1" style="stop-color:#BEBEBE"/>
			</linearGradient>
			<path fill="url(#SVGID_1_)" d="M9.2,55c0,2.6,0.1,5.1,0.2,7.4c0-4.5,0-9.6,0-14.7C9.2,50.1,9.2,52.5,9.2,55z"/>
			<g>
				<path fill="#FED30D" d="M47.6,68.3c-5.6-3.3-38.4,3.2-24.3,22c14.8,19.7,47.6,1.8,33.2-14C50.2,69.5,50.6,71.3,47.6,68.3z"/>
			</g>
			<path fill="#4695C8" d="M41.6,64.3c-0.8-1-3.8-5.4-1.6-11.7c0.3-0.8,2.3-1.9-5-1.3c-4.3,0.4-9.7-1.9-14.2-6.6
				c-5.4-5.7-9.2-24,9.6-32.2c-13.7,5-19.9,15.9-21,35.2c0,5.1,0,10.2,0,14.7c0.3,4.4,0.8,8.5,1.7,12c2.8-2.1,8.7-6.1,14.7-7.5
				C33.5,65.3,38.6,66.1,41.6,64.3z"/>
			<path fill="#FE3D3D" stroke="#FE3D3D" stroke-width="1.0699" stroke-linecap="round" stroke-miterlimit="10" d="M55,14.6
				c9.4,0,11.6,25.5,1.7,30.7c0.8-0.3,1.6-0.6,2.4-1c8.9-4.3,25.5-7.7,41.3,0.5c-1.9-21.4-10.8-31.6-30.5-34.6c-0.4,0-0.6,0-0.6,0
				S64.6,14.6,55,14.6z"/>
			<path fill="#048304" stroke="#008200" stroke-width="1.2839" stroke-miterlimit="10" d="M100.8,55c0-3.1-0.1-6.1-0.3-8.8
				c-18.6-7.9-30.9-5.9-41.5-1.9c-0.5,0.2-0.9,0.5-1.4,0.7c-8.7,4.8-8.3,11.4-4.3,14.1c3.9,2.6,15,9.8,15,22.9
				c0,9.5-13.1,15.8-20.5,18.7c2.3,0.1,4.6,0.2,7.1,0.2C88.9,100.8,100.8,88.9,100.8,55z"/>
			<path fill="#048304" stroke="#008200" stroke-width="1.2839" stroke-miterlimit="10" d="M59.1,44.3c10.5-4,22.9-6,41.5,1.9
				c0-0.5-0.1-0.9-0.1-1.4C84.6,36.6,67.9,40,59.1,44.3z"/>
		</g>
	</g>
</g>
</svg>
