<?xml version="1.0" encoding="utf-8"?>
<!-- Generator: Adobe Illustrator 18.0.0, SVG Export Plug-In . SVG Version: 6.00 Build 0)  -->
<!DOCTYPE svg PUBLIC "-//W3C//DTD SVG 1.1//EN" "http://www.w3.org/Graphics/SVG/1.1/DTD/svg11.dtd">
<svg version="1.1" xmlns="http://www.w3.org/2000/svg" xmlns:xlink="http://www.w3.org/1999/xlink" x="0px" y="0px"
	 viewBox="0 0 96 96" enable-background="new 0 0 96 96" xml:space="preserve">
<g id="DO_NOT_EDIT_-_BOUNDING_BOX">
	<rect id="BOUNDING_BOX" fill="none" width="96" height="96"/>
</g>
<g id="DO_NOT_EDIT_-_SHADOW">
	<path id="SHADOW" opacity="0.4" d="M88,49c0,29.6-10.4,40-40,40C18.4,89,8,78.6,8,49C8,19.4,18.4,9,48,9C77.7,9,88,19.4,88,49z"/>
</g>
<g id="GRAY_BACKGROUNDS">
	<g id="GRAY1">
		<linearGradient id="GRAY_1_1_" gradientUnits="userSpaceOnUse" x1="48" y1="8.0107" x2="48" y2="87.9893">
			<stop  offset="3.636400e-002" style="stop-color:#F9F9F9"/>
			<stop  offset="0.3006" style="stop-color:#F0F0EF"/>
			<stop  offset="0.7461" style="stop-color:#D7D7D5"/>
			<stop  offset="0.8303" style="stop-color:#D1D1CF"/>
			<stop  offset="1" style="stop-color:#ABABA8"/>
		</linearGradient>
		<path id="GRAY_1" fill-rule="evenodd" clip-rule="evenodd" fill="url(#GRAY_1_1_)" d="M8,48c0,29.6,10.4,40,40,40
			c29.6,0,40-10.4,40-40c0-29-9.9-39.5-38.1-40h-3.8C17.9,8.5,8,19,8,48z"/>
		<linearGradient id="HIGHLIGHT_GRA1_1_" gradientUnits="userSpaceOnUse" x1="48" y1="8" x2="48" y2="88">
			<stop  offset="3.636400e-002" style="stop-color:#FCFCFC"/>
			<stop  offset="0.2262" style="stop-color:#F3F3F2"/>
			<stop  offset="0.5471" style="stop-color:#DAD9D8"/>
			<stop  offset="0.9576" style="stop-color:#B2B0AD"/>
			<stop  offset="1" style="stop-color:#ADABA8"/>
		</linearGradient>
		<path id="HIGHLIGHT_GRA1" fill="url(#HIGHLIGHT_GRA1_1_)" d="M48,8C18.4,8,8,18.4,8,48c0,29.6,10.4,40,40,40c29.6,0,40-10.4,40-40
			C88,18.4,77.6,8,48,8z M48,87C18.8,87,9,77.2,9,48S18.8,9,48,9s39,9.8,39,39S77.2,87,48,87z"/>
	</g>
</g>
<g id="PLACE_YOUR_GRAPHIC_HERE">
	<rect id="BOUNDING_BOX_1_" x="14.7" y="19.2" fill="none" width="67" height="57"/>
	<path opacity="0.3" enable-background="new    " d="M69.2,43.5c2.1-2.1,0.1-3.5,0.1-3.5c-1-1.1-3.4-1.2-3.4-1.2
		c-3.9-0.5-6.9-3-6.9-3l-8-5.8c-7.5-5-13.4-3.2-16.8-1c-0.7-1.2-2-1.9-3.5-1.9c-2.3,0-4.1,1.8-4.1,4.1c0,1.5,0.8,2.7,1.9,3.5
		c-2.1,3.4-3.9,9.3,1,16.8l5.8,8c0,0,2.5,3,3,6.9c0,0,0.1,2.4,1.2,3.4c0,0,1.4,2,3.5-0.1l9.7-9.7c0.7,2.3,2.7,3.9,5.2,3.9
		c3,0,5.5-2.4,5.5-5.5c0-2.5-1.7-4.5-3.9-5.2l0.1-0.1L69.2,43.5z"/>
	<path opacity="0.15" enable-background="new    " d="M41.1,70.7c-1.3,0-2.1-0.9-2.4-1.2c-1.2-1.2-1.4-3.5-1.4-4
		c-0.5-3.5-2.8-6.4-2.8-6.4L28.7,51c-5.1-7.7-3.4-13.8-1.5-17.2c-1-1-1.6-2.3-1.6-3.7c0-2.8,2.3-5.1,5.1-5.1c1.4,0,2.8,0.6,3.7,1.6
		c2.2-1.2,4.6-1.8,7.1-1.8c3.3,0,6.7,1.1,10.1,3.4l8.1,5.8c0.1,0.1,2.9,2.3,6.4,2.8c0.5,0,2.8,0.2,4,1.4c0.3,0.2,1.1,1,1.2,2.1
		c0.1,1-0.3,1.9-1.2,2.8l-8.7,8.7c1.9,1.1,3.2,3.2,3.2,5.5c0,3.6-2.9,6.5-6.5,6.5c-2.3,0-4.4-1.2-5.5-3.2l-8.7,8.7
		C42.9,70.2,42,70.7,41.1,70.7z"/>
	<path opacity="0.15" enable-background="new    " d="M69.2,42.5c2.1-2.1,0.1-3.5,0.1-3.5c-1-1.1-3.4-1.2-3.4-1.2
		c-3.9-0.5-6.9-3-6.9-3l-8-5.8c-7.5-5-13.4-3.2-16.8-1c-0.7-1.2-2-1.9-3.5-1.9c-2.3,0-4.1,1.8-4.1,4.1c0,1.5,0.8,2.7,1.9,3.5
		c-2.1,3.4-3.9,9.3,1,16.8l5.8,8c0,0,2.5,3,3,6.9c0,0,0.1,2.4,1.2,3.4c0,0,1.4,2,3.5-0.1l9.7-9.7c0.7,2.3,2.7,3.9,5.2,3.9
		c3,0,5.5-2.4,5.5-5.5c0-2.5-1.7-4.5-3.9-5.2l0.1-0.1L69.2,42.5z"/>
	
		<linearGradient id="SVGID_1_" gradientUnits="userSpaceOnUse" x1="48.2146" y1="28.3363" x2="48.2146" y2="72.203" gradientTransform="matrix(1 0 0 -1 0 98)">
		<stop  offset="0" style="stop-color:#F47721"/>
		<stop  offset="0.5031" style="stop-color:#EC9822"/>
		<stop  offset="0.9693" style="stop-color:#F6C33B"/>
	</linearGradient>
	<path fill="url(#SVGID_1_)" d="M69.2,42.5c2.1-2.1,0.1-3.5,0.1-3.5c-1-1.1-3.4-1.2-3.4-1.2c-3.9-0.5-6.9-3-6.9-3l-8-5.8
		c-7.5-5-13.4-3.2-16.8-1c-0.7-1.2-2-1.9-3.5-1.9c-2.3,0-4.1,1.8-4.1,4.1c0,1.5,0.8,2.7,1.9,3.5c-2.1,3.4-3.9,9.3,1,16.8l5.8,8
		c0,0,2.5,3,3,6.9c0,0,0.1,2.4,1.2,3.4c0,0,1.4,2,3.5-0.1l9.7-9.7c0.7,2.3,2.7,3.9,5.2,3.9c3,0,5.5-2.4,5.5-5.5
		c0-2.5-1.7-4.5-3.9-5.2l0.1-0.1L69.2,42.5z"/>
	<path fill="#FFFFFF" d="M60.2,52.5l-0.6,0.6l-0.1,0.1c2.1,0.6,3.7,2.5,3.9,4.8c0-0.2,0-0.4,0-0.6C63.4,55.2,62.1,53.4,60.2,52.5z"
		/>
	<path fill="#FFFFFF" d="M30.6,27c1.5,0,2.7,0.8,3.5,1.9c3.4-2.1,9.3-3.9,16.8,1l8,5.8c0,0,3.1,2.5,6.9,3c0,0,2.4,0.1,3.4,1.2
		c0,0,0.6,0.4,0.8,1.1c0.4-1.3-0.8-2.1-0.8-2.1c-1-1.1-3.4-1.2-3.4-1.2c-3.9-0.5-6.9-3-6.9-3l-8-5.8c-7.5-5-13.4-3.2-16.8-1
		c-0.7-1.2-2-1.9-3.5-1.9c-2.3,0-4.1,1.8-4.1,4.1c0,0.2,0,0.4,0,0.6C26.8,28.6,28.5,27,30.6,27z"/>
	<path fill="#FFFFFF" d="M28.4,34.6c-0.1-0.1-0.3-0.2-0.4-0.3c-1,1.8-1.8,4.2-1.7,7.1C26.4,38.6,27.4,36.3,28.4,34.6z"/>
</g>
<g id="DO_NOT_EDIT_-_FOCAL_ZONE_GUIDES_ONLY">
</g>
</svg>
