<?xml version="1.0" encoding="utf-8"?>
<!-- Generator: Adobe Illustrator 18.0.0, SVG Export Plug-In . SVG Version: 6.00 Build 0)  -->
<!DOCTYPE svg PUBLIC "-//W3C//DTD SVG 1.1//EN" "http://www.w3.org/Graphics/SVG/1.1/DTD/svg11.dtd">
<svg version="1.1" xmlns="http://www.w3.org/2000/svg" xmlns:xlink="http://www.w3.org/1999/xlink" x="0px" y="0px"
	 viewBox="0 0 64 64" enable-background="new 0 0 64 64" xml:space="preserve">
<g id="Warstwa_2">
</g>
<g id="Warstwa_1">
	<g>
		<path fill="#F1F1F1" d="M0,32v32h32C14.3,64,0,49.7,0,32z"/>
		<path fill="#F1F1F1" d="M32,0H0v32C0,14.3,14.3,0,32,0z"/>
		<path fill="#F1F1F1" d="M32,0c17.7,0,32,14.3,32,32V0H32z"/>
		<path fill="#F1F1F1" d="M32,64h32V32C64,49.7,49.7,64,32,64z"/>
	</g>
	<g>
		
			<radialGradient id="SVGID_1_" cx="32" cy="32" r="32" gradientTransform="matrix(1 0 0 1.69 0 -22.08)" gradientUnits="userSpaceOnUse">
			<stop  offset="0" style="stop-color:#FFFFFF;stop-opacity:0"/>
			<stop  offset="1" style="stop-color:#FFFFFF;stop-opacity:0.8"/>
		</radialGradient>
		<path fill="url(#SVGID_1_)" d="M32,5c14.9,0,27,12.1,27,27S46.9,59,32,59S5,46.9,5,32S17.1,5,32,5 M32,0C14.3,0,0,14.3,0,32
			s14.3,32,32,32s32-14.3,32-32S49.7,0,32,0L32,0z"/>
	</g>
</g>
</svg>
