<?xml version="1.0" encoding="utf-8"?>
<!-- Generator: Adobe Illustrator 18.0.0, SVG Export Plug-In . SVG Version: 6.00 Build 0)  -->
<!DOCTYPE svg PUBLIC "-//W3C//DTD SVG 1.1//EN" "http://www.w3.org/Graphics/SVG/1.1/DTD/svg11.dtd">
<svg version="1.1" xmlns="http://www.w3.org/2000/svg" xmlns:xlink="http://www.w3.org/1999/xlink" x="0px" y="0px" width="96px"
	 height="96px" viewBox="0 0 96 96" enable-background="new 0 0 96 96" xml:space="preserve">
<g id="DO_NOT_EDIT_-_BOUNDING_BOX">
	<rect id="BOUNDING_BOX" fill="none" width="96" height="96"/>
</g>
<g id="DO_NOT_EDIT_-_SHADOW">
	<path id="SHADOW" opacity="0.4" d="M88,49c0,29.6-10.4,40-40,40C18.4,89,8,78.6,8,49C8,19.4,18.4,9,48,9C77.7,9,88,19.4,88,49z"/>
</g>
<g id="ORANGE_BACKGROUNDS">
	<g id="ORANGE_5">
		<linearGradient id="RED_x2F_ORANGE_5_2_" gradientUnits="userSpaceOnUse" x1="48" y1="8.0107" x2="48" y2="87.9893">
			<stop  offset="0" style="stop-color:#FFDB62"/>
			<stop  offset="0.1393" style="stop-color:#FAD15C"/>
			<stop  offset="0.3741" style="stop-color:#EDB74D"/>
			<stop  offset="0.4848" style="stop-color:#E6A844"/>
			<stop  offset="1" style="stop-color:#C96B25"/>
		</linearGradient>
		<path id="RED_x2F_ORANGE_5_1_" fill="url(#RED_x2F_ORANGE_5_2_)" d="M8,48c0,29.6,10.4,40,40,40c29.6,0,40-10.4,40-40
			c0-29-9.9-39.5-38.1-40h-3.8C17.9,8.5,8,19,8,48z"/>
		<linearGradient id="HIGHLIGHTS_RO5_1_" gradientUnits="userSpaceOnUse" x1="48" y1="8.256" x2="48" y2="87.504">
			<stop  offset="0" style="stop-color:#FFFFFF"/>
			<stop  offset="9.577867e-002" style="stop-color:#FDF8F5"/>
			<stop  offset="0.2579" style="stop-color:#F6E6DB"/>
			<stop  offset="0.4666" style="stop-color:#EBC9AF"/>
			<stop  offset="0.7136" style="stop-color:#DCA073"/>
			<stop  offset="0.9904" style="stop-color:#CA6D28"/>
			<stop  offset="1" style="stop-color:#C96B25"/>
		</linearGradient>
		<path id="HIGHLIGHTS_RO5" opacity="0.25" fill="url(#HIGHLIGHTS_RO5_1_)" d="M48,8C18.4,8,8,18.4,8,48c0,29.6,10.4,40,40,40
			c29.6,0,40-10.4,40-40C88,18.4,77.6,8,48,8z M48,87C18.8,87,9,77.2,9,48S18.8,9,48,9s39,9.8,39,39S77.2,87,48,87z"/>
	</g>
	<g id="ORANGE_4" display="none">
		<linearGradient id="RED_x2F_ORANGE_4_1_" gradientUnits="userSpaceOnUse" x1="48" y1="8.0107" x2="48" y2="87.9893">
			<stop  offset="3.636400e-002" style="stop-color:#FBBF60"/>
			<stop  offset="0.2109" style="stop-color:#F8B556"/>
			<stop  offset="0.503" style="stop-color:#F19B3D"/>
			<stop  offset="1" style="stop-color:#C76121"/>
		</linearGradient>
		<path id="RED_x2F_ORANGE_4_2_" display="inline" fill="url(#RED_x2F_ORANGE_4_1_)" d="M8,48c0,29.6,10.4,40,40,40
			c29.6,0,40-10.4,40-40c0-29-9.9-39.5-38.1-40h-3.8C17.9,8.5,8,19,8,48z"/>
		<linearGradient id="HIGHLIGHTS_RO4_2_" gradientUnits="userSpaceOnUse" x1="48" y1="8.256" x2="48" y2="87.504">
			<stop  offset="3.636400e-002" style="stop-color:#FFFFFF"/>
			<stop  offset="0.1274" style="stop-color:#FDF8F5"/>
			<stop  offset="0.2815" style="stop-color:#F6E5DB"/>
			<stop  offset="0.4799" style="stop-color:#EBC6AF"/>
			<stop  offset="0.7147" style="stop-color:#DC9C73"/>
			<stop  offset="0.9778" style="stop-color:#C96628"/>
			<stop  offset="1" style="stop-color:#C76121"/>
		</linearGradient>
		<path id="HIGHLIGHTS_RO4_1_" display="inline" opacity="0.25" fill="url(#HIGHLIGHTS_RO4_2_)" d="M48,8C18.4,8,8,18.4,8,48
			c0,29.6,10.4,40,40,40c29.6,0,40-10.4,40-40C88,18.4,77.6,8,48,8z M48,87C18.8,87,9,77.2,9,48S18.8,9,48,9s39,9.8,39,39
			S77.2,87,48,87z"/>
	</g>
	<g id="ORANGE_3" display="none">
		<linearGradient id="RED_x2F_ORANGE_3_2_" gradientUnits="userSpaceOnUse" x1="48" y1="8.0107" x2="48" y2="87.9893">
			<stop  offset="3.636400e-002" style="stop-color:#F6B85E"/>
			<stop  offset="0.2008" style="stop-color:#F4AE5A"/>
			<stop  offset="0.478" style="stop-color:#EE9451"/>
			<stop  offset="0.5394" style="stop-color:#EC8D4E"/>
			<stop  offset="0.8228" style="stop-color:#D46A3B"/>
			<stop  offset="1" style="stop-color:#C95932"/>
		</linearGradient>
		<path id="RED_x2F_ORANGE_3_1_" display="inline" fill="url(#RED_x2F_ORANGE_3_2_)" d="M8,48c0,29.6,10.4,40,40,40
			c29.6,0,40-10.4,40-40c0-29-9.9-39.5-38.1-40h-3.8C17.9,8.5,8,19,8,48z"/>
		<linearGradient id="HIGHLIGHTS_RO3_2_" gradientUnits="userSpaceOnUse" x1="48" y1="8.256" x2="48" y2="87.504">
			<stop  offset="3.636400e-002" style="stop-color:#FFFFFF"/>
			<stop  offset="0.133" style="stop-color:#FCF7F5"/>
			<stop  offset="0.2967" style="stop-color:#F5E2DB"/>
			<stop  offset="0.5073" style="stop-color:#EABFAF"/>
			<stop  offset="0.7537" style="stop-color:#DA8F74"/>
			<stop  offset="1" style="stop-color:#C95932"/>
		</linearGradient>
		<path id="HIGHLIGHTS_RO3_1_" display="inline" opacity="0.25" fill="url(#HIGHLIGHTS_RO3_2_)" d="M48,8C18.4,8,8,18.4,8,48
			c0,29.6,10.4,40,40,40c29.6,0,40-10.4,40-40C88,18.4,77.6,8,48,8z M48,87C18.8,87,9,77.2,9,48S18.8,9,48,9s39,9.8,39,39
			S77.2,87,48,87z"/>
	</g>
	<g id="ORANGE_2" display="none">
		<linearGradient id="RED_x2F_ORANGE_2_1_" gradientUnits="userSpaceOnUse" x1="48" y1="8.0107" x2="48" y2="87.9893">
			<stop  offset="3.636400e-002" style="stop-color:#FAA824"/>
			<stop  offset="0.3742" style="stop-color:#EA8A20"/>
			<stop  offset="1" style="stop-color:#C74A17"/>
		</linearGradient>
		<path id="RED_x2F_ORANGE_2_2_" display="inline" fill="url(#RED_x2F_ORANGE_2_1_)" d="M8,48c0,29.6,10.4,40,40,40
			c29.6,0,40-10.4,40-40c0-29-9.9-39.5-38.1-40h-3.8C17.9,8.5,8,19,8,48z"/>
		<linearGradient id="HIGHLIGHTS_RO2_1_" gradientUnits="userSpaceOnUse" x1="48" y1="8.256" x2="48" y2="87.504">
			<stop  offset="3.636400e-002" style="stop-color:#FFFFFF"/>
			<stop  offset="0.185" style="stop-color:#F8E8E1"/>
			<stop  offset="0.5097" style="stop-color:#E5AC95"/>
			<stop  offset="0.9833" style="stop-color:#C84D1B"/>
			<stop  offset="1" style="stop-color:#C74A17"/>
		</linearGradient>
		<path id="HIGHLIGHTS_RO2_2_" display="inline" opacity="0.25" fill="url(#HIGHLIGHTS_RO2_1_)" d="M48,8C18.4,8,8,18.4,8,48
			c0,29.6,10.4,40,40,40c29.6,0,40-10.4,40-40C88,18.4,77.6,8,48,8z M48,87C18.8,87,9,77.2,9,48S18.8,9,48,9s39,9.8,39,39
			S77.2,87,48,87z"/>
	</g>
	<g id="ORANGE_1" display="none">
		<linearGradient id="RED_x2F_ORANGE_1_2_" gradientUnits="userSpaceOnUse" x1="48" y1="8.0107" x2="48" y2="87.9893">
			<stop  offset="3.636400e-002" style="stop-color:#FF8A36"/>
			<stop  offset="0.3489" style="stop-color:#EF7130"/>
			<stop  offset="1" style="stop-color:#C73321"/>
		</linearGradient>
		<path id="RED_x2F_ORANGE_1_1_" display="inline" fill="url(#RED_x2F_ORANGE_1_2_)" d="M8,48c0,29.6,10.4,40,40,40
			c29.6,0,40-10.4,40-40c0-29-9.9-39.5-38.1-40h-3.8C17.9,8.5,8,19,8,48z"/>
		<linearGradient id="HIGHLIGHTS_RO1_2_" gradientUnits="userSpaceOnUse" x1="48" y1="8.256" x2="48" y2="87.504">
			<stop  offset="3.636400e-002" style="stop-color:#FFFFFF"/>
			<stop  offset="0.1274" style="stop-color:#FCF7F5"/>
			<stop  offset="0.2815" style="stop-color:#F5E0DB"/>
			<stop  offset="0.4799" style="stop-color:#EABBAF"/>
			<stop  offset="0.7147" style="stop-color:#DA8873"/>
			<stop  offset="0.9778" style="stop-color:#C64828"/>
			<stop  offset="1" style="stop-color:#C44221"/>
		</linearGradient>
		<path id="HIGHLIGHTS_RO1_1_" display="inline" opacity="0.25" fill="url(#HIGHLIGHTS_RO1_2_)" d="M48,8C18.4,8,8,18.4,8,48
			c0,29.6,10.4,40,40,40c29.6,0,40-10.4,40-40C88,18.4,77.6,8,48,8z M48,87C18.8,87,9,77.2,9,48S18.8,9,48,9s39,9.8,39,39
			S77.2,87,48,87z"/>
	</g>
</g>
<g id="PLACE_YOUR_GRAPHIC_HERE">
	<g id="DO_NOT_EDIT_-_BOUNDING_BOX_1_">
		<rect id="BOUNDING_BOX_1_" x="14.5" y="19.5" fill="none" width="67" height="57"/>
	</g>
	<g id="PLACE_YOUR_GRAPHIC_HERE_1_">
		<path opacity="0.3" enable-background="new    " d="M66.5,26.5h-37c-0.5,0-1,0.4-1,1v5c0,0.5,0.5,1,1,1h37c0.6,0,1-0.5,1-1v-5
			C67.5,27,67.1,26.5,66.5,26.5z M53.5,37.5c0-0.6-0.5-1-1-1h-9c-0.5,0-1,0.4-1,1v12h-6.9l6.2,10.8L48,71.2l6.2-10.8l6.2-10.8h-6.9
			V37.5z"/>
		<path opacity="0.15" enable-background="new    " d="M48,71.2c-0.4,0-0.7-0.2-0.9-0.5L34.8,49c-0.2-0.3-0.2-0.7,0-1
			c0.2-0.3,0.5-0.5,0.9-0.5h5.9v-11c0-1.1,0.9-2,2-2h9c1.1,0,2,0.9,2,2v11h5.9c0.4,0,0.7,0.2,0.9,0.5c0.2,0.3,0.2,0.7,0,1L48.9,70.7
			C48.7,71,48.4,71.2,48,71.2L48,71.2z M29.5,33.5c-1.1,0-2-0.9-2-2v-5c0-1.1,0.9-2,2-2h37c1.1,0,2,0.9,2,2v5c0,1.1-0.9,2-2,2H29.5z
			"/>
		<path opacity="0.15" enable-background="new    " d="M66.5,25.5h-37c-0.5,0-1,0.4-1,1v5c0,0.6,0.5,1,1,1h37c0.6,0,1-0.5,1-1v-5
			C67.5,26,67.1,25.5,66.5,25.5z M53.5,36.5c0-0.6-0.5-1-1-1h-9c-0.5,0-1,0.4-1,1v12h-6.9l6.2,10.8L48,70.2l6.2-10.8l6.2-10.8h-6.9
			V36.5z"/>
		
			<linearGradient id="SVGID_1_" gradientUnits="userSpaceOnUse" x1="48" y1="27.833" x2="48" y2="72.5" gradientTransform="matrix(1 0 0 -1 0 98)">
			<stop  offset="0" style="stop-color:#D0CBC5"/>
			<stop  offset="0.5031" style="stop-color:#FAFCEF"/>
			<stop  offset="0.9693" style="stop-color:#FFFFFF"/>
		</linearGradient>
		<path fill="url(#SVGID_1_)" d="M66.5,25.5h-37c-0.5,0-1,0.4-1,1v5c0,0.6,0.5,1,1,1h37c0.6,0,1-0.5,1-1v-5
			C67.5,26,67.1,25.5,66.5,25.5z M53.5,36.5c0-0.6-0.5-1-1-1h-9c-0.5,0-1,0.4-1,1v12h-6.9l6.2,10.8L48,70.2l6.2-10.8l6.2-10.8h-6.9
			V36.5z"/>
		<path fill="#FFFFFF" d="M36.2,49.5h6.3v-1h-6.9L36.2,49.5z M66.5,25.5h-37c-0.5,0-1,0.4-1,1v1c0-0.6,0.5-1,1-1h37c0.6,0,1,0.4,1,1
			v-1C67.5,26,67.1,25.5,66.5,25.5z M53.5,36.5c0-0.6-0.5-1-1-1h-9c-0.5,0-1,0.4-1,1v1c0-0.6,0.5-1,1-1h9c0.5,0,1,0.4,1,1V36.5z
			 M53.5,49.5h6.3l0.6-1h-6.9V49.5z"/>
	</g>
	<g id="DO_NOT_EDIT_-_FOCAL_ZONE_GUIDES">
	</g>
</g>
<g id="DO_NOT_EDIT_-_FOCAL_ZONE_GUIDES_ONLY">
</g>
</svg>
