<?xml version="1.0" encoding="utf-8"?>
<!-- Generator: Adobe Illustrator 18.0.0, SVG Export Plug-In . SVG Version: 6.00 Build 0)  -->
<!DOCTYPE svg PUBLIC "-//W3C//DTD SVG 1.1//EN" "http://www.w3.org/Graphics/SVG/1.1/DTD/svg11.dtd">
<svg version="1.1" id="Warstwa_1" xmlns="http://www.w3.org/2000/svg" xmlns:xlink="http://www.w3.org/1999/xlink" x="0px" y="0px"
	 viewBox="5 0 57 57" enable-background="new 5 0 57 57" xml:space="preserve">
<g id="PLACE_YOUR_GRAPHIC_HERE">
	<path opacity="0.3" d="M54.3,56.1c-0.4,0-0.8-0.1-1.1-0.4c0,0-0.1-0.1-0.1-0.1L46.5,51l-6.6,4.7c0,0-0.1,0.1-0.1,0.1
		c-0.3,0.2-0.6,0.3-1,0.3c-1.1,0-1.9-0.9-1.9-1.9c0-0.3,0.1-0.5,0.2-0.8l2.5-7.4c0,0-6.5-4.6-6.5-4.6c-0.6-0.4-0.9-1-0.9-1.6
		c0-1.1,0.9-1.9,1.9-1.9c0,0,8.2,0,8.2,0l2.5-7.6c0-0.1,0.1-0.2,0.1-0.2c0.3-0.6,1-1.1,1.7-1.1c0.8,0,1.6,0.5,1.8,1.3l2.5,7.6
		c0,0,8.2,0,8.2,0c0,0,0.1,0,0.1,0c1,0.1,1.8,0.9,1.8,1.9c0,0.6-0.2,1.1-0.7,1.4c0,0-0.1,0.1-0.1,0.1L53.6,46l2.5,7.5l0.1,0.2
		c0,0.1,0.1,0.3,0.1,0.5C56.2,55.3,55.4,56.1,54.3,56.1z"/>
	<path opacity="0.3" fill="#FFFFFF" d="M54.3,56.1c-0.4,0-0.8-0.1-1.1-0.4c0,0-0.1-0.1-0.1-0.1L46.5,51l-6.6,4.7
		c0,0-0.1,0.1-0.1,0.1c-0.3,0.2-0.6,0.3-1,0.3c-1.1,0-1.9-0.9-1.9-1.9c0-0.3,0.1-0.5,0.2-0.8l2.5-7.4c0,0-6.5-4.6-6.5-4.6
		c-0.6-0.4-0.9-1-0.9-1.6c0-1.1,0.9-1.9,1.9-1.9c0,0,8.2,0,8.2,0l2.5-7.6c0-0.1,0.1-0.2,0.1-0.2c0.3-0.6,1-1.1,1.7-1.1
		c0.8,0,1.6,0.5,1.8,1.3l2.5,7.6c0,0,8.2,0,8.2,0c0,0,0.1,0,0.1,0c1,0.1,1.8,0.9,1.8,1.9c0,0.6-0.2,1.1-0.7,1.4c0,0-0.1,0.1-0.1,0.1
		L53.6,46l2.5,7.5l0.1,0.2c0,0.1,0.1,0.3,0.1,0.5C56.2,55.3,55.4,56.1,54.3,56.1z"/>
	<path opacity="0.7" d="M54.3,56.1c-0.4,0-0.8-0.1-1.1-0.4c0,0-0.1-0.1-0.1-0.1L46.5,51l-6.6,4.7c0,0-0.1,0.1-0.1,0.1
		c-0.3,0.2-0.6,0.3-1,0.3c-1.1,0-1.9-0.9-1.9-1.9c0-0.3,0.1-0.5,0.2-0.8l2.5-7.4c0,0-6.5-4.6-6.5-4.6c-0.6-0.4-0.9-1-0.9-1.6
		c0-1.1,0.9-1.9,1.9-1.9c0,0,8.2,0,8.2,0l2.5-7.6c0-0.1,0.1-0.2,0.1-0.2c0.3-0.6,1-1.1,1.7-1.1c0.8,0,1.6,0.5,1.8,1.3l2.5,7.6
		c0,0,8.2,0,8.2,0c0,0,0.1,0,0.1,0c1,0.1,1.8,0.9,1.8,1.9c0,0.6-0.2,1.1-0.7,1.4c0,0-0.1,0.1-0.1,0.1L53.6,46l2.5,7.5l0.1,0.2
		c0,0.1,0.1,0.3,0.1,0.5C56.2,55.3,55.4,56.1,54.3,56.1z"/>
	<path opacity="0.15" enable-background="new    " d="M60,38.7c0-0.5-0.4-0.9-0.9-0.9h0c0,0,0,0,0,0c0,0,0,0,0,0l-8.9,0l-2.8-8.3
		c-0.1-0.4-0.5-0.6-0.9-0.6c-0.4,0-0.7,0.3-0.9,0.6h0l-2.8,8.3l-8.8,0l0,0c0,0-0.1,0-0.1,0c-0.5,0-0.9,0.4-0.9,0.9
		c0,0.4,0.2,0.7,0.5,0.8l0,0l7.1,5l-2.7,8.2c-0.1,0.1-0.1,0.3-0.1,0.4c0,0.5,0.4,0.9,0.9,0.9c0.2,0,0.4-0.1,0.5-0.2l0,0l7.2-5.2
		l7.1,5.1c0,0,0,0,0,0l0.1,0h0c0.2,0.1,0.4,0.2,0.6,0.2c0.5,0,0.9-0.4,0.9-0.9c0-0.1,0-0.2,0-0.2l0,0l0-0.1c0,0,0-0.1,0-0.1
		l-2.7-8.2l7.2-5.1l0,0C59.8,39.3,60,39,60,38.7z"/>
	<linearGradient id="SVGID_1_" gradientUnits="userSpaceOnUse" x1="46.5175" y1="29.8421" x2="46.5175" y2="55.1261">
		<stop  offset="0" style="stop-color:#F8BE15"/>
		<stop  offset="0.5031" style="stop-color:#FFF483"/>
		<stop  offset="0.9693" style="stop-color:#FFF8AA"/>
	</linearGradient>
	<path fill="url(#SVGID_1_)" d="M60,39.7c0-0.5-0.4-0.9-0.9-0.9h0c0,0,0,0,0,0c0,0,0,0,0,0l-8.9,0l-2.8-8.3
		c-0.1-0.4-0.5-0.6-0.9-0.6c-0.4,0-0.7,0.3-0.9,0.6h0l-2.8,8.3l-8.8,0l0,0c0,0-0.1,0-0.1,0c-0.5,0-0.9,0.4-0.9,0.9
		c0,0.4,0.2,0.7,0.5,0.8l0,0l7.1,5l-2.7,8.2c-0.1,0.1-0.1,0.3-0.1,0.4c0,0.5,0.4,0.9,0.9,0.9c0.2,0,0.4-0.1,0.5-0.2l0,0l7.2-5.2
		l7.1,5.1c0,0,0,0,0,0l0.1,0h0c0.2,0.1,0.4,0.2,0.6,0.2c0.5,0,0.9-0.4,0.9-0.9c0-0.1,0-0.2,0-0.2l0,0l0-0.1c0,0,0-0.1,0-0.1
		l-2.7-8.2l7.2-5.1l0,0C59.8,40.3,60,40,60,39.7z"/>
</g>
<g id="DO_NOT_EDIT_-_FOCAL_ZONE_GUIDES">
</g>
</svg>
