<?xml version="1.0" encoding="utf-8"?>
<!-- Generator: Adobe Illustrator 18.0.0, SVG Export Plug-In . SVG Version: 6.00 Build 0)  -->
<!DOCTYPE svg PUBLIC "-//W3C//DTD SVG 1.1//EN" "http://www.w3.org/Graphics/SVG/1.1/DTD/svg11.dtd">
<svg version="1.1" xmlns="http://www.w3.org/2000/svg" xmlns:xlink="http://www.w3.org/1999/xlink" x="0px" y="0px" width="96px"
	 height="96px" viewBox="0 0 96 96" enable-background="new 0 0 96 96" xml:space="preserve">
<g id="DO_NOT_EDIT_-_BOUNDING_BOX">
	<rect id="BOUNDING_BOX" fill="none" width="96" height="96"/>
</g>
<g id="DO_NOT_EDIT_-_SHADOW">
	<path id="SHADOW" opacity="0.4" d="M88,49c0,29.6-10.4,40-40,40C18.4,89,8,78.6,8,49C8,19.4,18.4,9,48,9C77.7,9,88,19.4,88,49z"/>
</g>
<g id="ORANGE_BACKGROUNDS">
	<g id="ORANGE_1">
		<linearGradient id="RED_x2F_ORANGE_1_2_" gradientUnits="userSpaceOnUse" x1="48" y1="8.0107" x2="48" y2="87.9893">
			<stop  offset="3.636400e-002" style="stop-color:#FF8A36"/>
			<stop  offset="0.3489" style="stop-color:#EF7130"/>
			<stop  offset="1" style="stop-color:#C73321"/>
		</linearGradient>
		<path id="RED_x2F_ORANGE_1_1_" fill="url(#RED_x2F_ORANGE_1_2_)" d="M8,48c0,29.6,10.4,40,40,40c29.6,0,40-10.4,40-40
			c0-29-9.9-39.5-38.1-40h-3.8C17.9,8.5,8,19,8,48z"/>
		<linearGradient id="HIGHLIGHTS_RO1_2_" gradientUnits="userSpaceOnUse" x1="48" y1="8.256" x2="48" y2="87.504">
			<stop  offset="3.636400e-002" style="stop-color:#FFFFFF"/>
			<stop  offset="0.1274" style="stop-color:#FCF7F5"/>
			<stop  offset="0.2815" style="stop-color:#F5E0DB"/>
			<stop  offset="0.4799" style="stop-color:#EABBAF"/>
			<stop  offset="0.7147" style="stop-color:#DA8873"/>
			<stop  offset="0.9778" style="stop-color:#C64828"/>
			<stop  offset="1" style="stop-color:#C44221"/>
		</linearGradient>
		<path id="HIGHLIGHTS_RO1_1_" opacity="0.25" fill="url(#HIGHLIGHTS_RO1_2_)" d="M48,8C18.4,8,8,18.4,8,48c0,29.6,10.4,40,40,40
			c29.6,0,40-10.4,40-40C88,18.4,77.6,8,48,8z M48,87C18.8,87,9,77.2,9,48S18.8,9,48,9s39,9.8,39,39S77.2,87,48,87z"/>
	</g>
</g>
<g id="PLACE_YOUR_GRAPHIC_HERE">
	<g id="DO_NOT_EDIT_-_BOUNDING_BOX_1_">
		<rect id="BOUNDING_BOX_1_" x="14.5" y="19.5" fill="none" width="67" height="57"/>
	</g>
	<g id="DO_NOT_EDIT_-_FOCAL_ZONE_GUIDES">
	</g>
	<g id="DO_NOT_EDIT_-_BOUNDING_BOX_2_">
		<rect id="BOUNDING_BOX_2_" x="14.7" y="17.2" fill="none" width="67" height="57"/>
	</g>
	<g id="PLACE_YOUR_GRAPHIC_HERE_1_">
		<path opacity="0.3" enable-background="new    " d="M42.7,58.2c0,0.6,0.5,1,1,1h9c0.5,0,1-0.4,1-1v-12h6.9l-6.2-10.8l-6.2-10.8
			L42,35.3l-6.2,10.8h6.9V58.2z M66.7,62.2h-37c-0.6,0-1,0.5-1,1v5c0,0.6,0.4,1,1,1h37c0.5,0,1-0.4,1-1v-5
			C67.7,62.6,67.3,62.2,66.7,62.2z"/>
		<path opacity="0.15" enable-background="new    " d="M29.7,69.2c-1.1,0-2-0.9-2-2v-5c0-1.1,0.9-2,2-2h37c1.1,0,2,0.9,2,2v5
			c0,1.1-0.9,2-2,2H29.7z M43.7,59.2c-1.1,0-2-0.9-2-2v-11h-5.9c-0.4,0-0.7-0.2-0.9-0.5c-0.2-0.3-0.2-0.7,0-1L47.3,23
			c0.2-0.3,0.5-0.5,0.9-0.5s0.7,0.2,0.9,0.5l12.4,21.7c0.2,0.3,0.2,0.7,0,1c-0.2,0.3-0.5,0.5-0.9,0.5h-5.9v11c0,1.1-0.9,2-2,2H43.7z
			"/>
		<path opacity="0.15" enable-background="new    " d="M42.7,57.2c0,0.6,0.5,1,1,1h9c0.5,0,1-0.4,1-1v-12h6.9l-6.2-10.8l-6.2-10.8
			L42,34.3l-6.2,10.8h6.9V57.2z M66.7,61.2h-37c-0.6,0-1,0.5-1,1v5c0,0.6,0.4,1,1,1h37c0.5,0,1-0.4,1-1v-5
			C67.7,61.6,67.3,61.2,66.7,61.2z"/>
		
			<linearGradient id="SVGID_1_" gradientUnits="userSpaceOnUse" x1="48.2149" y1="29.8335" x2="48.2149" y2="74.5005" gradientTransform="matrix(1 0 0 -1 0 98)">
			<stop  offset="0" style="stop-color:#D0CBC5"/>
			<stop  offset="0.5031" style="stop-color:#FAFCEF"/>
			<stop  offset="0.9693" style="stop-color:#FFFFFF"/>
		</linearGradient>
		<path fill="url(#SVGID_1_)" d="M42.7,57.2c0,0.6,0.5,1,1,1h9c0.5,0,1-0.4,1-1v-12h6.9l-6.2-10.8l-6.2-10.8L42,34.3l-6.2,10.8h6.9
			V57.2z M66.7,61.2h-37c-0.6,0-1,0.5-1,1v5c0,0.6,0.4,1,1,1h37c0.5,0,1-0.4,1-1v-5C67.7,61.6,67.3,61.2,66.7,61.2z"/>
		<path fill="#FFFFFF" d="M66.7,61.2h-37c-0.6,0-1,0.5-1,1v1c0-0.5,0.4-1,1-1h37c0.5,0,1,0.5,1,1v-1C67.7,61.6,67.3,61.2,66.7,61.2z
			 M42,35.3l6.2-10.8l6.2,10.8l5.6,9.8h0.6l-6.2-10.8l-6.2-10.8L42,34.3l-6.2,10.8h0.6L42,35.3z"/>
	</g>
	<g id="DO_NOT_EDIT_-_FOCAL_ZONE_GUIDES_1_">
	</g>
</g>
<g id="DO_NOT_EDIT_-_FOCAL_ZONE_GUIDES_ONLY">
</g>
</svg>
