<?xml version="1.0" encoding="utf-8"?>
<!-- Generator: Adobe Illustrator 18.0.0, SVG Export Plug-In . SVG Version: 6.00 Build 0)  -->
<!DOCTYPE svg PUBLIC "-//W3C//DTD SVG 1.1//EN" "http://www.w3.org/Graphics/SVG/1.1/DTD/svg11.dtd">
<svg version="1.1" xmlns="http://www.w3.org/2000/svg" xmlns:xlink="http://www.w3.org/1999/xlink" x="0px" y="0px" width="96px"
	 height="96px" viewBox="0 0 96 96" enable-background="new 0 0 96 96" xml:space="preserve">
<g id="DO_NOT_EDIT_-_BOUNDING_BOX">
	<rect id="BOUNDING_BOX" fill="none" width="96" height="96"/>
</g>
<g id="DO_NOT_EDIT_-_SHADOW">
	<path id="SHADOW" opacity="0.4" d="M88,49c0,29.6-10.4,40-40,40C18.4,89,8,78.6,8,49C8,19.4,18.4,9,48,9C77.7,9,88,19.4,88,49z"/>
</g>
<g id="GREEN_BACKGROUNDS">
	<g id="GREEN3">
		<linearGradient id="GREEN_3_1_" gradientUnits="userSpaceOnUse" x1="48" y1="8.0107" x2="48" y2="87.9893">
			<stop  offset="3.636400e-002" style="stop-color:#70B83B"/>
			<stop  offset="0.2066" style="stop-color:#6AAE37"/>
			<stop  offset="0.4945" style="stop-color:#5B942B"/>
			<stop  offset="0.8626" style="stop-color:#426917"/>
			<stop  offset="1" style="stop-color:#38570F"/>
		</linearGradient>
		<path id="GREEN_3_2_" fill-rule="evenodd" clip-rule="evenodd" fill="url(#GREEN_3_1_)" d="M8,48c0,29.6,10.4,40,40,40
			c29.6,0,40-10.4,40-40c0-29-9.9-39.5-38.1-40h-3.8C17.9,8.5,8,19,8,48z"/>
		<linearGradient id="HIGHLIGHT_GR3_1_" gradientUnits="userSpaceOnUse" x1="48" y1="8" x2="48" y2="88">
			<stop  offset="3.636400e-002" style="stop-color:#FFFFFF"/>
			<stop  offset="0.1222" style="stop-color:#F7F8F5"/>
			<stop  offset="0.2675" style="stop-color:#E1E5DB"/>
			<stop  offset="0.4545" style="stop-color:#BDC7AF"/>
			<stop  offset="0.6759" style="stop-color:#8B9D73"/>
			<stop  offset="0.9238" style="stop-color:#4D6828"/>
			<stop  offset="1" style="stop-color:#38570F"/>
		</linearGradient>
		<path id="HIGHLIGHT_GR3" opacity="0.25" fill="url(#HIGHLIGHT_GR3_1_)" d="M48,8C18.4,8,8,18.4,8,48c0,29.6,10.4,40,40,40
			c29.6,0,40-10.4,40-40C88,18.4,77.6,8,48,8z M48,87C18.8,87,9,77.2,9,48S18.8,9,48,9s39,9.8,39,39S77.2,87,48,87z"/>
	</g>
</g>
<g id="PLACE_YOUR_GRAPHIC_HERE">
	<g id="New_Symbol_12">
		<g>
			<rect x="8.9" y="8.9" fill="none" width="78.7" height="78.7"/>
			<g>
				<path opacity="5.000000e-002" d="M48.2,8.9C19.1,8.9,8.9,19,8.9,48.2c0,29.1,10.2,39.3,39.3,39.3c29.1,0,39.3-10.2,39.3-39.3
					C87.5,19,77.4,8.9,48.2,8.9z M48.2,81.6c-24.9,0-32.5-7.6-32.5-32.5c0-24.9,7.6-32.5,32.5-32.5c5.8,0,10.6,0.5,14.6,1.4
					L48.1,32.8l-5.9-5.9c-0.8-0.8-1.8-1.2-2.8-1.2c-1.9,0-3.5,1.4-3.8,3.4l-5.1,32.8c0,0.3-0.1,0.6-0.1,0.9c0,1.6,0.6,3,1.7,4
					c0.9,0.8,2.2,1.3,3.5,1.3c0.3,0,0.6,0,0.9-0.1l32.7-5.1c1.5-0.2,2.7-1.2,3.2-2.6c0.5-1.4,0.1-2.9-1-4l-5.9-5.9l14-14
					c0.7,3.6,1.1,7.8,1.1,12.9C80.7,74,73.1,81.6,48.2,81.6z"/>
				<path opacity="0.1" d="M48.2,8.9C19.1,8.9,8.9,19,8.9,48.2c0,29.1,10.2,39.3,39.3,39.3c29.1,0,39.3-10.2,39.3-39.3
					C87.5,19,77.4,8.9,48.2,8.9z M48.2,82.6c-25.3,0-33.4-8.1-33.4-33.4s8.1-33.4,33.4-33.4c6.7,0,12.1,0.6,16.5,1.9L48.1,34.2
					l-6.6-6.6c-0.6-0.6-1.3-0.9-2.1-0.9c-1.4,0-2.6,1.1-2.8,2.6l-5.1,32.8c0,0.3,0,0.5,0,0.7c0,1.3,0.5,2.4,1.4,3.2
					c0.8,0.7,1.7,1,2.9,1c0.2,0,0.5,0,0.8-0.1l32.7-5.1c1.2-0.2,2.1-0.9,2.4-1.9c0.3-1,0.1-2.2-0.7-3l-6.6-6.6l16-16
					c1,4,1.5,8.9,1.5,14.8C81.6,74.5,73.5,82.6,48.2,82.6z"/>
				<path opacity="0.1" d="M43,9C43,9,43,9,43,9C17.8,10.2,8.9,20.9,8.9,48.2c0,29.1,10.2,39.3,39.3,39.3
					c29.1,0,39.3-10.2,39.3-39.3c0-27.3-9-38-34.1-39.2c0,0-0.1,0-0.1,0c-0.8,0-1.6-0.1-2.5-0.1c-0.9,0-1.8,0-2.7,0
					c-0.9,0-1.8,0-2.7,0C44.7,8.9,43.8,8.9,43,9z M66.5,17.2L48.1,35.6l-7.3-7.3c-0.4-0.4-0.9-0.6-1.4-0.6c-0.9,0-1.7,0.7-1.8,1.7
					l-5.1,32.8c0,0.2,0,0.4,0,0.6c0,1,0.4,1.9,1,2.5c0.6,0.5,1.3,0.8,2.2,0.8c0.2,0,0.4,0,0.6,0L69,60.9c0.8-0.1,1.4-0.6,1.6-1.2
					c0.2-0.7,0-1.4-0.5-2l-7.3-7.3l17.9-17.9c1.3,4.4,1.9,9.9,1.9,16.7c0,25.7-8.7,34.4-34.4,34.4s-34.4-8.7-34.4-34.4
					c0-25.7,8.7-34.4,34.4-34.4C55.8,14.8,61.8,15.5,66.5,17.2z"/>
				<path opacity="0.3" d="M48.2,8.9C19.2,8.9,9,18.9,8.9,47.7C9,76.5,19.2,86.5,48.2,86.5c29,0,39.2-10.1,39.3-38.8
					C87.4,18.9,77.2,8.9,48.2,8.9z M83.6,48.2c0,26.2-9.2,35.4-35.4,35.4c-26.2,0-35.4-9.2-35.4-35.4c0-26.2,9.2-35.4,35.4-35.4
					c8.3,0,14.9,0.9,20.1,3L48.1,36l-8-8c-0.6-0.6-1.4-0.4-1.6,0.6l-5.1,32.7c0,0.2,0,0.3,0,0.5c0,0.7,0.2,1.3,0.7,1.7
					c0.5,0.4,1.2,0.6,2,0.5l32.8-5.2c0.9-0.1,1.1-1,0.5-1.6l-8-8l19.7-19.7C82.8,34.5,83.6,40.6,83.6,48.2z"/>
				<path opacity="0.3" d="M48.2,9.8C19.2,9.8,9,19.9,8.9,48.7C9,77.4,19.2,87.5,48.2,87.5c29,0,39.2-10.1,39.3-38.8
					C87.4,19.9,77.2,9.8,48.2,9.8z M83.6,49.2c0,26.2-9.2,35.4-35.4,35.4c-26.2,0-35.4-9.2-35.4-35.4c0-26.2,9.2-35.4,35.4-35.4
					c8.3,0,14.9,0.9,20.1,3L48.1,37l-8-8c-0.6-0.6-1.4-0.4-1.6,0.6l-5.1,32.7c0,0.2,0,0.3,0,0.5c0,0.7,0.2,1.3,0.7,1.7
					c0.5,0.4,1.2,0.6,2,0.5l32.8-5.2c0.9-0.1,1.1-1,0.5-1.6l-8-8l19.7-19.7C82.9,35.5,83.6,41.6,83.6,49.2z"/>
				<linearGradient id="SVGID_1_" gradientUnits="userSpaceOnUse" x1="48.2149" y1="87.52" x2="48.2149" y2="8.8504">
					<stop  offset="0" style="stop-color:#CCCAC6"/>
					<stop  offset="1" style="stop-color:#FFFFFF"/>
				</linearGradient>
				<path fill="url(#SVGID_1_)" d="M48.2,8.9C19.1,8.9,8.9,19,8.9,48.2c0,29.1,10.2,39.3,39.3,39.3c29.1,0,39.3-10.2,39.3-39.3
					C87.5,19,77.4,8.9,48.2,8.9z M48.2,83.6c-26.2,0-35.4-9.2-35.4-35.4c0-26.2,9.2-35.4,35.4-35.4c8.3,0,14.9,0.9,20.1,3L48.1,36
					l-8-8c-0.6-0.6-1.4-0.4-1.6,0.6l-5.1,32.7c0,0.2,0,0.3,0,0.5c0,0.7,0.2,1.3,0.7,1.7c0.5,0.4,1.2,0.6,2,0.5l32.8-5.2
					c0.9-0.1,1.1-1,0.5-1.6l-8-8l19.7-19.7c1.7,4.9,2.5,11,2.5,18.6C83.6,74.4,74.4,83.6,48.2,83.6z"/>
				<path fill="#FFFFFF" d="M48.1,36l-8-8c-0.6-0.6-1.4-0.4-1.6,0.6l-5.1,32.7c0,0.2,0,0.3,0,0.5c0,0.2,0,0.3,0,0.4l5.1-32.7
					c0.1-0.9,0.9-1.2,1.6-0.6l8,8l20.2-20.2c-0.2-0.1-0.5-0.2-0.7-0.3L48.1,36z M48.2,8.9C19.1,8.9,8.9,19,8.9,48.2
					c0,0.2,0,0.3,0,0.5C9,19.9,19.2,9.8,48.2,9.8c29,0,39.2,10.1,39.3,38.8c0-0.2,0-0.3,0-0.5C87.5,19,77.4,8.9,48.2,8.9z
					 M48.2,83.6c-26.1,0-35.3-9.1-35.4-34.9c0,0.2,0,0.3,0,0.5c0,26.2,9.2,35.4,35.4,35.4c26.2,0,35.4-9.2,35.4-35.4
					c0-0.2,0-0.3,0-0.5C83.5,74.5,74.3,83.6,48.2,83.6z M69.4,58.3c0.1,0.1,0.1,0.1,0.2,0.2c0.2-0.3,0.2-0.8-0.2-1.2l-7.5-7.5
					l-0.5,0.5L69.4,58.3z"/>
				<linearGradient id="SVGID_2_" gradientUnits="userSpaceOnUse" x1="48.2149" y1="87.52" x2="48.2149" y2="46.2184">
					<stop  offset="0" style="stop-color:#F4F5E9;stop-opacity:7.142900e-002"/>
					<stop  offset="0.7939" style="stop-color:#A09C98"/>
				</linearGradient>
				<path opacity="0.3" fill="url(#SVGID_2_)" d="M48.2,83.6c-28.5,0-38.9-9.7-39.3-37.4c0,0.6,0,1.3,0,2
					c0,29.1,10.2,39.3,39.3,39.3c29.1,0,39.3-10.2,39.3-39.3c0-0.7,0-1.3,0-2C87.1,73.8,76.7,83.6,48.2,83.6z"/>
				<linearGradient id="SVGID_3_" gradientUnits="userSpaceOnUse" x1="48.2149" y1="9.0994" x2="48.2149" y2="87.0261">
					<stop  offset="0" style="stop-color:#FFFFFF"/>
					<stop  offset="1" style="stop-color:#FFFFFF;stop-opacity:0"/>
				</linearGradient>
				<path opacity="0.15" fill="url(#SVGID_3_)" d="M48.2,8.9C19.1,8.9,8.9,19,8.9,48.2c0,29.1,10.2,39.3,39.3,39.3
					c29.1,0,39.3-10.2,39.3-39.3C87.5,19,77.4,8.9,48.2,8.9z M48.2,86.5c-28.7,0-38.4-9.7-38.4-38.4S19.5,9.8,48.2,9.8
					s38.4,9.7,38.4,38.4S76.9,86.5,48.2,86.5z"/>
			</g>
		</g>
	</g>
</g>
<g id="DO_NOT_EDIT_-_FOCAL_ZONE_GUIDES_ONLY">
</g>
</svg>
