<?xml version="1.0" encoding="utf-8"?>
<!-- Generator: Adobe Illustrator 17.1.0, SVG Export Plug-In . SVG Version: 6.00 Build 0)  -->
<!DOCTYPE svg PUBLIC "-//W3C//DTD SVG 1.1//EN" "http://www.w3.org/Graphics/SVG/1.1/DTD/svg11.dtd">
<svg version="1.1" id="Warstwa_1" xmlns="http://www.w3.org/2000/svg" xmlns:xlink="http://www.w3.org/1999/xlink" x="0px" y="0px"
	 viewBox="0 0 30 30" enable-background="new 0 0 30 30" xml:space="preserve">
<g id="DO_NOT_EDIT_-_BOUNDING_BOX">
	<rect id="BOUNDING_BOX" fill="none" width="30" height="30"/>
</g>
<path fill="#EA2227" d="M2,29c-0.3,0-0.5-0.1-0.7-0.3c-0.4-0.4-0.4-1,0-1.4l26-26c0.4-0.4,1-0.4,1.4,0c0.4,0.4,0.4,1,0,1.4l-26,26
	C2.5,28.9,2.3,29,2,29L2,29z"/>
<g>
	<path opacity="0.15" enable-background="new    " d="M30,10.3c-0.1-0.8-0.6-1.4-0.9-1.6c-0.8-0.8-2.3-1-2.8-1
		c-0.5-0.1-0.9-0.2-1.3-0.3l0,0c0.4,0.1,0.8,0.2,1.2,0.3c0,0,1.6,0.1,2.2,0.8c0,0,0.8,0.6,0.4,1.5c0.2,0.4,0.2,1-0.5,1.7l-5.5,5.5
		c1.1,0.6,1.8,1.7,1.8,3c0,0.2,0,0.3,0,0.5c0,0.2,0,0.4,0,0.5c0,1.9-1.6,3.5-3.5,3.5c-1.6,0-2.9-1.1-3.3-2.5l-6.2,6.2
		c-1.3,1.3-2.2,0.1-2.2,0.1c-0.7-0.6-0.8-2.2-0.8-2.2c-0.1-0.7-0.3-1.4-0.5-2l-0.8,0.8c0.1,0.4,0.3,0.8,0.3,1.3c0,0.4,0.2,1.9,1,2.8
		c0.2,0.3,0.8,0.9,1.8,0.9c0.7,0,1.3-0.3,1.9-0.9l5.2-5.2c0.8,1.1,2.1,1.8,3.6,1.8c2.5,0,4.5-2,4.5-4.5c0-1.5-0.7-2.8-1.8-3.6
		l5.2-5.2C29.9,11.5,30,10.8,30,10.3z"/>
	<path opacity="0.15" enable-background="new    " d="M3,16.7c-1.6-2.5-2.1-4.7-2-6.6C0.9,8.3,1.4,6.8,2,5.7
		C1.5,5.2,1.1,4.5,1.1,3.8c0-0.2,0-0.4,0.1-0.5c0-0.1-0.1-0.3-0.1-0.5c0-1.3,0.9-2.3,2.1-2.6C1.5,0.4,0.1,1.9,0.1,3.8
		c0,0.9,0.3,1.8,1,2.4C-0.1,8.5-1,12.4,2.2,17.3L5.6,22l0.7-0.7L3,16.7z"/>
	<path opacity="0.15" enable-background="new    " d="M10.6,0C10.6,0,10.6,0,10.6,0c0,0,0.1,0,0.2,0C10.8,0,10.7,0,10.6,0z"/>
	<path opacity="0.15" enable-background="new    " d="M6,1.4c0.9-0.6,2.2-1.1,3.7-1.3c-1.2,0.1-2.3,0.5-3.4,1c-0.7-0.6-1.5-1-2.4-1
		C4.7,0.1,5.5,0.6,6,1.4z"/>
	<path opacity="0.15" enable-background="new    " d="M21.8,5.7L21.8,5.7L22,5.6l-4.7-3.4c-1.5-1-3.1-1.6-4.6-2
		c1.2,0.3,2.6,0.8,4,1.8L21.8,5.7z"/>
	<path opacity="0.3" enable-background="new    " d="M2,5.7c-0.6,1.2-1.1,2.7-1,4.5C1.1,8.4,1.7,7,2.4,6C2.2,5.9,2.1,5.8,2,5.7z"/>
	<path opacity="0.15" enable-background="new    " d="M2,5.7c-0.6,1.2-1.1,2.7-1,4.5C1.1,8.4,1.7,7,2.4,6C2.2,5.9,2.1,5.8,2,5.7z"/>
	<path opacity="0.3" enable-background="new    " d="M1.1,2.8c0,0.2,0,0.3,0.1,0.5C1.4,2,2.5,1.1,3.8,1.1c0.9,0,1.8,0.5,2.2,1.2
		C8.1,1,11.9-0.1,16.7,3l4.6,3.3l0.6-0.6l0,0L16.7,2c-1.4-1-2.8-1.5-4-1.8c-0.3-0.1-0.6-0.1-0.9-0.2c0,0,0,0-0.1,0
		c-0.2,0-0.3,0-0.5,0c-0.1,0-0.3,0-0.4,0c-0.1,0-0.2,0-0.3,0c-0.3,0-0.6,0-0.9,0.1C8.1,0.2,6.9,0.8,6,1.4C5.5,0.6,4.7,0.1,3.8,0.1
		c-0.2,0-0.4,0-0.5,0.1C2,0.4,1.1,1.5,1.1,2.8z"/>
	<path opacity="0.15" enable-background="new    " d="M1.1,2.8c0,0.2,0,0.3,0.1,0.5C1.4,2,2.5,1.1,3.8,1.1c0.9,0,1.8,0.5,2.2,1.2
		C8.1,1,11.9-0.1,16.7,3l4.6,3.3l0.6-0.6l0,0L16.7,2c-1.4-1-2.8-1.5-4-1.8c-0.3-0.1-0.6-0.1-0.9-0.2c0,0,0,0-0.1,0
		c-0.2,0-0.3,0-0.5,0c-0.1,0-0.3,0-0.4,0c-0.1,0-0.2,0-0.3,0c-0.3,0-0.6,0-0.9,0.1C8.1,0.2,6.9,0.8,6,1.4C5.5,0.6,4.7,0.1,3.8,0.1
		c-0.2,0-0.4,0-0.5,0.1C2,0.4,1.1,1.5,1.1,2.8z"/>
	<path opacity="0.3" enable-background="new    " d="M22.2,17.9c1.3,0.4,2.2,1.5,2.4,2.8c0-0.1,0-0.3,0-0.5c0-1.3-0.7-2.4-1.8-3
		L22.2,17.9L22.2,17.9z"/>
	<path opacity="0.15" enable-background="new    " d="M22.2,17.9c1.3,0.4,2.2,1.5,2.4,2.8c0-0.1,0-0.3,0-0.5c0-1.3-0.7-2.4-1.8-3
		L22.2,17.9L22.2,17.9z"/>
	<path opacity="0.3" enable-background="new    " d="M28.5,9.4c0,0,0.3,0.2,0.4,0.5c0.4-0.9-0.4-1.5-0.4-1.5
		c-0.6-0.7-2.2-0.8-2.2-0.8c-0.4-0.1-0.8-0.2-1.2-0.3l-0.7,0.7c0.6,0.2,1.3,0.4,2,0.5C26.3,8.7,27.8,8.7,28.5,9.4z"/>
	<path opacity="0.15" enable-background="new    " d="M28.5,9.4c0,0,0.3,0.2,0.4,0.5c0.4-0.9-0.4-1.5-0.4-1.5
		c-0.6-0.7-2.2-0.8-2.2-0.8c-0.4-0.1-0.8-0.2-1.2-0.3l-0.7,0.7c0.6,0.2,1.3,0.4,2,0.5C26.3,8.7,27.8,8.7,28.5,9.4z"/>
	<path fill="#FFFFFF" d="M22.3,16.8L22.3,16.8c0.2,0.2,0.4,0.3,0.6,0.4l5.5-5.5c0.7-0.7,0.7-1.3,0.5-1.7c-0.1,0.2-0.3,0.4-0.5,0.7
		L22.3,16.8z"/>
	<path fill="#FFFFFF" d="M1.2,3.2c0,0.2-0.1,0.4-0.1,0.5c0,0.8,0.3,1.4,0.9,1.9C2.1,5.4,2.2,5.2,2.4,5C1.8,4.6,1.3,3.9,1.2,3.2z"/>
	<path fill="#FFFFFF" d="M9.4,28.5c0,0,0.9,1.3,2.2-0.1l6.2-6.2c0.4,1.4,1.7,2.5,3.3,2.5c1.9,0,3.5-1.6,3.5-3.5c0-0.2,0-0.4,0-0.5
		c-0.2,1.7-1.7,3-3.4,3c-1.6,0-2.9-1.1-3.3-2.5l-6.2,6.2c-1.3,1.3-2.2,0.1-2.2,0.1c-0.7-0.6-0.8-2.2-0.8-2.2
		c-0.1-0.4-0.2-0.8-0.3-1.2l-0.3,0.3c0.2,0.6,0.4,1.3,0.5,2C8.7,26.3,8.7,27.8,9.4,28.5z"/>
	<path fill="#FFFFFF" d="M6.7,20.8L3,15.7c-1.4-2.1-1.9-3.9-2-5.6c-0.1,1.9,0.4,4.1,2,6.6l3.3,4.6L6.7,20.8L6.7,20.8z"/>
	<path fill="#FFFFFF" d="M9.4,27.5c0,0,0.9,1.3,2.2-0.1l6.2-6.2c0.4,1.4,1.7,2.5,3.3,2.5c1.8,0,3.2-1.3,3.4-3
		c-0.2-1.3-1.2-2.4-2.4-2.8l0.1-0.1l0.6-0.6c-0.2-0.1-0.4-0.2-0.7-0.3l0.1-0.1l6.1-6.1c0.2-0.2,0.4-0.5,0.5-0.7
		c-0.2-0.3-0.4-0.5-0.4-0.5c-0.6-0.7-2.2-0.8-2.2-0.8c-0.7-0.1-1.4-0.3-2-0.5L8.4,24c0.1,0.4,0.2,0.8,0.3,1.2
		C8.7,25.3,8.7,26.8,9.4,27.5z"/>
	<path fill="#FFFFFF" d="M6.7,20.8L6.7,20.8L21.3,6.3L16.7,3C11.9-0.1,8.1,1,6,2.4C5.5,1.6,4.7,1.1,3.8,1.1C2.5,1.1,1.4,2,1.2,3.2
		C1.3,3.9,1.8,4.6,2.4,5C2.2,5.2,2.1,5.4,2,5.7C2.1,5.8,2.2,5.9,2.4,6C1.7,7,1.1,8.4,1,10.2c0.1,1.6,0.7,3.5,2,5.6L6.7,20.8z"/>
</g>
</svg>
