<?xml version="1.0" encoding="utf-8"?>
<!-- Generator: Adobe Illustrator 17.1.0, SVG Export Plug-In . SVG Version: 6.00 Build 0)  -->
<!DOCTYPE svg PUBLIC "-//W3C//DTD SVG 1.1//EN" "http://www.w3.org/Graphics/SVG/1.1/DTD/svg11.dtd">
<svg version="1.1" id="Warstwa_2" xmlns="http://www.w3.org/2000/svg" xmlns:xlink="http://www.w3.org/1999/xlink" x="0px" y="0px"
	 viewBox="0 0 110 110" enable-background="new 0 0 110 110" xml:space="preserve">
<path opacity="0.3" enable-background="new    " d="M8.8,89.3c-3.6,0-6.6-3-6.6-6.6V23.1c0-3.6,3-6.6,6.6-6.6h93
	c3.6,0,6.6,3,6.6,6.6v59.7c0,3.6-3,6.6-6.6,6.6L8.8,89.3L8.8,89.3z M67.1,64.1c-1.4,0-2.4,1-2.4,2.5s0.9,2.5,2.3,2.5s2.4-1,2.4-2.5
	S68.5,64.1,67.1,64.1z M55.5,64.1c-1.4,0-2.4,1-2.4,2.5s0.9,2.5,2.3,2.5c1.4,0,2.4-1,2.4-2.5S56.9,64.1,55.5,64.1z M43.9,64.1
	c-1.4,0-2.4,1-2.4,2.5s0.9,2.5,2.3,2.5c1.4,0,2.4-1,2.4-2.5S45.3,64.1,43.9,64.1z"/>
<path opacity="0.3" fill="#FFFFFF" enable-background="new    " d="M8.8,89.3c-3.6,0-6.6-3-6.6-6.6V23.1c0-3.6,3-6.6,6.6-6.6h93
	c3.6,0,6.6,3,6.6,6.6v59.7c0,3.6-3,6.6-6.6,6.6L8.8,89.3L8.8,89.3z M67.1,64.1c-1.4,0-2.4,1-2.4,2.5s0.9,2.5,2.3,2.5s2.4-1,2.4-2.5
	S68.5,64.1,67.1,64.1z M55.5,64.1c-1.4,0-2.4,1-2.4,2.5s0.9,2.5,2.3,2.5c1.4,0,2.4-1,2.4-2.5S56.9,64.1,55.5,64.1z M43.9,64.1
	c-1.4,0-2.4,1-2.4,2.5s0.9,2.5,2.3,2.5c1.4,0,2.4-1,2.4-2.5S45.3,64.1,43.9,64.1z"/>
<path opacity="0.3" fill="#FFFFFF" enable-background="new    " d="M8.8,90.3c-3.6,0-6.6-3-6.6-6.6V24.1c0-3.6,3-6.6,6.6-6.6h93
	c3.6,0,6.6,3,6.6,6.6v59.7c0,3.6-3,6.6-6.6,6.6L8.8,90.3L8.8,90.3z M67.1,65.1c-1.4,0-2.4,1-2.4,2.5s0.9,2.5,2.3,2.5s2.4-1,2.4-2.5
	S68.5,65.1,67.1,65.1z M55.5,65.1c-1.4,0-2.4,1-2.4,2.5s0.9,2.5,2.3,2.5c1.4,0,2.4-1,2.4-2.5S56.9,65.1,55.5,65.1z M43.9,65.1
	c-1.4,0-2.4,1-2.4,2.5s0.9,2.5,2.3,2.5c1.4,0,2.4-1,2.4-2.5S45.3,65.1,43.9,65.1z"/>
<path opacity="0.15" enable-background="new    " d="M8.8,88.3c-3.6,0-6.6-3-6.6-6.6V22.1c0-3.6,3-6.6,6.6-6.6h93
	c3.6,0,6.6,3,6.6,6.6v59.7c0,3.6-3,6.6-6.6,6.6L8.8,88.3L8.8,88.3z M67.1,63.1c-1.4,0-2.4,1-2.4,2.5s0.9,2.5,2.3,2.5s2.4-1,2.4-2.5
	S68.5,63.1,67.1,63.1z M55.5,63.1c-1.4,0-2.4,1-2.4,2.5s0.9,2.5,2.3,2.5c1.4,0,2.4-1,2.4-2.5S56.9,63.1,55.5,63.1z M43.9,63.1
	c-1.4,0-2.4,1-2.4,2.5s0.9,2.5,2.3,2.5c1.4,0,2.4-1,2.4-2.5S45.3,63.1,43.9,63.1z"/>
<path d="M101.8,16.5h-93c-3.1,0-5.6,2.5-5.6,5.6v59.7c0,3.1,2.5,5.6,5.6,5.6h93c3.1,0,5.6-2.5,5.6-5.6V22.1
	C107.3,19,104.8,16.5,101.8,16.5z M43.8,69.1c-2,0-3.3-1.5-3.3-3.5c0-2.1,1.4-3.5,3.4-3.5s3.3,1.5,3.3,3.5S45.9,69.1,43.8,69.1z
	 M55.4,69.1c-2,0-3.3-1.5-3.3-3.5c0-2.1,1.4-3.5,3.4-3.5s3.3,1.5,3.3,3.5C58.8,67.6,57.5,69.1,55.4,69.1z M67,69.1
	c-2,0-3.3-1.5-3.3-3.5c0-2.1,1.4-3.5,3.4-3.5s3.3,1.5,3.3,3.5S69.1,69.1,67,69.1z"/>
<path d="M101.8,16.5h-93c-3.1,0-5.6,2.5-5.6,5.6v59.7c0,3.1,2.5,5.6,5.6,5.6h93c3.1,0,5.6-2.5,5.6-5.6V22.1
	C107.3,19,104.8,16.5,101.8,16.5z M43.8,69.1c-2,0-3.3-1.5-3.3-3.5c0-2.1,1.4-3.5,3.4-3.5s3.3,1.5,3.3,3.5S45.9,69.1,43.8,69.1z
	 M55.4,69.1c-2,0-3.3-1.5-3.3-3.5c0-2.1,1.4-3.5,3.4-3.5s3.3,1.5,3.3,3.5C58.8,67.6,57.5,69.1,55.4,69.1z M67,69.1
	c-2,0-3.3-1.5-3.3-3.5c0-2.1,1.4-3.5,3.4-3.5s3.3,1.5,3.3,3.5S69.1,69.1,67,69.1z"/>
</svg>
