<?xml version="1.0" encoding="utf-8"?>
<!-- Generator: Adobe Illustrator 17.1.0, SVG Export Plug-In . SVG Version: 6.00 Build 0)  -->
<!DOCTYPE svg PUBLIC "-//W3C//DTD SVG 1.1//EN" "http://www.w3.org/Graphics/SVG/1.1/DTD/svg11.dtd">
<svg version="1.1" id="Warstwa_2" xmlns="http://www.w3.org/2000/svg" xmlns:xlink="http://www.w3.org/1999/xlink" x="0px" y="0px"
	 viewBox="0 0 110 110" enable-background="new 0 0 110 110" xml:space="preserve">
<g>
	<g>
		<rect x="-2.2" y="8.4" fill="none" width="112.6" height="95.7"/>
	</g>
	<g>
		<rect x="15.4" y="17.6" fill="none" width="77.4" height="77.4"/>
	</g>
	<path opacity="0.15" enable-background="new    " d="M34.8,97.5c-1.5,0-3.3-1.1-4-2.6l-2.2-5.1c-0.4-1.1-0.7-2.6-0.7-4V25.3
		c0-1.1,0.4-2.9,0.7-4l2.2-5.1c0.7-1.5,2.6-2.6,4-2.6h40.3c1.5,0,3.3,1.1,4,2.6l2.2,5.1c0.4,1.1,0.7,2.6,0.7,4v60.5
		c0,1.1-0.4,2.9-0.7,4L79.2,95c-0.7,1.5-2.2,2.6-4,2.6L34.8,97.5L34.8,97.5z M44,87.6c-0.4,0-0.7,0.4-0.7,0.7S43.7,89,44,89h22
		c0.4,0,0.7-0.4,0.7-0.7s-0.4-0.7-0.7-0.7H44z M73.7,79.2V26.8h-37v52.1h37V79.2z"/>
	<path opacity="0.3" enable-background="new    " d="M79.6,23.8l-1.8-5.5c-0.4-0.7-1.5-1.5-2.2-1.5H35.2c-1.1,0-2.2,0.7-2.6,1.5
		l-2.2,5.5c-0.4,0.7-0.7,2.2-0.7,2.9v60.5c0,1.1,0.4,2.6,0.7,3.3l2.2,5.1c0.4,0.7,1.5,1.5,2.2,1.5h40.3c1.1,0,1.8-0.7,2.2-1.5
		l2.2-5.1c0.4-0.7,0.7-2.2,0.7-3.3V26.8C80.3,26,79.9,24.6,79.6,23.8z M66,92.4H44c-1.5,0-2.6-1.1-2.6-2.6s1.1-2.6,2.6-2.6h22
		c1.5,0,2.6,1.1,2.6,2.6S67.5,92.4,66,92.4z M75.2,82.5H34.8V26.8h40.3L75.2,82.5L75.2,82.5z"/>
	<path d="M79.6,22l-2.2-5.1c-0.4-0.7-1.5-1.5-2.2-1.5H34.8c-0.7-0.4-1.8,0.4-2.2,1.5L30.4,22c-0.4,0.7-0.7,2.2-0.7,3.3v60.5
		c0,1.1,0.4,2.6,0.7,3.3l2.2,5.1c0.4,1.1,1.5,1.5,2.2,1.5h40.3c1.1,0,1.8-0.7,2.2-1.5l2.2-5.1c0.4-0.7,0.7-2.2,0.7-3.3V25.3
		C80.3,24.2,79.9,22.7,79.6,22z M66,90.9H44c-1.5,0-2.6-1.1-2.6-2.6s1.1-2.6,2.6-2.6h22c1.5,0,2.6,1.1,2.6,2.6S67.5,90.9,66,90.9z
		 M75.2,80.7H34.8V25.3h40.3L75.2,80.7L75.2,80.7z"/>
	<path fill="#FFFFFF" d="M34.8,82.5h40.3v-1.8H34.8V82.5z M66,90.9H44c-1.1,0-2.2-0.7-2.2-1.8c0,0.4,0,0.4,0,0.7
		c0,1.5,1.1,2.6,2.6,2.6h22c1.5,0,2.6-1.1,2.6-2.6c0-0.4,0-0.7,0-0.7C68.2,90.2,67.1,90.9,66,90.9z M79.6,22l-2.2-5.1
		c-0.4-0.7-1.5-1.5-2.2-1.5H34.8c-0.7-0.4-1.8,0.4-2.2,1.5L30.4,22c-0.4,0.7-0.7,2.2-0.7,3.3v1.8c0-1.1,0.4-2.6,0.7-3.3l2.2-5.5
		c0.4-0.7,1.5-1.5,2.2-1.5h40.3c1.1,0,1.8,0.7,2.2,1.5l2.2,5.1c0.4,0.7,0.7,2.2,0.7,3.3v-1.5C80.3,24.2,79.9,22.7,79.6,22z"/>
	<line id="BOUNDING_BOX_4_" fill="none" x1="121.7" y1="89.8" x2="36.7" y2="89.8"/>
	<line id="BOUNDING_BOX_2_" fill="none" x1="36.7" y1="17.6" x2="121.7" y2="17.6"/>
	<path opacity="0.3" enable-background="new    " d="M91.3,37c-0.7-1.5-2.6-1.8-3.7-1.1c-1.5,0.7-1.8,2.6-1.1,3.7
		c2.6,4.8,4,10.3,4,15.4c0,5.5-1.5,10.6-4,15.4c-0.7,1.5-0.4,2.9,1.1,3.7c0.4,0.4,0.7,0.4,1.5,0.4c1.1,0,1.8-0.4,2.6-1.5
		c2.9-5.5,4.8-11.7,4.8-18.3C96.1,48.8,94.2,42.5,91.3,37z"/>
	<path opacity="0.3" enable-background="new    " d="M100.1,27.9c-0.7-1.5-2.6-1.8-4-0.7c-1.1,0.7-1.5,2.2-0.7,3.7
		c4.8,7.3,7.3,15.8,7.3,24.2c0,8.8-2.6,17.2-7.3,24.2c-0.7,1.5-0.4,2.9,0.7,4c0.4,0.4,1.1,0.4,1.5,0.4c0.7,0,1.8-0.4,2.2-1.1
		c5.5-8.1,8.1-17.6,8.1-27.5C108.2,45.5,105.2,35.9,100.1,27.9z"/>
	<path opacity="0.15" enable-background="new    " d="M97.5,83.6c-0.7,0-1.5-0.4-2.2-0.7c-1.1-0.7-1.5-1.5-1.8-2.6s0-2.2,0.7-2.9
		c4.8-7,7-15,7-23.5s-2.6-16.5-7-23.5c-0.7-0.7-0.7-1.8-0.7-2.9c0.4-1.1,0.7-1.8,1.8-2.6c0.7-0.4,1.5-0.7,2.2-0.7
		c1.5,0,2.6,0.7,3.3,1.8c5.5,8.4,8.4,18,8.4,28.2c0,9.9-2.9,19.8-8.4,28.2C100.5,83.2,99,83.6,97.5,83.6z"/>
	<path opacity="0.15" enable-background="new    " d="M88.7,74.8c-0.7,0-1.5,0-1.8-0.4c-1.1-0.4-1.5-1.5-1.8-2.6
		c-0.4-1.1,0-2.2,0.4-2.9c2.6-4.4,4-9.5,4-15c0-5.1-1.5-10.3-4-15c-0.4-1.1-0.7-2.2-0.4-2.9c0.4-1.1,1.1-1.8,1.8-2.6
		C87.3,33,88,33,88.7,33c1.5,0,2.9,0.7,3.7,2.2c3.3,5.9,4.8,12.5,4.8,18.7c0,6.6-1.8,13.2-4.8,18.7C91.7,74.1,90.2,74.8,88.7,74.8z"
		/>
	<path opacity="0.15" enable-background="new    " d="M91.3,35.6c-0.7-1.5-2.6-1.8-3.7-1.1c-1.5,0.7-1.8,2.6-1.1,3.7
		c2.6,4.8,4,10.3,4,15.4c0,5.5-1.5,10.6-4,15.4c-0.7,1.5-0.4,2.9,1.1,3.7C88,73,88.4,73,89.1,73c1.1,0,1.8-0.4,2.6-1.5
		c2.9-5.5,4.8-11.7,4.8-18.3C96.1,47.3,94.2,41.1,91.3,35.6z"/>
	<path opacity="0.15" enable-background="new    " d="M100.1,26.4c-1.1-1.1-2.6-1.5-4-0.7c-1.5,0.7-1.8,2.6-0.7,4
		c4.8,7.3,7.3,15.8,7.3,24.2c0,8.8-2.6,17.2-7.3,24.2c-0.7,1.5-0.4,2.9,0.7,4c0.4,0.4,1.1,0.4,1.5,0.4c0.7,0,1.8-0.4,2.2-1.1
		c5.5-8.1,8.1-17.6,8.1-27.5C108.2,44,105.2,34.5,100.1,26.4z"/>
	<path d="M91.3,35.6c-0.7-1.5-2.6-1.8-3.7-1.1c-1.5,0.7-1.8,2.6-1.1,3.7c2.6,4.8,4,10.3,4,15.4c0,5.5-1.5,10.6-4,15.4
		c-0.7,1.5-0.4,2.9,1.1,3.7C88,73,88.4,73,89.1,73c1.1,0,1.8-0.4,2.6-1.5c2.9-5.5,4.8-11.7,4.8-18.3C96.1,47.3,94.2,41.1,91.3,35.6z
		"/>
	<path d="M100.1,26.4c-1.1-1.1-2.6-1.5-4-0.7c-1.5,0.7-1.8,2.6-0.7,4c4.8,7.3,7.3,15.8,7.3,24.2c0,8.8-2.6,17.2-7.3,24.2
		c-0.7,1.5-0.4,2.9,0.7,4c0.4,0.4,1.1,0.4,1.5,0.4c0.7,0,1.8-0.4,2.2-1.1c5.5-8.1,8.1-17.6,8.1-27.5C108.2,44,105.2,34.5,100.1,26.4
		z"/>
	<path fill="#FFFFFF" d="M95.3,79.6C95,79.9,95,80.3,95,80.7c0-0.7,0-1.5,0.4-2.2c4.8-7,7-15.4,7.3-23.8c0,0.4,0,0.4,0,0.7
		C102.7,63.8,100.1,72.2,95.3,79.6z"/>
	<path fill="#FFFFFF" d="M96.1,26.8c1.5-0.7,2.9-0.4,4,0.7c5.1,8.1,8.1,17.2,8.1,26.8c0-0.4,0-0.4,0-0.7c0-9.9-2.9-19.1-8.1-27.5
		c-1.1-0.7-2.6-1.1-4-0.4c-1.1,0.7-1.5,1.8-1.1,2.9C95,27.9,95.3,27.5,96.1,26.8z"/>
	<path fill="#FFFFFF" d="M87.3,35.9c1.5-0.7,2.9-0.4,3.7,1.1c2.9,5.5,4.8,11.4,4.8,17.6c0-0.4,0-0.4,0-0.7c0-6.2-1.5-12.8-4.8-18.3
		c-0.7-1.5-2.6-1.8-3.7-1.1s-1.5,1.8-1.5,2.9C86.2,36.7,86.5,36.3,87.3,35.9z"/>
	<path fill="#FFFFFF" d="M86.2,70.8c2.6-4.8,4-10.3,4-15.4c0-0.4,0-0.4,0-0.7c0,5.1-1.5,10.3-4,15c-0.4,0.7-0.4,1.5-0.4,1.8
		C86.2,71.1,86.2,70.8,86.2,70.8z"/>
	<line id="BOUNDING_BOX_3_" fill="none" x1="73.3" y1="92.4" x2="-11.7" y2="92.4"/>
	<line id="BOUNDING_BOX_1_" fill="none" x1="-11.7" y1="20.2" x2="73.3" y2="20.2"/>
	<path opacity="0.3" enable-background="new    " d="M13.9,57.6c0,6.2,1.5,12.8,4.8,18.3c0.4,1.1,1.5,1.5,2.6,1.5
		c0.4,0,1.1,0,1.5-0.4c1.5-0.7,1.8-2.6,1.1-3.7c-2.6-4.8-4-10.3-4-15.4c0-5.5,1.5-10.6,4-15.4c0.7-1.5,0.4-2.9-1.1-3.7
		s-2.9-0.4-3.7,1.1C15.8,45.1,13.9,51.3,13.9,57.6z"/>
	<path opacity="0.3" enable-background="new    " d="M1.8,57.6c0,9.9,2.9,19.1,8.1,27.5c0.4,0.7,1.5,1.1,2.2,1.1
		c0.4,0,1.1,0,1.5-0.4c1.5-0.7,1.8-2.6,0.7-4C9.5,74.4,7,66,7,57.6c0-8.8,2.6-17.2,7.3-24.2c1.1-1.5,0.7-2.9-0.4-4
		c-1.5-0.7-2.9-0.4-4,0.7C4.8,38.5,1.8,48,1.8,57.6z"/>
	<path opacity="0.15" enable-background="new    " d="M8.8,84.3c-5.5-8.4-8.4-18-8.4-28.2c0-9.9,2.9-19.8,8.4-28.2
		c0.7-0.7,2.2-1.5,3.7-1.5c0.7,0,1.5,0.4,2.2,0.7c0.7,0.7,1.5,1.5,1.8,2.6c0.4,1.1,0,2.2-0.7,2.9c-4.8,7-7,15-7,23.5
		s2.6,16.5,7,23.5c0.7,0.7,0.7,1.8,0.7,2.9c-0.4,1.1-0.7,1.8-1.8,2.6c-0.7,0.4-1.5,0.7-2.2,0.7C11,86.2,9.5,85.8,8.8,84.3z"/>
	<path opacity="0.15" enable-background="new    " d="M17.6,75.2c-2.9-5.5-4.8-12.1-4.8-18.7s1.8-13.2,4.8-18.7
		c0.7-1.5,2.2-2.2,3.7-2.2c0.7,0,1.5,0,1.8,0.4c1.1,0.4,1.5,1.5,1.8,2.6c0.4,1.1,0,2.2-0.4,2.9c-2.6,4.4-4,9.5-4,15
		c0,5.1,1.5,10.3,4,15c0.7,0.7,1.1,1.8,0.7,2.9s-1.1,1.8-1.8,2.6c-0.7,0-1.5,0.4-2.2,0.4C19.8,77.4,18.3,76.6,17.6,75.2z"/>
	<path opacity="0.15" enable-background="new    " d="M13.9,56.5c0,6.2,1.5,12.8,4.8,18.3c0.4,1.1,1.5,1.5,2.6,1.5
		c0.4,0,1.1,0,1.5-0.4c1.5-0.7,1.8-2.6,1.1-3.7c-2.6-4.8-4-10.3-4-15.4c0-5.5,1.5-10.6,4-15.4c0.7-1.5,0.4-2.9-1.1-3.7
		c-1.5-0.7-2.9-0.4-3.7,1.1C15.8,43.6,13.9,49.9,13.9,56.5z"/>
	<path opacity="0.15" enable-background="new    " d="M1.8,56.5c0,9.9,2.9,19.1,8.1,27.5c0.4,0.7,1.5,1.1,2.2,1.1
		c0.4,0,1.1,0,1.5-0.4c1.5-1.1,1.8-2.6,1.1-4c-4.8-7.3-7.3-15.8-7.3-24.2c0-8.8,2.6-17.2,7.3-24.2c0.7-1.5,0.4-2.9-0.7-4
		c-1.5-0.7-2.9-0.7-4,0.7C4.8,37,1.8,46.6,1.8,56.5z"/>
	<path d="M13.9,56.5c0,6.2,1.5,12.8,4.8,18.3c0.4,1.1,1.5,1.5,2.6,1.5c0.4,0,1.1,0,1.5-0.4c1.5-0.7,1.8-2.6,1.1-3.7
		c-2.6-4.8-4-10.3-4-15.4c0-5.5,1.5-10.6,4-15.4c0.7-1.5,0.4-2.9-1.1-3.7c-1.5-0.7-2.9-0.4-3.7,1.1C15.8,43.6,13.9,49.9,13.9,56.5z"
		/>
	<path d="M1.8,56.5c0,9.9,2.9,19.1,8.1,27.5c0.4,0.7,1.5,1.1,2.2,1.1c0.4,0,1.1,0,1.5-0.4c1.5-1.1,1.8-2.6,1.1-4
		c-4.8-7.3-7.3-15.8-7.3-24.2c0-8.8,2.6-17.2,7.3-24.2c0.7-1.5,0.4-2.9-0.7-4c-1.5-0.7-2.9-0.7-4,0.7C4.8,37,1.8,46.6,1.8,56.5z"/>
	<path fill="#FFFFFF" d="M7.3,57.6c0-0.4,0-0.4,0-0.7c0,8.4,2.6,16.5,7.3,23.8c0.4,0.7,0.7,1.5,0.4,2.2c0-0.4-0.4-0.7-0.4-1.1
		C9.9,74.8,7.3,66.4,7.3,57.6z"/>
	<path fill="#FFFFFF" d="M15,31.2c0.4-1.1,0-2.2-1.1-2.9c-1.5-0.7-2.9-0.4-4,0.7c-5.5,8-8.1,17.6-8.1,27.5c0,0.4,0,0.4,0,0.7
		c0-9.5,2.9-18.7,8.1-26.8c1.1-1.5,2.6-1.8,4-1.1C14.7,29.7,15,30.4,15,31.2z"/>
	<path fill="#FFFFFF" d="M24.2,40c0.4-1.1-0.4-2.6-1.5-2.9c-1.5-0.7-2.9-0.4-3.7,1.1c-2.9,5.5-4.8,11.7-4.8,18.3c0,0.4,0,0.4,0,0.7
		c0-6.2,1.8-12.1,4.8-17.6c0.7-1.5,2.6-1.8,3.7-1.1C23.5,38.9,23.8,39.2,24.2,40z"/>
	<path fill="#FFFFFF" d="M24.2,74.1c0-0.7,0-1.5-0.4-1.8c-2.6-4.4-4-9.5-4-15c0,0.4,0,0.4,0,0.7c0,5.5,1.5,10.6,4,15.4
		C23.8,73.3,23.8,73.7,24.2,74.1z"/>
</g>
</svg>
