<?xml version="1.0" encoding="utf-8"?>
<!-- Generator: Adobe Illustrator 17.1.0, SVG Export Plug-In . SVG Version: 6.00 Build 0)  -->
<!DOCTYPE svg PUBLIC "-//W3C//DTD SVG 1.1//EN" "http://www.w3.org/Graphics/SVG/1.1/DTD/svg11.dtd">
<svg version="1.1" id="Warstwa_2" xmlns="http://www.w3.org/2000/svg" xmlns:xlink="http://www.w3.org/1999/xlink" x="0px" y="0px"
	 viewBox="0 0 110 110" enable-background="new 0 0 110 110" xml:space="preserve">
<path fill="#EA2227" d="M6.6,107.1c-1.1,0-1.8-0.4-2.6-1.1c-1.5-1.5-1.5-3.7,0-5.1L100.8,4c1.5-1.5,3.7-1.5,5.1,0s1.5,3.7,0,5.1
	L9.2,106C8.4,106.7,7.7,107.1,6.6,107.1L6.6,107.1z"/>
<g>
	<path fill="none" d="M15.4,86.2v-1.7c-0.2,0.2-0.4,0.4-0.7,0.6c-0.1,0.1-0.3,0.2-0.4,0.2c-0.2,0.2-0.4,0.4-0.7,0.5
		c-0.4,0.4-1.1,0.4-1.5,0.4c-0.4,0-0.8-0.1-1.2-0.3c-0.9-0.2-1.6-0.7-2.1-1.6c-5.5-8.4-8.4-18-8.4-28.2c0-9.9,2.9-19.8,8.4-28.2
		c0.7-0.7,2.2-1.5,3.7-1.5c0.7,0,1.5,0.4,2.2,0.7c0.2,0.2,0.5,0.5,0.7,0.7V17.6h14.8l0.6-1.4c0.7-1.5,2.6-2.6,4-2.6h40.3
		c1.5,0,3.3,1.1,4,2.6l0.6,1.4H84l9.2-9.2H-2.2v84H9.2L15.4,86.2z"/>
	<path fill="none" d="M92.8,95H79.2c-0.7,1.5-2.2,2.6-4,2.6H34.8v-0.1c-1.5,0-3.2-1.1-3.9-2.5h-7.8l-9.1,9.1h96.4V89.8H92.8V95z"/>
	<path fill="none" d="M100.5,17.6h9.9V8.4h-0.9c-0.2,0.3-0.3,0.5-0.6,0.8L100.5,17.6z"/>
	<path fill="none" d="M1.1,100.5l8.1-8.1H-2.2v11.7h2.4C-0.2,102.9,0.1,101.5,1.1,100.5z"/>
	<path fill="none" d="M15.4,78.9v-8.7c-1.6-4.3-2.6-9-2.6-13.8c0-4.8,0.9-9.5,2.6-13.9v-9.4c-4.5,6.9-6.6,14.6-6.6,22.9
		C8.8,64.3,11.2,72.1,15.4,78.9z"/>
	<path fill="none" d="M100.5,17.6l-7.7,7.7V36c3,5.7,4.4,12,4.4,17.9c0,6.3-1.6,12.6-4.4,17.9v18h17.6V17.6H100.5z M98.5,83.5
		c-0.3,0.1-0.6,0.2-0.9,0.2c-0.4,0-1.1,0-1.5-0.4c0,0-0.1-0.1-0.1-0.1c-0.2-0.1-0.5-0.2-0.7-0.3c-1.1-0.7-1.5-1.5-1.8-2.6
		c-0.3-1.1,0-2.2,0.7-2.9c4.8-7,7-15,7-23.5s-2.6-16.5-7-23.5c-0.7-0.7-0.7-1.8-0.7-2.9c0.4-1.1,0.7-1.8,1.8-2.6
		c0.7-0.4,1.5-0.7,2.2-0.7c1.5,0,2.6,0.7,3.3,1.8c5.5,8.4,8.4,18,8.4,28.2c0,9.9-2.9,19.8-8.4,28.2C100.6,83,99.6,83.4,98.5,83.5z"
		/>
	<polygon fill="none" points="73.7,44.4 39.2,78.9 73.7,78.9 	"/>
	<path fill="none" d="M28.5,89.5l-2.9,2.9h4.1l-1.1-2.6C28.6,89.7,28.5,89.6,28.5,89.5z"/>
	<polygon fill="none" points="84,17.6 79.7,17.6 81,20.6 	"/>
	<polygon fill="none" points="73.7,26.8 36.7,26.8 36.7,64.9 73.7,27.9 	"/>
	<path fill="none" d="M82,85.8c0,1.1-0.4,2.9-0.7,4h11.5v-18c-0.1,0.3-0.3,0.5-0.4,0.8c-0.7,1.5-2.2,2.2-3.7,2.2
		c-0.7,0-1.5,0-1.8-0.4c-1.1-0.4-1.5-1.5-1.8-2.6c-0.4-1.1,0-2.2,0.4-2.9c2.6-4.4,4-9.5,4-15c0-5.1-1.5-10.3-4-15
		c-0.4-1.1-0.7-2.2-0.4-2.9c0.4-1.1,1.1-1.8,1.8-2.6C87.3,33,88,33,88.7,33c1.5,0,2.9,0.7,3.7,2.2c0.1,0.3,0.3,0.5,0.4,0.8V25.3
		L82,36.1V85.8z"/>
	<path fill="none" d="M44,89h22c0.4,0,0.7-0.4,0.7-0.7s-0.4-0.7-0.7-0.7H44c-0.4,0-0.7,0.4-0.7,0.7S43.7,89,44,89z"/>
	<path fill="none" d="M27.9,25.3c0-1.1,0.4-2.9,0.7-4l1.6-3.7H15.4v10.2c0.5,0.5,0.9,1.1,1.1,1.9c0.4,1.1,0,2.2-0.7,2.9
		c-0.1,0.2-0.3,0.4-0.4,0.6v9.4c0.6-1.7,1.4-3.3,2.2-4.8c0.7-1.5,2.2-2.2,3.7-2.2c0.7,0,1.5,0,1.8,0.4c1.1,0.4,1.5,1.5,1.8,2.6
		c0.4,1.1,0,2.2-0.4,2.9c-2.6,4.4-4,9.5-4,15c0,5.1,1.5,10.3,4,15c0.7,0.7,1.1,1.8,0.7,2.9c-0.4,1.1-1.1,1.8-1.8,2.6
		c-0.3,0-0.5,0.1-0.8,0.1c-0.4,0.3-1,0.3-1.3,0.3c0,0,0,0-0.1,0c0,0,0,0,0,0c-0.1,0-0.1,0-0.2,0c0,0-0.1,0-0.1,0
		c-1.3-0.1-2.6-0.9-3.3-2.2c-0.8-1.6-1.6-3.2-2.2-4.9v8.7c0.1,0.2,0.3,0.4,0.4,0.7c0.7,0.7,0.7,1.8,0.7,2.9c-0.3,0.8-0.5,1.4-1.1,2
		v1.7l12.5-12.5V25.3z"/>
	<path fill="none" d="M29.7,92.4h-4.1L23.1,95h7.8c0,0,0-0.1-0.1-0.1L29.7,92.4z"/>
	<polygon fill="none" points="79.2,95 92.8,95 92.8,89.8 81.3,89.8 	"/>
	<path opacity="0.15" enable-background="new    " d="M77.3,95.6c-0.4,0.8-1.1,1.5-2.2,1.5H34.8c-0.7,0-1.8-0.8-2.2-1.5L32.3,95
		h-1.5c0.7,1.4,2.5,2.5,3.9,2.5v0.1h40.4c1.8,0,3.3-1.1,4-2.6h-1.6L77.3,95.6z"/>
	<path opacity="0.15" enable-background="new    " d="M32.6,16.9c0.4-1.1,1.5-1.9,2.2-1.5h40.4c0.7,0,1.8,0.8,2.2,1.5l0.3,0.7h2
		l-0.6-1.4c-0.7-1.5-2.5-2.6-4-2.6H34.8c-1.4,0-3.3,1.1-4,2.6l-0.6,1.4h2.1L32.6,16.9z"/>
	<path opacity="0.15" enable-background="new    " d="M79.8,89.8c-0.1,0.3-0.2,0.5-0.3,0.7L77.6,95h1.6l2.1-5.2H79.8z"/>
	<polygon opacity="0.15" enable-background="new    " points="73.7,78.9 73.7,79.2 73.7,78.9 39.2,78.9 37.4,80.7 75.1,80.7 
		75.1,43 73.7,44.4 	"/>
	<polygon opacity="0.15" enable-background="new    " points="36.7,26.8 34.8,26.8 34.8,66.8 36.7,64.9 	"/>
	<path opacity="0.15" enable-background="new    " d="M31.2,92.4h-1.5l1.1,2.5c0,0,0,0.1,0.1,0.1h1.5L31.2,92.4z"/>
	<polygon opacity="0.15" enable-background="new    " points="74.8,26.8 73.7,26.8 73.7,27.9 	"/>
	<path opacity="0.15" enable-background="new    " d="M80.2,85.8v1.4c0,0.8-0.2,1.8-0.4,2.6h1.5c0.3-1.1,0.7-2.9,0.7-4V36.1
		l-1.8,1.8V85.8z"/>
	<path opacity="0.15" enable-background="new    " d="M29.8,88.3l-1.3,1.3c0,0.1,0.1,0.2,0.1,0.3l1.1,2.6h1.5l-0.8-1.9
		C30.2,90,29.9,89.1,29.8,88.3z"/>
	<path opacity="0.15" enable-background="new    " d="M41.8,89.1c0,0.3,0.1,0.5,0.2,0.7h26.2c0.2-0.2,0.3-0.5,0.3-0.8
		c-0.3-1.1-1.3-1.8-2.5-1.8H44c-1.2,0-2.2,0.8-2.5,1.8c0.1,0.2,0.2,0.5,0.3,0.7C41.8,89.5,41.8,89.5,41.8,89.1z M44,87.6h22
		c0.3,0,0.7,0.4,0.7,0.7S66.4,89,66,89H44c-0.3,0-0.7-0.4-0.7-0.7S43.6,87.6,44,87.6z"/>
	<path opacity="0.15" enable-background="new    " d="M43.2,90.8C43.2,90.8,43.2,90.8,43.2,90.8c0.1,0,0.3,0.1,0.4,0.1
		c0.1,0,0.3,0,0.4,0h22c0.2,0,0.3,0,0.5,0c0.1,0,0.2,0,0.3-0.1c0,0,0.1,0,0.1,0c0.1,0,0.2-0.1,0.3-0.1c0.4-0.2,0.8-0.5,1-0.9H42
		C42.2,90.3,42.7,90.6,43.2,90.8z"/>
	<path opacity="0.15" enable-background="new    " d="M79.6,22C79.6,22,79.6,22,79.6,22l1.4-1.4l-1.3-3h-2L79.6,22z"/>
	<path opacity="0.15" enable-background="new    " d="M27.9,25.3v48.4l1.8-1.8V27.1v-0.4v-1.4c0-1.1,0.3-2.6,0.7-3.3l1.9-4.4h-2.1
		l-1.6,3.7C28.3,22.4,27.9,24.2,27.9,25.3z"/>
	<path opacity="0.15" enable-background="new    " d="M75.1,95.7H34.8c-0.5,0-1.2-0.2-1.7-0.7h-0.8l0.3,0.6c0.4,0.7,1.5,1.5,2.2,1.5
		h40.3c1.1,0,1.8-0.7,2.2-1.5l0.3-0.6h-0.8C76.3,95.4,75.8,95.7,75.1,95.7z"/>
	<path opacity="0.3" enable-background="new    " d="M75.1,95.7H34.8c-0.5,0-1.2-0.2-1.7-0.7h-0.8l0.3,0.6c0.4,0.7,1.5,1.5,2.2,1.5
		h40.3c1.1,0,1.8-0.7,2.2-1.5l0.3-0.6h-0.8C76.3,95.4,75.8,95.7,75.1,95.7z"/>
	<path opacity="0.15" enable-background="new    " d="M80.2,85.8c0,1.1-0.3,2.6-0.7,3.3l-0.3,0.7h0.6c0.2-0.8,0.4-1.8,0.4-2.6V85.8z
		"/>
	<path opacity="0.3" enable-background="new    " d="M80.2,85.8c0,1.1-0.3,2.6-0.7,3.3l-0.3,0.7h0.6c0.2-0.8,0.4-1.8,0.4-2.6V85.8z"
		/>
	<path opacity="0.15" enable-background="new    " d="M30.4,89.1c-0.1-0.3-0.2-0.6-0.4-1.1l-0.2,0.2c0.1,0.9,0.4,1.7,0.6,2.2
		l0.8,1.9h0.6L30.4,89.1z"/>
	<path opacity="0.3" enable-background="new    " d="M30.4,89.1c-0.1-0.3-0.2-0.6-0.4-1.1l-0.2,0.2c0.1,0.9,0.4,1.7,0.6,2.2l0.8,1.9
		h0.6L30.4,89.1z"/>
	<path opacity="0.15" enable-background="new    " d="M44,87.2h22c1.2,0,2.2,0.8,2.5,1.8c0.1-0.2,0.1-0.5,0.1-0.8
		c0-1.5-1.1-2.6-2.6-2.6H44c-1.5,0-2.6,1.1-2.6,2.6c0,0.3,0,0.5,0.1,0.8C41.8,88,42.8,87.2,44,87.2z"/>
	<path opacity="0.3" enable-background="new    " d="M44,87.2h22c1.2,0,2.2,0.8,2.5,1.8c0.1-0.2,0.1-0.5,0.1-0.8
		c0-1.5-1.1-2.6-2.6-2.6H44c-1.5,0-2.6,1.1-2.6,2.6c0,0.3,0,0.5,0.1,0.8C41.8,88,42.8,87.2,44,87.2z"/>
	<polygon opacity="0.15" enable-background="new    " points="73.7,26.8 74.8,26.8 75.1,26.5 75.1,25.3 34.8,25.3 34.8,26.8 
		36.7,26.8 	"/>
	<polygon opacity="0.3" enable-background="new    " points="73.7,26.8 74.8,26.8 75.1,26.5 75.1,25.3 34.8,25.3 34.8,26.8 
		36.7,26.8 	"/>
	<path opacity="0.15" enable-background="new    " d="M32.6,94.2l-0.8-1.8h-0.6l1.1,2.6h0.8C32.9,94.8,32.7,94.5,32.6,94.2z"/>
	<path opacity="0.3" enable-background="new    " d="M32.6,94.2l-0.8-1.8h-0.6l1.1,2.6h0.8C32.9,94.8,32.7,94.5,32.6,94.2z"/>
	<path opacity="0.15" enable-background="new    " d="M77.3,94.2c-0.1,0.3-0.3,0.6-0.6,0.8h0.8l1.9-4.5c0.1-0.2,0.2-0.4,0.3-0.7
		h-0.6L77.3,94.2z"/>
	<path opacity="0.3" enable-background="new    " d="M77.3,94.2c-0.1,0.3-0.3,0.6-0.6,0.8h0.8l1.9-4.5c0.1-0.2,0.2-0.4,0.3-0.7h-0.6
		L77.3,94.2z"/>
	<path d="M34.8,16.8c-0.3,0-0.7,0.2-1.1,0.4c0.5-0.3,1-0.4,1.5-0.4H34.8z"/>
	<path d="M44,90.9c-0.2,0-0.3,0-0.4,0C43.7,90.9,43.8,90.9,44,90.9z"/>
	<path d="M68.4,89.8c0.1-0.1,0.1-0.1,0.2-0.2c0-0.2,0-0.4-0.1-0.6c-0.1,0.3-0.2,0.5-0.3,0.8H68.4z"/>
	<path d="M67.1,90.7c0.4-0.2,0.9-0.5,1.3-0.9h-0.2C67.9,90.2,67.6,90.5,67.1,90.7z"/>
	<path d="M66.9,90.8c0,0-0.1,0-0.1,0C66.8,90.8,66.8,90.8,66.9,90.8z"/>
	<path d="M66,92.4H44.4c-1.5,0-2.6-1.1-2.6-2.6h-0.4c0,1.5,1.1,2.6,2.6,2.6L66,92.4C66,92.4,66,92.4,66,92.4z"/>
	<path d="M66.5,90.9c-0.1,0-0.3,0-0.5,0C66.2,90.9,66.3,90.9,66.5,90.9z"/>
	<path d="M41.8,89.7c-0.1-0.2-0.2-0.4-0.3-0.7c-0.1,0.2-0.1,0.5-0.1,0.8L41.8,89.7C41.8,89.8,41.8,89.8,41.8,89.7z"/>
	<path d="M43.2,90.8C43.2,90.8,43.2,90.8,43.2,90.8C43.2,90.8,43.2,90.8,43.2,90.8z"/>
	<path d="M75.1,16.8H35.2c-0.5,0-1.1,0.2-1.5,0.4c-0.2,0.1-0.3,0.2-0.5,0.4h3.5h40.1C76.4,17.1,75.9,16.8,75.1,16.8z"/>
	<path d="M34.8,95.7h40.3c0.7,0,1.2-0.3,1.6-0.7H33.1C33.6,95.5,34.3,95.7,34.8,95.7z"/>
	<path d="M66.4,92.4H66c0,0,0,0,0,0h7.3H66H44H31.8l0.8,1.8c0.1,0.3,0.3,0.6,0.5,0.8h43.6c0.2-0.2,0.4-0.5,0.6-0.8l1.9-4.4H69
		C69,91.3,67.9,92.4,66.4,92.4z"/>
	<path d="M34.8,26.8v-1.5h40.3v1.2l4-4l-1.8-4.2c-0.1-0.3-0.3-0.5-0.5-0.7H36.7h-3.5c-0.2,0.2-0.5,0.5-0.6,0.7l-2.2,5.5
		c-0.3,0.7-0.7,2.2-0.7,3.3v44.8l5.1-5.1V26.8z"/>
	<path d="M75.1,80.7h0.1H75.1v1.8h0.1h-0.1H35.6L30,88c0.1,0.4,0.2,0.8,0.4,1.1l1.4,3.3H44c-1.5,0-2.6-1.1-2.6-2.6h-4.7h4.7
		c0-0.3,0-0.5,0.1-0.8c-0.1-0.2-0.1-0.5-0.1-0.8c0-1.5,1.1-2.6,2.6-2.6h22c1.5,0,2.6,1.1,2.6,2.6c0,0.3,0,0.5-0.1,0.8
		c0,0.2,0.1,0.4,0.1,0.6c0.1-0.2,0.3-0.3,0.4-0.5c0,0,0,0.3,0,0.7h10.2l0.3-0.7c0.4-0.7,0.7-2.2,0.7-3.3V37.9L75.1,43V80.7z"/>
	<path fill="#FFFFFF" d="M66.7,90.8c-0.1,0-0.2,0-0.3,0.1C66.6,90.8,66.6,90.8,66.7,90.8z"/>
	<path fill="#FFFFFF" d="M79.6,22C79.6,22,79.6,22,79.6,22C79.6,22,79.6,22,79.6,22L79.6,22z"/>
	<path fill="#FFFFFF" d="M43.6,90.9c-0.1,0-0.2,0-0.3-0.1C43.3,90.8,43.4,90.8,43.6,90.9z"/>
	<path fill="#FFFFFF" d="M43.2,90.8c-0.5-0.2-1-0.5-1.2-1h-0.1C42.2,90.3,42.6,90.6,43.2,90.8z"/>
	<path fill="#FFFFFF" d="M67.1,90.7c-0.1,0-0.2,0.1-0.3,0.1C67,90.7,67.1,90.7,67.1,90.7z"/>
	<path fill="#FFFFFF" d="M42,89.8c-0.1-0.2-0.2-0.4-0.2-0.7c0,0.4,0,0.4,0,0.6c0,0,0,0,0,0.1H42z"/>
	<path fill="#FFFFFF" d="M33.7,17.2c0.4-0.3,0.8-0.4,1.1-0.4h0.4h39.9h0.5c0.5,0,1.1,0.4,1.6,0.8h0.5l-0.3-0.7
		c-0.4-0.7-1.5-1.5-2.2-1.5H34.8c-0.7-0.4-1.8,0.4-2.2,1.5l-0.3,0.7h0.9C33.3,17.5,33.5,17.3,33.7,17.2z"/>
	<polygon fill="#FFFFFF" points="75.1,80.7 37.4,80.7 35.6,82.5 75.1,82.5 	"/>
	<path fill="#FFFFFF" d="M41.8,89.7C41.8,89.8,41.8,89.8,41.8,89.7L41.8,89.7C41.8,89.8,41.8,89.8,41.8,89.7z"/>
	<path fill="#FFFFFF" d="M32.6,18.3c0.1-0.3,0.3-0.5,0.6-0.7h-0.9L30.4,22c-0.4,0.7-0.7,2.2-0.7,3.3v1.4c0-0.7,0.3-2.2,0.7-2.9
		L32.6,18.3z"/>
	<path fill="#FFFFFF" d="M68.6,89.8c0-0.1,0-0.1,0-0.2c-0.1,0.1-0.1,0.1-0.2,0.2H68.6z"/>
	<path fill="#FFFFFF" d="M68.6,89.8h-0.2c-0.4,0.4-0.8,0.7-1.3,0.9c-0.1,0-0.2,0.1-0.3,0.1c0,0-0.1,0-0.1,0c-0.1,0-0.2,0.1-0.3,0.1
		c-0.2,0-0.3,0-0.5,0H44c-0.2,0-0.3,0-0.4,0c-0.1,0-0.2,0-0.3-0.1c0,0,0,0,0,0c-0.6-0.2-1-0.5-1.3-1h0c0,1.5,1.1,2.6,2.6,2.6H66
		C67.5,92.4,68.6,91.3,68.6,89.8z"/>
	<path fill="#FFFFFF" d="M77.8,18.3l1.4,4.2l0.4-0.4c0,0,0,0,0,0l-1.9-4.4h-0.5C77.5,17.8,77.7,18.1,77.8,18.3z"/>
	<path fill="#FFFFFF" d="M33.2,17.6L33.2,17.6c0.2-0.1,0.4-0.3,0.5-0.4C33.5,17.3,33.3,17.5,33.2,17.6z"/>
	<path fill="#FFFFFF" d="M75.6,16.8h-0.5c0.8,0,1.3,0.3,1.7,0.8h0.4C76.7,17.2,76.1,16.8,75.6,16.8z"/>
	<path fill="#FFFFFF" d="M32.6,18.3c0.1-0.2,0.3-0.5,0.6-0.7h0C32.9,17.8,32.7,18,32.6,18.3z"/>
	<path fill="#FFFFFF" d="M66,92.4h0.4c1.5,0,2.6-1.1,2.6-2.6h-0.4C68.6,91.3,67.5,92.4,66,92.4z"/>
	<path fill="#FFFFFF" d="M69,89.8c0-0.4,0-0.7,0-0.7c-0.1,0.2-0.3,0.3-0.4,0.5c0,0.1,0,0.1,0,0.2H69z"/>
	<path fill="#FFFFFF" d="M77.8,18.3c-0.1-0.2-0.3-0.5-0.6-0.7h-0.4c0.2,0.2,0.3,0.4,0.5,0.7l1.8,4.2l0,0L77.8,18.3z"/>
	<path fill="#FFFFFF" d="M29.7,26.7v0.4c0-1.1,0.4-2.6,0.7-3.3C30,24.5,29.7,26,29.7,26.7z"/>
	<path opacity="0.3" enable-background="new    " d="M96,83.2C96,83.2,96.1,83.3,96,83.2c0.5,0.5,1.2,0.5,1.6,0.5
		c0.3,0,0.6-0.1,0.9-0.2c-0.3,0-0.7,0.1-1,0.1C97,83.6,96.5,83.4,96,83.2z"/>
	<path opacity="0.15" enable-background="new    " d="M100.8,26c-0.7-1.1-1.8-1.8-3.3-1.8c-0.7,0-1.5,0.3-2.2,0.7
		c-1.1,0.8-1.4,1.5-1.8,2.6c0,1.1,0,2.2,0.7,2.9c4.4,7,7,15,7,23.5s-2.2,16.5-7,23.5c-0.7,0.7-1,1.8-0.7,2.9
		c0.3,1.1,0.7,1.9,1.8,2.6c0.2,0.1,0.5,0.2,0.7,0.3c-0.8-0.8-1.1-1.8-0.9-2.9c0-0.1,0-0.2,0-0.2C95,80.3,95,80.5,95,80.7
		c0-0.3,0-0.6,0-0.9c0-0.6,0.1-1.1,0.4-1.7c2.9-4.4,5-9.2,6.2-14.4c0.6-2.8,0.9-5.6,1.1-8.5c0-0.2,0-0.4,0-0.7
		c-0.1-8.2-2.6-16.5-7.3-23.6c-0.3-0.6-0.5-1.3-0.4-1.9c-0.6-1.3-0.2-2.7,1.1-3.3c0.9-0.5,1.8-0.5,2.6-0.2c0.5,0.1,1,0.4,1.4,0.6
		c5.2,8.4,8.1,17.6,8.1,27.5c0,0.3,0,0.3,0,0.7c0-2.9-0.3-5.7-0.8-8.5c0.3,2.4,0.5,4.7,0.5,7.2c0,0.7,0,1.4,0,2.1
		c0,9.9-2.6,19.4-8.1,27.5c-0.2,0.4-0.8,0.8-1.3,0.9c1.1-0.1,2.1-0.5,2.3-1.1c5.5-8.4,8.4-18.3,8.4-28.2
		C109.2,44,106.3,34.4,100.8,26z"/>
	<path opacity="0.3" enable-background="new    " d="M99.8,82.6c5.5-8.1,8.1-17.6,8.1-27.5c0-0.7,0-1.4,0-2.1c0,0.3,0,0.6,0,0.9
		c0,9.9-2.6,19.4-8.1,27.5c-0.4,0.7-1.5,1.1-2.2,1.1c-0.4,0-1.1,0-1.5-0.4c-0.5-0.5-0.9-1.2-1-1.8c-0.2,1.1,0.1,2.1,0.9,2.9
		c0.5,0.2,1,0.4,1.5,0.4c0.3,0,0.7,0,1-0.1C99,83.4,99.6,83,99.8,82.6z"/>
	<path opacity="0.15" enable-background="new    " d="M99.8,82.6c5.5-8.1,8.1-17.6,8.1-27.5c0-0.7,0-1.4,0-2.1c0,0.3,0,0.6,0,0.9
		c0,9.9-2.6,19.4-8.1,27.5c-0.4,0.7-1.5,1.1-2.2,1.1c-0.4,0-1.1,0-1.5-0.4c-0.5-0.5-0.9-1.2-1-1.8c-0.2,1.1,0.1,2.1,0.9,2.9
		c0.5,0.2,1,0.4,1.5,0.4c0.3,0,0.7,0,1-0.1C99,83.4,99.6,83,99.8,82.6z"/>
	<path opacity="0.3" enable-background="new    " d="M95.4,29.7c-0.2-0.2-0.3-0.4-0.4-0.7c-0.1,0.6,0.1,1.2,0.4,1.9
		c4.7,7.1,7.2,15.4,7.3,23.6c0-0.2,0-0.4,0-0.6C102.7,45.5,100.2,37,95.4,29.7z"/>
	<path opacity="0.15" enable-background="new    " d="M95.4,29.7c-0.2-0.2-0.3-0.4-0.4-0.7c-0.1,0.6,0.1,1.2,0.4,1.9
		c4.7,7.1,7.2,15.4,7.3,23.6c0-0.2,0-0.4,0-0.6C102.7,45.5,100.2,37,95.4,29.7z"/>
	<path opacity="0.15" enable-background="new    " d="M96.5,53.2c0,0.4,0,0.7,0,1.1c0,0.1,0,0.3,0,0.4c0,5.7-1.4,11.1-3.7,16.1v1
		c2.8-5.3,4.4-11.6,4.4-17.9c0-5.9-1.4-12.2-4.4-17.9v2.8C94.8,43.4,96.2,48.4,96.5,53.2z"/>
	<path opacity="0.15" enable-background="new    " d="M88.7,33c-0.7,0-1.4,0-1.8,0.4c-0.7,0.8-1.4,1.5-1.8,2.6
		c-0.3,0.7,0,1.8,0.4,2.9c2.5,4.7,4,9.9,4,15c0,5.5-1.4,10.6-4,15c-0.4,0.7-0.8,1.8-0.4,2.9c0.3,1.1,0.7,2.2,1.8,2.6
		c0.3,0.4,1.1,0.4,1.8,0.4c1.5,0,3-0.7,3.7-2.2c0.1-0.3,0.3-0.5,0.4-0.8v-1c-0.3,0.8-0.7,1.5-1.1,2.2c-0.8,1.1-1.5,1.5-2.6,1.5
		c-0.8,0-1.1,0-1.5-0.4c-1.2-0.7-1.7-1.7-1.4-2.9c0-0.1,0-0.2-0.1-0.3c0,0.1-0.1,0.3-0.4,0.6c0-0.3,0-1.1,0.4-1.8
		c0-0.1,0.1-0.2,0.1-0.3c0-0.1,0.1-0.3,0.2-0.4c0.6-1.1,1.1-2.2,1.5-3.3c1.4-3.6,2.2-7.3,2.2-11c0,0.3,0,0.3,0,0.7
		c0,1.4-0.1,2.9-0.3,4.3c0.4-1.8,0.6-3.6,0.6-5.4c-0.1-4.9-1.5-10.1-4-14.7c-0.4-0.6-0.5-1.3-0.3-2c-0.1-0.2-0.1-0.5-0.1-0.7
		c-0.1,0.2-0.2,0.3-0.3,0.5c0-1.1,0.4-2.2,1.5-2.9c0.4-0.3,1-0.4,1.5-0.3c1,0,2,0.4,2.5,1.4c0.5,1,1,2.1,1.5,3.1V36
		c-0.1-0.3-0.3-0.5-0.4-0.8C91.6,33.7,90.2,33,88.7,33z"/>
	<path opacity="0.3" enable-background="new    " d="M96.5,54.3c-0.2,5.3-1.5,10.4-3.7,15v1.5c2.3-4.9,3.7-10.3,3.7-16.1
		C96.5,54.6,96.5,54.4,96.5,54.3z"/>
	<path opacity="0.15" enable-background="new    " d="M96.5,54.3c-0.2,5.3-1.5,10.4-3.7,15v1.5c2.3-4.9,3.7-10.3,3.7-16.1
		C96.5,54.6,96.5,54.4,96.5,54.3z"/>
	<path opacity="0.3" enable-background="new    " d="M86.5,38.2c-0.1-0.2-0.2-0.4-0.3-0.6c-0.2,0.7-0.1,1.5,0.3,2
		c2.5,4.6,3.9,9.8,4,14.7c0-0.2,0-0.5,0-0.7C90.5,48.5,89.1,43,86.5,38.2z"/>
	<path opacity="0.15" enable-background="new    " d="M86.5,38.2c-0.1-0.2-0.2-0.4-0.3-0.6c-0.2,0.7-0.1,1.5,0.3,2
		c2.5,4.6,3.9,9.8,4,14.7c0-0.2,0-0.5,0-0.7C90.5,48.5,89.1,43,86.5,38.2z"/>
	<path opacity="0.3" enable-background="new    " d="M91.7,71.5c-0.8,1.1-1.5,1.5-2.6,1.5c-0.7,0-1.1,0-1.5-0.3
		c-0.7-0.4-1.2-0.9-1.4-1.5c-0.3,1.2,0.1,2.3,1.4,2.9c0.4,0.4,0.7,0.4,1.5,0.4c1.1,0,1.8-0.4,2.6-1.5c0.4-0.7,0.8-1.5,1.1-2.2v-1.5
		C92.5,70,92.1,70.8,91.7,71.5z"/>
	<path opacity="0.15" enable-background="new    " d="M91.7,71.5c-0.8,1.1-1.5,1.5-2.6,1.5c-0.7,0-1.1,0-1.5-0.3
		c-0.7-0.4-1.2-0.9-1.4-1.5c-0.3,1.2,0.1,2.3,1.4,2.9c0.4,0.4,0.7,0.4,1.5,0.4c1.1,0,1.8-0.4,2.6-1.5c0.4-0.7,0.8-1.5,1.1-2.2v-1.5
		C92.5,70,92.1,70.8,91.7,71.5z"/>
	<path d="M95.2,46.9c0.7,2.5,1.1,5,1.3,7.4c0-0.4,0-0.7,0-1.1c-0.3-4.8-1.7-9.8-3.7-14.5v0.4C93.9,41.6,94.7,44.3,95.2,46.9z"/>
	<path d="M90.5,55c0-0.2,0-0.5,0-0.7c0,1.9-0.2,3.7-0.6,5.4c-0.6,3.8-1.8,7.6-3.7,11.1c0,0,0,0,0,0.1c0,0.1,0,0.2,0.1,0.3
		c0.1-0.2,0.1-0.5,0.3-0.8C89,65.6,90.5,60.5,90.5,55z"/>
	<path d="M86.5,69c-0.1,0.1-0.1,0.3-0.2,0.4c0.6-1.2,1.2-2.4,1.7-3.7C87.6,66.8,87.1,67.9,86.5,69z"/>
	<path d="M91,35.6c0.7,1.1,1.3,2.3,1.8,3.5v-0.4c-0.5-1.1-1-2.1-1.5-3.1c-0.5-1-1.5-1.5-2.5-1.4C89.7,34.2,90.6,34.7,91,35.6z"/>
	<path d="M87.6,35.9c0.4-0.2,0.9-0.4,1.3-0.4c-0.5,0-1.1,0.1-1.6,0.4c-0.6,0.3-0.9,0.6-1.2,1c0,0.2,0,0.5,0.1,0.7
		C86.4,36.9,86.9,36.2,87.6,35.9z"/>
	<path d="M95.8,53.9c0,0.3,0,0.3,0,0.7c0-4.8-1.1-9.4-3-13.8v28.5c2.1-4.6,3.5-9.6,3.7-15c-0.2-2.4-0.6-4.9-1.3-7.4
		C95.6,49.2,95.8,51.6,95.8,53.9z"/>
	<path d="M87.6,72.7C88,73,88.4,73,89.1,73c1.1,0,1.8-0.4,2.6-1.5c0.4-0.7,0.8-1.5,1.1-2.2V40.8c-0.5-1.3-1.1-2.6-1.8-3.8
		c-0.5-0.9-1.2-1.4-2.1-1.5c-0.5,0-1,0.1-1.3,0.4c-0.7,0.3-1.2,1-1.4,1.7c0.1,0.2,0.1,0.4,0.3,0.6c2.6,4.8,4,10.3,4,15.4
		c0,0.2,0,0.5,0,0.7c0,0.2,0,0.5,0,0.7c0,5.5-1.5,10.6-4,15.4c-0.1,0.3-0.2,0.5-0.3,0.8C86.4,71.8,86.9,72.3,87.6,72.7z"/>
	<path d="M96.1,27.2c1.4-1.1,3.3-0.8,4,0.7c4.7,7.4,7.6,16.2,7.8,25.1c0-2.4-0.1-4.8-0.5-7.2c-1.2-6.5-3.7-12.7-7.3-18.3
		c-1.1-1.1-2.5-1.4-4-0.7c-0.8,0.7-1.1,1.1-1.1,1.8c-0.4-1.1,0-2.2,1.1-2.9c-1.3,0.6-1.7,2-1.1,3.3C95.1,28.3,95.5,27.6,96.1,27.2z"
		/>
	<path d="M102.7,54.5c0,0.2,0,0.4,0,0.7c0-0.1,0-0.2,0-0.4C102.7,54.7,102.7,54.6,102.7,54.5z"/>
	<path d="M95.1,80.1c0,0.1,0,0.2,0,0.2c0-0.2,0.1-0.4,0.2-0.6C95.2,79.8,95.1,79.9,95.1,80.1z"/>
	<path d="M101.6,63.7c-1.2,5.2-3.3,10.1-6.2,14.4c-0.3,0.6-0.4,1.2-0.4,1.7c0-0.4,0.1-0.9,0.4-1.3C98.5,74,100.5,68.9,101.6,63.7z"
		/>
	<path d="M101.7,64.5c-0.8,3.5-2,6.9-3.6,10.2C99.7,71.4,100.9,68,101.7,64.5z"/>
	<path d="M98.7,25.5c-0.8-0.3-1.7-0.3-2.6,0.2C97,25.3,97.9,25.3,98.7,25.5z"/>
	<path d="M97.6,82.5c0.7,0,1.8-0.4,2.2-1.1c5.5-8.1,8.1-17.6,8.1-27.5c0-0.3,0-0.6,0-0.9c-0.2-8.9-3.1-17.7-7.8-25.1
		c-0.7-1.5-2.6-1.8-4-0.7c-0.6,0.4-1,1.1-1.1,1.8c0.1,0.2,0.2,0.5,0.4,0.7c4.8,7.3,7.3,15.8,7.3,24.2c0,0.2,0,0.4,0,0.6
		c0,0.1,0,0.2,0,0.3c0,0,0-0.1,0-0.1c0,0.2,0,0.3,0,0.4c0,0.1,0,0.2,0,0.3c0,3-0.3,6.1-1,9.1c-0.8,3.5-2,7-3.6,10.2
		c-0.8,1.7-1.8,3.4-2.8,5c0,0,0,0,0,0c-0.1,0.2-0.1,0.4-0.2,0.6c0.1,0.7,0.5,1.3,1,1.8C96.5,82.5,97.2,82.5,97.6,82.5z"/>
	<path fill="#FFFFFF" d="M95,80.7c0-0.2,0-0.4,0.1-0.6c0-0.1,0-0.2,0-0.2C95,80.1,95,80.4,95,80.7z"/>
	<path fill="#FFFFFF" d="M101.6,63.7c0.6-2.8,1-5.6,1.1-8.5C102.6,58,102.2,60.9,101.6,63.7z"/>
	<path fill="#FFFFFF" d="M95.4,79.3c1-1.5,1.9-3.1,2.7-4.7c1.6-3.3,2.8-6.7,3.6-10.2c0.7-3,1-6.2,1-9.4c0-0.1,0-0.2,0-0.3
		c0,0.1,0,0.2,0,0.4c-0.1,2.9-0.4,5.7-1.1,8.5c-1.1,5.3-3.1,10.3-6.2,14.8c-0.2,0.4-0.3,0.9-0.4,1.3c0,0.1,0,0.2,0,0.2
		c0-0.1,0.1-0.3,0.2-0.4C95.3,79.5,95.3,79.4,95.4,79.3z"/>
	<path fill="#FFFFFF" d="M95.3,79.6C95.3,79.6,95.3,79.6,95.3,79.6c1.1-1.7,2-3.3,2.8-5c-0.8,1.6-1.7,3.2-2.7,4.7
		C95.3,79.4,95.3,79.5,95.3,79.6z"/>
	<path fill="#FFFFFF" d="M102.7,54.7c0,0,0,0.1,0,0.1c0,0.1,0,0.2,0,0.3C102.7,55,102.7,54.9,102.7,54.7z"/>
	<path fill="#FFFFFF" d="M102.7,55.4c0-0.1,0-0.2,0-0.3c0,3.2-0.3,6.3-1,9.4C102.4,61.5,102.7,58.4,102.7,55.4z"/>
	<path fill="#FFFFFF" d="M107.4,45.8c0.5,2.8,0.8,5.6,0.8,8.5c0-0.4,0-0.4,0-0.7c0-9.9-2.9-19.1-8.1-27.5c-0.4-0.3-0.9-0.5-1.4-0.6
		c0.5,0.2,1,0.5,1.4,0.9C103.8,32.3,106.4,38.9,107.4,45.8z"/>
	<path fill="#FFFFFF" d="M95,28.6c0-0.7,0.3-1.1,1.1-1.8c1.5-0.7,2.9-0.4,4,0.7c3.6,5.7,6.1,11.9,7.3,18.3c-1-7-3.6-13.6-7.3-19.4
		c-0.4-0.4-0.9-0.7-1.4-0.9c-0.8-0.2-1.7-0.2-2.6,0.2C95,26.4,94.6,27.5,95,28.6z"/>
	<path fill="#FFFFFF" d="M87.6,34.5c0.4-0.2,0.8-0.3,1.2-0.3c-0.6,0-1.1,0.1-1.5,0.3c-1.1,0.7-1.5,1.8-1.5,2.9
		c0.1-0.2,0.2-0.4,0.3-0.5C86.2,35.9,86.6,35,87.6,34.5z"/>
	<path fill="#FFFFFF" d="M92.8,39.1v1c1,2.2,1.8,4.5,2.4,6.8C94.7,44.3,93.9,41.6,92.8,39.1z"/>
	<path fill="#FFFFFF" d="M87.3,35.9c0.6-0.3,1.1-0.4,1.6-0.4c0.9,0,1.9,0.5,2.4,1.5c0.5,1,1,2.1,1.5,3.2v-1
		c-0.5-1.2-1.1-2.4-1.8-3.5c-0.4-0.9-1.3-1.4-2.2-1.4c-0.4,0-0.9,0.1-1.2,0.3c-1,0.5-1.4,1.4-1.5,2.4C86.4,36.5,86.7,36.2,87.3,35.9
		z"/>
	<path fill="#FFFFFF" d="M95.8,53.9c0-2.3-0.2-4.7-0.6-7c-0.6-2.3-1.4-4.6-2.4-6.8v0.7c1.9,4.4,3,9,3,13.8
		C95.8,54.2,95.8,54.2,95.8,53.9z"/>
	<path fill="#FFFFFF" d="M91.3,37c-0.5-1-1.4-1.4-2.4-1.5c0.8,0.1,1.6,0.5,2.1,1.5c0.7,1.2,1.3,2.5,1.8,3.8v-0.7
		C92.3,39.1,91.8,38,91.3,37z"/>
	<path fill="#FFFFFF" d="M86.3,69.4c0,0.1-0.1,0.2-0.1,0.3c-0.4,0.7-0.4,1.5-0.4,1.8c0.3-0.3,0.4-0.5,0.4-0.6
		C86.1,70.4,86.2,69.9,86.3,69.4z"/>
	<path fill="#FFFFFF" d="M90.2,55.4c0-0.4,0-0.4,0-0.7c0,3.7-0.8,7.5-2.2,11c0.8-1.9,1.4-3.9,1.9-6C90.1,58.3,90.2,56.8,90.2,55.4z"
		/>
	<path fill="#FFFFFF" d="M89.9,59.7c-0.4,2.1-1.1,4.1-1.9,6c-0.5,1.3-1,2.5-1.7,3.7c-0.2,0.5-0.2,1-0.1,1.4c0,0,0-0.1,0-0.1
		C88.1,67.3,89.3,63.5,89.9,59.7z"/>
	<path opacity="0.3" enable-background="new    " d="M21.3,77.4c0.3,0,0.9,0,1.3-0.3C22.1,77.2,21.7,77.4,21.3,77.4
		C21.3,77.4,21.3,77.4,21.3,77.4z"/>
	<path opacity="0.3" enable-background="new    " d="M21,77.4c0,0-0.1,0-0.1,0C20.9,77.4,20.9,77.4,21,77.4z"/>
	<path opacity="0.3" enable-background="new    " d="M10.9,85.9c0.4,0.2,0.9,0.3,1.2,0.3c0.4,0,1.1,0,1.5-0.4
		c0.3-0.1,0.5-0.3,0.7-0.5c-0.6,0.3-1.2,0.5-1.8,0.5C11.9,85.9,11.4,86,10.9,85.9z"/>
	<path opacity="0.15" enable-background="new    " d="M8.8,56.1c0-8.3,2.1-16,6.6-22.9v-5.4c-0.2-0.3-0.5-0.5-0.7-0.7
		c-0.7-0.3-1.5-0.7-2.2-0.7c-1.5,0-3,0.8-3.7,1.5c-5.5,8.4-8.4,18.3-8.4,28.2c0,10.2,2.9,19.8,8.4,28.2c0.4,0.9,1.2,1.4,2.1,1.6
		c-0.4-0.2-0.8-0.5-1-0.8c-5.2-8.4-8.1-17.6-8.1-27.5c0-0.2,0-0.4,0-0.5c0-0.1,0-0.1,0-0.2c0,0.1,0,0.2,0,0.3c0-0.3,0-0.3,0-0.7
		C1.8,46.6,4.4,37,9.9,29c0.2-0.2,0.3-0.3,0.5-0.4c1-1,2.3-0.9,3.6-0.3c0.1,0.1,0.1,0.1,0.2,0.2c0.8,0.7,1.1,1.6,0.9,2.5
		c0,0.2-0.1,0.4-0.1,0.6c0,0.6-0.2,1.2-0.6,1.8c-1.8,2.8-3.4,5.7-4.5,8.8c-1.5,4.5-2.4,9.3-2.4,14.3c0,8.4,2.5,16.9,7.3,24.2
		c0.2,0.3,0.2,0.6,0.3,0.9c0.1,0.4,0.2,0.9,0,1.3c0,0,0-0.1,0-0.1c0,0.1-0.1,0.2-0.1,0.3c0.2,0.8,0,1.7-0.6,2.3
		c0.2-0.1,0.3-0.1,0.4-0.2c0.3-0.2,0.5-0.4,0.7-0.6v-5.6C11.2,72.1,8.8,64.3,8.8,56.1z"/>
	<path opacity="0.15" enable-background="new    " d="M15.8,32.6c0.7-0.7,1.1-1.8,0.7-2.9c-0.2-0.7-0.6-1.3-1.1-1.9v5.4
		C15.5,33,15.7,32.8,15.8,32.6z"/>
	<path opacity="0.15" enable-background="new    " d="M15.8,79.6c-0.1-0.2-0.3-0.4-0.4-0.7v5.6c0.6-0.6,0.8-1.2,1.1-2
		C16.5,81.4,16.5,80.3,15.8,79.6z"/>
	<path opacity="0.3" enable-background="new    " d="M14.9,83.1c-0.2,0.6-0.6,1.2-1.3,1.6c-0.4,0.4-1.1,0.4-1.5,0.4
		c-0.7,0-1.8-0.4-2.2-1.1c-5.1-8.2-8-17.2-8.1-26.9c0,0.2,0,0.4,0,0.5c0,9.9,2.9,19.1,8.1,27.5c0.2,0.3,0.6,0.6,1,0.8
		c0.5,0.1,1.1,0.1,1.6-0.1c0.6,0,1.2-0.2,1.8-0.5C14.8,84.7,15.1,83.9,14.9,83.1z"/>
	<path opacity="0.15" enable-background="new    " d="M14.9,83.1c-0.2,0.6-0.6,1.2-1.3,1.6c-0.4,0.4-1.1,0.4-1.5,0.4
		c-0.7,0-1.8-0.4-2.2-1.1c-5.1-8.2-8-17.2-8.1-26.9c0,0.2,0,0.4,0,0.5c0,9.9,2.9,19.1,8.1,27.5c0.2,0.3,0.6,0.6,1,0.8
		c0.5,0.1,1.1,0.1,1.6-0.1c0.6,0,1.2-0.2,1.8-0.5C14.8,84.7,15.1,83.9,14.9,83.1z"/>
	<path opacity="0.3" enable-background="new    " d="M9.8,42.2c1.2-3.1,2.7-6.1,4.5-8.8c0.4-0.6,0.6-1.2,0.6-1.8
		c-0.1,0.2-0.1,0.4-0.2,0.7C12.6,35.4,11,38.7,9.8,42.2z"/>
	<path opacity="0.15" enable-background="new    " d="M9.8,42.2c1.2-3.1,2.7-6.1,4.5-8.8c0.4-0.6,0.6-1.2,0.6-1.8
		c-0.1,0.2-0.1,0.4-0.2,0.7C12.6,35.4,11,38.7,9.8,42.2z"/>
	<path opacity="0.15" enable-background="new    " d="M15.4,70.3v-2.1c-1-3.5-1.5-7.1-1.5-10.6c0-0.2,0-0.3,0-0.5c0-0.2,0-0.4,0-0.6
		c0-3.5,0.5-6.8,1.5-9.9v-3.9c-1.7,4.4-2.6,9.1-2.6,13.9C12.8,61.2,13.8,65.9,15.4,70.3z"/>
	<path opacity="0.15" enable-background="new    " d="M18.7,75.9c-1.4-2.4-2.5-5-3.3-7.7v2.1c0.6,1.7,1.4,3.4,2.2,4.9
		c0.6,1.3,2,2.1,3.3,2.2C19.9,77.3,19,76.9,18.7,75.9z"/>
	<path opacity="0.15" enable-background="new    " d="M21.2,77.4C21.2,77.4,21.2,77.4,21.2,77.4c0,0-0.1,0-0.2,0
		C21.1,77.4,21.1,77.4,21.2,77.4z"/>
	<path opacity="0.15" enable-background="new    " d="M17.1,42.2c0.6-1.4,1.2-2.7,1.9-4c0.8-1.5,2.2-1.8,3.7-1.1
		c1,0.3,1.8,1.6,1.6,2.7c0,0.2,0,0.5-0.1,0.7c0.1,0.6,0,1.3-0.3,2c-2.4,4.6-3.9,9.6-4,14.9c0.1,4.9,1.5,10.2,4,14.8
		c0.3,0.5,0.4,1.2,0.3,1.8c0,0,0,0,0,0.1c0,0,0,0,0,0c0.2,1.1-0.2,2.3-1.4,2.9c-0.1,0.1-0.1,0.1-0.2,0.1c0.3-0.1,0.5-0.1,0.8-0.1
		c0.7-0.8,1.4-1.5,1.8-2.6c0.4-1.1,0-2.2-0.7-2.9c-2.5-4.7-4-9.9-4-15c0-5.5,1.4-10.6,4-15c0.4-0.7,0.8-1.8,0.4-2.9
		c-0.3-1.1-0.7-2.2-1.8-2.6c-0.3-0.4-1.1-0.4-1.8-0.4c-1.5,0-3,0.7-3.7,2.2c-0.8,1.5-1.6,3.1-2.2,4.8v3.9
		C15.9,45,16.5,43.6,17.1,42.2z"/>
	<path opacity="0.3" enable-background="new    " d="M13.9,57.1c0,0.2,0,0.3,0,0.5c0,3.5,0.5,7.1,1.5,10.6v-1.1
		C14.5,63.8,14,60.4,13.9,57.1z"/>
	<path opacity="0.15" enable-background="new    " d="M13.9,57.1c0,0.2,0,0.3,0,0.5c0,3.5,0.5,7.1,1.5,10.6v-1.1
		C14.5,63.8,14,60.4,13.9,57.1z"/>
	<path opacity="0.3" enable-background="new    " d="M19.9,56.8c0,0.2,0,0.4,0,0.6c0.1-5.3,1.6-10.2,4-14.9c0.3-0.7,0.4-1.4,0.3-2
		c-0.1,0.3-0.1,0.6-0.3,0.9C21.4,46.2,19.9,51.3,19.9,56.8z"/>
	<path opacity="0.15" enable-background="new    " d="M19.9,56.8c0,0.2,0,0.4,0,0.6c0.1-5.3,1.6-10.2,4-14.9c0.3-0.7,0.4-1.4,0.3-2
		c-0.1,0.3-0.1,0.6-0.3,0.9C21.4,46.2,19.9,51.3,19.9,56.8z"/>
	<path opacity="0.3" enable-background="new    " d="M24.2,74.1C24.2,74.1,24.2,74.1,24.2,74.1c-0.2,0.7-0.6,1.4-1.4,1.8
		c-0.4,0.4-1.1,0.4-1.5,0.4c-1.1,0-2.2-0.4-2.6-1.5c-1.4-2.4-2.5-5-3.3-7.7v1.1c0.8,2.7,1.9,5.3,3.3,7.7c0.3,1,1.2,1.4,2.2,1.5
		c0,0,0.1,0,0.1,0c0.1,0,0.2,0,0.2,0c0.4,0,0.9-0.2,1.4-0.3c0.1,0,0.1-0.1,0.2-0.1C24,76.4,24.4,75.2,24.2,74.1z"/>
	<path opacity="0.15" enable-background="new    " d="M24.2,74.1C24.2,74.1,24.2,74.1,24.2,74.1c-0.2,0.7-0.6,1.4-1.4,1.8
		c-0.4,0.4-1.1,0.4-1.5,0.4c-1.1,0-2.2-0.4-2.6-1.5c-1.4-2.4-2.5-5-3.3-7.7v1.1c0.8,2.7,1.9,5.3,3.3,7.7c0.3,1,1.2,1.4,2.2,1.5
		c0,0,0.1,0,0.1,0c0.1,0,0.2,0,0.2,0c0.4,0,0.9-0.2,1.4-0.3c0.1,0,0.1-0.1,0.2-0.1C24,76.4,24.4,75.2,24.2,74.1z"/>
	<path d="M15.4,47.4v-0.8c-1,3.1-1.5,6.5-1.5,9.9c0,0.2,0,0.4,0,0.6c0-2.4,0.3-4.7,0.9-7C15,49.2,15.2,48.3,15.4,47.4z"/>
	<path d="M22.7,38.5c-1.1-0.7-3-0.4-3.7,1.1c-0.7,1.4-1.4,2.7-2,4.2c0.6-1.3,1.3-2.6,2.1-3.9c0.8-1.5,2.2-1.9,3.7-1.1
		c0.8,0.4,1.2,1,1.4,1.7c0-0.2,0.1-0.5,0.1-0.7c0,0.1,0,0.2-0.1,0.2C23.8,39.2,23.5,38.9,22.7,38.5z"/>
	<path d="M20.5,63.7c0.7,3.1,1.8,6,3.3,8.6c0.4,0.3,0.4,1.1,0.4,1.7c0.1-0.7,0-1.3-0.3-1.8c-2.5-4.6-3.9-9.9-4-14.8
		c0,0.2,0,0.4,0,0.5C19.9,59.8,20.1,61.7,20.5,63.7z"/>
	<path d="M17.1,42.2c-0.7,1.4-1.3,2.8-1.7,4.4v0.8C15.9,45.6,16.4,43.9,17.1,42.2z"/>
	<path d="M15.4,48.4c-0.8,2.8-1.2,5.8-1.2,8.8c0-0.3,0-0.3,0-0.7c0-2.2,0.2-4.3,0.6-6.4c-0.6,2.3-0.9,4.7-0.9,7
		c0.1,3.3,0.5,6.7,1.5,10V48.4z"/>
	<path d="M22.8,38.8c-1.5-0.8-2.9-0.4-3.7,1.1c-0.8,1.2-1.5,2.5-2.1,3.9c-0.6,1.5-1.2,3.1-1.6,4.7v18.6c0.8,2.7,1.9,5.3,3.3,7.7
		c0.4,1.1,1.5,1.5,2.6,1.5c0.4,0,1.1,0,1.5-0.4c0.8-0.4,1.2-1.1,1.4-1.8c-0.4-0.4-0.4-0.8-0.4-0.7c-2.5-4.8-4-9.9-4-15.4
		c0-0.3,0-0.3,0-0.7c0,2.2,0.2,4.3,0.7,6.4c-0.4-1.9-0.6-3.9-0.6-5.8c0-0.2,0-0.4,0-0.5c0-0.2,0-0.4,0-0.6c0-5.5,1.5-10.6,4-15.4
		c0.1-0.3,0.2-0.6,0.3-0.9C24,39.8,23.6,39.2,22.8,38.8z"/>
	<path d="M1.8,56.9c0,0.1,0,0.1,0,0.2C1.9,50,3.6,42.9,6.6,36.4C3.5,42.8,1.9,49.7,1.8,56.9z"/>
	<path d="M14.3,81.8c0.3,0.4,0.5,0.8,0.6,1.3c0-0.1,0.1-0.2,0.1-0.3c-0.1-0.3-0.4-0.6-0.4-1c-4.7-7-7.3-15.4-7.3-24.2
		c0-0.4,0-0.4,0-0.7c0,8.4,2.6,16.5,7.3,23.8c0.2,0.3,0.3,0.6,0.4,0.9c-0.1-0.3-0.2-0.6-0.3-0.9c-4.8-7.3-7.3-15.8-7.3-24.2
		c0-4.9,0.8-9.7,2.4-14.3C8,47.1,7,52.3,7,57.6C7,66,9.5,74.4,14.3,81.8z"/>
	<path d="M13.9,28.3c0.1,0.1,0.2,0.1,0.3,0.2C14.1,28.4,14.1,28.4,13.9,28.3c-1.2-0.6-2.5-0.7-3.5,0.3
		C11.4,27.8,12.6,27.7,13.9,28.3z"/>
	<path d="M13.9,29.3c-0.9-0.4-1.7-0.5-2.6-0.1c0.8-0.3,1.7-0.2,2.6,0.2c0.7,0.7,1,1.4,1,2.2c0.1-0.2,0.1-0.4,0.1-0.6
		c0,0.1,0,0.1-0.1,0.2C15,30.4,14.7,29.7,13.9,29.3z"/>
	<path d="M12.1,85.1c0.4,0,1.1,0,1.5-0.4c0.7-0.5,1.1-1,1.3-1.6c-0.1-0.4-0.3-0.9-0.6-1.3C9.5,74.4,7,66,7,57.6
		c0-5.3,1-10.5,2.8-15.4c1.2-3.5,2.9-6.9,4.9-9.9c0.1-0.2,0.2-0.4,0.2-0.7c0-0.8-0.4-1.6-1-2.2c-0.9-0.4-1.8-0.5-2.6-0.2
		c-0.5,0.2-1,0.6-1.4,1.2c-1.2,1.9-2.3,3.9-3.3,6c-3,6.6-4.7,13.6-4.8,20.7c0.1,9.7,3,18.7,8.1,26.9C10.3,84.7,11.4,85.1,12.1,85.1z
		"/>
	<path fill="#FFFFFF" d="M15,82.8c0,0,0,0.1,0,0.1c0.2-0.4,0.1-0.8,0-1.3C15.1,82,15.1,82.4,15,82.8z"/>
	<path fill="#FFFFFF" d="M7.3,56.9c0,0.3,0,0.3,0,0.7c0,8.8,2.6,17.2,7.3,24.2c0,0.4,0.3,0.6,0.4,1c0.1-0.4,0.1-0.8,0-1.2
		c-0.1-0.3-0.2-0.6-0.4-0.9C9.9,73.4,7.3,65.3,7.3,56.9z"/>
	<path fill="#FFFFFF" d="M10.4,28.6c-0.2,0.1-0.3,0.3-0.5,0.4c-5.5,8-8.1,17.6-8.1,27.5c0-9.9,3-19.5,8.2-27.5
		C10.1,28.8,10.2,28.7,10.4,28.6z"/>
	<path fill="#FFFFFF" d="M15.1,31c0.3-0.9,0-1.8-0.9-2.5C14.8,29.2,15.1,30.1,15.1,31z"/>
	<path fill="#FFFFFF" d="M1.8,57.2c0-0.1,0-0.2,0-0.3c0-0.1,0-0.2,0-0.4C1.8,56.9,1.8,56.9,1.8,57.2z"/>
	<path fill="#FFFFFF" d="M9.9,30.1c0.4-0.4,0.9-0.7,1.4-0.9c0.8-0.4,1.7-0.3,2.6,0.1c0.8,0.4,1.1,1.1,1.1,1.9c0-0.1,0-0.1,0.1-0.2
		c0.1-0.9-0.2-1.8-0.9-2.5c-0.1-0.1-0.2-0.1-0.3-0.2c-1.3-0.6-2.5-0.5-3.5,0.3c-0.1,0.1-0.3,0.3-0.4,0.4c-5.2,8-8.2,17.6-8.2,27.5
		c0,0.1,0,0.2,0,0.4c0.1-7.1,1.7-14.1,4.8-20.5C7.6,34.2,8.7,32.1,9.9,30.1z"/>
	<path fill="#FFFFFF" d="M6.6,36.4c1-2,2.1-4,3.3-6c0.4-0.6,0.9-1,1.4-1.2c-0.5,0.2-1,0.5-1.4,0.9C8.7,32.1,7.6,34.2,6.6,36.4z"/>
	<path fill="#FFFFFF" d="M22.8,37.7c0.9,0.5,1.4,1.2,1.5,2.1c0.2-1.1-0.5-2.4-1.6-2.7c-1.5-0.7-2.9-0.4-3.7,1.1
		c-0.7,1.3-1.3,2.6-1.9,4c0.6-1.2,1.2-2.3,2-3.4C19.9,37.3,21.3,37,22.8,37.7z"/>
	<path fill="#FFFFFF" d="M15.4,47.4c-0.2,0.9-0.4,1.8-0.6,2.7c0.2-0.7,0.4-1.4,0.6-2.1V47.4z"/>
	<path fill="#FFFFFF" d="M15.4,47.9c0.4-1.4,1-2.8,1.6-4.2c0.6-1.4,1.3-2.8,2-4.2c0.7-1.5,2.6-1.8,3.7-1.1c0.8,0.4,1.1,0.7,1.5,1.5
		c0-0.1,0-0.2,0.1-0.2c-0.1-0.8-0.5-1.6-1.5-2.1c-1.5-0.7-2.9-0.4-3.7,1.1c-0.7,1.1-1.4,2.2-2,3.4c-0.7,1.7-1.3,3.4-1.7,5.2V47.9z"
		/>
	<path fill="#FFFFFF" d="M14.8,50.1c-0.4,2.1-0.6,4.2-0.6,6.4c0,0.4,0,0.4,0,0.7c0-3,0.4-5.9,1.2-8.8v-0.5
		C15.2,48.6,15,49.3,14.8,50.1z"/>
	<path fill="#FFFFFF" d="M15.4,47.9v0.5c0.4-1.6,1-3.1,1.6-4.7C16.4,45.1,15.8,46.5,15.4,47.9z"/>
	<path fill="#FFFFFF" d="M24.2,74.1C24.2,74.1,24.2,74.1,24.2,74.1C24.2,74.1,24.2,74.1,24.2,74.1C24.2,74.1,24.2,74.1,24.2,74.1
		C24.2,74.1,24.2,74.1,24.2,74.1z"/>
	<path fill="#FFFFFF" d="M24.2,74.1C24.2,74.1,24.2,74.1,24.2,74.1C24.2,74.1,24.2,74.1,24.2,74.1C24.2,74.1,24.2,74.1,24.2,74.1z"
		/>
	<path fill="#FFFFFF" d="M20.5,63.7c0.6,3.3,1.8,6.6,3.4,9.6c0.1,0.2,0.2,0.5,0.3,0.8c0,0,0,0,0,0c0-0.7,0-1.4-0.4-1.7
		C22.2,69.7,21.1,66.8,20.5,63.7z"/>
	<path fill="#FFFFFF" d="M23.9,73.3c-1.6-3-2.8-6.3-3.4-9.6c-0.4-2.1-0.7-4.2-0.7-6.4c0,0.4,0,0.4,0,0.7c0,5.5,1.5,10.6,4,15.4
		c0-0.1,0,0.3,0.4,0.7c0,0,0,0,0,0C24.1,73.8,24,73.5,23.9,73.3z"/>
	<path fill="#EA2227" d="M80.2,26.8L80.2,26.8c0-0.1,0-0.1,0-0.2C80.2,26.7,80.2,26.7,80.2,26.8z"/>
</g>
</svg>
