<?xml version="1.0" encoding="utf-8"?>
<!-- Generator: Adobe Illustrator 18.0.0, SVG Export Plug-In . SVG Version: 6.00 Build 0)  -->
<!DOCTYPE svg PUBLIC "-//W3C//DTD SVG 1.1//EN" "http://www.w3.org/Graphics/SVG/1.1/DTD/svg11.dtd">
<svg version="1.1" id="Warstwa_1" xmlns="http://www.w3.org/2000/svg" xmlns:xlink="http://www.w3.org/1999/xlink" x="0px" y="0px"
	 viewBox="72 -32 96 96" enable-background="new 72 -32 96 96" xml:space="preserve">
<g id="DO_NOT_EDIT_-_BOUNDING_BOX">
	<rect id="BOUNDING_BOX" x="72" y="-32" fill="none" width="96" height="96"/>
</g>
<g id="DO_NOT_EDIT_-_SHADOW">
	<path id="SHADOW" opacity="0.4" enable-background="new    " d="M160.2,17.2c0,29.4-10.2,40.2-40.2,40.2
		c-29.4,0-40.2-10.2-40.2-40.2C79.8-12.2,90-23,120-23C149.4-23,160.2-12.8,160.2,17.2z"/>
</g>
<g id="ORANGE_BACKGROUNDS">
	<g id="ORANGE_1">
		
			<linearGradient id="RED_x2F_ORANGE_1_2_" gradientUnits="userSpaceOnUse" x1="8" y1="43.9947" x2="8" y2="4.0053" gradientTransform="matrix(2 0 0 -2 104 64)">
			<stop  offset="3.636400e-002" style="stop-color:#F15D37"/>
			<stop  offset="0.3659" style="stop-color:#E34426"/>
			<stop  offset="1" style="stop-color:#C20B00"/>
		</linearGradient>
		<path id="RED_x2F_ORANGE_1_1_" fill="url(#RED_x2F_ORANGE_1_2_)" d="M79.8,16c0,29.4,10.2,40.2,40.2,40.2
			c29.4,0,40.2-10.2,40.2-40.2c0-28.8-10.2-39.6-37.8-40.2h-4.2C90-23.6,79.8-12.8,79.8,16z"/>
		
			<linearGradient id="HIGHLIGHTS_RO1_2_" gradientUnits="userSpaceOnUse" x1="8" y1="43.872" x2="8" y2="4.248" gradientTransform="matrix(2 0 0 -2 104 64)">
			<stop  offset="3.636400e-002" style="stop-color:#FFFFFF"/>
			<stop  offset="0.1274" style="stop-color:#FCF7F5"/>
			<stop  offset="0.2815" style="stop-color:#F5E0DB"/>
			<stop  offset="0.4799" style="stop-color:#EABBAF"/>
			<stop  offset="0.7147" style="stop-color:#DA8873"/>
			<stop  offset="0.9778" style="stop-color:#C64828"/>
			<stop  offset="1" style="stop-color:#C44221"/>
		</linearGradient>
		<path id="HIGHLIGHTS_RO1_1_" opacity="0.25" fill="url(#HIGHLIGHTS_RO1_2_)" enable-background="new    " d="M120-24.2
			c-29.4,0-40.2,10.8-40.2,40.2S90,56.2,120,56.2c29.4,0,40.2-10.2,40.2-40.2C160.2-13.4,149.4-24.2,120-24.2z M120,55
			c-29.4,0-39-9.6-39-39s9.6-39,39-39s39,9.6,39,39S149.4,55,120,55z"/>
		<rect id="BOUNDING_BOX_1_" x="86.4" y="-12.2" fill="none" width="67.2" height="57"/>
		<path opacity="0.3" enable-background="new    " d="M141.6,5.2c-1.8-4.8-4.8-8.4-11.4-10.2c-4.8-1.2-7.8-1.2-10.2-1.2
			c-2.4,0-5.4,0-10.2,1.2c-6.6,1.8-9.6,5.4-11.4,10.2c0,0-3.6,10.2,0,24c1.2,4.8,4.8,8.4,11.4,10.2c4.8,0.6,7.8,0.6,10.2,0.6
			c2.4,0,5.4,0,10.2-1.2c6.6-1.8,9.6-4.8,11.4-10.2C145.2,17.2,141.6,5.2,141.6,5.2z M118.2-0.2h3.6c1.8,0,3,1.2,3,3l-1.2,14.4
			c0,1.2-1.2,3-3,3h-1.8c-1.8,0-3-1.2-3-3l-0.6-14.4C115.2,1,116.4-0.2,118.2-0.2z M120,34c-3,0-5.4-2.4-5.4-5.4s2.4-5.4,5.4-5.4
			s5.4,2.4,5.4,5.4C125.4,32.2,123,34,120,34z"/>
		<path opacity="0.15" enable-background="new    " d="M121.2,40c-0.6,0-1.2,0-1.2,0c-0.6,0-0.6,0-1.2,0c-1.8,0-4.8,0-9-1.2
			c-6.6-1.8-10.2-5.4-12-10.8c-3.6-13.2,0-24,0-24.6c1.8-6,6-9,12-10.8c3.6-0.6,6.6-0.6,9-0.6c0.6,0,0.6,0,1.2,0c0.6,0,0.6,0,1.2,0
			c1.8,0,4.8,0,9,1.2c6,1.8,9.6,4.8,12,10.8c0,0.6,3.6,12.6,0,24.6c-1.8,5.4-5.4,9-12,10.8C126.6,40,123,40,121.2,40L121.2,40z
			 M120,23.8c-2.4,0-4.2,1.8-4.2,4.2s1.8,4.2,4.2,4.2s4.2-1.8,4.2-4.2S122.4,23.8,120,23.8z M118.2-0.2c-1.2,0-1.8,0.6-1.8,1.8
			l1.2,15c0,1.2,0.6,1.8,1.8,1.8h1.8c1.2,0,1.8-0.6,1.8-1.8l1.2-15c0-0.6-0.6-1.8-1.8-1.8C121.8-0.2,118.2-0.2,118.2-0.2z"/>
		<path opacity="0.15" enable-background="new    " d="M141.6,4c-1.8-4.8-4.8-8.4-11.4-10.2c-4.8-0.6-7.8-0.6-10.2-0.6
			c-2.4,0-5.4,0-10.2,1.2c-6.6,1.2-9.6,4.8-11.4,9.6c0,0-3.6,10.2,0,24c1.2,4.8,4.8,8.4,11.4,10.2c4.8,1.2,7.8,1.2,10.2,1.2
			s5.4,0,10.2-1.2c6.6-1.8,9.6-4.8,11.4-10.2C145.2,16,141.6,4,141.6,4z M118.2-1.4h3.6c1.8,0,3,1.2,3,3l-1.2,15c0,1.2-1.2,3-3,3
			h-1.8c-1.8,0-3-1.2-3-3l-0.6-15C115.2-0.2,116.4-1.4,118.2-1.4z M120,33.4c-3,0-5.4-2.4-5.4-5.4s2.4-5.4,5.4-5.4s5.4,2.4,5.4,5.4
			S123,33.4,120,33.4z"/>
		
			<linearGradient id="SVGID_1_" gradientUnits="userSpaceOnUse" x1="8" y1="33.5002" x2="8" y2="10.4995" gradientTransform="matrix(2 0 0 2 104 -28)">
			<stop  offset="0" style="stop-color:#D0CBC5"/>
			<stop  offset="0.5031" style="stop-color:#FAFCEF"/>
			<stop  offset="0.9693" style="stop-color:#FFFFFF"/>
		</linearGradient>
		<path fill="url(#SVGID_1_)" d="M141.6,4c-1.8-4.8-4.8-8.4-11.4-10.2c-4.8-0.6-7.8-0.6-10.2-0.6c-2.4,0-5.4,0-10.2,1.2
			c-6.6,1.2-9.6,4.8-11.4,9.6c0,0-3.6,10.2,0,24c1.2,4.8,4.8,8.4,11.4,10.2c4.8,1.2,7.8,1.2,10.2,1.2s5.4,0,10.2-1.2
			c6.6-1.8,9.6-4.8,11.4-10.2C145.2,16,141.6,4,141.6,4z M118.2-1.4h3.6c1.8,0,3,1.2,3,3l-1.2,15c0,1.2-1.2,3-3,3h-1.8
			c-1.8,0-3-1.2-3-3l-0.6-15C115.2-0.2,116.4-1.4,118.2-1.4z M120,33.4c-3,0-5.4-2.4-5.4-5.4s2.4-5.4,5.4-5.4s5.4,2.4,5.4,5.4
			S123,33.4,120,33.4z"/>
		<path fill="#FFFFFF" d="M120,34c3,0,5.4-2.4,5.4-5.4V28c0,2.4-2.4,4.8-4.8,4.8s-4.8-1.8-4.8-4.8v0.6C114.6,32.2,117,34,120,34z"/>
		<path fill="#FFFFFF" d="M98.4,5.2c1.8-4.8,4.8-8.4,11.4-10.2c4.8-1.2,7.8-1.2,10.2-1.2c2.4,0,5.4,0,10.2,1.2
			c6.6,1.8,9.6,5.4,11.4,10.2c0,0,1.8,4.8,1.8,12c0-7.2-1.8-12.6-1.8-12.6c-1.8-4.8-4.8-8.4-11.4-10.2c-4.8-1.2-7.8-1.2-10.2-1.2
			c-2.4,0-5.4,0-10.2,1.2c-6.6,1.2-9.6,4.8-11.4,9.6c0,0-1.8,4.8-1.2,12C97.2,9.4,98.4,5.2,98.4,5.2z"/>
		<path fill="#FFFFFF" d="M116.4,17.2c0,1.8,1.2,3,3,3h1.8c1.8,0,3-1.2,3-3l1.2-15c0,0,0,0,0-0.6l-1.8,15c0,1.2-1.2,3-3,3h-1.8
			c-1.8,0-3-1.2-3-3l-0.6-14.4c0,0,0,0,0,0.6L116.4,17.2z"/>
	</g>
</g>
<g id="PLACE_YOUR_GRAPHIC_HERE">
</g>
<g id="DO_NOT_EDIT_-_FOCAL_ZONE_GUIDES_ONLY">
</g>
</svg>
