<?xml version="1.0" encoding="utf-8"?>
<!-- Generator: Adobe Illustrator 14.0.0, SVG Export Plug-In  -->
<!DOCTYPE svg PUBLIC "-//W3C//DTD SVG 1.1//EN" "http://www.w3.org/Graphics/SVG/1.1/DTD/svg11.dtd" [
	<!ENTITY ns_flows "http://ns.adobe.com/Flows/1.0/">
]>
<svg version="1.1"
	 xmlns="http://www.w3.org/2000/svg" xmlns:xlink="http://www.w3.org/1999/xlink" xmlns:a="http://ns.adobe.com/AdobeSVGViewerExtensions/3.0/"
	 x="0px" y="0px" width="67px" height="57px" viewBox="0 0 67 57" enable-background="new 0 0 67 57" xml:space="preserve">
<defs>
</defs>
<rect fill="none" width="67" height="57"/>
<path opacity="0.15" d="M13,46c-1.654,0-3-1.346-3-3V15c0-0.387,0.223-0.738,0.571-0.903C10.708,14.031,10.854,14,11,14
	c0.227,0,0.451,0.077,0.633,0.226L33,31.708l21.367-17.482C54.549,14.077,54.773,14,55,14c0.146,0,0.292,0.031,0.429,0.097
	C55.777,14.262,56,14.613,56,15v28c0,1.654-1.346,3-3,3H13z M33,31c-0.225,0-0.449-0.075-0.633-0.226l-22-18
	c-0.327-0.269-0.451-0.713-0.309-1.11C10.2,11.266,10.577,11,11,11h44c0.423,0,0.8,0.266,0.941,0.664
	c0.143,0.397,0.019,0.842-0.309,1.11l-22,18C33.449,30.925,33.225,31,33,31L33,31z"/>
<path opacity="0.3" d="M55,13H11l22,18L55,13z M33,34L11,16v28c0,1.104,0.896,2,2,2h40c1.104,0,2-0.896,2-2V16L33,34z"/>
<linearGradient id="SVGID_1_" gradientUnits="userSpaceOnUse" x1="33.0005" y1="45" x2="33.0005" y2="12.0005">
	<stop  offset="0" style="stop-color:#D0CBC5"/>
	<stop  offset="0.5031" style="stop-color:#FAFCEF"/>
	<stop  offset="0.9693" style="stop-color:#FFFFFF"/>
</linearGradient>
<path fill="url(#SVGID_1_)" d="M55,12H11l22,18L55,12z M33,33L11,15v28c0,1.104,0.896,2,2,2h40c1.104,0,2-0.896,2-2V15L33,33z"/>
<path fill="#FFFFFF" d="M11,15v1l22,18l22-18v-1L33,33L11,15z M53.777,13L55,12H11l1.223,1H53.777z"/>
</svg>
