<?xml version="1.0" encoding="utf-8"?>
<!-- Generator: Adobe Illustrator 18.0.0, SVG Export Plug-In . SVG Version: 6.00 Build 0)  -->
<!DOCTYPE svg PUBLIC "-//W3C//DTD SVG 1.1//EN" "http://www.w3.org/Graphics/SVG/1.1/DTD/svg11.dtd">
<svg version="1.1" xmlns="http://www.w3.org/2000/svg" xmlns:xlink="http://www.w3.org/1999/xlink" x="0px" y="0px" width="96px"
	 height="96px" viewBox="0 0 96 96" enable-background="new 0 0 96 96" xml:space="preserve">
<g id="DO_NOT_EDIT_-_BOUNDING_BOX">
	<rect id="BOUNDING_BOX" fill="none" width="96" height="96"/>
</g>
<g id="DO_NOT_EDIT_-_SHADOW">
	<path id="SHADOW" opacity="0.4" d="M88,49c0,29.6-10.4,40-40,40C18.4,89,8,78.6,8,49C8,19.4,18.4,9,48,9C77.7,9,88,19.4,88,49z"/>
</g>
<g id="VIOLET_x2F_PINK_BACKGROUNDS">
	<g id="VIOLET_2_2_">
		<linearGradient id="VIOLET_2_3_" gradientUnits="userSpaceOnUse" x1="48" y1="8.0107" x2="48" y2="90.7566">
			<stop  offset="3.636400e-002" style="stop-color:#BA66E0"/>
			<stop  offset="0.2174" style="stop-color:#B260D8"/>
			<stop  offset="0.497" style="stop-color:#9D51C2"/>
			<stop  offset="0.8385" style="stop-color:#7C379F"/>
			<stop  offset="1" style="stop-color:#69298C"/>
		</linearGradient>
		<path id="VIOLET_2_1_" fill="url(#VIOLET_2_3_)" d="M8,48c0,29.6,10.4,40,40,40c29.6,0,40-10.4,40-40c0-29-9.9-39.5-38.1-40h-3.8
			C17.9,8.5,8,19,8,48z"/>
		<linearGradient id="HIGHLIGHT_VIO2_1_" gradientUnits="userSpaceOnUse" x1="48" y1="8.2555" x2="48" y2="87.504">
			<stop  offset="3.636400e-002" style="stop-color:#FFFFFF"/>
			<stop  offset="0.1299" style="stop-color:#F9F7FB"/>
			<stop  offset="0.2745" style="stop-color:#EAE1EF"/>
			<stop  offset="0.452" style="stop-color:#D1BEDC"/>
			<stop  offset="0.6558" style="stop-color:#AF8CC1"/>
			<stop  offset="0.8786" style="stop-color:#834EA0"/>
			<stop  offset="1" style="stop-color:#69298C"/>
		</linearGradient>
		<path id="HIGHLIGHT_VIO2" opacity="0.25" fill="url(#HIGHLIGHT_VIO2_1_)" d="M48,8C18.4,8,8,18.4,8,48c0,29.6,10.4,40,40,40
			c29.6,0,40-10.4,40-40C88,18.4,77.6,8,48,8z M48,87C18.8,87,9,77.2,9,48C9,18.8,18.8,9,48,9s39,9.8,39,39C87,77.2,77.2,87,48,87z"
			/>
	</g>
</g>
<g id="PLACE_YOUR_GRAPHIC_HERE">
	<path opacity="0.3" enable-background="new    " d="M70.3,33.4H65v-5.2c0-0.7-0.6-1.3-1.3-1.3H61c-0.7,0-1.3,0.6-1.3,1.3v5.2h-5.2
		c-0.7,0-1.3,0.6-1.3,1.3v2.7c0,0.7,0.6,1.3,1.3,1.3h5.2v5.2c0,0.7,0.6,1.3,1.3,1.3h2.7c0.7,0,1.3-0.6,1.3-1.3v-5.2h5.2
		c0.7,0,1.3-0.6,1.3-1.3v-2.7C71.6,34,71,33.4,70.3,33.4z"/>
	<path opacity="0.15" enable-background="new    " d="M61,45.4c-1.1,0-2-0.9-2-2v-4.6h-4.6c-1.1,0-2-0.9-2-2v-2.7c0-1.1,0.9-2,2-2
		H59v-4.6c0-1.1,0.9-2,2-2h2.7c1.1,0,2,0.9,2,2v4.6h4.6c1.1,0,2,0.9,2,2v2.7c0,1.1-0.9,2-2,2h-4.6v4.6c0,1.1-0.9,2-2,2H61z"/>
	
		<linearGradient id="SVGID_1_" gradientUnits="userSpaceOnUse" x1="62.332" y1="53.2401" x2="62.332" y2="71.8369" gradientTransform="matrix(1 0 0 -1 0 98)">
		<stop  offset="0" style="stop-color:#D0CBC5"/>
		<stop  offset="0.5031" style="stop-color:#FAFCEF"/>
		<stop  offset="0.9693" style="stop-color:#FFFFFF"/>
	</linearGradient>
	<path fill="url(#SVGID_1_)" d="M70.3,32.8H65v-5.2c0-0.7-0.6-1.3-1.3-1.3H61c-0.7,0-1.3,0.6-1.3,1.3v5.2h-5.2
		c-0.7,0-1.3,0.6-1.3,1.3v2.7c0,0.7,0.6,1.3,1.3,1.3h5.2v5.2c0,0.7,0.6,1.3,1.3,1.3h2.7c0.7,0,1.3-0.6,1.3-1.3v-5.2h5.2
		c0.7,0,1.3-0.6,1.3-1.3v-2.7C71.6,33.4,71,32.8,70.3,32.8z"/>
	<path fill="#FFFFFF" d="M54.4,33.4h5.2v-0.7h-5.2c-0.7,0-1.3,0.6-1.3,1.3v0.7C53,34,53.6,33.4,54.4,33.4z"/>
	<path fill="#FFFFFF" d="M61,26.8h2.7c0.7,0,1.3,0.6,1.3,1.3v-0.7c0-0.7-0.6-1.3-1.3-1.3H61c-0.7,0-1.3,0.6-1.3,1.3v0.7
		C59.6,27.4,60.2,26.8,61,26.8z"/>
	<path fill="#FFFFFF" d="M70.3,32.8H65v0.7h5.2c0.7,0,1.3,0.6,1.3,1.3v-0.7C71.6,33.4,71,32.8,70.3,32.8z"/>
	<path opacity="0.15" enable-background="new    " d="M42.7,70c-0.5,0-1,0-1.4,0c-0.4,0-0.9,0-1.4,0c-2.1,0-5.3-0.1-9.8-1.3
		c-2.1-0.5-4-1.3-5.6-2.2c-0.3-0.2-0.5-0.5-0.4-0.9l0-0.2c0.5-1.8,2.4-2.8,2.6-2.9c2.7-1.6,5.3-2.6,5.4-2.6c1.6-0.6,2.6-1.8,3-3.3
		c0.3-1,0.3-1.4,0.3-1.6c-1.4-1.3-2.1-3.7-2.3-4.7c-0.9-0.2-1.1-1.4-1.3-2.5c-0.1-0.3-0.1-0.6-0.2-0.7c-0.4-1.3-0.4-1.9-0.4-2.2
		c0-0.5,0.1-0.9,0.4-1.2c0-0.1,0.1-0.1,0.2-0.1c-0.4-1.2-0.5-2-0.5-3c0-0.5,0-0.9,0-1.3c-0.1-1.5-0.2-2.9,1.6-5.8
		c0-0.1,0.5-0.9,1.6-1c0-0.1,0.1-0.3,0.2-0.5l0-0.1c0.2-0.4,0.6-1.2,2-1.2c0.2,0,0.3,0,0.5,0c0,0,0.1,0,0.1,0c0.2,0,0.4-0.1,0.7-0.2
		c0.5-0.2,1.2-0.5,2.3-0.5c0.9,0,1.8,0.2,3,0.5l1.5,0.5c2.9,0.9,3.9,1.2,4.7,2.4c1.9,2.9,2,4.1,1.9,5.9c0,0.3,0,0.6,0,1
		c0,0.9-0.2,1.6-0.3,2.3c-0.1,0.3-0.1,0.6-0.2,0.9c0.1,0.1,0.3,0.2,0.4,0.3c0.3,0.3,0.4,0.8,0.3,1.3c0,0.1-0.2,0.9-0.5,2
		c-0.1,0.2-0.1,0.4-0.2,0.6c-0.3,1.2-0.7,2.5-1.6,2.6c-0.3,1-1,3.4-2.3,4.7c0,0.2,0,0.5,0.3,1.5c0.1,0.3,0.8,2,2.2,3
		c0.3,0.2,0.5,0.3,0.8,0.4c0.1,0,2.7,1.1,5.4,2.6c0.2,0.1,2.1,1.1,2.5,2.9l0.1,0.4c0.1,0.3-0.1,0.7-0.4,0.9c-1.5,0.8-3.2,1.5-5.2,2
		C48.1,69.8,44.8,70,42.7,70L42.7,70z"/>
	<path opacity="0.3" enable-background="new    " d="M52.3,68.7c-5.1,1.3-8.6,1.3-11,1.2c-2.4,0.1-5.9,0.1-11-1.2
		c-2.1-0.5-3.9-1.2-5.4-2.1l0-0.2c0.4-1.5,2.2-2.4,2.2-2.4c2.7-1.6,5.3-2.6,5.3-2.6c2.9-1.2,3.4-3.6,3.5-3.9
		c0.2-0.9,0.4-1.9,0.1-2.2c-1.6-1.4-2.3-4.8-2.3-4.8c0-0.1-0.1-0.2-0.1-0.3c-0.8,0.8-1.1-1.7-1.3-2.6c-0.5-1.5-0.4-1.9-0.4-1.9
		c-0.1-1.2,0.8-0.8,0.8-0.8l0.1,0.1c-0.6-1.6-0.8-2.5-0.8-3.7c0.1-2.2-0.7-3.3,1.4-6.7c0,0,0.3-0.6,1.1-0.6c0.7,0,0.5-0.4,0.7-0.9
		c0.3-0.5,0.4-1,1.8-0.9c1.3,0.2,1.9-1.5,5.9-0.2c4,1.3,5,1.5,5.7,2.5c2.3,3.4,1.7,4.2,1.7,6.4c0,1.4-0.5,2.4-0.6,4l0.1-0.1
		c0,0,0.9-0.3,0.7,0.8c0,0-0.2,0.7-0.5,1.9c-0.3,1.1-0.7,3.4-1.6,2.4c0,0.1-0.1,0.2-0.1,0.4c0,0-0.7,3.4-2.3,4.8
		c-0.3,0.3-0.1,1.3,0.1,2.2c0.1,0.3,0.9,2.3,2.5,3.4c0.3,0.2,0.6,0.4,1,0.5c0,0,2.6,1,5.3,2.6c0,0,1.8,0.9,2.2,2.4l0.1,0.4
		C55.9,67.6,54.3,68.2,52.3,68.7z"/>
	
		<linearGradient id="SVGID_2_" gradientUnits="userSpaceOnUse" x1="41.1335" y1="28.849" x2="41.1335" y2="67.2237" gradientTransform="matrix(1 0 0 -1 0 98)">
		<stop  offset="0" style="stop-color:#D0CBC5"/>
		<stop  offset="0.5031" style="stop-color:#FAFCEF"/>
		<stop  offset="0.9693" style="stop-color:#FFFFFF"/>
	</linearGradient>
	<path fill="url(#SVGID_2_)" d="M52.3,67.9c-5.1,1.3-8.6,1.3-11,1.2c-2.4,0.1-5.9,0.1-11-1.2c-2.1-0.5-3.9-1.2-5.4-2.1l0-0.2
		c0.4-1.5,2.2-2.4,2.2-2.4c2.7-1.6,5.3-2.6,5.3-2.6c2.9-1.2,3.4-3.6,3.5-3.9c0.2-0.9,0.4-1.9,0.1-2.2c-1.6-1.4-2.3-4.8-2.3-4.8
		c0-0.1-0.1-0.2-0.1-0.3c-0.8,0.8-1.1-1.7-1.3-2.6c-0.5-1.5-0.4-1.9-0.4-1.9c-0.1-1.2,0.8-0.8,0.8-0.8l0.1,0.1
		c-0.6-1.6-0.8-2.5-0.8-3.7c0.1-2.2-0.7-3.3,1.4-6.7c0,0,0.3-0.6,1.1-0.6c0.7,0,0.5-0.4,0.7-0.9c0.3-0.5,0.4-1,1.8-0.9
		c1.3,0.2,1.9-1.5,5.9-0.2c4,1.3,5,1.5,5.7,2.5c2.3,3.4,1.7,4.2,1.7,6.4c0,1.4-0.5,2.4-0.6,4l0.1-0.1c0,0,0.9-0.3,0.7,0.8
		c0,0-0.2,0.7-0.5,1.9c-0.3,1.1-0.7,3.4-1.6,2.4c0,0.1-0.1,0.2-0.1,0.4c0,0-0.7,3.4-2.3,4.8c-0.3,0.3-0.1,1.3,0.1,2.2
		c0.1,0.3,0.9,2.3,2.5,3.4c0.3,0.2,0.6,0.4,1,0.5c0,0,2.6,1,5.3,2.6c0,0,1.8,0.9,2.2,2.4l0.1,0.4C55.9,66.8,54.3,67.4,52.3,67.9z"/>
	<path fill="#FFFFFF" d="M32.8,45L32.8,45c-0.1-0.3-0.2-0.6-0.3-0.9c-0.2,0-0.6,0.1-0.5,0.8c0,0,0,0.1,0,0.5
		C32.1,44.6,32.8,45,32.8,45z M49.9,44.2c0,0.3-0.1,0.6-0.1,0.9l0.1-0.1c0,0,0.5-0.2,0.7,0.2c0-0.1,0.1-0.2,0.1-0.2
		C50.7,44,50.1,44.1,49.9,44.2z M57.2,65.6c-0.4-1.5-2.2-2.4-2.2-2.4c-2.7-1.6-5.3-2.6-5.3-2.6c-0.4-0.1-0.7-0.3-1-0.5
		c-1.6-1.1-2.5-3.1-2.5-3.4c-0.1-0.4-0.2-0.8-0.2-1.1c-0.1,0.4,0.1,1.2,0.2,1.9c0.1,0.3,0.9,2.3,2.5,3.4c0.3,0.2,0.6,0.4,1,0.5
		c0,0,2.6,1,5.3,2.6c0,0,1.5,0.8,2,2.1c0.1,0,0.1-0.1,0.2-0.1L57.2,65.6z M35.9,56.7c-0.1,0.4-0.6,2.8-3.5,3.9c0,0-2.7,1-5.3,2.6
		c0,0-1.8,0.9-2.2,2.4l0,0.2c0.1,0,0.2,0.1,0.2,0.1c0.6-1.2,2-1.9,2-1.9c2.7-1.6,5.3-2.6,5.3-2.6c2.9-1.2,3.4-3.6,3.5-3.9
		c0.2-0.7,0.4-1.5,0.2-1.9C36.1,55.9,36,56.3,35.9,56.7z M48.7,34.6c1.4,2.1,1.7,3.2,1.8,4.2c0.1-1.4,0-2.4-1.8-5
		C48,32.8,47,32.6,43,31.3c-4-1.3-4.6,0.4-5.9,0.2c-1.3-0.2-1.5,0.4-1.8,0.9c-0.3,0.5,0,0.9-0.7,0.9c-0.7,0-1.1,0.6-1.1,0.6
		c-1.5,2.3-1.6,3.6-1.5,4.8c0.1-1,0.4-2.2,1.5-4c0,0,0.3-0.6,1.1-0.6c0.7,0,0.5-0.4,0.7-0.9c0.3-0.5,0.4-1,1.8-0.9
		c1.3,0.2,1.9-1.5,5.9-0.2C47,33.4,48,33.6,48.7,34.6z"/>
</g>
<g id="DO_NOT_EDIT_-_FOCAL_ZONE_GUIDES_ONLY">
</g>
</svg>
