<?xml version="1.0" encoding="utf-8"?>
<!-- Generator: Adobe Illustrator 18.0.0, SVG Export Plug-In . SVG Version: 6.00 Build 0)  -->
<!DOCTYPE svg PUBLIC "-//W3C//DTD SVG 1.1//EN" "http://www.w3.org/Graphics/SVG/1.1/DTD/svg11.dtd">
<svg version="1.1" xmlns="http://www.w3.org/2000/svg" xmlns:xlink="http://www.w3.org/1999/xlink" x="0px" y="0px"
	 viewBox="0 0 16 16" enable-background="new 0 0 16 16" xml:space="preserve">
<g id="DO_NOT_EDIT_-_BOUNDING_BOX">
	<rect id="BOUNDING_BOX" x="0" y="0" fill="none" width="16" height="16"/>
</g>
<g id="PLACE_YOUR_GRAPHIC_HERE">
	<rect id="BOUNDING_BOX_1_" x="0" y="1.1" fill="none" width="16" height="13.6"/>
	<path opacity="0.3" enable-background="new    " d="M13,6.9c0.5-0.5,0-0.8,0-0.8c-0.2-0.3-0.8-0.3-0.8-0.3
		c-0.9-0.1-1.7-0.7-1.7-0.7L8.6,3.7c-1.8-1.2-3.2-0.8-4-0.2C4.5,3.2,4.1,3,3.8,3c-0.5,0-1,0.4-1,1c0,0.4,0.2,0.7,0.5,0.8
		C2.8,5.6,2.3,7,3.5,8.8l1.4,1.9c0,0,0.6,0.7,0.7,1.7c0,0,0,0.6,0.3,0.8c0,0,0.3,0.5,0.8,0l2.3-2.3c0.2,0.5,0.7,0.9,1.2,0.9
		c0.7,0,1.3-0.6,1.3-1.3c0-0.6-0.4-1.1-0.9-1.2l0,0L13,6.9z"/>
	<path opacity="0.15" enable-background="new    " d="M6.3,13.4c-0.3,0-0.5-0.2-0.6-0.3c-0.3-0.3-0.3-0.8-0.3-1
		c-0.1-0.8-0.7-1.5-0.7-1.5L3.3,8.7C2.1,6.9,2.5,5.4,3,4.6C2.7,4.4,2.6,4,2.6,3.7c0-0.7,0.5-1.2,1.2-1.2c0.3,0,0.7,0.1,0.9,0.4
		c0.5-0.3,1.1-0.4,1.7-0.4c0.8,0,1.6,0.3,2.4,0.8l1.9,1.4c0,0,0.7,0.6,1.5,0.7c0.1,0,0.7,0,1,0.3c0.1,0.1,0.3,0.2,0.3,0.5
		c0,0.2-0.1,0.5-0.3,0.7l-2.1,2.1c0.5,0.3,0.8,0.8,0.8,1.3c0,0.9-0.7,1.5-1.5,1.5c-0.6,0-1.1-0.3-1.3-0.8l-2.1,2.1
		C6.7,13.3,6.5,13.4,6.3,13.4z"/>
	<path opacity="0.15" enable-background="new    " d="M13,6.7c0.5-0.5,0-0.8,0-0.8c-0.2-0.3-0.8-0.3-0.8-0.3
		c-0.9-0.1-1.7-0.7-1.7-0.7L8.6,3.4c-1.8-1.2-3.2-0.8-4-0.2C4.5,2.9,4.1,2.7,3.8,2.7c-0.5,0-1,0.4-1,1c0,0.4,0.2,0.7,0.5,0.8
		c-0.5,0.8-0.9,2.2,0.2,4l1.4,1.9c0,0,0.6,0.7,0.7,1.7c0,0,0,0.6,0.3,0.8c0,0,0.3,0.5,0.8,0l2.3-2.3c0.2,0.5,0.7,0.9,1.2,0.9
		c0.7,0,1.3-0.6,1.3-1.3c0-0.6-0.4-1.1-0.9-1.2l0,0L13,6.7z"/>
	
		<linearGradient id="SVGID_1_" gradientUnits="userSpaceOnUse" x1="8.0062" y1="4.8397" x2="8.0062" y2="15.3236" gradientTransform="matrix(1 0 0 -1 0 18)">
		<stop  offset="0" style="stop-color:#F47721"/>
		<stop  offset="0.5031" style="stop-color:#F0AD00"/>
		<stop  offset="0.9693" style="stop-color:#F6C33B"/>
	</linearGradient>
	<path fill="url(#SVGID_1_)" d="M13,6.7c0.5-0.5,0-0.8,0-0.8c-0.2-0.3-0.8-0.3-0.8-0.3c-0.9-0.1-1.7-0.7-1.7-0.7L8.6,3.4
		c-1.8-1.2-3.2-0.8-4-0.2C4.5,2.9,4.1,2.7,3.8,2.7c-0.5,0-1,0.4-1,1c0,0.4,0.2,0.7,0.5,0.8c-0.5,0.8-0.9,2.2,0.2,4l1.4,1.9
		c0,0,0.6,0.7,0.7,1.7c0,0,0,0.6,0.3,0.8c0,0,0.3,0.5,0.8,0l2.3-2.3c0.2,0.5,0.7,0.9,1.2,0.9c0.7,0,1.3-0.6,1.3-1.3
		c0-0.6-0.4-1.1-0.9-1.2l0,0L13,6.7z"/>
	<path fill="#FFFFFF" d="M10.9,9.1l-0.1,0.1l0,0c0.5,0.2,0.9,0.6,0.9,1.1c0,0,0-0.1,0-0.1C11.6,9.7,11.3,9.3,10.9,9.1z"/>
	<path fill="#FFFFFF" d="M3.8,3c0.4,0,0.7,0.2,0.8,0.5c0.8-0.5,2.2-0.9,4,0.2l1.9,1.4c0,0,0.7,0.6,1.7,0.7c0,0,0.6,0,0.8,0.3
		c0,0,0.1,0.1,0.2,0.3C13.3,6,13,5.8,13,5.8c-0.2-0.3-0.8-0.3-0.8-0.3c-0.9-0.1-1.7-0.7-1.7-0.7L8.6,3.4c-1.8-1.2-3.2-0.8-4-0.2
		C4.5,2.9,4.1,2.7,3.8,2.7c-0.5,0-1,0.4-1,1c0,0,0,0.1,0,0.1C2.9,3.4,3.3,3,3.8,3z"/>
	<path fill="#FFFFFF" d="M3.3,4.8C3.2,4.8,3.2,4.7,3.3,4.8C2.9,5.1,2.7,5.7,2.8,6.4C2.8,5.7,3,5.2,3.3,4.8z"/>
</g>
<g id="DO_NOT_EDIT_-_FOCAL_ZONE_GUIDES_ONLY">
</g>
</svg>
