<?xml version="1.0" encoding="utf-8"?>
<!-- Generator: Adobe Illustrator 18.0.0, SVG Export Plug-In . SVG Version: 6.00 Build 0)  -->
<!DOCTYPE svg PUBLIC "-//W3C//DTD SVG 1.1//EN" "http://www.w3.org/Graphics/SVG/1.1/DTD/svg11.dtd">
<svg version="1.1" xmlns="http://www.w3.org/2000/svg" xmlns:xlink="http://www.w3.org/1999/xlink" x="0px" y="0px"
	 viewBox="0 0 16 16" enable-background="new 0 0 16 16" xml:space="preserve">
<g id="DO_NOT_EDIT_-_BOUNDING_BOX">
	<rect id="BOUNDING_BOX" fill="none" width="16" height="16"/>
</g>
<g id="DO_NOT_EDIT_-_SHADOW">
	<path id="SHADOW" opacity="0.4" d="M14.7,8.2c0,4.9-1.7,6.7-6.7,6.7c-4.9,0-6.7-1.7-6.7-6.7c0-4.9,1.7-6.7,6.7-6.7
		C12.9,1.5,14.7,3.2,14.7,8.2z"/>
</g>
<g id="ORANGE_BACKGROUNDS">
	<g id="ORANGE_1">
		<linearGradient id="RED_x2F_ORANGE_1_2_" gradientUnits="userSpaceOnUse" x1="8" y1="1.3351" x2="8" y2="14.6649">
			<stop  offset="3.636400e-002" style="stop-color:#F15D37"/>
			<stop  offset="0.3659" style="stop-color:#E34426"/>
			<stop  offset="1" style="stop-color:#C20B00"/>
		</linearGradient>
		<path id="RED_x2F_ORANGE_1_1_" fill="url(#RED_x2F_ORANGE_1_2_)" d="M1.3,8c0,4.9,1.7,6.7,6.7,6.7c4.9,0,6.7-1.7,6.7-6.7
			c0-4.8-1.7-6.6-6.3-6.7H7.7C3,1.4,1.3,3.2,1.3,8z"/>
		<linearGradient id="HIGHLIGHTS_RO1_2_" gradientUnits="userSpaceOnUse" x1="8" y1="1.376" x2="8" y2="14.584">
			<stop  offset="3.636400e-002" style="stop-color:#FFFFFF"/>
			<stop  offset="0.1274" style="stop-color:#FCF7F5"/>
			<stop  offset="0.2815" style="stop-color:#F5E0DB"/>
			<stop  offset="0.4799" style="stop-color:#EABBAF"/>
			<stop  offset="0.7147" style="stop-color:#DA8873"/>
			<stop  offset="0.9778" style="stop-color:#C64828"/>
			<stop  offset="1" style="stop-color:#C44221"/>
		</linearGradient>
		<path id="HIGHLIGHTS_RO1_1_" opacity="0.25" fill="url(#HIGHLIGHTS_RO1_2_)" d="M8,1.3C3.1,1.3,1.3,3.1,1.3,8
			c0,4.9,1.7,6.7,6.7,6.7c4.9,0,6.7-1.7,6.7-6.7C14.7,3.1,12.9,1.3,8,1.3z M8,14.5c-4.9,0-6.5-1.6-6.5-6.5S3.1,1.5,8,1.5
			s6.5,1.6,6.5,6.5S12.9,14.5,8,14.5z"/>
		<rect id="BOUNDING_BOX_1_" x="2.4" y="3.3" fill="none" width="11.2" height="9.5"/>
		<path opacity="0.3" enable-background="new    " d="M11.6,6.2c-0.3-0.8-0.8-1.4-1.9-1.7C8.9,4.3,8.4,4.3,8,4.3
			c-0.4,0-0.9,0-1.7,0.2C5.2,4.8,4.7,5.4,4.4,6.2c0,0-0.6,1.7,0,4c0.2,0.8,0.8,1.4,1.9,1.7C7.1,12,7.6,12,8,12c0.4,0,0.9,0,1.7-0.2
			c1.1-0.3,1.6-0.8,1.9-1.7C12.2,8.2,11.6,6.2,11.6,6.2z M7.7,5.3h0.6c0.3,0,0.5,0.2,0.5,0.5L8.6,8.2c0,0.2-0.2,0.5-0.5,0.5H7.8
			c-0.3,0-0.5-0.2-0.5-0.5L7.2,5.8C7.2,5.5,7.4,5.3,7.7,5.3z M8,11c-0.5,0-0.9-0.4-0.9-0.9c0-0.5,0.4-0.9,0.9-0.9
			c0.5,0,0.9,0.4,0.9,0.9C8.9,10.7,8.5,11,8,11z"/>
		<path opacity="0.15" enable-background="new    " d="M8.2,12c-0.1,0-0.2,0-0.2,0c-0.1,0-0.1,0-0.2,0c-0.3,0-0.8,0-1.5-0.2
			c-1.1-0.3-1.7-0.9-2-1.8c-0.6-2.2,0-4,0-4.1c0.3-1,1-1.5,2-1.8C6.9,4,7.4,4,7.8,4C7.9,4,7.9,4,8,4c0.1,0,0.1,0,0.2,0
			c0.3,0,0.8,0,1.5,0.2c1,0.3,1.6,0.8,2,1.8c0,0.1,0.6,2.1,0,4.1c-0.3,0.9-0.9,1.5-2,1.8C9.1,12,8.5,12,8.2,12L8.2,12z M8,9.3
			c-0.4,0-0.7,0.3-0.7,0.7c0,0.4,0.3,0.7,0.7,0.7c0.4,0,0.7-0.3,0.7-0.7C8.7,9.6,8.4,9.3,8,9.3z M7.7,5.3c-0.2,0-0.3,0.1-0.3,0.3
			l0.2,2.5c0,0.2,0.1,0.3,0.3,0.3h0.3c0.2,0,0.3-0.1,0.3-0.3l0.2-2.5c0-0.1-0.1-0.3-0.3-0.3C8.3,5.3,7.7,5.3,7.7,5.3z"/>
		<path opacity="0.15" enable-background="new    " d="M11.6,6c-0.3-0.8-0.8-1.4-1.9-1.7C8.9,4.2,8.4,4.2,8,4.2
			c-0.4,0-0.9,0-1.7,0.2C5.2,4.6,4.7,5.2,4.4,6c0,0-0.6,1.7,0,4c0.2,0.8,0.8,1.4,1.9,1.7c0.8,0.2,1.3,0.2,1.7,0.2
			c0.4,0,0.9,0,1.7-0.2c1.1-0.3,1.6-0.8,1.9-1.7C12.2,8,11.6,6,11.6,6z M7.7,5.1h0.6c0.3,0,0.5,0.2,0.5,0.5L8.6,8.1
			c0,0.2-0.2,0.5-0.5,0.5H7.8c-0.3,0-0.5-0.2-0.5-0.5L7.2,5.6C7.2,5.3,7.4,5.1,7.7,5.1z M8,10.9c-0.5,0-0.9-0.4-0.9-0.9
			c0-0.5,0.4-0.9,0.9-0.9c0.5,0,0.9,0.4,0.9,0.9C8.9,10.5,8.5,10.9,8,10.9z"/>
		
			<linearGradient id="SVGID_1_" gradientUnits="userSpaceOnUse" x1="8" y1="6.1666" x2="8" y2="13.8335" gradientTransform="matrix(1 0 0 -1 0 18)">
			<stop  offset="0" style="stop-color:#D0CBC5"/>
			<stop  offset="0.5031" style="stop-color:#FAFCEF"/>
			<stop  offset="0.9693" style="stop-color:#FFFFFF"/>
		</linearGradient>
		<path fill="url(#SVGID_1_)" d="M11.6,6c-0.3-0.8-0.8-1.4-1.9-1.7C8.9,4.2,8.4,4.2,8,4.2c-0.4,0-0.9,0-1.7,0.2
			C5.2,4.6,4.7,5.2,4.4,6c0,0-0.6,1.7,0,4c0.2,0.8,0.8,1.4,1.9,1.7c0.8,0.2,1.3,0.2,1.7,0.2c0.4,0,0.9,0,1.7-0.2
			c1.1-0.3,1.6-0.8,1.9-1.7C12.2,8,11.6,6,11.6,6z M7.7,5.1h0.6c0.3,0,0.5,0.2,0.5,0.5L8.6,8.1c0,0.2-0.2,0.5-0.5,0.5H7.8
			c-0.3,0-0.5-0.2-0.5-0.5L7.2,5.6C7.2,5.3,7.4,5.1,7.7,5.1z M8,10.9c-0.5,0-0.9-0.4-0.9-0.9c0-0.5,0.4-0.9,0.9-0.9
			c0.5,0,0.9,0.4,0.9,0.9C8.9,10.5,8.5,10.9,8,10.9z"/>
		<path fill="#FFFFFF" d="M8,11c0.5,0,0.9-0.4,0.9-0.9c0,0,0-0.1,0-0.1c0,0.4-0.4,0.8-0.8,0.8c-0.4,0-0.8-0.3-0.8-0.8
			c0,0,0,0.1,0,0.1C7.1,10.7,7.5,11,8,11z"/>
		<path fill="#FFFFFF" d="M4.4,6.2c0.3-0.8,0.8-1.4,1.9-1.7C7.1,4.3,7.6,4.3,8,4.3c0.4,0,0.9,0,1.7,0.2c1.1,0.3,1.6,0.9,1.9,1.7
			c0,0,0.3,0.8,0.3,2c0-1.2-0.3-2.1-0.3-2.1c-0.3-0.8-0.8-1.4-1.9-1.7C8.9,4.2,8.4,4.2,8,4.2c-0.4,0-0.9,0-1.7,0.2
			C5.2,4.6,4.7,5.2,4.4,6c0,0-0.3,0.8-0.2,2C4.2,6.9,4.4,6.2,4.4,6.2z"/>
		<path fill="#FFFFFF" d="M7.4,8.2c0,0.3,0.2,0.5,0.5,0.5h0.3c0.3,0,0.5-0.2,0.5-0.5l0.2-2.5c0,0,0,0,0-0.1L8.6,8.1
			c0,0.2-0.2,0.5-0.5,0.5H7.8c-0.3,0-0.5-0.2-0.5-0.5L7.2,5.7c0,0,0,0,0,0.1L7.4,8.2z"/>
	</g>
</g>
<g id="PLACE_YOUR_GRAPHIC_HERE">
</g>
<g id="DO_NOT_EDIT_-_FOCAL_ZONE_GUIDES_ONLY">
</g>
</svg>
