<?xml version="1.0" encoding="utf-8"?>
<!-- Generator: Adobe Illustrator 18.0.0, SVG Export Plug-In . SVG Version: 6.00 Build 0)  -->
<!DOCTYPE svg PUBLIC "-//W3C//DTD SVG 1.1//EN" "http://www.w3.org/Graphics/SVG/1.1/DTD/svg11.dtd">
<svg version="1.1" xmlns="http://www.w3.org/2000/svg" xmlns:xlink="http://www.w3.org/1999/xlink" x="0px" y="0px"
	 viewBox="0 0 240 32" enable-background="new 0 0 240 32" xml:space="preserve">
<g id="Warstwa_1">
	<g>
		<radialGradient id="SVGID_1_" cx="16" cy="16" r="14.5" gradientUnits="userSpaceOnUse">
			<stop  offset="0" style="stop-color:#3986AB;stop-opacity:0.3"/>
			<stop  offset="1" style="stop-color:#00AAC0;stop-opacity:0.8"/>
		</radialGradient>
		<path fill="url(#SVGID_1_)" d="M16,30.5C8,30.5,1.5,24,1.5,16S8,1.5,16,1.5S30.5,8,30.5,16S24,30.5,16,30.5z"/>
		<path fill="#00AAC0" d="M16,3c7.2,0,13,5.8,13,13s-5.8,13-13,13S3,23.2,3,16S8.8,3,16,3 M16,0C7.2,0,0,7.2,0,16s7.2,16,16,16
			s16-7.2,16-16S24.8,0,16,0L16,0z"/>
	</g>
	<linearGradient id="SVGID_2_" gradientUnits="userSpaceOnUse" x1="17.3333" y1="1.5" x2="240.1667" y2="1.5">
		<stop  offset="0" style="stop-color:#00AAC0"/>
		<stop  offset="0.2365" style="stop-color:#00AAC0"/>
		<stop  offset="1" style="stop-color:#3986AB;stop-opacity:0"/>
	</linearGradient>
	<rect x="17.3" fill="url(#SVGID_2_)" width="222.8" height="3"/>
</g>
<g id="Warstwa_2">
</g>
</svg>
