<?xml version="1.0" encoding="utf-8"?>
<!-- Generator: Adobe Illustrator 18.0.0, SVG Export Plug-In . SVG Version: 6.00 Build 0)  -->
<!DOCTYPE svg PUBLIC "-//W3C//DTD SVG 1.1//EN" "http://www.w3.org/Graphics/SVG/1.1/DTD/svg11.dtd">
<svg version="1.1" xmlns="http://www.w3.org/2000/svg" xmlns:xlink="http://www.w3.org/1999/xlink" x="0px" y="0px"
	 viewBox="0 0 240 32" enable-background="new 0 0 240 32" xml:space="preserve">
<g id="Warstwa_1">
	<g>
		<radialGradient id="SVGID_1_" cx="232" cy="24" r="6.5" gradientUnits="userSpaceOnUse">
			<stop  offset="0" style="stop-color:#3986AB;stop-opacity:0.3"/>
			<stop  offset="1" style="stop-color:#00AAC0;stop-opacity:0.8"/>
		</radialGradient>
		<path fill="url(#SVGID_1_)" d="M232,30.5c-3.6,0-6.5-2.9-6.5-6.5s2.9-6.5,6.5-6.5s6.5,2.9,6.5,6.5S235.6,30.5,232,30.5z"/>
		<path fill="#00AAC0" d="M232,19c2.8,0,5,2.2,5,5s-2.2,5-5,5s-5-2.2-5-5S229.2,19,232,19 M232,16c-4.4,0-8,3.6-8,8s3.6,8,8,8
			s8-3.6,8-8S236.4,16,232,16L232,16z"/>
	</g>
	<linearGradient id="SVGID_2_" gradientUnits="userSpaceOnUse" x1="232.0833" y1="30.5" x2="-6.359178e-007" y2="30.5">
		<stop  offset="0" style="stop-color:#00AAC0"/>
		<stop  offset="0.2365" style="stop-color:#00AAC0"/>
		<stop  offset="1" style="stop-color:#3986AB;stop-opacity:0"/>
	</linearGradient>
	<rect y="29" fill="url(#SVGID_2_)" width="232.1" height="3"/>
</g>
<g id="Warstwa_2">
</g>
</svg>
