<?xml version="1.0" encoding="UTF-8" ?>
<!DOCTYPE svg PUBLIC "-//W3C//DTD SVG 1.1//EN" "http://www.w3.org/Graphics/SVG/1.1/DTD/svg11.dtd">
<svg width="64pt" height="64pt" viewBox="0 0 64 64" version="1.1" xmlns="http://www.w3.org/2000/svg">
<g id="#ffffffff">
<path fill="#ffffff" opacity="1.00" d=" M 27.43 12.82 C 35.16 9.38 45.21 15.34 45.27 23.94 C 46.12 30.93 40.10 37.71 33.09 37.77 C 25.96 38.49 19.14 32.14 19.46 24.96 C 19.17 19.74 22.63 14.74 27.43 12.82 M 23.91 29.06 C 25.96 32.24 28.90 35.42 32.97 35.55 C 37.07 35.45 40.03 32.26 42.09 29.06 C 36.03 28.96 29.97 28.96 23.91 29.06 Z" />
<path fill="#ffffff" opacity="1.00" d=" M 13.87 49.97 C 15.27 44.74 19.13 40.17 24.54 38.92 C 29.29 41.96 35.15 41.76 40.03 39.15 C 45.57 39.63 49.45 44.89 50.89 49.94 C 38.55 50.05 26.21 50.01 13.87 49.97 Z" />
<path fill="#ffffff" opacity="1.00" d=" M 49.13 57.60 C 48.43 53.75 51.31 49.66 55.23 49.16 C 59.50 48.26 63.77 51.74 64.00 56.07 L 64.00 56.88 C 63.77 60.66 60.69 63.75 56.92 64.00 L 55.93 64.00 C 52.55 63.68 49.50 61.04 49.13 57.60 M 52.61 52.68 C 50.81 55.07 50.89 58.01 52.60 60.43 C 55.06 62.11 57.98 62.13 60.42 60.42 C 62.03 57.98 62.28 55.05 60.38 52.67 C 59.33 52.10 58.29 51.51 57.24 50.94 C 57.09 52.62 57.00 54.30 56.94 55.99 C 57.46 55.99 58.48 56.00 59.00 56.01 L 59.00 57.00 C 58.26 57.00 56.77 57.00 56.03 57.00 C 56.02 54.97 55.97 52.94 55.74 50.93 C 54.70 51.52 53.66 52.12 52.61 52.68 Z" />
</g>
</svg>
