<?xml version="1.0" encoding="UTF-8" ?>
<!DOCTYPE svg PUBLIC "-//W3C//DTD SVG 1.1//EN" "http://www.w3.org/Graphics/SVG/1.1/DTD/svg11.dtd">
<svg width="64pt" height="64pt" viewBox="0 0 64 64" version="1.1" xmlns="http://www.w3.org/2000/svg">
<g id="#ffffffff">
<path fill="#ffffff" opacity="1.00" d=" M 27.46 12.80 C 35.21 9.38 45.22 15.38 45.28 23.97 C 46.10 30.97 40.08 37.71 33.07 37.78 C 25.98 38.47 19.21 32.20 19.46 25.05 C 19.14 19.79 22.61 14.73 27.46 12.80 M 23.90 29.05 C 25.97 32.23 28.89 35.43 32.97 35.54 C 37.08 35.46 40.02 32.24 42.10 29.05 C 36.03 28.97 29.97 28.97 23.90 29.05 Z" />
<path fill="#ffffff" opacity="1.00" d=" M 13.86 49.97 C 15.27 44.74 19.12 40.18 24.53 38.92 C 28.59 41.23 33.66 42.22 37.96 39.93 C 40.73 38.07 43.80 40.10 46.02 41.88 C 48.51 43.95 49.87 46.96 50.89 49.95 C 38.55 50.04 26.21 50.01 13.86 49.97 Z" />
<path fill="#ffffff" opacity="1.00" d=" M 56.14 58.00 C 56.74 55.52 54.61 51.04 57.68 50.02 C 57.91 52.67 57.88 55.34 57.87 58.00 C 57.44 58.00 56.57 58.00 56.14 58.00 Z" />
<path fill="#ffffff" opacity="1.00" d=" M 57.00 61.61 C 55.24 61.62 55.24 58.65 57.00 58.64 C 58.75 58.65 58.77 61.61 57.00 61.61 Z" />
</g>
</svg>
