<?xml version="1.0" encoding="utf-8"?>
<!-- Generator: Adobe Illustrator 18.0.0, SVG Export Plug-In . SVG Version: 6.00 Build 0)  -->
<!DOCTYPE svg PUBLIC "-//W3C//DTD SVG 1.1//EN" "http://www.w3.org/Graphics/SVG/1.1/DTD/svg11.dtd">
<svg version="1.1" id="Warstwa_1" xmlns="http://www.w3.org/2000/svg" xmlns:xlink="http://www.w3.org/1999/xlink" x="0px" y="0px"
	 viewBox="0 90 612 612" enable-background="new 0 90 612 612" xml:space="preserve">
<g>
	
		<linearGradient id="SVGID_1_" gradientUnits="userSpaceOnUse" x1="33.5" y1="752.6514" x2="33.5" y2="742.8765" gradientTransform="matrix(9.1343 0 0 -9.1343 3.051758e-005 7365.0596)">
		<stop  offset="0" style="stop-color:#FFFFFF"/>
		<stop  offset="0.5743" style="stop-color:#B2B2B2"/>
		<stop  offset="1" style="stop-color:#FFFFFF"/>
	</linearGradient>
	
		<rect x="259.4" y="469.6" opacity="5.000000e-002" fill="url(#SVGID_1_)" enable-background="new    " width="93.2" height="106.9"/>
	<g>
		<rect x="15.5" y="158.1" fill="none" width="580.9" height="495.1"/>
		<path opacity="0.15" enable-background="new    " d="M298.7,609.3c-9.1,0-17.4-8.2-17.4-17.4V397.4L147.1,295.1
			c-4.6-3.7-6.4-8.2-6.4-13.7v-62.1c0-9.1,8.2-17.4,17.4-17.4h291.4c4.6,0,9.1,1.8,11.9,5.5c3.7,3.7,5.5,7.3,5.5,12.8v62.1
			c0,4.6-2.7,10-6.4,12.8L329.7,397.4v195.5c0,9.1-8.2,17.4-17.4,17.4h-13.7V609.3z M281.3,335.3v-85.9h-92.3v16.4L281.3,335.3z
			 M329.7,335.3l88.6-67.6v-18.3h-88.6V335.3z"/>
		<path opacity="0.3" enable-background="new    " d="M298.7,609.3c-4.6,0-9.1-3.7-9.1-9.1V402l-137-106c-1.8-1.8-2.7-3.7-2.7-6.4
			v-62.1c0-4.6,3.7-8.2,8.2-8.2h291.4c2.7,0,4.6,0.9,6.4,2.7s2.7,3.7,2.7,6.4v62.1c0,2.7-1.8,4.6-3.7,6.4L321.5,402v199.1
			c0,4.6-3.7,9.1-8.2,9.1h-14.6V609.3z M321.5,361.8l106-80.4v-31.1h-106V361.8z M179.9,279.6l110.5,82.2V250.3H179.9V279.6z"/>
		
			<linearGradient id="SVGID_2_" gradientUnits="userSpaceOnUse" x1="33.26" y1="787.3457" x2="33.26" y2="744.5957" gradientTransform="matrix(9.1343 0 0 9.1343 0.3654 -6590.7842)">
			<stop  offset="0" style="stop-color:#5C5C5C"/>
			<stop  offset="1" style="stop-color:#000000"/>
		</linearGradient>
		<path fill="url(#SVGID_2_)" d="M298.7,601.1c-4.6,0-9.1-3.7-9.1-9.1V392.8l-137-105c-1.8-1.8-2.7-3.7-2.7-6.4v-62.1
			c0-4.6,3.7-9.1,8.2-9.1h291.4c2.7,0,4.6,0.9,6.4,2.7c1.8,1.8,2.7,3.7,2.7,6.4v62.1c0,2.7-1.8,4.6-3.7,6.4l-133.4,105V592
			c0,4.6-3.7,9.1-8.2,9.1H298.7z M321.5,352.6l106-80.4v-31.1h-106V352.6z M179.9,271.3l110.5,82.2V241.2H179.9V271.3z"/>
	</g>
</g>
</svg>
