<?xml version="1.0" encoding="utf-8"?>
<!-- Generator: Adobe Illustrator 18.0.0, SVG Export Plug-In . SVG Version: 6.00 Build 0)  -->
<!DOCTYPE svg PUBLIC "-//W3C//DTD SVG 1.1//EN" "http://www.w3.org/Graphics/SVG/1.1/DTD/svg11.dtd">
<svg version="1.1" id="Warstwa_1" xmlns="http://www.w3.org/2000/svg" xmlns:xlink="http://www.w3.org/1999/xlink" x="0px" y="0px"
	 viewBox="0 -5 67 67" enable-background="new 0 -5 67 67" xml:space="preserve">
<rect fill="none" width="67" height="57"/>
<path fill-opacity="0.1" d="M33,51c-12.7,0-23-10.3-23-23S20.3,5,33,5s23,10.3,23,23S45.7,51,33,51L33,51z M25.1,44.6
	c0.1,0,0.2,0,0.3-0.1c0.1,0,0.1-0.1,0.2-0.1c0,0,0-0.1,0-0.1c0-0.2,0-0.3,0.1-0.5c0-0.2,0-0.4,0-0.6c0-0.3,0-0.6,0.1-0.8
	c0.1-0.2,0.2-0.4,0.3-0.6c0.1-0.1,0.1-0.3,0.2-0.5l0.1-0.3c0.2-0.8,0.6-1.8,1.2-2.4c0.2-0.2,0.5-0.4,0.8-0.5
	c0.4-0.2,0.7-0.4,0.8-0.8c0.1-0.2,0.1-0.4,0.1-0.7c0-0.3,0-0.6,0.2-1c0.1-0.2,0.2-0.4,0.3-0.6l0.1-0.2c0.7-1.5,1-2.5-0.1-3.5
	c-0.3-0.3-0.7-0.5-1.3-0.7c-0.8-0.3-1.8-0.6-2.6-0.8c0,0-0.6-0.2-0.8-0.2c-0.3-0.1-0.6-0.1-0.9-0.1c-0.9,0-1.8,0.3-2.3,0.9
	c-0.4,0.4-0.5,0.9-0.4,1.5c0.1,0.8,0.7,1.3,1.4,1.9c0.7,0.6,1.4,1.1,1.6,2c0.4,1.2,0.1,2.4-0.1,3.5c0,0.3-0.1,0.5-0.1,0.8
	c-0.2,1.1,0.1,2.6,0.2,3.6c0.1,0.4,0.2,0.8,0.4,0.9L25.1,44.6z M40.8,35.1c0.2,0.5,0.4,0.7,0.7,0.7c0.6,0,1.8-1,2.6-2.7
	c0,0,0,0,0-0.1c0.5-1.1,1-1.5,1.4-2l0.1-0.1c0.2-0.2,0.3-0.3,0.5-0.5c1.2-1.4,1.6-2.4,1.6-4.3l0-0.4c0-0.6,0-0.8-0.3-1.1
	c-0.3-0.3-0.7-0.4-1.1-0.6c-0.4-0.2-1-0.4-1.4-0.8c-0.9-1-1.1-2.4-1.2-3.1c0-1,0.1-1.5,0.4-1.9c0.1-0.1,0.2-0.2,0.4-0.2
	c0.1,0,0.2-0.1,0.4-0.1c0.5,0,1,0.1,1.7,0.5c0.1,0,0.3,0.1,0.4,0.2l0.3,0.2c0.3,0.2,0.6,0.3,1,0.4c0.1,0,0.3,0.1,0.5,0.2
	c0.2,0.1,0.4,0.1,0.6,0.2c-1.9-3.8-5.1-6.8-9-8.5c-0.1,0.1-0.2,0.3-0.3,0.6c-0.2,0.4-0.3,0.7-0.7,0.9c-0.1,0.1-0.3,0.1-0.4,0.1
	c-0.9,0.1-1.1,0.3-1.1,0.3h0c0,0,0.3,0.3,1.6,0.9c0.3,0.1,0.6,0.2,0.8,0.3c1,0.3,1.5,0.6,1.7,2c0.1,0.8,0,1.3-0.3,1.7
	c-0.5,0.6-1.3,0.6-1.9,0.6c-0.4,0-0.9,0-1.4-0.1l-1.2-0.1c-0.2,0-0.4,0-0.6,0c-0.5,0-0.9,0.1-1.5,0.7c-0.9,0.8-1.5,1.7-1.5,2.2
	c0,1.3,0.8,1.9,2.2,2.5c0.6,0.3,1.2,0.6,1.6,1c0.4,0.4,0.6,0.8,0.9,1.3c0.2,0.3,0.3,0.6,0.4,0.8c0.3,0.5,0.6,0.8,1,1.1
	c0.2,0.1,0.4,0.2,0.6,0.3c0.5,0.2,1,0.4,1.2,1.1c0.3,0.8-0.1,1.8-0.4,2.6c-0.1,0.2-0.1,0.3-0.2,0.5c-0.3,0.8-0.2,1.6-0.1,2.4
	L40.8,35.1z M14.9,29.1c0.7,0.4,0.9,0.6,1.6,0.6c0.2,0,0.4,0,0.6,0c0.6-0.1,1.9-0.2,2-0.7c0-0.5-0.7-1.1-1.3-1.7
	c-1-0.9-1.6-1.5-1.5-2.3c0-0.5,0.4-0.9,1.2-1.3c0.6-0.3,1.3-0.4,1.9-0.5c0.7-0.1,1.5-0.2,2.1-0.7c0.7-0.6,1.2-1.2,1.8-1.9
	c1-1.2,1.9-2.4,3.7-2.8c0.2-0.1,0.6-0.1,1.1-0.2c1.1-0.1,3.5-0.4,4-1.1c0.1-0.1,0.1-0.2,0-0.3c-0.1-0.3-1.8-1.1-5.1-1.2h-0.2
	c-0.7,0-1.3,0.1-2,0.3l-0.2,0c-0.2,0.1-0.4,0.1-0.7,0.1c-0.5,0.1-1.1,0.2-1.6,0.2c-1,0-1.8-0.2-2.3-0.7c-3.5,3.5-5.5,8.1-5.5,13.1
	c0,0.3,0,0.5,0,0.8l0,0.1L14.9,29.1z"/>
<path opacity="0.3" enable-background="new    " d="M33,7c-12.1,0-22,9.9-22,22c0,12.1,9.9,22,22,22c12.1,0,22-9.9,22-22
	C55,16.9,45.1,7,33,7 M17.2,31.6c-0.3,0-0.5,0-0.7,0c-0.9,0-1.4-0.3-2.1-0.7l-0.4-0.2c-0.2-0.1-0.4-0.3-0.4-0.6l0-0.3
	c0-0.3,0-0.6,0-0.9c0-5.3,2.1-10.3,6-14c0.1-0.1,0.3-0.2,0.4-0.2h0c0.2,0,0.3,0.1,0.5,0.2c0.3,0.4,1,0.6,1.8,0.6
	c0.4,0,0.9-0.1,1.4-0.1c0.3-0.1,0.5-0.1,0.8-0.2c0.7-0.2,1.5-0.3,2.3-0.3H27c0.2,0,5.6,0.2,6.1,2c0.1,0.4,0,0.7-0.2,1.1
	c-0.7,1-2.6,1.3-4.7,1.5c-0.4,0.1-0.8,0.1-1,0.1c-1.5,0.4-2.3,1.4-3.2,2.5c-0.6,0.7-1.2,1.5-2,2.1c-0.8,0.6-1.8,0.8-2.6,0.9
	c-0.6,0.1-1.1,0.2-1.6,0.4c-0.5,0.2-0.6,0.4-0.6,0.5c0,0.3,0.7,1,1.2,1.4c0.9,0.8,1.8,1.6,1.7,2.6C20,31.3,18.2,31.5,17.2,31.6
	 M30.6,36.2c-0.1,0.3-0.2,0.5-0.3,0.7c-0.1,0.1-0.1,0.4-0.1,0.6c0,0.3,0,0.6-0.1,1c-0.3,0.8-0.8,1.1-1.3,1.4
	c-0.2,0.1-0.4,0.2-0.5,0.4c-0.5,0.4-0.7,1.3-1,2.1l-0.1,0.3c-0.1,0.2-0.2,0.4-0.2,0.6c-0.1,0.2-0.1,0.3-0.2,0.5c0,0.1,0,0.3,0,0.5
	c0,0.3,0,0.6-0.1,0.9c0,0.1,0,0.1,0,0.2c0,0.3,0,0.8-0.7,1.1c-0.2,0.1-0.5,0.2-0.7,0.2c0,0-0.2,0-0.2,0c-0.1,0-0.1,0-0.2-0.1
	l-0.4-0.2c-0.1,0-0.1-0.1-0.2-0.1c-0.5-0.5-0.7-1.2-0.7-1.6c-0.2-1.1-0.4-2.7-0.2-3.9c0-0.3,0.1-0.5,0.1-0.8c0.2-1,0.4-2.1,0.1-3
	c-0.2-0.6-0.7-1-1.3-1.5c-0.7-0.6-1.6-1.3-1.8-2.5c-0.1-0.9,0.1-1.7,0.6-2.3c0.7-0.8,1.8-1.3,3-1.3c0.4,0,0.8,0.1,1.2,0.2
	c0.2,0.1,0.5,0.1,0.8,0.2c0.8,0.2,1.8,0.4,2.7,0.8c0.7,0.3,1.2,0.6,1.5,0.9C32,33.1,31.2,34.8,30.6,36.2 M50.1,22
	c-0.2,0-0.3-0.1-0.4-0.2c-0.2-0.2-0.8-0.4-1.2-0.5c-0.2-0.1-0.4-0.1-0.6-0.2c-0.4-0.2-0.8-0.4-1.2-0.6c-0.2-0.1-0.4-0.2-0.6-0.3
	c-0.6-0.3-1-0.4-1.3-0.4c0,0,0,0,0,0c0,0-0.2,0.2-0.1,1.1c0,0.6,0.2,1.7,0.9,2.5c0.3,0.3,0.6,0.4,1.1,0.6c0.5,0.2,1,0.4,1.4,0.8
	c0.6,0.7,0.6,1.2,0.6,1.8l0,0.4c0,2.1-0.5,3.4-1.9,4.9c-0.2,0.2-0.4,0.4-0.6,0.6c-0.4,0.4-0.8,0.8-1.2,1.7c0,0.1-0.1,0.1-0.1,0.1
	c-0.8,1.6-2.2,3.3-3.5,3.3c-0.4,0-1.2-0.2-1.6-1.4c0,0,0-0.1,0-0.1l0-0.2c-0.1-0.9-0.2-1.8,0.2-2.9c0-0.1,0.1-0.3,0.2-0.4
	c0.2-0.6,0.6-1.5,0.4-2c-0.1-0.2-0.2-0.3-0.6-0.5c-0.2-0.1-0.5-0.2-0.8-0.4c-0.5-0.4-0.8-0.8-1.2-1.3c-0.2-0.3-0.4-0.6-0.5-0.9
	c-0.2-0.4-0.4-0.8-0.6-1c-0.4-0.3-0.9-0.6-1.4-0.8c-1.3-0.6-2.9-1.4-2.8-3.5c0-1.1,1.2-2.3,1.9-3c0.7-0.7,1.4-0.9,2.2-0.9
	c0.3,0,0.5,0,0.9,0.1l1,0.1c0.5,0,0.9,0.1,1.3,0.1c0.6,0,0.9-0.1,1.1-0.3c0.2-0.2,0.2-0.6,0.1-0.9c-0.1-0.9-0.3-0.9-1-1.1
	c-0.3-0.1-0.6-0.2-1-0.4c-1.4-0.7-2.3-1.2-2.1-2c0.1-0.8,1.1-1,2-1.1c0.1,0,0.2-0.3,0.3-0.5c0.1-0.3,0.3-0.6,0.6-0.9l0.2-0.1
	c0.1-0.1,0.3-0.1,0.4-0.1c0.1,0,0.2,0,0.3,0.1c4.5,1.9,8.1,5.5,10.1,10c0.1,0.3,0,0.6-0.2,0.8C50.4,22,50.3,22,50.1,22"/>
<linearGradient id="SVGID_1_" gradientUnits="userSpaceOnUse" x1="33" y1="8" x2="33" y2="52" gradientTransform="matrix(1 0 0 -1 0 58)">
	<stop  offset="0" style="stop-color:#D0CBC5"/>
	<stop  offset="0.5031" style="stop-color:#FAFCEF"/>
	<stop  offset="0.9693" style="stop-color:#FFFFFF"/>
</linearGradient>
<path fill="url(#SVGID_1_)" d="M33,6c-12.1,0-22,9.9-22,22c0,12.1,9.9,22,22,22c12.1,0,22-9.9,22-22C55,15.9,45.1,6,33,6 M17.2,30.6
	c-0.3,0-0.5,0-0.7,0c-0.9,0-1.4-0.3-2.1-0.7l-0.4-0.2c-0.2-0.1-0.4-0.3-0.4-0.6l0-0.3c0-0.3,0-0.6,0-0.9c0-5.3,2.1-10.3,6-14
	c0.1-0.1,0.3-0.2,0.4-0.2h0c0.2,0,0.3,0.1,0.5,0.2c0.3,0.4,1,0.6,1.8,0.6c0.4,0,0.9-0.1,1.4-0.1c0.3-0.1,0.5-0.1,0.8-0.2
	c0.7-0.2,1.5-0.3,2.3-0.3H27c0.2,0,5.6,0.2,6.1,2c0.1,0.4,0,0.7-0.2,1.1c-0.7,1-2.6,1.3-4.7,1.5c-0.4,0.1-0.8,0.1-1,0.1
	c-1.5,0.4-2.3,1.4-3.2,2.5c-0.6,0.7-1.2,1.5-2,2.1c-0.8,0.6-1.8,0.8-2.6,0.9c-0.6,0.1-1.1,0.2-1.6,0.4c-0.5,0.2-0.6,0.4-0.6,0.5
	c0,0.3,0.7,1,1.2,1.4c0.9,0.8,1.8,1.6,1.7,2.6C20,30.3,18.2,30.5,17.2,30.6 M30.6,35.2c-0.1,0.3-0.2,0.5-0.3,0.7
	c-0.1,0.1-0.1,0.4-0.1,0.6c0,0.3,0,0.6-0.1,1c-0.3,0.8-0.8,1.1-1.3,1.4c-0.2,0.1-0.4,0.2-0.5,0.4c-0.5,0.4-0.7,1.3-1,2.1l-0.1,0.3
	c-0.1,0.2-0.2,0.4-0.2,0.6c-0.1,0.2-0.1,0.3-0.2,0.5c0,0.1,0,0.3,0,0.5c0,0.3,0,0.6-0.1,0.9c0,0.1,0,0.1,0,0.2c0,0.3,0,0.8-0.7,1.1
	c-0.2,0.1-0.5,0.2-0.7,0.2c0,0-0.2,0-0.2,0c-0.1,0-0.1,0-0.2-0.1l-0.4-0.2c-0.1,0-0.1-0.1-0.2-0.1c-0.5-0.5-0.7-1.2-0.7-1.6
	c-0.2-1.1-0.4-2.7-0.2-3.9c0-0.3,0.1-0.5,0.1-0.8c0.2-1,0.4-2.1,0.1-3c-0.2-0.6-0.7-1-1.3-1.5c-0.7-0.6-1.6-1.3-1.8-2.5
	c-0.1-0.9,0.1-1.7,0.6-2.3c0.7-0.8,1.8-1.3,3-1.3c0.4,0,0.8,0.1,1.2,0.2c0.2,0.1,0.5,0.1,0.8,0.2c0.8,0.2,1.8,0.4,2.7,0.8
	c0.7,0.3,1.2,0.6,1.5,0.9C32,32.1,31.2,33.8,30.6,35.2 M50.1,21c-0.2,0-0.3-0.1-0.4-0.2c-0.2-0.2-0.8-0.4-1.2-0.5
	c-0.2-0.1-0.4-0.1-0.6-0.2c-0.4-0.2-0.8-0.4-1.2-0.6c-0.2-0.1-0.4-0.2-0.6-0.3c-0.6-0.3-1-0.4-1.3-0.4c0,0,0,0,0,0
	c0,0-0.2,0.2-0.1,1.1c0,0.6,0.2,1.7,0.9,2.5c0.3,0.3,0.6,0.4,1.1,0.6c0.5,0.2,1,0.4,1.4,0.8c0.6,0.7,0.6,1.2,0.6,1.8l0,0.4
	c0,2.1-0.5,3.4-1.9,4.9c-0.2,0.2-0.4,0.4-0.6,0.6c-0.4,0.4-0.8,0.8-1.2,1.7c0,0.1-0.1,0.1-0.1,0.1c-0.8,1.6-2.2,3.3-3.5,3.3
	c-0.4,0-1.2-0.2-1.6-1.4c0,0,0-0.1,0-0.1l0-0.2c-0.1-0.9-0.2-1.8,0.2-2.9c0-0.1,0.1-0.3,0.2-0.4c0.2-0.6,0.6-1.5,0.4-2
	c-0.1-0.2-0.2-0.3-0.6-0.5c-0.2-0.1-0.5-0.2-0.8-0.4c-0.5-0.4-0.8-0.8-1.2-1.3c-0.2-0.3-0.4-0.6-0.5-0.9c-0.2-0.4-0.4-0.8-0.6-1
	c-0.4-0.3-0.9-0.6-1.4-0.8c-1.3-0.6-2.9-1.4-2.8-3.5c0-1.1,1.2-2.3,1.9-3c0.7-0.7,1.4-0.9,2.2-0.9c0.3,0,0.5,0,0.9,0.1l1,0.1
	c0.5,0,0.9,0.1,1.3,0.1c0.6,0,0.9-0.1,1.1-0.3c0.2-0.2,0.2-0.6,0.1-0.9c-0.1-0.9-0.3-0.9-1-1.1c-0.3-0.1-0.6-0.2-1-0.4
	c-1.4-0.7-2.3-1.2-2.1-2c0.1-0.8,1.1-1,2-1.1c0.1,0,0.2-0.3,0.3-0.5c0.1-0.3,0.3-0.6,0.6-0.9l0.2-0.1c0.1-0.1,0.3-0.1,0.4-0.1
	c0.1,0,0.2,0,0.3,0.1c4.5,1.9,8.1,5.5,10.1,10c0.1,0.3,0,0.6-0.2,0.8C50.4,21,50.3,21,50.1,21"/>
<path fill="#FFFFFF" d="M30.6,35.2c-0.1,0.3-0.2,0.5-0.3,0.7c-0.1,0.1-0.1,0.4-0.1,0.6c0,0.3,0,0.6-0.1,1c-0.3,0.8-0.8,1.1-1.3,1.4
	c-0.2,0.1-0.4,0.2-0.5,0.4c-0.5,0.4-0.7,1.3-1,2.1l-0.1,0.3c-0.1,0.2-0.2,0.4-0.2,0.6c-0.1,0.2-0.1,0.3-0.2,0.5c0,0.1,0,0.3,0,0.5
	c0,0.3,0,0.6-0.1,0.9c0,0.1,0,0.1,0,0.2c0,0.3,0,0.8-0.7,1.1c-0.2,0.1-0.5,0.2-0.7,0.2c0,0-0.2,0-0.2,0c-0.1,0-0.1,0-0.2-0.1
	l-0.4-0.2c-0.1,0-0.1-0.1-0.2-0.1c-0.5-0.5-0.7-1.2-0.7-1.6c-0.1-0.7-0.2-1.5-0.3-2.3c-0.1,1.1,0.1,2.4,0.3,3.3
	c0.1,0.4,0.2,1.1,0.7,1.6c0,0,0.1,0.1,0.2,0.1l0.4,0.2c0.1,0,0.1,0,0.2,0.1c0,0,0.2,0,0.2,0c0.2,0,0.5-0.1,0.7-0.2
	c0.7-0.3,0.7-0.9,0.7-1.1c0-0.1,0-0.2,0-0.2c0.1-0.3,0.1-0.6,0.1-0.9c0-0.2,0-0.4,0-0.5c0-0.2,0.1-0.3,0.2-0.5
	c0.1-0.2,0.2-0.4,0.2-0.6l0.1-0.3c0.2-0.7,0.5-1.6,1-2.1c0.1-0.1,0.3-0.2,0.5-0.4c0.5-0.3,1.1-0.6,1.3-1.4c0.1-0.3,0.1-0.7,0.1-1
	c0-0.2,0-0.4,0.1-0.6c0.1-0.3,0.2-0.5,0.3-0.7c0.4-0.9,0.9-1.9,0.7-2.9C31.2,33.9,30.9,34.6,30.6,35.2z M23.6,37.6
	c0-0.6,0-1.1-0.1-1.6c-0.2-0.6-0.7-1-1.3-1.5c-0.7-0.6-1.6-1.3-1.7-2.5c0,0.3-0.1,0.6,0,1c0.2,1.2,1,1.9,1.8,2.5
	c0.6,0.5,1.1,0.9,1.3,1.5C23.5,37.2,23.6,37.4,23.6,37.6z M33.1,16.9c0-0.1,0-0.1-0.1-0.2c0,0.1-0.1,0.2-0.1,0.2
	c-0.7,1-2.6,1.3-4.7,1.5c-0.4,0.1-0.8,0.1-1,0.1c-1.5,0.4-2.3,1.4-3.2,2.5c-0.6,0.7-1.2,1.5-2,2.1c-0.8,0.6-1.8,0.8-2.6,0.9
	c-0.6,0.1-1.1,0.2-1.6,0.4c-0.5,0.2-0.6,0.4-0.6,0.5c0,0.1,0.2,0.4,0.4,0.6c0.1,0,0.1-0.1,0.2-0.1c0.5-0.2,1-0.3,1.6-0.4
	c0.8-0.1,1.8-0.3,2.6-0.9c0.8-0.6,1.4-1.4,2-2.1c0.9-1.1,1.7-2.1,3.2-2.5c0.2,0,0.5-0.1,1-0.1c2.1-0.3,4-0.6,4.7-1.5
	C33.1,17.6,33.2,17.2,33.1,16.9z M33,6c-12.1,0-22,9.9-22,22c0,0.2,0,0.3,0,0.5C11.3,16.6,21,7,33,7c12,0,21.7,9.6,22,21.5
	c0-0.2,0-0.3,0-0.5C55,15.9,45.1,6,33,6z M17.2,30.6c-0.3,0-0.5,0-0.7,0c-0.9,0-1.4-0.3-2.1-0.7l-0.4-0.2c-0.2-0.1-0.4-0.3-0.4-0.6
	l0-0.3c0-0.1,0-0.2,0-0.3c0,0.2,0,0.3,0,0.4c0,0.3,0,0.6,0,0.9l0,0.3c0,0.3,0.2,0.5,0.4,0.6l0.4,0.2c0.7,0.4,1.1,0.7,2.1,0.7
	c0.2,0,0.4,0,0.7,0c1-0.1,2.8-0.3,2.9-1.6c0-0.2,0-0.5-0.1-0.7C19.7,30.3,18.1,30.5,17.2,30.6z M46.8,31.1c-0.2,0.2-0.4,0.4-0.6,0.6
	c-0.4,0.4-0.8,0.8-1.2,1.7c0,0.1-0.1,0.1-0.1,0.1c-0.8,1.6-2.2,3.3-3.5,3.3c-0.4,0-1.2-0.2-1.6-1.4c0,0,0-0.1,0-0.1l0-0.2
	c0-0.2,0-0.4-0.1-0.7c0,0.6,0,1.1,0.1,1.7l0,0.2c0,0,0,0.1,0,0.1c0.4,1.2,1.2,1.4,1.6,1.4c1.3,0,2.7-1.7,3.5-3.3c0,0,0-0.1,0.1-0.1
	c0.4-0.9,0.8-1.2,1.2-1.7c0.2-0.2,0.4-0.4,0.6-0.6c1.4-1.5,1.9-2.8,1.9-4.9l0-0.4c0-0.2,0-0.4,0-0.6C48.6,28.3,48.1,29.6,46.8,31.1z
	 M50.6,20.8C50.6,20.9,50.5,20.9,50.6,20.8C50.4,21,50.3,21,50.1,21c-0.2,0-0.3-0.1-0.4-0.2c-0.2-0.2-0.8-0.4-1.2-0.5
	c-0.2-0.1-0.4-0.1-0.6-0.2c-0.4-0.2-0.8-0.4-1.2-0.6c-0.2-0.1-0.4-0.2-0.6-0.3c-0.6-0.3-1-0.4-1.3-0.4c0,0,0,0,0,0
	c0,0-0.2,0.2-0.1,1.1c0,0.1,0,0.2,0,0.2c0-0.3,0.1-0.3,0.1-0.3c0,0,0,0,0,0c0.3,0,0.7,0.1,1.3,0.4c0.2,0.1,0.4,0.2,0.6,0.3
	c0.4,0.2,0.8,0.4,1.2,0.6c0.2,0.1,0.4,0.1,0.6,0.2c0.4,0.1,1,0.3,1.2,0.5C49.8,22,50,22,50.1,22c0.1,0,0.3,0,0.4-0.1
	c0.2-0.2,0.3-0.5,0.2-0.8C50.7,21,50.6,20.9,50.6,20.8z M40,16.2c0.6,0.2,0.8,0.3,0.9,0.9c0.1-0.2,0.1-0.5,0-0.8
	c-0.1-0.9-0.3-0.9-1-1.1c-0.3-0.1-0.6-0.2-1-0.4c-1-0.5-1.7-0.9-2-1.4c-0.1,0.1-0.1,0.2-0.1,0.3c-0.1,0.8,0.7,1.4,2.1,2
	C39.4,16,39.7,16.1,40,16.2z M40.5,30.6c0.1-0.3,0.1-0.7,0.1-0.9c-0.1-0.2-0.2-0.3-0.6-0.5c-0.2-0.1-0.5-0.2-0.8-0.4
	c-0.5-0.4-0.8-0.8-1.2-1.3c-0.2-0.3-0.4-0.6-0.5-0.9c-0.2-0.4-0.4-0.8-0.6-1c-0.4-0.3-0.9-0.6-1.4-0.8c-1.1-0.5-2.5-1.2-2.7-2.8
	c0,0.1,0,0.2,0,0.3c-0.1,2.1,1.5,2.9,2.8,3.5c0.5,0.3,1,0.5,1.4,0.8c0.2,0.2,0.4,0.6,0.6,1c0.2,0.3,0.3,0.7,0.5,0.9
	c0.4,0.5,0.7,0.9,1.2,1.3c0.3,0.2,0.5,0.3,0.8,0.4C40.2,30.4,40.4,30.5,40.5,30.6z"/>
</svg>
