<?xml version="1.0" encoding="utf-8"?>
<!-- Generator: Adobe Illustrator 16.0.3, SVG Export Plug-In . SVG Version: 6.00 Build 0)  -->
<!DOCTYPE svg PUBLIC "-//W3C//DTD SVG 1.1//EN" "http://www.w3.org/Graphics/SVG/1.1/DTD/svg11.dtd">
<svg version="1.1" id="Layer_1" xmlns="http://www.w3.org/2000/svg" xmlns:xlink="http://www.w3.org/1999/xlink" x="0px" y="0px"
	 width="30px" height="30px" viewBox="0 0 30 30" enable-background="new 0 0 30 30" xml:space="preserve">
<g id="DO_NOT_EDIT_-_BOUNDING_BOX">
	<rect id="BOUNDING_BOX" fill="none" width="30" height="30"/>
</g>
<g>
	<linearGradient id="SVGID_1_" gradientUnits="userSpaceOnUse" x1="15.0005" y1="22.3828" x2="15.0005" y2="7.9181">
		<stop  offset="0" style="stop-color:#FFFFFF"/>
		<stop  offset="1" style="stop-color:#7A7A7A"/>
	</linearGradient>
	<path fill="url(#SVGID_1_)" d="M14.947,7.842c-6.892,0-12.783,7.205-12.783,7.205S9.1,22.357,15.26,22.357
		s12.577-7.415,12.577-7.415S21.84,7.842,14.947,7.842z M15.26,20.857c-4.168,0-8.49-3.934-10.854-5.867
		c2.144-1.909,5.931-5.648,10.541-5.648c4.643,0,8.518,3.727,10.677,5.602C23.405,16.896,19.396,20.857,15.26,20.857z"/>
	<linearGradient id="SVGID_2_" gradientUnits="userSpaceOnUse" x1="15.4453" y1="22.3828" x2="15.4453" y2="7.9181">
		<stop  offset="0" style="stop-color:#FFFFFF"/>
		<stop  offset="1" style="stop-color:#7A7A7A"/>
	</linearGradient>
	<circle fill="url(#SVGID_2_)" cx="15.445" cy="15.033" r="3.779"/>
</g>
<g>
	<linearGradient id="SVGID_3_" gradientUnits="userSpaceOnUse" x1="15.0005" y1="21.4707" x2="15.0005" y2="6.8634">
		<stop  offset="0" style="stop-color:#5C5C5C"/>
		<stop  offset="1" style="stop-color:#000000"/>
	</linearGradient>
	<path fill="url(#SVGID_3_)" d="M14.947,6.842c-6.892,0-12.783,7.205-12.783,7.205S9.1,21.357,15.26,21.357
		s12.577-7.415,12.577-7.415S21.84,6.842,14.947,6.842z M15.26,19.857c-4.168,0-8.49-3.934-10.854-5.867
		c2.144-1.909,5.931-5.648,10.541-5.648c4.643,0,8.518,3.727,10.677,5.602C23.405,15.896,19.396,19.857,15.26,19.857z"/>
	<linearGradient id="SVGID_4_" gradientUnits="userSpaceOnUse" x1="15.4453" y1="21.4707" x2="15.4453" y2="6.8634">
		<stop  offset="0" style="stop-color:#5C5C5C"/>
		<stop  offset="1" style="stop-color:#000000"/>
	</linearGradient>
	<circle fill="url(#SVGID_4_)" cx="15.445" cy="14.033" r="3.779"/>
</g>
</svg>
