<?xml version="1.0" encoding="utf-8"?>
<!-- Generator: Adobe Illustrator 16.0.3, SVG Export Plug-In . SVG Version: 6.00 Build 0)  -->
<!DOCTYPE svg PUBLIC "-//W3C//DTD SVG 1.1//EN" "http://www.w3.org/Graphics/SVG/1.1/DTD/svg11.dtd">
<svg version="1.1" id="Warstwa_1" xmlns="http://www.w3.org/2000/svg" xmlns:xlink="http://www.w3.org/1999/xlink" x="0px" y="0px"
	 width="30px" height="30px" viewBox="0 0 30 30" enable-background="new 0 0 30 30" xml:space="preserve">
<g id="Warstwa_1_3_">
	<g id="Warstwa_1_4_">
		<g id="PLACE_YOUR_GRAPHIC_HERE_1_">
			<g>
				<linearGradient id="SVGID_1_" gradientUnits="userSpaceOnUse" x1="8.0342" y1="15.6406" x2="28.7793" y2="15.6406">
					<stop  offset="0" style="stop-color:#FFFFFF"/>
					<stop  offset="1" style="stop-color:#636363;stop-opacity:0.25"/>
				</linearGradient>
				<path opacity="0.15" fill="url(#SVGID_1_)" enable-background="new    " d="M28.779,8.46H8.034l10.373,7.979L28.779,8.46z
					 M8.034,9.971v12.054c0,0.438,0.359,0.797,0.797,0.797H27.98c0.438,0,0.799-0.357,0.799-0.797V9.971l-10.373,7.98L8.034,9.971z"
					/>
				
					<linearGradient id="SVGID_2_" gradientUnits="userSpaceOnUse" x1="119.3672" y1="-184.4214" x2="119.3672" y2="-170.0596" gradientTransform="matrix(1 0 0 -1 -100.96 -161.5996)">
					<stop  offset="0" style="stop-color:#FFFFFF"/>
					<stop  offset="1" style="stop-color:#636363;stop-opacity:0.25"/>
				</linearGradient>
				<path fill="url(#SVGID_2_)" d="M28.779,8.46H8.034l10.373,7.979L28.779,8.46z M8.034,9.971v12.054
					c0,0.438,0.359,0.797,0.797,0.797H27.98c0.438,0,0.799-0.357,0.799-0.797V9.971l-10.373,7.98L8.034,9.971z"/>
			</g>
		</g>
	</g>
</g>
<g id="Warstwa_2_2_">
	
		<linearGradient id="Pasek3_2_" gradientUnits="userSpaceOnUse" x1="105.043" y1="-174.1626" x2="105.043" y2="-170.1626" gradientTransform="matrix(1 0 0 -1 -100.96 -161.5996)">
		<stop  offset="0" style="stop-color:#FFFFFF"/>
		<stop  offset="1" style="stop-color:#636363;stop-opacity:0.25"/>
	</linearGradient>
	<path id="Pasek3_1_" fill="url(#Pasek3_2_)" d="M2.951,8.563c-1.1,0-2,0.899-2,2c0,1.1,0.9,2,2,2h4.264v-4H2.951z"/>
	
		<linearGradient id="Pasek2_2_" gradientUnits="userSpaceOnUse" x1="106.043" y1="-179.1616" x2="106.043" y2="-175.1626" gradientTransform="matrix(1 0 0 -1 -100.96 -161.5996)">
		<stop  offset="0" style="stop-color:#FFFFFF"/>
		<stop  offset="1" style="stop-color:#636363;stop-opacity:0.25"/>
	</linearGradient>
	<path id="Pasek2_1_" fill="url(#Pasek2_2_)" d="M2.951,15.563c0,1.101,0.9,2,2,2h2.264v-4H4.951
		C3.851,13.563,2.951,14.462,2.951,15.563z"/>
	
		<linearGradient id="Pasek1_2_" gradientUnits="userSpaceOnUse" x1="107.043" y1="-184.1616" x2="107.043" y2="-180.1616" gradientTransform="matrix(1 0 0 -1 -100.96 -161.5996)">
		<stop  offset="0" style="stop-color:#FFFFFF"/>
		<stop  offset="1" style="stop-color:#636363;stop-opacity:0.25"/>
	</linearGradient>
	<path id="Pasek1_1_" fill="url(#Pasek1_2_)" d="M4.951,20.563c0,1.102,0.9,2,2,2h0.264v-4H6.951
		C5.851,18.563,4.951,19.463,4.951,20.563z"/>
</g>
<g id="Warstwa_1_2_">
	<g id="Warstwa_1_1_">
		<g id="DO_NOT_EDIT_-_BOUNDING_BOX">
			<rect id="BOUNDING_BOX" x="6.438" y="1.875" fill="none" width="23.938" height="23.938"/>
		</g>
		<g id="PLACE_YOUR_GRAPHIC_HERE">
			<g>
				<rect x="6.438" y="1.875" fill="none" width="23.938" height="23.938"/>
				<rect x="6.438" y="1.875" fill="none" width="23.938" height="23.938"/>
				<path opacity="0.15" enable-background="new    " d="M28.779,7.46H8.034l10.373,7.98L28.779,7.46z M8.034,8.971v12.054
					c0,0.438,0.359,0.797,0.797,0.797H27.98c0.438,0,0.799-0.357,0.799-0.797V8.971l-10.373,7.98L8.034,8.971z"/>
				
					<linearGradient id="SVGID_3_" gradientUnits="userSpaceOnUse" x1="119.3672" y1="-183.4214" x2="119.3672" y2="-169.0596" gradientTransform="matrix(1 0 0 -1 -100.96 -161.5996)">
					<stop  offset="0" style="stop-color:#5C5C5C"/>
					<stop  offset="1" style="stop-color:#000000"/>
				</linearGradient>
				<path fill="url(#SVGID_3_)" d="M28.779,7.46H8.034l10.373,7.98L28.779,7.46z M8.034,8.971v12.054
					c0,0.438,0.359,0.797,0.797,0.797H27.98c0.438,0,0.799-0.357,0.799-0.797V8.971l-10.373,7.98L8.034,8.971z"/>
			</g>
		</g>
	</g>
</g>
<g id="Warstwa_2_1_">
	
		<linearGradient id="Pasek3_3_" gradientUnits="userSpaceOnUse" x1="105.043" y1="-173.1626" x2="105.043" y2="-169.1626" gradientTransform="matrix(1 0 0 -1 -100.96 -161.5996)">
		<stop  offset="0" style="stop-color:#333031"/>
		<stop  offset="1" style="stop-color:#000000"/>
	</linearGradient>
	<path id="Pasek3" fill="url(#Pasek3_3_)" d="M2.951,7.563c-1.1,0-2,0.899-2,2c0,1.1,0.9,2,2,2h4.264v-4H2.951z"/>
	
		<linearGradient id="Pasek2_3_" gradientUnits="userSpaceOnUse" x1="106.043" y1="-178.1616" x2="106.043" y2="-174.1626" gradientTransform="matrix(1 0 0 -1 -100.96 -161.5996)">
		<stop  offset="0" style="stop-color:#474646"/>
		<stop  offset="1" style="stop-color:#373535"/>
	</linearGradient>
	<path id="Pasek2" fill="url(#Pasek2_3_)" d="M2.951,14.563c0,1.1,0.9,2,2,2h2.264v-4H4.951C3.851,12.563,2.951,13.462,2.951,14.563
		z"/>
	
		<linearGradient id="Pasek1_3_" gradientUnits="userSpaceOnUse" x1="107.043" y1="-183.1616" x2="107.043" y2="-179.1616" gradientTransform="matrix(1 0 0 -1 -100.96 -161.5996)">
		<stop  offset="0" style="stop-color:#5C5C5C"/>
		<stop  offset="1" style="stop-color:#4B4A4A"/>
	</linearGradient>
	<path id="Pasek1" fill="url(#Pasek1_3_)" d="M4.951,19.563c0,1.102,0.9,2,2,2h0.264v-4H6.951
		C5.851,17.563,4.951,18.463,4.951,19.563z"/>
</g>
</svg>
