<?xml version="1.0" encoding="utf-8"?>
<!-- Generator: Adobe Illustrator 16.0.3, SVG Export Plug-In . SVG Version: 6.00 Build 0)  -->
<!DOCTYPE svg PUBLIC "-//W3C//DTD SVG 1.1//EN" "http://www.w3.org/Graphics/SVG/1.1/DTD/svg11.dtd">
<svg version="1.1" xmlns="http://www.w3.org/2000/svg" xmlns:xlink="http://www.w3.org/1999/xlink" x="0px" y="0px" width="30px"
	 height="30px" viewBox="0 0 30 30" enable-background="new 0 0 30 30" xml:space="preserve">
<g id="Warstwa_1">
	<linearGradient id="SVGID_1_" gradientUnits="userSpaceOnUse" x1="15.0005" y1="28.7871" x2="15.0005" y2="3.7129">
		<stop  offset="0" style="stop-color:#FFFFFF"/>
		<stop  offset="1" style="stop-color:#7A7A7A"/>
	</linearGradient>
	<path fill="url(#SVGID_1_)" d="M23.643,3.722v-0.01H6.446c-2.94,0-5.346,2.687-5.346,5.97v9.554c0,3.284,2.405,5.972,5.346,5.972
		h19.246l3.207,3.579V9.683C28.899,6.433,26.541,3.777,23.643,3.722z"/>
	<linearGradient id="SVGID_2_" gradientUnits="userSpaceOnUse" x1="15.0005" y1="27.4404" x2="15.0005" y2="2.3662">
		<stop  offset="0" style="stop-color:#5C5C5C"/>
		<stop  offset="1" style="stop-color:#000000"/>
	</linearGradient>
	<path fill="url(#SVGID_2_)" d="M23.643,2.375v-0.01H6.446c-2.94,0-5.346,2.687-5.346,5.97v9.554c0,3.284,2.405,5.972,5.346,5.972
		h19.246l3.207,3.579V8.336C28.899,5.086,26.541,2.431,23.643,2.375z"/>
</g>
<g id="Warstwa_2">
</g>
</svg>
