<?xml version="1.0" encoding="UTF-8" ?>
<!DOCTYPE svg PUBLIC "-//W3C//DTD SVG 1.1//EN" "http://www.w3.org/Graphics/SVG/1.1/DTD/svg11.dtd">
<svg width="64pt" height="64pt" viewBox="0 0 64 64" version="1.1" xmlns="http://www.w3.org/2000/svg">
<g id="#ffffffff">
<path fill="#ffffff" opacity="1.00" d=" M 27.50 12.79 C 35.23 9.42 45.18 15.36 45.27 23.92 C 46.12 30.92 40.11 37.71 33.09 37.78 C 25.99 38.49 19.19 32.19 19.46 25.03 C 19.14 19.76 22.64 14.70 27.50 12.79 M 23.89 29.06 C 25.99 32.20 28.88 35.44 32.97 35.54 C 37.09 35.48 40.00 32.22 42.11 29.06 C 36.04 28.96 29.96 28.96 23.89 29.06 Z" />
<path fill="#ffffff" opacity="1.00" d=" M 13.85 49.96 C 15.29 44.76 19.10 40.21 24.50 38.92 C 27.95 40.65 32.01 42.16 35.84 40.70 C 37.92 40.25 40.05 38.30 42.17 39.56 C 46.73 41.19 49.52 45.52 50.92 49.95 C 38.57 50.05 26.21 50.01 13.85 49.96 Z" />
<path fill="#ffffff" opacity="1.00" d=" M 15.17 53.18 C 18.17 51.26 22.02 54.70 20.85 57.93 C 20.28 60.80 16.16 61.77 14.28 59.65 C 12.59 57.83 12.99 54.42 15.17 53.18 Z" />
<path fill="#ffffff" opacity="1.00" d=" M 31.20 53.16 C 34.20 51.28 38.01 54.72 36.85 57.92 C 36.34 60.27 33.59 61.39 31.47 60.49 C 28.57 59.32 28.52 54.61 31.20 53.16 Z" />
<path fill="#ffffff" opacity="1.00" d=" M 47.17 53.18 C 50.16 51.27 53.99 54.67 52.86 57.89 C 52.36 60.28 49.54 61.42 47.39 60.46 C 44.57 59.23 44.55 54.64 47.17 53.18 Z" />
</g>
</svg>
