<?xml version="1.0" encoding="UTF-8" ?>
<!DOCTYPE svg PUBLIC "-//W3C//DTD SVG 1.1//EN" "http://www.w3.org/Graphics/SVG/1.1/DTD/svg11.dtd">
<svg width="64pt" height="64pt" viewBox="0 0 64 64" version="1.1" xmlns="http://www.w3.org/2000/svg">
<g id="#ffffffff">
<path fill="#ffffff" opacity="1.00" d=" M 27.49 12.79 C 35.20 9.44 45.14 15.32 45.27 23.86 C 46.16 30.87 40.14 37.71 33.10 37.77 C 25.98 38.50 19.17 32.17 19.46 25.00 C 19.16 19.73 22.65 14.70 27.49 12.79 M 23.88 29.06 C 26.00 32.20 28.89 35.46 32.99 35.54 C 37.11 35.47 40.00 32.21 42.12 29.06 C 36.04 28.97 29.96 28.96 23.88 29.06 Z" />
<path fill="#ffffff" opacity="1.00" d=" M 13.84 49.96 C 15.30 44.76 19.09 40.22 24.48 38.91 C 28.55 41.19 33.58 42.24 37.90 39.95 C 40.70 38.08 43.79 40.07 46.03 41.89 C 48.54 43.95 49.81 46.99 50.94 49.93 C 38.58 50.07 26.21 50.00 13.84 49.96 Z" />
</g>
</svg>
