<?xml version="1.0" encoding="UTF-8" ?>
<!DOCTYPE svg PUBLIC "-//W3C//DTD SVG 1.1//EN" "http://www.w3.org/Graphics/SVG/1.1/DTD/svg11.dtd">
<svg width="64pt" height="64pt" viewBox="0 0 64 64" version="1.1" xmlns="http://www.w3.org/2000/svg">
<g id="#ffffffff">
<path fill="#ffffff" opacity="1.00" d=" M 20.54 4.79 C 28.04 1.66 37.35 7.11 38.31 15.17 C 39.99 23.35 32.40 31.59 24.09 30.52 C 15.61 30.26 9.59 20.69 12.56 12.84 C 13.87 9.16 16.83 6.07 20.54 4.79 M 16.53 21.03 C 18.60 24.70 22.49 27.96 26.97 27.21 C 30.64 26.86 33.22 23.89 35.15 21.03 C 28.94 20.98 22.74 20.98 16.53 21.03 Z" />
<path fill="#ffffff" opacity="1.00" d=" M 5.98 43.99 C 7.48 38.47 11.38 33.43 17.12 31.96 C 22.08 34.53 28.13 34.75 33.23 32.44 C 38.89 33.72 42.93 38.51 44.35 43.98 C 31.56 44.02 18.77 44.00 5.98 43.99 Z" />
<path fill="#ffffff" opacity="1.00" d=" M 47.00 38.00 C 47.50 38.00 48.50 38.00 49.00 38.00 C 48.99 41.00 49.01 44.00 49.00 47.00 C 52.00 46.99 55.00 47.01 58.00 47.00 C 58.00 47.50 58.00 48.50 58.00 49.00 C 55.00 48.99 52.00 49.01 49.00 49.00 C 49.01 52.00 48.99 55.00 49.00 58.00 C 48.50 58.00 47.50 58.00 47.00 58.00 C 47.01 55.00 46.99 52.00 47.00 49.00 C 44.00 49.01 41.00 48.99 38.00 49.00 C 38.00 48.50 38.00 47.50 38.00 47.00 C 41.00 47.01 44.00 46.99 47.00 47.00 C 46.99 44.00 47.01 41.00 47.00 38.00 Z" />
</g>
</svg>
