<?xml version="1.0" encoding="UTF-8" ?>
<!DOCTYPE svg PUBLIC "-//W3C//DTD SVG 1.1//EN" "http://www.w3.org/Graphics/SVG/1.1/DTD/svg11.dtd">
<svg width="64pt" height="64pt" viewBox="0 0 64 64" version="1.1" xmlns="http://www.w3.org/2000/svg">
<g id="#ffffffff">
<path fill="#ffffff" opacity="1.00" d=" M 27.45 12.81 C 35.22 9.38 45.25 15.39 45.28 24.01 C 46.08 30.98 40.09 37.69 33.11 37.78 C 26.00 38.50 19.19 32.20 19.45 25.03 C 19.15 19.77 22.62 14.73 27.45 12.81 M 23.89 29.06 C 25.99 32.22 28.91 35.46 33.01 35.54 C 37.11 35.45 40.01 32.22 42.10 29.06 C 36.04 28.97 29.96 28.96 23.89 29.06 Z" />
<path fill="#ffffff" opacity="1.00" d=" M 13.85 49.96 C 15.29 44.75 19.12 40.17 24.54 38.92 C 27.99 40.69 32.07 42.15 35.91 40.69 C 37.95 40.20 40.07 38.32 42.19 39.57 C 46.72 41.22 49.57 45.51 50.90 49.96 C 38.55 50.03 26.20 50.02 13.85 49.96 Z" />
</g>
</svg>
