<?xml version="1.0" encoding="utf-8"?>
<!-- Generator: Adobe Illustrator 17.1.0, SVG Export Plug-In . SVG Version: 6.00 Build 0)  -->
<!DOCTYPE svg PUBLIC "-//W3C//DTD SVG 1.1//EN" "http://www.w3.org/Graphics/SVG/1.1/DTD/svg11.dtd">
<svg version="1.1" xmlns="http://www.w3.org/2000/svg" xmlns:xlink="http://www.w3.org/1999/xlink" x="0px" y="0px"
	 viewBox="0 0 96 96" enable-background="new 0 0 96 96" xml:space="preserve">
<g id="DO_NOT_EDIT_-_BOUNDING_BOX">
	<rect id="BOUNDING_BOX" fill="none" width="96" height="96"/>
</g>
<g id="DO_NOT_EDIT_-_SHADOW">
	<path id="SHADOW" opacity="0.4" d="M88,49c0,29.6-10.4,40-40,40C18.4,89,8,78.6,8,49C8,19.4,18.4,9,48,9C77.7,9,88,19.4,88,49z"/>
</g>
<g id="PLACE_YOUR_GRAPHIC_HERE">
	<g>
		<g>
			<rect x="7.9" y="8.8" fill="none" width="79.2" height="79.2"/>
			<linearGradient id="SVGID_1_" gradientUnits="userSpaceOnUse" x1="47.577" y1="1.361" x2="47.577" y2="67.0227">
				<stop  offset="0" style="stop-color:#6D84B3"/>
				<stop  offset="1" style="stop-color:#3C5A98"/>
			</linearGradient>
			<path fill="url(#SVGID_1_)" d="M87.2,48.4c0,29.4-10.3,39.6-39.6,39.6C18.2,88.1,8,77.8,8,48.4C8,19.1,18.2,8.8,47.6,8.8
				C76.9,8.8,87.2,19.1,87.2,48.4z"/>
		</g>
		<g>
			<path fill="#6D84B3" d="M9.9,66.3C14,82.1,25.3,88.1,47.6,88.1c22.3,0,33.6-6,37.7-21.7H9.9z"/>
		</g>
		<linearGradient id="SVGID_2_" gradientUnits="userSpaceOnUse" x1="47.5314" y1="11.5644" x2="47.5314" y2="70.7608">
			<stop  offset="0" style="stop-color:#FFFFFF"/>
			<stop  offset="1" style="stop-color:#FFFFFF;stop-opacity:0"/>
		</linearGradient>
		<path opacity="0.15" fill="url(#SVGID_2_)" d="M47.5,8.8C18.2,8.8,7.9,19.1,7.9,48.4c0,29.4,10.3,39.6,39.6,39.6
			c29.3,0,39.6-10.3,39.6-39.6C87.1,19.1,76.9,8.8,47.5,8.8z M47.5,87.1c-28.9,0-38.6-9.7-38.6-38.6c0-28.9,9.7-38.6,38.6-38.6
			s38.6,9.7,38.6,38.6C86.1,77.3,76.4,87.1,47.5,87.1z"/>
		<path fill="#FFFFFF" d="M49,77.1V51.7h-6.7v-9.1H49c0,0,0-3.7,0-7.8C49,28.7,53,23,62.1,23c3.7,0,6.4,0.4,6.4,0.4l-0.2,8.5
			c0,0-2.8,0-5.8,0c-3.3,0-3.8,1.5-3.8,4c0,2,0-4.2,0,6.7h9.9l-0.4,9.1h-9.5v25.4H49z"/>
		<linearGradient id="SVGID_3_" gradientUnits="userSpaceOnUse" x1="47.577" y1="138.7827" x2="47.577" y2="68.374">
			<stop  offset="0" style="stop-color:#000000"/>
			<stop  offset="0.9946" style="stop-color:#000000;stop-opacity:0"/>
		</linearGradient>
		<path opacity="0.53" fill="url(#SVGID_3_)" d="M87.2,48.4c0,29.4-10.3,39.6-39.6,39.6C18.2,88.1,8,77.8,8,48.4
			C8,19.1,18.2,8.8,47.6,8.8C76.9,8.8,87.2,19.1,87.2,48.4z"/>
	</g>
</g>
<g id="CUT_AWAY_SOURROUND_SHAPE">
	<path id="CUT_AWAY_SHAPE_1_" fill="none" d="M48,88C18.4,88,8,77.6,8,48C8,18.3,18.4,8,48,8c29.6,0,40,10.4,40,40
		C88,77.6,77.6,88,48,88z"/>
</g>
<g id="DO_NOT_EDIT_-_FOCAL_ZONE_GUIDES_ONLY" display="none">
</g>
<g id="_DO_NOT_EDIT_-_HIGHLIGHTS">
	
		<linearGradient id="HIGHLIGHT_RIM_1_" gradientUnits="userSpaceOnUse" x1="47.9998" y1="3.759570e-005" x2="47.9998" y2="144.6664">
		<stop  offset="0" style="stop-color:#FFFFFF"/>
		<stop  offset="1" style="stop-color:#000000"/>
	</linearGradient>
	<path id="HIGHLIGHT_RIM" fill="url(#HIGHLIGHT_RIM_1_)" fill-opacity="0.25" d="M48,8C18.4,8,8,18.3,8,48c0,29.6,10.4,40,40,40
		c29.6,0,40-10.4,40-40C88,18.3,77.6,8,48,8z M48,87C18.8,87,9,77.2,9,48C9,18.8,18.8,9,48,9c29.2,0,39,9.8,39,39
		C87,77.2,77.2,87,48,87z"/>
	<g id="DARK_BEVEL">
		<path id="SQUIRCLE" display="none" fill="#FFFFFF" fill-opacity="5.000000e-002" d="M48,88C18.4,88,8,77.6,8,48
			C8,18.3,18.4,8,48,8c29.6,0,40,10.4,40,40C88,77.6,77.6,88,48,88z"/>
		<path opacity="2.000000e-002" d="M9.5,64.3C13.2,81.5,24.6,88,48,88c23.4,0,34.8-6.5,38.5-23.7H9.5z"/>
		<path opacity="2.000000e-002" d="M10.2,67.3C14.7,82.3,26,88,48,88c22,0,33.3-5.7,37.8-20.7H10.2z"/>
		<path opacity="2.000000e-002" d="M11.3,70.3C16.3,83,27.6,88,48,88c20.4,0,31.7-4.9,36.7-17.7H11.3z"/>
		<path opacity="2.000000e-002" d="M12.6,73.3C18.2,83.8,29.2,88,48,88c18.8,0,29.8-4.2,35.4-14.7H12.6z"/>
		<path opacity="2.000000e-002" d="M13.8,75.3C19.7,84.3,30.5,88,48,88c17.5,0,28.3-3.6,34.2-12.7H13.8z"/>
		<path opacity="2.000000e-002" d="M15.3,77.3C21.4,84.9,31.8,88,48,88c16.2,0,26.6-3.1,32.7-10.7H15.3z"/>
		<path fill-opacity="2.000000e-002" d="M17.1,79.3C23.4,85.4,33.3,88,48,88c14.7,0,24.6-2.6,30.9-8.7H17.1z"/>
	</g>
	<g id="LIGHT_BEVEL">
		<path opacity="1.000000e-002" fill="#FFFFFF" d="M48,9C18.4,9,8,19.3,8,49c0,2.9,0.1,5.6,0.3,8.1l0.2,0h79l0.2,0
			c0.2-2.5,0.3-5.2,0.3-8.1C88,19.3,77.6,9,48,9z"/>
		<path opacity="1.000000e-002" fill="#FFFFFF" d="M48,8C18.4,8,8,18.3,8,48c0,1.1,0,2.1,0,3.1l0.7,0.1h78.5l0.7-0.1c0-1,0-2,0-3.1
			C88,18.3,77.6,8,48,8z"/>
		<path opacity="1.000000e-002" fill="#FFFFFF" d="M9,46.1H87L88,46C87.5,17.9,77,8,48,8C19,8,8.5,17.9,8,46L9,46.1z"/>
		<path opacity="1.000000e-002" fill="#FFFFFF" d="M9.2,41.1h77.6l1-0.1C86.1,16.7,75.2,8,48,8C20.8,8,9.9,16.7,8.2,41L9.2,41.1z"/>
		<path opacity="1.000000e-002" fill="#FFFFFF" d="M9.2,37.1h77.6c0.2,0,0.4,0,0.6-0.1C84.9,15.8,73.6,8,48,8
			C22.4,8,11.1,15.8,8.6,37.1C8.8,37.1,9,37.1,9.2,37.1z"/>
		<path opacity="1.000000e-002" fill="#FFFFFF" d="M48,8C24,8,12.6,14.8,9.2,33.1h77.6C83.4,14.8,72,8,48,8z"/>
		<path opacity="1.000000e-002" fill="#FFFFFF" d="M84.1,29.7l1.6-0.4c0.1,0,0.2-0.1,0.2-0.1C81.6,13.8,70.2,8,48,8
			c-22.2,0-33.6,5.8-37.9,21.2c0.1,0,0.2,0.1,0.2,0.1l1.6,0.4c0.2,0.1,0.5,0.1,0.7,0.1h70.8C83.6,29.8,83.8,29.7,84.1,29.7z"/>
		<path opacity="1.000000e-002" fill="#FFFFFF" d="M12.6,26.8h70.8l1.6-0.4C80.1,13.1,68.8,8,48,8c-20.8,0-32.1,5.1-37,18.4
			L12.6,26.8z"/>
		<path opacity="1.000000e-002" fill="#FFFFFF" d="M12.6,24.8h70.8c0.3,0,0.6-0.1,0.9-0.2C79,12.6,67.8,8,48,8
			c-19.8,0-31,4.6-36.2,16.6C12,24.7,12.3,24.8,12.6,24.8z"/>
		<path opacity="1.000000e-002" fill="#FFFFFF" d="M83.4,22.8C77.8,12.2,66.8,8,48,8c-18.8,0-29.8,4.2-35.4,14.8H83.4z"/>
	</g>
</g>
</svg>
